<?xml version="1.0" encoding="UTF-8" standalone="no"?>
<svg
   version="1.1"
   width="4.810760cm"
   height="6.217920cm"
   viewBox="0 0 48107600 62179200"
   id="svg164443"
   sodipodi:docname="StepperDriverModuleCarrier-B_Mask.svg"
   inkscape:version="1.2-dev (71f65390d8, 2021-08-04, custom)"
   xmlns:inkscape="http://www.inkscape.org/namespaces/inkscape"
   xmlns:sodipodi="http://sodipodi.sourceforge.net/DTD/sodipodi-0.dtd"
   xmlns="http://www.w3.org/2000/svg"
   xmlns:svg="http://www.w3.org/2000/svg">
  <defs
     id="defs164447" />
  <sodipodi:namedview
     id="namedview164445"
     pagecolor="#ffffff"
     bordercolor="#666666"
     borderopacity="1.0"
     inkscape:pageshadow="2"
     inkscape:pageopacity="0.0"
     inkscape:pagecheckerboard="0"
     inkscape:document-units="cm"
     showgrid="false"
     inkscape:zoom="3.1828705"
     inkscape:cx="4.5556362"
     inkscape:cy="117.504"
     inkscape:window-width="3200"
     inkscape:window-height="1739"
     inkscape:window-x="0"
     inkscape:window-y="0"
     inkscape:window-maximized="1"
     inkscape:current-layer="svg164443" />
  <title
     id="title163737">SVG Picture created as StepperDriverModuleCarrier-B_Mask.svg date 2021/08/06 13:20:09 </title>
  <desc
     id="desc163739">Picture generated by PCBNEW </desc>
  <g
     style="fill:#000000; fill-opacity:1.000000;stroke:#000000; stroke-opacity:1.000000; stroke-linecap:round; stroke-linejoin:round;"
     transform="translate(0 0) scale(1 1)"
     id="g163741" />
  <g
     id="g163743"
     style="fill:#000000;fill-opacity:0;stroke:#000000;stroke-width:0;stroke-linecap:round;stroke-linejoin:round;stroke-opacity:1" />
  <g
     id="g163745"
     style="fill:#000000;fill-opacity:0;stroke:#000000;stroke-width:0;stroke-linecap:round;stroke-linejoin:round;stroke-opacity:1" />
  <g
     id="g163747"
     style="fill:#000000;fill-opacity:0;stroke:#000000;stroke-width:0;stroke-linecap:round;stroke-linejoin:round;stroke-opacity:1" />
  <g
     style="fill:#000000;fill-opacity:0;stroke:#000000;stroke-width:0;stroke-linecap:round;stroke-linejoin:round;stroke-opacity:1"
     id="g163749" />
  <g
     style="fill:#000000;fill-opacity:0;stroke:#000000;stroke-width:1;stroke-linecap:round;stroke-linejoin:round;stroke-opacity:1"
     id="g163751" />
  <g
     style="fill:#000000;fill-opacity:1;stroke:#000000;stroke-width:21200;stroke-linecap:round;stroke-linejoin:round;stroke-opacity:1"
     id="g163759" />
  <g
     style="fill:#000000;fill-opacity:1;stroke:#000000;stroke-width:21200;stroke-linecap:round;stroke-linejoin:round;stroke-opacity:1"
     id="g163765" />
  <g
     id="g163771"
     style="fill:#000000;fill-opacity:0;stroke:#000000;stroke-width:0;stroke-linecap:round;stroke-linejoin:round;stroke-opacity:1" />
  <g
     id="g163773"
     style="fill:#000000;fill-opacity:0;stroke:#000000;stroke-width:0;stroke-linecap:round;stroke-linejoin:round;stroke-opacity:1" />
  <g
     style="fill:#000000;fill-opacity:1;stroke:#000000;stroke-width:1.7e+06;stroke-linecap:round;stroke-linejoin:round;stroke-opacity:1"
     id="g163779" />
  <g
     id="g163789"
     style="fill:#000000;fill-opacity:0;stroke:#000000;stroke-width:0;stroke-linecap:round;stroke-linejoin:round;stroke-opacity:1" />
  <g
     id="g163791"
     style="fill:#000000;fill-opacity:0;stroke:#000000;stroke-width:0;stroke-linecap:round;stroke-linejoin:round;stroke-opacity:1" />
  <g
     id="g163793"
     style="fill:#000000;fill-opacity:0;stroke:#000000;stroke-width:0;stroke-linecap:round;stroke-linejoin:round;stroke-opacity:1" />
  <g
     id="g163795"
     style="fill:#000000;fill-opacity:0;stroke:#000000;stroke-width:0;stroke-linecap:round;stroke-linejoin:round;stroke-opacity:1" />
  <g
     id="g163797"
     style="fill:#000000;fill-opacity:0;stroke:#000000;stroke-width:0;stroke-linecap:round;stroke-linejoin:round;stroke-opacity:1" />
  <g
     id="g163799"
     style="fill:#000000;fill-opacity:0;stroke:#000000;stroke-width:0;stroke-linecap:round;stroke-linejoin:round;stroke-opacity:1" />
  <g
     style="fill:#000000;fill-opacity:0;stroke:#000000;stroke-width:1.7e+06;stroke-linecap:round;stroke-linejoin:round;stroke-opacity:1"
     id="g163801" />
  <g
     style="fill:#000000;fill-opacity:0;stroke:#000000;stroke-width:1;stroke-linecap:round;stroke-linejoin:round;stroke-opacity:1"
     id="g163803" />
  <g
     id="g163845"
     style="fill:#000000;fill-opacity:0;stroke:#000000;stroke-width:0;stroke-linecap:round;stroke-linejoin:round;stroke-opacity:1" />
  <g
     id="g163847"
     style="fill:#000000;fill-opacity:0;stroke:#000000;stroke-width:0;stroke-linecap:round;stroke-linejoin:round;stroke-opacity:1" />
  <g
     id="g163849"
     style="fill:#000000;fill-opacity:0;stroke:#000000;stroke-width:0;stroke-linecap:round;stroke-linejoin:round;stroke-opacity:1" />
  <g
     id="g163851"
     style="fill:#000000;fill-opacity:0;stroke:#000000;stroke-width:0;stroke-linecap:round;stroke-linejoin:round;stroke-opacity:1" />
  <g
     id="g163853"
     style="fill:#000000;fill-opacity:0;stroke:#000000;stroke-width:0;stroke-linecap:round;stroke-linejoin:round;stroke-opacity:1" />
  <g
     style="fill:#000000;fill-opacity:1;stroke:#000000;stroke-width:21200;stroke-linecap:round;stroke-linejoin:round;stroke-opacity:1"
     id="g163859" />
  <g
     id="g163861"
     style="fill:#000000;fill-opacity:0;stroke:#000000;stroke-width:0;stroke-linecap:round;stroke-linejoin:round;stroke-opacity:1" />
  <g
     id="g163863"
     style="fill:#000000;fill-opacity:0;stroke:#000000;stroke-width:0;stroke-linecap:round;stroke-linejoin:round;stroke-opacity:1" />
  <g
     id="g163865"
     style="fill:#000000;fill-opacity:0;stroke:#000000;stroke-width:0;stroke-linecap:round;stroke-linejoin:round;stroke-opacity:1" />
  <g
     id="g163867"
     style="fill:#000000;fill-opacity:0;stroke:#000000;stroke-width:0;stroke-linecap:round;stroke-linejoin:round;stroke-opacity:1" />
  <g
     style="fill:#000000;fill-opacity:1;stroke:#000000;stroke-width:21200;stroke-linecap:round;stroke-linejoin:round;stroke-opacity:1"
     id="g163869" />
  <g
     style="fill:#000000;fill-opacity:1;stroke:#000000;stroke-width:1.7e+06;stroke-linecap:round;stroke-linejoin:round;stroke-opacity:1"
     id="g163875" />
  <g
     id="g163885"
     style="fill:#000000;fill-opacity:0;stroke:#000000;stroke-width:0;stroke-linecap:round;stroke-linejoin:round;stroke-opacity:1" />
  <g
     id="g163887"
     style="fill:#000000;fill-opacity:0;stroke:#000000;stroke-width:0;stroke-linecap:round;stroke-linejoin:round;stroke-opacity:1" />
  <g
     id="g163889"
     style="fill:#000000;fill-opacity:0;stroke:#000000;stroke-width:0;stroke-linecap:round;stroke-linejoin:round;stroke-opacity:1" />
  <g
     id="g163891"
     style="fill:#000000;fill-opacity:0;stroke:#000000;stroke-width:0;stroke-linecap:round;stroke-linejoin:round;stroke-opacity:1" />
  <g
     id="g163893"
     style="fill:#000000;fill-opacity:0;stroke:#000000;stroke-width:0;stroke-linecap:round;stroke-linejoin:round;stroke-opacity:1" />
  <g
     style="fill:#000000;fill-opacity:0;stroke:#000000;stroke-width:1.7e+06;stroke-linecap:round;stroke-linejoin:round;stroke-opacity:1"
     id="g163895" />
  <g
     style="fill:#000000;fill-opacity:1;stroke:#000000;stroke-width:21200;stroke-linecap:round;stroke-linejoin:round;stroke-opacity:1"
     id="g163901" />
  <g
     id="g163903"
     style="fill:#000000;fill-opacity:0;stroke:#000000;stroke-width:0;stroke-linecap:round;stroke-linejoin:round;stroke-opacity:1" />
  <g
     id="g163905"
     style="fill:#000000;fill-opacity:0;stroke:#000000;stroke-width:0;stroke-linecap:round;stroke-linejoin:round;stroke-opacity:1" />
  <g
     id="g163907"
     style="fill:#000000;fill-opacity:0;stroke:#000000;stroke-width:0;stroke-linecap:round;stroke-linejoin:round;stroke-opacity:1" />
  <g
     id="g163909"
     style="fill:#000000;fill-opacity:0;stroke:#000000;stroke-width:0;stroke-linecap:round;stroke-linejoin:round;stroke-opacity:1" />
  <g
     id="g163911"
     style="fill:#000000;fill-opacity:0;stroke:#000000;stroke-width:0;stroke-linecap:round;stroke-linejoin:round;stroke-opacity:1" />
  <g
     id="g163913"
     style="fill:#000000;fill-opacity:0;stroke:#000000;stroke-width:0;stroke-linecap:round;stroke-linejoin:round;stroke-opacity:1" />
  <g
     id="g163915"
     style="fill:#000000;fill-opacity:0;stroke:#000000;stroke-width:0;stroke-linecap:round;stroke-linejoin:round;stroke-opacity:1" />
  <g
     id="g163917"
     style="fill:#000000;fill-opacity:0;stroke:#000000;stroke-width:0;stroke-linecap:round;stroke-linejoin:round;stroke-opacity:1" />
  <g
     style="fill:#000000;fill-opacity:1;stroke:#000000;stroke-width:21200;stroke-linecap:round;stroke-linejoin:round;stroke-opacity:1"
     id="g163919" />
  <g
     style="fill:#000000;fill-opacity:1;stroke:#000000;stroke-width:21200;stroke-linecap:round;stroke-linejoin:round;stroke-opacity:1"
     id="g163927" />
  <g
     id="g163929"
     style="fill:#000000;fill-opacity:0;stroke:#000000;stroke-width:0;stroke-linecap:round;stroke-linejoin:round;stroke-opacity:1" />
  <g
     id="g163931"
     style="fill:#000000;fill-opacity:0;stroke:#000000;stroke-width:0;stroke-linecap:round;stroke-linejoin:round;stroke-opacity:1" />
  <g
     id="g163933"
     style="fill:#000000;fill-opacity:0;stroke:#000000;stroke-width:0;stroke-linecap:round;stroke-linejoin:round;stroke-opacity:1" />
  <g
     id="g163935"
     style="fill:#000000;fill-opacity:0;stroke:#000000;stroke-width:0;stroke-linecap:round;stroke-linejoin:round;stroke-opacity:1" />
  <g
     id="g163937"
     style="fill:#000000;fill-opacity:0;stroke:#000000;stroke-width:0;stroke-linecap:round;stroke-linejoin:round;stroke-opacity:1" />
  <g
     style="fill:#000000;fill-opacity:1;stroke:#000000;stroke-width:21200;stroke-linecap:round;stroke-linejoin:round;stroke-opacity:1"
     id="g163939" />
  <g
     style="fill:#000000;fill-opacity:1;stroke:#000000;stroke-width:21200;stroke-linecap:round;stroke-linejoin:round;stroke-opacity:1"
     id="g163947" />
  <g
     id="g163949"
     style="fill:#000000;fill-opacity:0;stroke:#000000;stroke-width:0;stroke-linecap:round;stroke-linejoin:round;stroke-opacity:1" />
  <g
     id="g163951"
     style="fill:#000000;fill-opacity:0;stroke:#000000;stroke-width:0;stroke-linecap:round;stroke-linejoin:round;stroke-opacity:1" />
  <g
     id="g163953"
     style="fill:#000000;fill-opacity:0;stroke:#000000;stroke-width:0;stroke-linecap:round;stroke-linejoin:round;stroke-opacity:1" />
  <g
     style="fill:#000000;fill-opacity:1;stroke:#000000;stroke-width:21200;stroke-linecap:round;stroke-linejoin:round;stroke-opacity:1"
     id="g163955" />
  <g
     style="fill:#000000;fill-opacity:1;stroke:#000000;stroke-width:21200;stroke-linecap:round;stroke-linejoin:round;stroke-opacity:1"
     id="g163963" />
  <g
     id="g163965"
     style="fill:#000000;fill-opacity:0;stroke:#000000;stroke-width:0;stroke-linecap:round;stroke-linejoin:round;stroke-opacity:1" />
  <g
     id="g163967"
     style="fill:#000000;fill-opacity:0;stroke:#000000;stroke-width:0;stroke-linecap:round;stroke-linejoin:round;stroke-opacity:1" />
  <g
     id="g163969"
     style="fill:#000000;fill-opacity:0;stroke:#000000;stroke-width:0;stroke-linecap:round;stroke-linejoin:round;stroke-opacity:1" />
  <g
     id="g163971"
     style="fill:#000000;fill-opacity:0;stroke:#000000;stroke-width:0;stroke-linecap:round;stroke-linejoin:round;stroke-opacity:1" />
  <g
     style="fill:#000000;fill-opacity:1;stroke:#000000;stroke-width:21200;stroke-linecap:round;stroke-linejoin:round;stroke-opacity:1"
     id="g163973" />
  <g
     id="g164015"
     style="fill:#000000;fill-opacity:0;stroke:#000000;stroke-width:0;stroke-linecap:round;stroke-linejoin:round;stroke-opacity:1" />
  <g
     id="g164017"
     style="fill:#000000;fill-opacity:0;stroke:#000000;stroke-width:0;stroke-linecap:round;stroke-linejoin:round;stroke-opacity:1" />
  <g
     id="g164019"
     style="fill:#000000;fill-opacity:0;stroke:#000000;stroke-width:0;stroke-linecap:round;stroke-linejoin:round;stroke-opacity:1" />
  <g
     id="g164021"
     style="fill:#000000;fill-opacity:0;stroke:#000000;stroke-width:0;stroke-linecap:round;stroke-linejoin:round;stroke-opacity:1" />
  <g
     id="g164023"
     style="fill:#000000;fill-opacity:0;stroke:#000000;stroke-width:0;stroke-linecap:round;stroke-linejoin:round;stroke-opacity:1" />
  <g
     id="g164025"
     style="fill:#000000;fill-opacity:0;stroke:#000000;stroke-width:0;stroke-linecap:round;stroke-linejoin:round;stroke-opacity:1" />
  <g
     id="g164027"
     style="fill:#000000;fill-opacity:0;stroke:#000000;stroke-width:0;stroke-linecap:round;stroke-linejoin:round;stroke-opacity:1" />
  <g
     id="g164029"
     style="fill:#000000;fill-opacity:0;stroke:#000000;stroke-width:0;stroke-linecap:round;stroke-linejoin:round;stroke-opacity:1" />
  <g
     style="fill:#000000;fill-opacity:1;stroke:#000000;stroke-width:21200;stroke-linecap:round;stroke-linejoin:round;stroke-opacity:1"
     id="g164037" />
  <g
     id="g164039"
     style="fill:#000000;fill-opacity:0;stroke:#000000;stroke-width:0;stroke-linecap:round;stroke-linejoin:round;stroke-opacity:1" />
  <g
     style="fill:#000000;fill-opacity:1;stroke:#000000;stroke-width:21200;stroke-linecap:round;stroke-linejoin:round;stroke-opacity:1"
     id="g164041" />
  <g
     id="g164083"
     style="fill:#000000;fill-opacity:0;stroke:#000000;stroke-width:0;stroke-linecap:round;stroke-linejoin:round;stroke-opacity:1" />
  <g
     id="g164085"
     style="fill:#000000;fill-opacity:0;stroke:#000000;stroke-width:0;stroke-linecap:round;stroke-linejoin:round;stroke-opacity:1" />
  <g
     style="fill:#000000;fill-opacity:1;stroke:#000000;stroke-width:21200;stroke-linecap:round;stroke-linejoin:round;stroke-opacity:1"
     id="g164091" />
  <g
     id="g164093"
     style="fill:#000000;fill-opacity:0;stroke:#000000;stroke-width:0;stroke-linecap:round;stroke-linejoin:round;stroke-opacity:1" />
  <g
     id="g164095"
     style="fill:#000000;fill-opacity:0;stroke:#000000;stroke-width:0;stroke-linecap:round;stroke-linejoin:round;stroke-opacity:1" />
  <g
     id="g164097"
     style="fill:#000000;fill-opacity:0;stroke:#000000;stroke-width:0;stroke-linecap:round;stroke-linejoin:round;stroke-opacity:1" />
  <g
     id="g164099"
     style="fill:#000000;fill-opacity:0;stroke:#000000;stroke-width:0;stroke-linecap:round;stroke-linejoin:round;stroke-opacity:1" />
  <g
     style="fill:#000000;fill-opacity:1;stroke:#000000;stroke-width:21200;stroke-linecap:round;stroke-linejoin:round;stroke-opacity:1"
     id="g164101" />
  <g
     style="fill:#000000;fill-opacity:1;stroke:#000000;stroke-width:21200;stroke-linecap:round;stroke-linejoin:round;stroke-opacity:1"
     id="g164107" />
  <g
     id="g164109"
     style="fill:#000000;fill-opacity:0;stroke:#000000;stroke-width:0;stroke-linecap:round;stroke-linejoin:round;stroke-opacity:1" />
  <g
     id="g164111"
     style="fill:#000000;fill-opacity:0;stroke:#000000;stroke-width:0;stroke-linecap:round;stroke-linejoin:round;stroke-opacity:1" />
  <g
     id="g164113"
     style="fill:#000000;fill-opacity:0;stroke:#000000;stroke-width:0;stroke-linecap:round;stroke-linejoin:round;stroke-opacity:1" />
  <g
     id="g164115"
     style="fill:#000000;fill-opacity:0;stroke:#000000;stroke-width:0;stroke-linecap:round;stroke-linejoin:round;stroke-opacity:1" />
  <g
     id="g164117"
     style="fill:#000000;fill-opacity:0;stroke:#000000;stroke-width:0;stroke-linecap:round;stroke-linejoin:round;stroke-opacity:1" />
  <g
     id="g164119"
     style="fill:#000000;fill-opacity:0;stroke:#000000;stroke-width:0;stroke-linecap:round;stroke-linejoin:round;stroke-opacity:1" />
  <g
     style="fill:#000000;fill-opacity:1;stroke:#000000;stroke-width:21200;stroke-linecap:round;stroke-linejoin:round;stroke-opacity:1"
     id="g164121" />
  <g
     id="g164163"
     style="fill:#000000;fill-opacity:0;stroke:#000000;stroke-width:0;stroke-linecap:round;stroke-linejoin:round;stroke-opacity:1" />
  <g
     id="g164165"
     style="fill:#000000;fill-opacity:0;stroke:#000000;stroke-width:0;stroke-linecap:round;stroke-linejoin:round;stroke-opacity:1" />
  <g
     style="fill:#000000;fill-opacity:1;stroke:#000000;stroke-width:21200;stroke-linecap:round;stroke-linejoin:round;stroke-opacity:1"
     id="g164171" />
  <g
     id="g164173"
     style="fill:#000000;fill-opacity:0;stroke:#000000;stroke-width:0;stroke-linecap:round;stroke-linejoin:round;stroke-opacity:1" />
  <g
     id="g164175"
     style="fill:#000000;fill-opacity:0;stroke:#000000;stroke-width:0;stroke-linecap:round;stroke-linejoin:round;stroke-opacity:1" />
  <g
     id="g164177"
     style="fill:#000000;fill-opacity:0;stroke:#000000;stroke-width:0;stroke-linecap:round;stroke-linejoin:round;stroke-opacity:1" />
  <g
     id="g164179"
     style="fill:#000000;fill-opacity:0;stroke:#000000;stroke-width:0;stroke-linecap:round;stroke-linejoin:round;stroke-opacity:1" />
  <g
     style="fill:#000000;fill-opacity:1;stroke:#000000;stroke-width:21200;stroke-linecap:round;stroke-linejoin:round;stroke-opacity:1"
     id="g164181" />
  <g
     style="fill:#000000;fill-opacity:1;stroke:#000000;stroke-width:21200;stroke-linecap:round;stroke-linejoin:round;stroke-opacity:1"
     id="g164187" />
  <g
     id="g164189"
     style="fill:#000000;fill-opacity:0;stroke:#000000;stroke-width:0;stroke-linecap:round;stroke-linejoin:round;stroke-opacity:1" />
  <g
     id="g164191"
     style="fill:#000000;fill-opacity:0;stroke:#000000;stroke-width:0;stroke-linecap:round;stroke-linejoin:round;stroke-opacity:1" />
  <g
     id="g164193"
     style="fill:#000000;fill-opacity:0;stroke:#000000;stroke-width:0;stroke-linecap:round;stroke-linejoin:round;stroke-opacity:1" />
  <g
     style="fill:#000000;fill-opacity:1;stroke:#000000;stroke-width:21200;stroke-linecap:round;stroke-linejoin:round;stroke-opacity:1"
     id="g164195" />
  <g
     style="fill:#000000;fill-opacity:1;stroke:#000000;stroke-width:21200;stroke-linecap:round;stroke-linejoin:round;stroke-opacity:1"
     id="g164203" />
  <g
     id="g164205"
     style="fill:#000000;fill-opacity:0;stroke:#000000;stroke-width:0;stroke-linecap:round;stroke-linejoin:round;stroke-opacity:1" />
  <g
     id="g164207"
     style="fill:#000000;fill-opacity:0;stroke:#000000;stroke-width:0;stroke-linecap:round;stroke-linejoin:round;stroke-opacity:1" />
  <g
     id="g164209"
     style="fill:#000000;fill-opacity:0;stroke:#000000;stroke-width:0;stroke-linecap:round;stroke-linejoin:round;stroke-opacity:1" />
  <g
     style="fill:#000000;fill-opacity:1;stroke:#000000;stroke-width:21200;stroke-linecap:round;stroke-linejoin:round;stroke-opacity:1"
     id="g164211" />
  <g
     style="fill:#000000;fill-opacity:1;stroke:#000000;stroke-width:1.7e+06;stroke-linecap:round;stroke-linejoin:round;stroke-opacity:1"
     id="g164217" />
  <g
     id="g164227"
     style="fill:#000000;fill-opacity:0;stroke:#000000;stroke-width:0;stroke-linecap:round;stroke-linejoin:round;stroke-opacity:1" />
  <g
     style="fill:#000000;fill-opacity:0;stroke:#000000;stroke-width:1.7e+06;stroke-linecap:round;stroke-linejoin:round;stroke-opacity:1"
     id="g164229" />
  <g
     style="fill:#000000;fill-opacity:1;stroke:#000000;stroke-width:21200;stroke-linecap:round;stroke-linejoin:round;stroke-opacity:1"
     id="g164235" />
  <g
     id="g164237"
     style="fill:#000000;fill-opacity:0;stroke:#000000;stroke-width:0;stroke-linecap:round;stroke-linejoin:round;stroke-opacity:1" />
  <g
     style="fill:#000000;fill-opacity:1;stroke:#000000;stroke-width:21200;stroke-linecap:round;stroke-linejoin:round;stroke-opacity:1"
     id="g164239" />
  <g
     style="fill:#000000;fill-opacity:1;stroke:#000000;stroke-width:21200;stroke-linecap:round;stroke-linejoin:round;stroke-opacity:1"
     id="g164247" />
  <g
     id="g164249"
     style="fill:#000000;fill-opacity:0;stroke:#000000;stroke-width:0;stroke-linecap:round;stroke-linejoin:round;stroke-opacity:1" />
  <g
     id="g164251"
     style="fill:#000000;fill-opacity:0;stroke:#000000;stroke-width:0;stroke-linecap:round;stroke-linejoin:round;stroke-opacity:1" />
  <g
     id="g164253"
     style="fill:#000000;fill-opacity:0;stroke:#000000;stroke-width:0;stroke-linecap:round;stroke-linejoin:round;stroke-opacity:1" />
  <g
     style="fill:#000000;fill-opacity:1;stroke:#000000;stroke-width:21200;stroke-linecap:round;stroke-linejoin:round;stroke-opacity:1"
     id="g164255" />
  <g
     style="fill:#000000;fill-opacity:1;stroke:#000000;stroke-width:1.7e+06;stroke-linecap:round;stroke-linejoin:round;stroke-opacity:1"
     id="g164261" />
  <g
     id="g164271"
     style="fill:#000000;fill-opacity:0;stroke:#000000;stroke-width:0;stroke-linecap:round;stroke-linejoin:round;stroke-opacity:1" />
  <g
     id="g164273"
     style="fill:#000000;fill-opacity:0;stroke:#000000;stroke-width:0;stroke-linecap:round;stroke-linejoin:round;stroke-opacity:1" />
  <g
     id="g164275"
     style="fill:#000000;fill-opacity:0;stroke:#000000;stroke-width:0;stroke-linecap:round;stroke-linejoin:round;stroke-opacity:1" />
  <g
     id="g164277"
     style="fill:#000000;fill-opacity:0;stroke:#000000;stroke-width:0;stroke-linecap:round;stroke-linejoin:round;stroke-opacity:1" />
  <g
     style="fill:#000000;fill-opacity:0;stroke:#000000;stroke-width:1.7e+06;stroke-linecap:round;stroke-linejoin:round;stroke-opacity:1"
     id="g164279" />
  <g
     style="fill:#000000;fill-opacity:0;stroke:#000000;stroke-width:1;stroke-linecap:round;stroke-linejoin:round;stroke-opacity:1"
     id="g164281" />
  <g
     id="g164333"
     style="fill:#000000;fill-opacity:0;stroke:#000000;stroke-width:0;stroke-linecap:round;stroke-linejoin:round;stroke-opacity:1" />
  <g
     style="fill:#000000;fill-opacity:1;stroke:#000000;stroke-width:21200;stroke-linecap:round;stroke-linejoin:round;stroke-opacity:1"
     id="g164341" />
  <g
     id="g164343"
     style="fill:#000000;fill-opacity:0;stroke:#000000;stroke-width:0;stroke-linecap:round;stroke-linejoin:round;stroke-opacity:1" />
  <g
     style="fill:#000000;fill-opacity:1;stroke:#000000;stroke-width:21200;stroke-linecap:round;stroke-linejoin:round;stroke-opacity:1"
     id="g164345" />
  <g
     id="g164355"
     style="fill:#000000;fill-opacity:0;stroke:#000000;stroke-width:0;stroke-linecap:round;stroke-linejoin:round;stroke-opacity:1" />
  <g
     id="g164365"
     style="fill:#000000;fill-opacity:0;stroke:#000000;stroke-width:0;stroke-linecap:round;stroke-linejoin:round;stroke-opacity:1" />
  <g
     id="g164375"
     style="fill:#000000;fill-opacity:0;stroke:#000000;stroke-width:0;stroke-linecap:round;stroke-linejoin:round;stroke-opacity:1" />
  <g
     id="g164385"
     style="fill:#000000;fill-opacity:0;stroke:#000000;stroke-width:0;stroke-linecap:round;stroke-linejoin:round;stroke-opacity:1" />
  <g
     id="g164395"
     style="fill:#000000;fill-opacity:0;stroke:#000000;stroke-width:0;stroke-linecap:round;stroke-linejoin:round;stroke-opacity:1" />
  <g
     id="g164405"
     style="fill:#000000;fill-opacity:0;stroke:#000000;stroke-width:0;stroke-linecap:round;stroke-linejoin:round;stroke-opacity:1" />
  <g
     id="g164415"
     style="fill:#000000;fill-opacity:0;stroke:#000000;stroke-width:0;stroke-linecap:round;stroke-linejoin:round;stroke-opacity:1" />
  <g
     id="g164425"
     style="fill:#000000;fill-opacity:0;stroke:#000000;stroke-width:0;stroke-linecap:round;stroke-linejoin:round;stroke-opacity:1" />
  <g
     id="g183826">
    <path
       style="fill:#ffde00;fill-opacity:1;fill-rule:evenodd;stroke:#ffde00;stroke-width:1;stroke-linecap:round;stroke-linejoin:round;stroke-opacity:1"
       d="m 12484961,46198810 97772,7695 150445,43708 134850,79750 110780,110780 79750,134850 43708,150445 7695,97772 v 1250000 l -7695,97772 -43708,150445 -79750,134850 -110780,110780 -134850,79750 -150445,43708 -97772,7695 h -1250000 l -97772,-7695 -150445,-43708 -134850,-79750 -110780,-110780 -79750,-134850 -43708,-150445 -7695,-97772 v -1250000 l 7695,-97772 43708,-150445 79750,-134850 110780,-110780 134850,-79750 150445,-43708 97772,-7695 z"
       id="path163753" />
    <circle
       cx="11859961"
       cy="47448808"
       r="800000"
       id="circle163755"
       style="fill:#ffde00;fill-opacity:1;stroke:#ffde00;stroke-width:1;stroke-linecap:round;stroke-linejoin:round;stroke-opacity:1" />
    <circle
       cx="11859961"
       cy="52448808"
       r="800000"
       id="circle163761"
       style="fill:#ffde00;fill-opacity:1;stroke:#ffde00;stroke-width:1;stroke-linecap:round;stroke-linejoin:round;stroke-opacity:1" />
    <path
       style="fill:#ffde00;fill-opacity:1;fill-rule:evenodd;stroke:#ffde00;stroke-width:1;stroke-linecap:round;stroke-linejoin:round;stroke-opacity:1"
       d="m 12484961,51198810 97772,7695 150445,43708 134850,79750 110780,110780 79750,134850 43708,150445 7695,97772 v 1250000 l -7695,97772 -43708,150445 -79750,134850 -110780,110780 -134850,79750 -150445,43708 -97772,7695 h -1250000 l -97772,-7695 -150445,-43708 -134850,-79750 -110780,-110780 -79750,-134850 -43708,-150445 -7695,-97772 v -1250000 l 7695,-97772 43708,-150445 79750,-134850 110780,-110780 134850,-79750 150445,-43708 97772,-7695 z"
       id="path163767" />
    <path
       style="fill:#ffde00;fill-opacity:1;fill-rule:evenodd;stroke:#ffde00;stroke-width:1;stroke-linecap:round;stroke-linejoin:round;stroke-opacity:1"
       d="m 4859961,36998810 -95671,-19030 -81106,-54193 -54193,-81106 -19030,-95671 v -1200000 l 19030,-95671 54193,-81106 81106,-54193 95671,-19030 h 1450000 l 95671,19030 81106,54193 54193,81106 19030,95671 v 1200000 l -19030,95671 -54193,81106 -81106,54193 -95671,19030 z"
       id="path163775" />
    <path
       d="m 5459961,33648810 h 250000"
       id="path163781"
       style="fill:#ffde00;fill-opacity:1;stroke:#ffde00;stroke-width:1700000;stroke-linecap:round;stroke-linejoin:round;stroke-opacity:1" />
    <path
       d="m 5459961,31148810 h 250000"
       id="path163783"
       style="fill:#ffde00;fill-opacity:1;stroke:#ffde00;stroke-width:1700000;stroke-linecap:round;stroke-linejoin:round;stroke-opacity:1" />
    <path
       d="m 5459961,28648810 h 250000"
       id="path163785"
       style="fill:#ffde00;fill-opacity:1;stroke:#ffde00;stroke-width:1700000;stroke-linecap:round;stroke-linejoin:round;stroke-opacity:1" />
    <path
       style="fill:#ffde00;fill-opacity:1;fill-rule:evenodd;stroke:#ffde00;stroke-width:1;stroke-linecap:round;stroke-linejoin:round;stroke-opacity:1"
       d="m 25709961,2308510 11657,-107303 49733,-132665 84969,-113373 113373,-84969 132665,-49733 107303,-11657 h 900600 l 107303,11657 132665,49733 113373,84969 84969,113373 49733,132665 11657,107303 v 900600 l -11657,107303 -49733,132665 -84969,113373 -113373,84969 -132665,49733 -107303,11657 h -900600 l -107303,-11657 -132665,-49733 -113373,-84969 -84969,-113373 -49733,-132665 -11657,-107303 z"
       id="path163805" />
    <path
       style="fill:#ffde00;fill-opacity:1;fill-rule:evenodd;stroke:#ffde00;stroke-width:1;stroke-linecap:round;stroke-linejoin:round;stroke-opacity:1"
       d="m 25709961,4848510 11657,-107303 49733,-132665 84969,-113373 113373,-84969 132665,-49733 107303,-11657 h 900600 l 107303,11657 132665,49733 113373,84969 84969,113373 49733,132665 11657,107303 v 900600 l -11657,107303 -49733,132665 -84969,113373 -113373,84969 -132665,49733 -107303,11657 h -900600 l -107303,-11657 -132665,-49733 -113373,-84969 -84969,-113373 -49733,-132665 -11657,-107303 z"
       id="path163807" />
    <path
       style="fill:#ffde00;fill-opacity:1;fill-rule:evenodd;stroke:#ffde00;stroke-width:1;stroke-linecap:round;stroke-linejoin:round;stroke-opacity:1"
       d="m 25709961,7388510 11657,-107303 49733,-132665 84969,-113373 113373,-84969 132665,-49733 107303,-11657 h 900600 l 107303,11657 132665,49733 113373,84969 84969,113373 49733,132665 11657,107303 v 900600 l -11657,107303 -49733,132665 -84969,113373 -113373,84969 -132665,49733 -107303,11657 h -900600 l -107303,-11657 -132665,-49733 -113373,-84969 -84969,-113373 -49733,-132665 -11657,-107303 z"
       id="path163809" />
    <path
       style="fill:#ffde00;fill-opacity:1;fill-rule:evenodd;stroke:#ffde00;stroke-width:1;stroke-linecap:round;stroke-linejoin:round;stroke-opacity:1"
       d="m 25709961,9928510 11657,-107303 49733,-132665 84969,-113373 113373,-84969 132665,-49733 107303,-11657 h 900600 l 107303,11657 132665,49733 113373,84969 84969,113373 49733,132665 11657,107303 v 900600 l -11657,107303 -49733,132665 -84969,113373 -113373,84969 -132665,49733 -107303,11657 h -900600 l -107303,-11657 -132665,-49733 -113373,-84969 -84969,-113373 -49733,-132665 -11657,-107303 z"
       id="path163811" />
    <path
       style="fill:#ffde00;fill-opacity:1;fill-rule:evenodd;stroke:#ffde00;stroke-width:1;stroke-linecap:round;stroke-linejoin:round;stroke-opacity:1"
       d="m 25709961,12468510 11657,-107303 49733,-132665 84969,-113373 113373,-84969 132665,-49733 107303,-11657 h 900600 l 107303,11657 132665,49733 113373,84969 84969,113373 49733,132665 11657,107303 v 900600 l -11657,107303 -49733,132665 -84969,113373 -113373,84969 -132665,49733 -107303,11657 h -900600 l -107303,-11657 -132665,-49733 -113373,-84969 -84969,-113373 -49733,-132665 -11657,-107303 z"
       id="path163813" />
    <path
       style="fill:#ffde00;fill-opacity:1;fill-rule:evenodd;stroke:#ffde00;stroke-width:1;stroke-linecap:round;stroke-linejoin:round;stroke-opacity:1"
       d="m 25709961,15008510 11657,-107303 49733,-132665 84969,-113373 113373,-84969 132665,-49733 107303,-11657 h 900600 l 107303,11657 132665,49733 113373,84969 84969,113373 49733,132665 11657,107303 v 900600 l -11657,107303 -49733,132665 -84969,113373 -113373,84969 -132665,49733 -107303,11657 h -900600 l -107303,-11657 -132665,-49733 -113373,-84969 -84969,-113373 -49733,-132665 -11657,-107303 z"
       id="path163815" />
    <path
       style="fill:#ffde00;fill-opacity:1;fill-rule:evenodd;stroke:#ffde00;stroke-width:1;stroke-linecap:round;stroke-linejoin:round;stroke-opacity:1"
       d="m 25709961,17548510 11657,-107303 49733,-132665 84969,-113373 113373,-84969 132665,-49733 107303,-11657 h 900600 l 107303,11657 132665,49733 113373,84969 84969,113373 49733,132665 11657,107303 v 900600 l -11657,107303 -49733,132665 -84969,113373 -113373,84969 -132665,49733 -107303,11657 h -900600 l -107303,-11657 -132665,-49733 -113373,-84969 -84969,-113373 -49733,-132665 -11657,-107303 z"
       id="path163817" />
    <path
       style="fill:#ffde00;fill-opacity:1;fill-rule:evenodd;stroke:#ffde00;stroke-width:1;stroke-linecap:round;stroke-linejoin:round;stroke-opacity:1"
       d="m 25709961,20088510 11657,-107303 49733,-132665 84969,-113373 113373,-84969 132665,-49733 107303,-11657 h 900600 l 107303,11657 132665,49733 113373,84969 84969,113373 49733,132665 11657,107303 v 900600 l -11657,107303 -49733,132665 -84969,113373 -113373,84969 -132665,49733 -107303,11657 h -900600 l -107303,-11657 -132665,-49733 -113373,-84969 -84969,-113373 -49733,-132665 -11657,-107303 z"
       id="path163819" />
    <path
       style="fill:#ffde00;fill-opacity:1;fill-rule:evenodd;stroke:#ffde00;stroke-width:1;stroke-linecap:round;stroke-linejoin:round;stroke-opacity:1"
       d="m 38409961,20088510 11657,-107303 49733,-132665 84969,-113373 113373,-84969 132665,-49733 107303,-11657 h 900600 l 107303,11657 132665,49733 113373,84969 84969,113373 49733,132665 11657,107303 v 900600 l -11657,107303 -49733,132665 -84969,113373 -113373,84969 -132665,49733 -107303,11657 h -900600 l -107303,-11657 -132665,-49733 -113373,-84969 -84969,-113373 -49733,-132665 -11657,-107303 z"
       id="path163821" />
    <path
       style="fill:#ffde00;fill-opacity:1;fill-rule:evenodd;stroke:#ffde00;stroke-width:1;stroke-linecap:round;stroke-linejoin:round;stroke-opacity:1"
       d="m 38409961,17548510 11657,-107303 49733,-132665 84969,-113373 113373,-84969 132665,-49733 107303,-11657 h 900600 l 107303,11657 132665,49733 113373,84969 84969,113373 49733,132665 11657,107303 v 900600 l -11657,107303 -49733,132665 -84969,113373 -113373,84969 -132665,49733 -107303,11657 h -900600 l -107303,-11657 -132665,-49733 -113373,-84969 -84969,-113373 -49733,-132665 -11657,-107303 z"
       id="path163823" />
    <path
       style="fill:#ffde00;fill-opacity:1;fill-rule:evenodd;stroke:#ffde00;stroke-width:1;stroke-linecap:round;stroke-linejoin:round;stroke-opacity:1"
       d="m 38409961,15008510 11657,-107303 49733,-132665 84969,-113373 113373,-84969 132665,-49733 107303,-11657 h 900600 l 107303,11657 132665,49733 113373,84969 84969,113373 49733,132665 11657,107303 v 900600 l -11657,107303 -49733,132665 -84969,113373 -113373,84969 -132665,49733 -107303,11657 h -900600 l -107303,-11657 -132665,-49733 -113373,-84969 -84969,-113373 -49733,-132665 -11657,-107303 z"
       id="path163825" />
    <path
       style="fill:#ffde00;fill-opacity:1;fill-rule:evenodd;stroke:#ffde00;stroke-width:1;stroke-linecap:round;stroke-linejoin:round;stroke-opacity:1"
       d="m 38409961,12468510 11657,-107303 49733,-132665 84969,-113373 113373,-84969 132665,-49733 107303,-11657 h 900600 l 107303,11657 132665,49733 113373,84969 84969,113373 49733,132665 11657,107303 v 900600 l -11657,107303 -49733,132665 -84969,113373 -113373,84969 -132665,49733 -107303,11657 h -900600 l -107303,-11657 -132665,-49733 -113373,-84969 -84969,-113373 -49733,-132665 -11657,-107303 z"
       id="path163827" />
    <path
       style="fill:#ffde00;fill-opacity:1;fill-rule:evenodd;stroke:#ffde00;stroke-width:1;stroke-linecap:round;stroke-linejoin:round;stroke-opacity:1"
       d="m 38409961,9928510 11657,-107303 49733,-132665 84969,-113373 113373,-84969 132665,-49733 107303,-11657 h 900600 l 107303,11657 132665,49733 113373,84969 84969,113373 49733,132665 11657,107303 v 900600 l -11657,107303 -49733,132665 -84969,113373 -113373,84969 -132665,49733 -107303,11657 h -900600 l -107303,-11657 -132665,-49733 -113373,-84969 -84969,-113373 -49733,-132665 -11657,-107303 z"
       id="path163829" />
    <path
       style="fill:#ffde00;fill-opacity:1;fill-rule:evenodd;stroke:#ffde00;stroke-width:1;stroke-linecap:round;stroke-linejoin:round;stroke-opacity:1"
       d="m 38409961,7388510 11657,-107303 49733,-132665 84969,-113373 113373,-84969 132665,-49733 107303,-11657 h 900600 l 107303,11657 132665,49733 113373,84969 84969,113373 49733,132665 11657,107303 v 900600 l -11657,107303 -49733,132665 -84969,113373 -113373,84969 -132665,49733 -107303,11657 h -900600 l -107303,-11657 -132665,-49733 -113373,-84969 -84969,-113373 -49733,-132665 -11657,-107303 z"
       id="path163831" />
    <path
       style="fill:#ffde00;fill-opacity:1;fill-rule:evenodd;stroke:#ffde00;stroke-width:1;stroke-linecap:round;stroke-linejoin:round;stroke-opacity:1"
       d="m 38409961,4848510 11657,-107303 49733,-132665 84969,-113373 113373,-84969 132665,-49733 107303,-11657 h 900600 l 107303,11657 132665,49733 113373,84969 84969,113373 49733,132665 11657,107303 v 900600 l -11657,107303 -49733,132665 -84969,113373 -113373,84969 -132665,49733 -107303,11657 h -900600 l -107303,-11657 -132665,-49733 -113373,-84969 -84969,-113373 -49733,-132665 -11657,-107303 z"
       id="path163833" />
    <path
       style="fill:#ffde00;fill-opacity:1;fill-rule:evenodd;stroke:#ffde00;stroke-width:1;stroke-linecap:round;stroke-linejoin:round;stroke-opacity:1"
       d="m 38409961,2308510 11657,-107303 49733,-132665 84969,-113373 113373,-84969 132665,-49733 107303,-11657 h 900600 l 107303,11657 132665,49733 113373,84969 84969,113373 49733,132665 11657,107303 v 900600 l -11657,107303 -49733,132665 -84969,113373 -113373,84969 -132665,49733 -107303,11657 h -900600 l -107303,-11657 -132665,-49733 -113373,-84969 -84969,-113373 -49733,-132665 -11657,-107303 z"
       id="path163835" />
    <path
       style="fill:#ffde00;fill-opacity:1;fill-rule:evenodd;stroke:#ffde00;stroke-width:1;stroke-linecap:round;stroke-linejoin:round;stroke-opacity:1"
       d="m 30789961,2308510 11657,-107303 49733,-132665 84969,-113373 113373,-84969 132665,-49733 107303,-11657 h 900600 l 107303,11657 132665,49733 113373,84969 84969,113373 49733,132665 11657,107303 v 900600 l -11657,107303 -49733,132665 -84969,113373 -113373,84969 -132665,49733 -107303,11657 h -900600 l -107303,-11657 -132665,-49733 -113373,-84969 -84969,-113373 -49733,-132665 -11657,-107303 z"
       id="path163837" />
    <path
       style="fill:#ffde00;fill-opacity:1;fill-rule:evenodd;stroke:#ffde00;stroke-width:1;stroke-linecap:round;stroke-linejoin:round;stroke-opacity:1"
       d="m 28249961,2308510 11657,-107303 49733,-132665 84969,-113373 113373,-84969 132665,-49733 107303,-11657 h 900600 l 107303,11657 132665,49733 113373,84969 84969,113373 49733,132665 11657,107303 v 900600 l -11657,107303 -49733,132665 -84969,113373 -113373,84969 -132665,49733 -107303,11657 h -900600 l -107303,-11657 -132665,-49733 -113373,-84969 -84969,-113373 -49733,-132665 -11657,-107303 z"
       id="path163839" />
    <path
       style="fill:#ffde00;fill-opacity:1;fill-rule:evenodd;stroke:#ffde00;stroke-width:1;stroke-linecap:round;stroke-linejoin:round;stroke-opacity:1"
       d="m 29519961,4441210 20458,-155395 59980,-144805 95415,-124347 124347,-95415 144805,-59980 155395,-20458 h 699200 l 155395,20458 144805,59980 124347,95415 95415,124347 59980,144805 20458,155395 v 699200 l -20458,155395 -59980,144805 -95415,124347 -124347,95415 -144805,59980 -155395,20458 h -699200 l -155395,-20458 -144805,-59980 -124347,-95415 -95415,-124347 -59980,-144805 -20458,-155395 z"
       id="path163841" />
    <circle
       cx="6109961"
       cy="4198810"
       r="1800000"
       id="circle163855"
       style="fill:#ffde00;fill-opacity:1;stroke:#ffde00;stroke-width:1;stroke-linecap:round;stroke-linejoin:round;stroke-opacity:1" />
    <path
       style="fill:#ffde00;fill-opacity:1;fill-rule:evenodd;stroke:#ffde00;stroke-width:1;stroke-linecap:round;stroke-linejoin:round;stroke-opacity:1"
       d="m 4859961,18298810 -95671,-19030 -81106,-54193 -54193,-81106 -19030,-95671 v -1200000 l 19030,-95671 54193,-81106 81106,-54193 95671,-19030 h 1450000 l 95671,19030 81106,54193 54193,81106 19030,95671 v 1200000 l -19030,95671 -54193,81106 -81106,54193 -95671,19030 z"
       id="path163871" />
    <path
       d="m 5459961,14948810 h 250000"
       id="path163877"
       style="fill:#ffde00;fill-opacity:1;stroke:#ffde00;stroke-width:1700000;stroke-linecap:round;stroke-linejoin:round;stroke-opacity:1" />
    <path
       d="m 5459961,12448810 h 250000"
       id="path163879"
       style="fill:#ffde00;fill-opacity:1;stroke:#ffde00;stroke-width:1700000;stroke-linecap:round;stroke-linejoin:round;stroke-opacity:1" />
    <path
       d="m 5459961,9948810 h 250000"
       id="path163881"
       style="fill:#ffde00;fill-opacity:1;stroke:#ffde00;stroke-width:1700000;stroke-linecap:round;stroke-linejoin:round;stroke-opacity:1" />
    <circle
       cx="46109960"
       cy="7198810"
       r="650000"
       id="circle163897"
       style="fill:#ffde00;fill-opacity:1;stroke:#ffde00;stroke-width:1;stroke-linecap:round;stroke-linejoin:round;stroke-opacity:1" />
    <path
       style="fill:#ffde00;fill-opacity:1;fill-rule:evenodd;stroke:#ffde00;stroke-width:1;stroke-linecap:round;stroke-linejoin:round;stroke-opacity:1"
       d="m 7909960,40948811 v 1599998 H 6309962 v -1599998 z"
       id="path163921" />
    <circle
       cx="5109961"
       cy="41748808"
       r="800000"
       id="circle163923"
       style="fill:#ffde00;fill-opacity:1;stroke:#ffde00;stroke-width:1;stroke-linecap:round;stroke-linejoin:round;stroke-opacity:1" />
    <path
       style="fill:#ffde00;fill-opacity:1;fill-rule:evenodd;stroke:#ffde00;stroke-width:1;stroke-linecap:round;stroke-linejoin:round;stroke-opacity:1"
       d="m 42353226,9273444 1131369,-1131369 1131369,1131369 -1131369,1131369 z"
       id="path163941" />
    <circle
       cx="44898808"
       cy="10687658"
       r="800000"
       id="circle163943"
       style="fill:#ffde00;fill-opacity:1;stroke:#ffde00;stroke-width:1;stroke-linecap:round;stroke-linejoin:round;stroke-opacity:1" />
    <path
       style="fill:#ffde00;fill-opacity:1;fill-rule:evenodd;stroke:#ffde00;stroke-width:1;stroke-linecap:round;stroke-linejoin:round;stroke-opacity:1"
       d="m 16239462,24963065 68262,-52380 107565,-39151 h 114470 l 107565,39151 68262,52380 665246,665246 52380,68262 39151,107565 v 114470 l -39151,107565 -52380,68262 -665246,665246 -68262,52380 -107565,39151 h -114470 l -107565,-39151 -68262,-52380 -665246,-665246 -52380,-68262 -39151,-107565 v -114470 l 39151,-107565 52380,-68262 z"
       id="path163957" />
    <circle
       cx="18947398"
       cy="28336248"
       r="800000"
       id="circle163959"
       style="fill:#ffde00;fill-opacity:1;stroke:#ffde00;stroke-width:1;stroke-linecap:round;stroke-linejoin:round;stroke-opacity:1" />
    <path
       style="fill:#ffde00;fill-opacity:1;fill-rule:evenodd;stroke:#ffde00;stroke-width:1;stroke-linecap:round;stroke-linejoin:round;stroke-opacity:1"
       d="m 24509961,41839110 -11657,107303 -49733,132665 -84969,113373 -113373,84969 -132665,49733 -107303,11657 h -900600 l -107303,-11657 -132665,-49733 -113373,-84969 -84969,-113373 -49733,-132665 -11657,-107303 v -900600 l 11657,-107303 49733,-132665 84969,-113373 113373,-84969 132665,-49733 107303,-11657 h 900600 l 107303,11657 132665,49733 113373,84969 84969,113373 49733,132665 11657,107303 z"
       id="path163975" />
    <path
       style="fill:#ffde00;fill-opacity:1;fill-rule:evenodd;stroke:#ffde00;stroke-width:1;stroke-linecap:round;stroke-linejoin:round;stroke-opacity:1"
       d="m 24509961,39299110 -11657,107303 -49733,132665 -84969,113373 -113373,84969 -132665,49733 -107303,11657 h -900600 l -107303,-11657 -132665,-49733 -113373,-84969 -84969,-113373 -49733,-132665 -11657,-107303 v -900600 l 11657,-107303 49733,-132665 84969,-113373 113373,-84969 132665,-49733 107303,-11657 h 900600 l 107303,11657 132665,49733 113373,84969 84969,113373 49733,132665 11657,107303 z"
       id="path163977" />
    <path
       style="fill:#ffde00;fill-opacity:1;fill-rule:evenodd;stroke:#ffde00;stroke-width:1;stroke-linecap:round;stroke-linejoin:round;stroke-opacity:1"
       d="m 24509961,36759110 -11657,107303 -49733,132665 -84969,113373 -113373,84969 -132665,49733 -107303,11657 h -900600 l -107303,-11657 -132665,-49733 -113373,-84969 -84969,-113373 -49733,-132665 -11657,-107303 v -900600 l 11657,-107303 49733,-132665 84969,-113373 113373,-84969 132665,-49733 107303,-11657 h 900600 l 107303,11657 132665,49733 113373,84969 84969,113373 49733,132665 11657,107303 z"
       id="path163979" />
    <path
       style="fill:#ffde00;fill-opacity:1;fill-rule:evenodd;stroke:#ffde00;stroke-width:1;stroke-linecap:round;stroke-linejoin:round;stroke-opacity:1"
       d="m 24509961,34219110 -11657,107303 -49733,132665 -84969,113373 -113373,84969 -132665,49733 -107303,11657 h -900600 l -107303,-11657 -132665,-49733 -113373,-84969 -84969,-113373 -49733,-132665 -11657,-107303 v -900600 l 11657,-107303 49733,-132665 84969,-113373 113373,-84969 132665,-49733 107303,-11657 h 900600 l 107303,11657 132665,49733 113373,84969 84969,113373 49733,132665 11657,107303 z"
       id="path163981" />
    <path
       style="fill:#ffde00;fill-opacity:1;fill-rule:evenodd;stroke:#ffde00;stroke-width:1;stroke-linecap:round;stroke-linejoin:round;stroke-opacity:1"
       d="m 24509961,31679110 -11657,107303 -49733,132665 -84969,113373 -113373,84969 -132665,49733 -107303,11657 h -900600 l -107303,-11657 -132665,-49733 -113373,-84969 -84969,-113373 -49733,-132665 -11657,-107303 v -900600 l 11657,-107303 49733,-132665 84969,-113373 113373,-84969 132665,-49733 107303,-11657 h 900600 l 107303,11657 132665,49733 113373,84969 84969,113373 49733,132665 11657,107303 z"
       id="path163983" />
    <path
       style="fill:#ffde00;fill-opacity:1;fill-rule:evenodd;stroke:#ffde00;stroke-width:1;stroke-linecap:round;stroke-linejoin:round;stroke-opacity:1"
       d="m 24509961,29139110 -11657,107303 -49733,132665 -84969,113373 -113373,84969 -132665,49733 -107303,11657 h -900600 l -107303,-11657 -132665,-49733 -113373,-84969 -84969,-113373 -49733,-132665 -11657,-107303 v -900600 l 11657,-107303 49733,-132665 84969,-113373 113373,-84969 132665,-49733 107303,-11657 h 900600 l 107303,11657 132665,49733 113373,84969 84969,113373 49733,132665 11657,107303 z"
       id="path163985" />
    <path
       style="fill:#ffde00;fill-opacity:1;fill-rule:evenodd;stroke:#ffde00;stroke-width:1;stroke-linecap:round;stroke-linejoin:round;stroke-opacity:1"
       d="m 24509961,26599110 -11657,107303 -49733,132665 -84969,113373 -113373,84969 -132665,49733 -107303,11657 h -900600 l -107303,-11657 -132665,-49733 -113373,-84969 -84969,-113373 -49733,-132665 -11657,-107303 v -900600 l 11657,-107303 49733,-132665 84969,-113373 113373,-84969 132665,-49733 107303,-11657 h 900600 l 107303,11657 132665,49733 113373,84969 84969,113373 49733,132665 11657,107303 z"
       id="path163987" />
    <path
       style="fill:#ffde00;fill-opacity:1;fill-rule:evenodd;stroke:#ffde00;stroke-width:1;stroke-linecap:round;stroke-linejoin:round;stroke-opacity:1"
       d="m 24509961,24059110 -11657,107303 -49733,132665 -84969,113373 -113373,84969 -132665,49733 -107303,11657 h -900600 l -107303,-11657 -132665,-49733 -113373,-84969 -84969,-113373 -49733,-132665 -11657,-107303 v -900600 l 11657,-107303 49733,-132665 84969,-113373 113373,-84969 132665,-49733 107303,-11657 h 900600 l 107303,11657 132665,49733 113373,84969 84969,113373 49733,132665 11657,107303 z"
       id="path163989" />
    <path
       style="fill:#ffde00;fill-opacity:1;fill-rule:evenodd;stroke:#ffde00;stroke-width:1;stroke-linecap:round;stroke-linejoin:round;stroke-opacity:1"
       d="m 11809961,24059110 -11657,107303 -49733,132665 -84969,113373 -113373,84969 -132665,49733 -107303,11657 h -900600 l -107303,-11657 -132665,-49733 -113373,-84969 -84969,-113373 -49733,-132665 -11657,-107303 v -900600 l 11657,-107303 49733,-132665 84969,-113373 113373,-84969 132665,-49733 107303,-11657 h 900600 l 107303,11657 132665,49733 113373,84969 84969,113373 49733,132665 11657,107303 z"
       id="path163991" />
    <path
       style="fill:#ffde00;fill-opacity:1;fill-rule:evenodd;stroke:#ffde00;stroke-width:1;stroke-linecap:round;stroke-linejoin:round;stroke-opacity:1"
       d="m 11809961,26599110 -11657,107303 -49733,132665 -84969,113373 -113373,84969 -132665,49733 -107303,11657 h -900600 l -107303,-11657 -132665,-49733 -113373,-84969 -84969,-113373 -49733,-132665 -11657,-107303 v -900600 l 11657,-107303 49733,-132665 84969,-113373 113373,-84969 132665,-49733 107303,-11657 h 900600 l 107303,11657 132665,49733 113373,84969 84969,113373 49733,132665 11657,107303 z"
       id="path163993" />
    <path
       style="fill:#ffde00;fill-opacity:1;fill-rule:evenodd;stroke:#ffde00;stroke-width:1;stroke-linecap:round;stroke-linejoin:round;stroke-opacity:1"
       d="m 11809961,29139110 -11657,107303 -49733,132665 -84969,113373 -113373,84969 -132665,49733 -107303,11657 h -900600 l -107303,-11657 -132665,-49733 -113373,-84969 -84969,-113373 -49733,-132665 -11657,-107303 v -900600 l 11657,-107303 49733,-132665 84969,-113373 113373,-84969 132665,-49733 107303,-11657 h 900600 l 107303,11657 132665,49733 113373,84969 84969,113373 49733,132665 11657,107303 z"
       id="path163995" />
    <path
       style="fill:#ffde00;fill-opacity:1;fill-rule:evenodd;stroke:#ffde00;stroke-width:1;stroke-linecap:round;stroke-linejoin:round;stroke-opacity:1"
       d="m 11809961,31679110 -11657,107303 -49733,132665 -84969,113373 -113373,84969 -132665,49733 -107303,11657 h -900600 l -107303,-11657 -132665,-49733 -113373,-84969 -84969,-113373 -49733,-132665 -11657,-107303 v -900600 l 11657,-107303 49733,-132665 84969,-113373 113373,-84969 132665,-49733 107303,-11657 h 900600 l 107303,11657 132665,49733 113373,84969 84969,113373 49733,132665 11657,107303 z"
       id="path163997" />
    <path
       style="fill:#ffde00;fill-opacity:1;fill-rule:evenodd;stroke:#ffde00;stroke-width:1;stroke-linecap:round;stroke-linejoin:round;stroke-opacity:1"
       d="m 11809961,34219110 -11657,107303 -49733,132665 -84969,113373 -113373,84969 -132665,49733 -107303,11657 h -900600 l -107303,-11657 -132665,-49733 -113373,-84969 -84969,-113373 -49733,-132665 -11657,-107303 v -900600 l 11657,-107303 49733,-132665 84969,-113373 113373,-84969 132665,-49733 107303,-11657 h 900600 l 107303,11657 132665,49733 113373,84969 84969,113373 49733,132665 11657,107303 z"
       id="path163999" />
    <path
       style="fill:#ffde00;fill-opacity:1;fill-rule:evenodd;stroke:#ffde00;stroke-width:1;stroke-linecap:round;stroke-linejoin:round;stroke-opacity:1"
       d="m 11809961,36759110 -11657,107303 -49733,132665 -84969,113373 -113373,84969 -132665,49733 -107303,11657 h -900600 l -107303,-11657 -132665,-49733 -113373,-84969 -84969,-113373 -49733,-132665 -11657,-107303 v -900600 l 11657,-107303 49733,-132665 84969,-113373 113373,-84969 132665,-49733 107303,-11657 h 900600 l 107303,11657 132665,49733 113373,84969 84969,113373 49733,132665 11657,107303 z"
       id="path164001" />
    <path
       style="fill:#ffde00;fill-opacity:1;fill-rule:evenodd;stroke:#ffde00;stroke-width:1;stroke-linecap:round;stroke-linejoin:round;stroke-opacity:1"
       d="m 11809961,39299110 -11657,107303 -49733,132665 -84969,113373 -113373,84969 -132665,49733 -107303,11657 h -900600 l -107303,-11657 -132665,-49733 -113373,-84969 -84969,-113373 -49733,-132665 -11657,-107303 v -900600 l 11657,-107303 49733,-132665 84969,-113373 113373,-84969 132665,-49733 107303,-11657 h 900600 l 107303,11657 132665,49733 113373,84969 84969,113373 49733,132665 11657,107303 z"
       id="path164003" />
    <path
       style="fill:#ffde00;fill-opacity:1;fill-rule:evenodd;stroke:#ffde00;stroke-width:1;stroke-linecap:round;stroke-linejoin:round;stroke-opacity:1"
       d="m 11809961,41839110 -11657,107303 -49733,132665 -84969,113373 -113373,84969 -132665,49733 -107303,11657 h -900600 l -107303,-11657 -132665,-49733 -113373,-84969 -84969,-113373 -49733,-132665 -11657,-107303 v -900600 l 11657,-107303 49733,-132665 84969,-113373 113373,-84969 132665,-49733 107303,-11657 h 900600 l 107303,11657 132665,49733 113373,84969 84969,113373 49733,132665 11657,107303 z"
       id="path164005" />
    <path
       style="fill:#ffde00;fill-opacity:1;fill-rule:evenodd;stroke:#ffde00;stroke-width:1;stroke-linecap:round;stroke-linejoin:round;stroke-opacity:1"
       d="m 19429961,41839110 -11657,107303 -49733,132665 -84969,113373 -113373,84969 -132665,49733 -107303,11657 h -900600 l -107303,-11657 -132665,-49733 -113373,-84969 -84969,-113373 -49733,-132665 -11657,-107303 v -900600 l 11657,-107303 49733,-132665 84969,-113373 113373,-84969 132665,-49733 107303,-11657 h 900600 l 107303,11657 132665,49733 113373,84969 84969,113373 49733,132665 11657,107303 z"
       id="path164007" />
    <path
       style="fill:#ffde00;fill-opacity:1;fill-rule:evenodd;stroke:#ffde00;stroke-width:1;stroke-linecap:round;stroke-linejoin:round;stroke-opacity:1"
       d="m 21969961,41839110 -11657,107303 -49733,132665 -84969,113373 -113373,84969 -132665,49733 -107303,11657 h -900600 l -107303,-11657 -132665,-49733 -113373,-84969 -84969,-113373 -49733,-132665 -11657,-107303 v -900600 l 11657,-107303 49733,-132665 84969,-113373 113373,-84969 132665,-49733 107303,-11657 h 900600 l 107303,11657 132665,49733 113373,84969 84969,113373 49733,132665 11657,107303 z"
       id="path164009" />
    <path
       style="fill:#ffde00;fill-opacity:1;fill-rule:evenodd;stroke:#ffde00;stroke-width:1;stroke-linecap:round;stroke-linejoin:round;stroke-opacity:1"
       d="m 20699961,39706410 -20458,155395 -59980,144805 -95415,124347 -124347,95415 -144805,59980 -155395,20458 h -699200 l -155395,-20458 -144805,-59980 -124347,-95415 -95415,-124347 -59980,-144805 -20458,-155395 v -699200 l 20458,-155395 59980,-144805 95415,-124347 124347,-95415 144805,-59980 155395,-20458 h 699200 l 155395,20458 144805,59980 124347,95415 95415,124347 59980,144805 20458,155395 z"
       id="path164011" />
    <path
       style="fill:#ffde00;fill-opacity:1;fill-rule:evenodd;stroke:#ffde00;stroke-width:1;stroke-linecap:round;stroke-linejoin:round;stroke-opacity:1"
       d="M 6682327,21188075 7813696,22319444 6682327,23450813 5550958,22319444 Z"
       id="path164031" />
    <circle
       cx="5268113"
       cy="23733658"
       r="800000"
       id="circle164033"
       style="fill:#ffde00;fill-opacity:1;stroke:#ffde00;stroke-width:1;stroke-linecap:round;stroke-linejoin:round;stroke-opacity:1" />
    <path
       style="fill:#ffde00;fill-opacity:1;fill-rule:evenodd;stroke:#ffde00;stroke-width:1;stroke-linecap:round;stroke-linejoin:round;stroke-opacity:1"
       d="m 24509961,20989110 -11657,107303 -49733,132665 -84969,113373 -113373,84969 -132665,49733 -107303,11657 h -900600 l -107303,-11657 -132665,-49733 -113373,-84969 -84969,-113373 -49733,-132665 -11657,-107303 v -900600 l 11657,-107303 49733,-132665 84969,-113373 113373,-84969 132665,-49733 107303,-11657 h 900600 l 107303,11657 132665,49733 113373,84969 84969,113373 49733,132665 11657,107303 z"
       id="path164043" />
    <path
       style="fill:#ffde00;fill-opacity:1;fill-rule:evenodd;stroke:#ffde00;stroke-width:1;stroke-linecap:round;stroke-linejoin:round;stroke-opacity:1"
       d="m 24509961,18449110 -11657,107303 -49733,132665 -84969,113373 -113373,84969 -132665,49733 -107303,11657 h -900600 l -107303,-11657 -132665,-49733 -113373,-84969 -84969,-113373 -49733,-132665 -11657,-107303 v -900600 l 11657,-107303 49733,-132665 84969,-113373 113373,-84969 132665,-49733 107303,-11657 h 900600 l 107303,11657 132665,49733 113373,84969 84969,113373 49733,132665 11657,107303 z"
       id="path164045" />
    <path
       style="fill:#ffde00;fill-opacity:1;fill-rule:evenodd;stroke:#ffde00;stroke-width:1;stroke-linecap:round;stroke-linejoin:round;stroke-opacity:1"
       d="m 24509961,15909110 -11657,107303 -49733,132665 -84969,113373 -113373,84969 -132665,49733 -107303,11657 h -900600 l -107303,-11657 -132665,-49733 -113373,-84969 -84969,-113373 -49733,-132665 -11657,-107303 v -900600 l 11657,-107303 49733,-132665 84969,-113373 113373,-84969 132665,-49733 107303,-11657 h 900600 l 107303,11657 132665,49733 113373,84969 84969,113373 49733,132665 11657,107303 z"
       id="path164047" />
    <path
       style="fill:#ffde00;fill-opacity:1;fill-rule:evenodd;stroke:#ffde00;stroke-width:1;stroke-linecap:round;stroke-linejoin:round;stroke-opacity:1"
       d="m 24509961,13369110 -11657,107303 -49733,132665 -84969,113373 -113373,84969 -132665,49733 -107303,11657 h -900600 l -107303,-11657 -132665,-49733 -113373,-84969 -84969,-113373 -49733,-132665 -11657,-107303 v -900600 l 11657,-107303 49733,-132665 84969,-113373 113373,-84969 132665,-49733 107303,-11657 h 900600 l 107303,11657 132665,49733 113373,84969 84969,113373 49733,132665 11657,107303 z"
       id="path164049" />
    <path
       style="fill:#ffde00;fill-opacity:1;fill-rule:evenodd;stroke:#ffde00;stroke-width:1;stroke-linecap:round;stroke-linejoin:round;stroke-opacity:1"
       d="m 24509961,10829110 -11657,107303 -49733,132665 -84969,113373 -113373,84969 -132665,49733 -107303,11657 h -900600 l -107303,-11657 -132665,-49733 -113373,-84969 -84969,-113373 -49733,-132665 -11657,-107303 v -900600 l 11657,-107303 49733,-132665 84969,-113373 113373,-84969 132665,-49733 107303,-11657 h 900600 l 107303,11657 132665,49733 113373,84969 84969,113373 49733,132665 11657,107303 z"
       id="path164051" />
    <path
       style="fill:#ffde00;fill-opacity:1;fill-rule:evenodd;stroke:#ffde00;stroke-width:1;stroke-linecap:round;stroke-linejoin:round;stroke-opacity:1"
       d="m 24509961,8289110 -11657,107303 -49733,132665 -84969,113373 -113373,84969 -132665,49733 -107303,11657 h -900600 l -107303,-11657 -132665,-49733 -113373,-84969 -84969,-113373 -49733,-132665 -11657,-107303 v -900600 l 11657,-107303 49733,-132665 84969,-113373 113373,-84969 132665,-49733 107303,-11657 h 900600 l 107303,11657 132665,49733 113373,84969 84969,113373 49733,132665 11657,107303 z"
       id="path164053" />
    <path
       style="fill:#ffde00;fill-opacity:1;fill-rule:evenodd;stroke:#ffde00;stroke-width:1;stroke-linecap:round;stroke-linejoin:round;stroke-opacity:1"
       d="m 24509961,5749110 -11657,107303 -49733,132665 -84969,113373 -113373,84969 -132665,49733 -107303,11657 h -900600 l -107303,-11657 -132665,-49733 -113373,-84969 -84969,-113373 -49733,-132665 -11657,-107303 v -900600 l 11657,-107303 49733,-132665 84969,-113373 113373,-84969 132665,-49733 107303,-11657 h 900600 l 107303,11657 132665,49733 113373,84969 84969,113373 49733,132665 11657,107303 z"
       id="path164055" />
    <path
       style="fill:#ffde00;fill-opacity:1;fill-rule:evenodd;stroke:#ffde00;stroke-width:1;stroke-linecap:round;stroke-linejoin:round;stroke-opacity:1"
       d="m 24509961,3209110 -11657,107303 -49733,132665 -84969,113373 -113373,84969 -132665,49733 -107303,11657 h -900600 l -107303,-11657 -132665,-49733 -113373,-84969 -84969,-113373 -49733,-132665 -11657,-107303 v -900600 l 11657,-107303 49733,-132665 84969,-113373 113373,-84969 132665,-49733 107303,-11657 h 900600 l 107303,11657 132665,49733 113373,84969 84969,113373 49733,132665 11657,107303 z"
       id="path164057" />
    <path
       style="fill:#ffde00;fill-opacity:1;fill-rule:evenodd;stroke:#ffde00;stroke-width:1;stroke-linecap:round;stroke-linejoin:round;stroke-opacity:1"
       d="m 11809961,3209110 -11657,107303 -49733,132665 -84969,113373 -113373,84969 -132665,49733 -107303,11657 h -900600 l -107303,-11657 -132665,-49733 -113373,-84969 -84969,-113373 -49733,-132665 -11657,-107303 v -900600 l 11657,-107303 49733,-132665 84969,-113373 113373,-84969 132665,-49733 107303,-11657 h 900600 l 107303,11657 132665,49733 113373,84969 84969,113373 49733,132665 11657,107303 z"
       id="path164059" />
    <path
       style="fill:#ffde00;fill-opacity:1;fill-rule:evenodd;stroke:#ffde00;stroke-width:1;stroke-linecap:round;stroke-linejoin:round;stroke-opacity:1"
       d="m 11809961,5749110 -11657,107303 -49733,132665 -84969,113373 -113373,84969 -132665,49733 -107303,11657 h -900600 l -107303,-11657 -132665,-49733 -113373,-84969 -84969,-113373 -49733,-132665 -11657,-107303 v -900600 l 11657,-107303 49733,-132665 84969,-113373 113373,-84969 132665,-49733 107303,-11657 h 900600 l 107303,11657 132665,49733 113373,84969 84969,113373 49733,132665 11657,107303 z"
       id="path164061" />
    <path
       style="fill:#ffde00;fill-opacity:1;fill-rule:evenodd;stroke:#ffde00;stroke-width:1;stroke-linecap:round;stroke-linejoin:round;stroke-opacity:1"
       d="m 11809961,8289110 -11657,107303 -49733,132665 -84969,113373 -113373,84969 -132665,49733 -107303,11657 h -900600 l -107303,-11657 -132665,-49733 -113373,-84969 -84969,-113373 -49733,-132665 -11657,-107303 v -900600 l 11657,-107303 49733,-132665 84969,-113373 113373,-84969 132665,-49733 107303,-11657 h 900600 l 107303,11657 132665,49733 113373,84969 84969,113373 49733,132665 11657,107303 z"
       id="path164063" />
    <path
       style="fill:#ffde00;fill-opacity:1;fill-rule:evenodd;stroke:#ffde00;stroke-width:1;stroke-linecap:round;stroke-linejoin:round;stroke-opacity:1"
       d="m 11809961,10829110 -11657,107303 -49733,132665 -84969,113373 -113373,84969 -132665,49733 -107303,11657 h -900600 l -107303,-11657 -132665,-49733 -113373,-84969 -84969,-113373 -49733,-132665 -11657,-107303 v -900600 l 11657,-107303 49733,-132665 84969,-113373 113373,-84969 132665,-49733 107303,-11657 h 900600 l 107303,11657 132665,49733 113373,84969 84969,113373 49733,132665 11657,107303 z"
       id="path164065" />
    <path
       style="fill:#ffde00;fill-opacity:1;fill-rule:evenodd;stroke:#ffde00;stroke-width:1;stroke-linecap:round;stroke-linejoin:round;stroke-opacity:1"
       d="m 11809961,13369110 -11657,107303 -49733,132665 -84969,113373 -113373,84969 -132665,49733 -107303,11657 h -900600 l -107303,-11657 -132665,-49733 -113373,-84969 -84969,-113373 -49733,-132665 -11657,-107303 v -900600 l 11657,-107303 49733,-132665 84969,-113373 113373,-84969 132665,-49733 107303,-11657 h 900600 l 107303,11657 132665,49733 113373,84969 84969,113373 49733,132665 11657,107303 z"
       id="path164067" />
    <path
       style="fill:#ffde00;fill-opacity:1;fill-rule:evenodd;stroke:#ffde00;stroke-width:1;stroke-linecap:round;stroke-linejoin:round;stroke-opacity:1"
       d="m 11809961,15909110 -11657,107303 -49733,132665 -84969,113373 -113373,84969 -132665,49733 -107303,11657 h -900600 l -107303,-11657 -132665,-49733 -113373,-84969 -84969,-113373 -49733,-132665 -11657,-107303 v -900600 l 11657,-107303 49733,-132665 84969,-113373 113373,-84969 132665,-49733 107303,-11657 h 900600 l 107303,11657 132665,49733 113373,84969 84969,113373 49733,132665 11657,107303 z"
       id="path164069" />
    <path
       style="fill:#ffde00;fill-opacity:1;fill-rule:evenodd;stroke:#ffde00;stroke-width:1;stroke-linecap:round;stroke-linejoin:round;stroke-opacity:1"
       d="m 11809961,18449110 -11657,107303 -49733,132665 -84969,113373 -113373,84969 -132665,49733 -107303,11657 h -900600 l -107303,-11657 -132665,-49733 -113373,-84969 -84969,-113373 -49733,-132665 -11657,-107303 v -900600 l 11657,-107303 49733,-132665 84969,-113373 113373,-84969 132665,-49733 107303,-11657 h 900600 l 107303,11657 132665,49733 113373,84969 84969,113373 49733,132665 11657,107303 z"
       id="path164071" />
    <path
       style="fill:#ffde00;fill-opacity:1;fill-rule:evenodd;stroke:#ffde00;stroke-width:1;stroke-linecap:round;stroke-linejoin:round;stroke-opacity:1"
       d="m 11809961,20989110 -11657,107303 -49733,132665 -84969,113373 -113373,84969 -132665,49733 -107303,11657 h -900600 l -107303,-11657 -132665,-49733 -113373,-84969 -84969,-113373 -49733,-132665 -11657,-107303 v -900600 l 11657,-107303 49733,-132665 84969,-113373 113373,-84969 132665,-49733 107303,-11657 h 900600 l 107303,11657 132665,49733 113373,84969 84969,113373 49733,132665 11657,107303 z"
       id="path164073" />
    <path
       style="fill:#ffde00;fill-opacity:1;fill-rule:evenodd;stroke:#ffde00;stroke-width:1;stroke-linecap:round;stroke-linejoin:round;stroke-opacity:1"
       d="m 19429961,20989110 -11657,107303 -49733,132665 -84969,113373 -113373,84969 -132665,49733 -107303,11657 h -900600 l -107303,-11657 -132665,-49733 -113373,-84969 -84969,-113373 -49733,-132665 -11657,-107303 v -900600 l 11657,-107303 49733,-132665 84969,-113373 113373,-84969 132665,-49733 107303,-11657 h 900600 l 107303,11657 132665,49733 113373,84969 84969,113373 49733,132665 11657,107303 z"
       id="path164075" />
    <path
       style="fill:#ffde00;fill-opacity:1;fill-rule:evenodd;stroke:#ffde00;stroke-width:1;stroke-linecap:round;stroke-linejoin:round;stroke-opacity:1"
       d="m 21969961,20989110 -11657,107303 -49733,132665 -84969,113373 -113373,84969 -132665,49733 -107303,11657 h -900600 l -107303,-11657 -132665,-49733 -113373,-84969 -84969,-113373 -49733,-132665 -11657,-107303 v -900600 l 11657,-107303 49733,-132665 84969,-113373 113373,-84969 132665,-49733 107303,-11657 h 900600 l 107303,11657 132665,49733 113373,84969 84969,113373 49733,132665 11657,107303 z"
       id="path164077" />
    <path
       style="fill:#ffde00;fill-opacity:1;fill-rule:evenodd;stroke:#ffde00;stroke-width:1;stroke-linecap:round;stroke-linejoin:round;stroke-opacity:1"
       d="m 20699961,18856410 -20458,155395 -59980,144805 -95415,124347 -124347,95415 -144805,59980 -155395,20458 h -699200 l -155395,-20458 -144805,-59980 -124347,-95415 -95415,-124347 -59980,-144805 -20458,-155395 v -699200 l 20458,-155395 59980,-144805 95415,-124347 124347,-95415 144805,-59980 155395,-20458 h 699200 l 155395,20458 144805,59980 124347,95415 95415,124347 59980,144805 20458,155395 z"
       id="path164079" />
    <circle
       cx="44109960"
       cy="58198808"
       r="1800000"
       id="circle164087"
       style="fill:#ffde00;fill-opacity:1;stroke:#ffde00;stroke-width:1;stroke-linecap:round;stroke-linejoin:round;stroke-opacity:1" />
    <circle
       cx="44109960"
       cy="4198810"
       r="1800000"
       id="circle164103"
       style="fill:#ffde00;fill-opacity:1;stroke:#ffde00;stroke-width:1;stroke-linecap:round;stroke-linejoin:round;stroke-opacity:1" />
    <path
       style="fill:#ffde00;fill-opacity:1;fill-rule:evenodd;stroke:#ffde00;stroke-width:1;stroke-linecap:round;stroke-linejoin:round;stroke-opacity:1"
       d="m 25709961,23158510 11657,-107303 49733,-132665 84969,-113373 113373,-84969 132665,-49733 107303,-11657 h 900600 l 107303,11657 132665,49733 113373,84969 84969,113373 49733,132665 11657,107303 v 900600 l -11657,107303 -49733,132665 -84969,113373 -113373,84969 -132665,49733 -107303,11657 h -900600 l -107303,-11657 -132665,-49733 -113373,-84969 -84969,-113373 -49733,-132665 -11657,-107303 z"
       id="path164123" />
    <path
       style="fill:#ffde00;fill-opacity:1;fill-rule:evenodd;stroke:#ffde00;stroke-width:1;stroke-linecap:round;stroke-linejoin:round;stroke-opacity:1"
       d="m 25709961,25698510 11657,-107303 49733,-132665 84969,-113373 113373,-84969 132665,-49733 107303,-11657 h 900600 l 107303,11657 132665,49733 113373,84969 84969,113373 49733,132665 11657,107303 v 900600 l -11657,107303 -49733,132665 -84969,113373 -113373,84969 -132665,49733 -107303,11657 h -900600 l -107303,-11657 -132665,-49733 -113373,-84969 -84969,-113373 -49733,-132665 -11657,-107303 z"
       id="path164125" />
    <path
       style="fill:#ffde00;fill-opacity:1;fill-rule:evenodd;stroke:#ffde00;stroke-width:1;stroke-linecap:round;stroke-linejoin:round;stroke-opacity:1"
       d="m 25709961,28238510 11657,-107303 49733,-132665 84969,-113373 113373,-84969 132665,-49733 107303,-11657 h 900600 l 107303,11657 132665,49733 113373,84969 84969,113373 49733,132665 11657,107303 v 900600 l -11657,107303 -49733,132665 -84969,113373 -113373,84969 -132665,49733 -107303,11657 h -900600 l -107303,-11657 -132665,-49733 -113373,-84969 -84969,-113373 -49733,-132665 -11657,-107303 z"
       id="path164127" />
    <path
       style="fill:#ffde00;fill-opacity:1;fill-rule:evenodd;stroke:#ffde00;stroke-width:1;stroke-linecap:round;stroke-linejoin:round;stroke-opacity:1"
       d="m 25709961,30778510 11657,-107303 49733,-132665 84969,-113373 113373,-84969 132665,-49733 107303,-11657 h 900600 l 107303,11657 132665,49733 113373,84969 84969,113373 49733,132665 11657,107303 v 900600 l -11657,107303 -49733,132665 -84969,113373 -113373,84969 -132665,49733 -107303,11657 h -900600 l -107303,-11657 -132665,-49733 -113373,-84969 -84969,-113373 -49733,-132665 -11657,-107303 z"
       id="path164129" />
    <path
       style="fill:#ffde00;fill-opacity:1;fill-rule:evenodd;stroke:#ffde00;stroke-width:1;stroke-linecap:round;stroke-linejoin:round;stroke-opacity:1"
       d="m 25709961,33318510 11657,-107303 49733,-132665 84969,-113373 113373,-84969 132665,-49733 107303,-11657 h 900600 l 107303,11657 132665,49733 113373,84969 84969,113373 49733,132665 11657,107303 v 900600 l -11657,107303 -49733,132665 -84969,113373 -113373,84969 -132665,49733 -107303,11657 h -900600 l -107303,-11657 -132665,-49733 -113373,-84969 -84969,-113373 -49733,-132665 -11657,-107303 z"
       id="path164131" />
    <path
       style="fill:#ffde00;fill-opacity:1;fill-rule:evenodd;stroke:#ffde00;stroke-width:1;stroke-linecap:round;stroke-linejoin:round;stroke-opacity:1"
       d="m 25709961,35858510 11657,-107303 49733,-132665 84969,-113373 113373,-84969 132665,-49733 107303,-11657 h 900600 l 107303,11657 132665,49733 113373,84969 84969,113373 49733,132665 11657,107303 v 900600 l -11657,107303 -49733,132665 -84969,113373 -113373,84969 -132665,49733 -107303,11657 h -900600 l -107303,-11657 -132665,-49733 -113373,-84969 -84969,-113373 -49733,-132665 -11657,-107303 z"
       id="path164133" />
    <path
       style="fill:#ffde00;fill-opacity:1;fill-rule:evenodd;stroke:#ffde00;stroke-width:1;stroke-linecap:round;stroke-linejoin:round;stroke-opacity:1"
       d="m 25709961,38398510 11657,-107303 49733,-132665 84969,-113373 113373,-84969 132665,-49733 107303,-11657 h 900600 l 107303,11657 132665,49733 113373,84969 84969,113373 49733,132665 11657,107303 v 900600 l -11657,107303 -49733,132665 -84969,113373 -113373,84969 -132665,49733 -107303,11657 h -900600 l -107303,-11657 -132665,-49733 -113373,-84969 -84969,-113373 -49733,-132665 -11657,-107303 z"
       id="path164135" />
    <path
       style="fill:#ffde00;fill-opacity:1;fill-rule:evenodd;stroke:#ffde00;stroke-width:1;stroke-linecap:round;stroke-linejoin:round;stroke-opacity:1"
       d="m 25709961,40938510 11657,-107303 49733,-132665 84969,-113373 113373,-84969 132665,-49733 107303,-11657 h 900600 l 107303,11657 132665,49733 113373,84969 84969,113373 49733,132665 11657,107303 v 900600 l -11657,107303 -49733,132665 -84969,113373 -113373,84969 -132665,49733 -107303,11657 h -900600 l -107303,-11657 -132665,-49733 -113373,-84969 -84969,-113373 -49733,-132665 -11657,-107303 z"
       id="path164137" />
    <path
       style="fill:#ffde00;fill-opacity:1;fill-rule:evenodd;stroke:#ffde00;stroke-width:1;stroke-linecap:round;stroke-linejoin:round;stroke-opacity:1"
       d="m 38409961,40938510 11657,-107303 49733,-132665 84969,-113373 113373,-84969 132665,-49733 107303,-11657 h 900600 l 107303,11657 132665,49733 113373,84969 84969,113373 49733,132665 11657,107303 v 900600 l -11657,107303 -49733,132665 -84969,113373 -113373,84969 -132665,49733 -107303,11657 h -900600 l -107303,-11657 -132665,-49733 -113373,-84969 -84969,-113373 -49733,-132665 -11657,-107303 z"
       id="path164139" />
    <path
       style="fill:#ffde00;fill-opacity:1;fill-rule:evenodd;stroke:#ffde00;stroke-width:1;stroke-linecap:round;stroke-linejoin:round;stroke-opacity:1"
       d="m 38409961,38398510 11657,-107303 49733,-132665 84969,-113373 113373,-84969 132665,-49733 107303,-11657 h 900600 l 107303,11657 132665,49733 113373,84969 84969,113373 49733,132665 11657,107303 v 900600 l -11657,107303 -49733,132665 -84969,113373 -113373,84969 -132665,49733 -107303,11657 h -900600 l -107303,-11657 -132665,-49733 -113373,-84969 -84969,-113373 -49733,-132665 -11657,-107303 z"
       id="path164141" />
    <path
       style="fill:#ffde00;fill-opacity:1;fill-rule:evenodd;stroke:#ffde00;stroke-width:1;stroke-linecap:round;stroke-linejoin:round;stroke-opacity:1"
       d="m 38409961,35858510 11657,-107303 49733,-132665 84969,-113373 113373,-84969 132665,-49733 107303,-11657 h 900600 l 107303,11657 132665,49733 113373,84969 84969,113373 49733,132665 11657,107303 v 900600 l -11657,107303 -49733,132665 -84969,113373 -113373,84969 -132665,49733 -107303,11657 h -900600 l -107303,-11657 -132665,-49733 -113373,-84969 -84969,-113373 -49733,-132665 -11657,-107303 z"
       id="path164143" />
    <path
       style="fill:#ffde00;fill-opacity:1;fill-rule:evenodd;stroke:#ffde00;stroke-width:1;stroke-linecap:round;stroke-linejoin:round;stroke-opacity:1"
       d="m 38409961,33318510 11657,-107303 49733,-132665 84969,-113373 113373,-84969 132665,-49733 107303,-11657 h 900600 l 107303,11657 132665,49733 113373,84969 84969,113373 49733,132665 11657,107303 v 900600 l -11657,107303 -49733,132665 -84969,113373 -113373,84969 -132665,49733 -107303,11657 h -900600 l -107303,-11657 -132665,-49733 -113373,-84969 -84969,-113373 -49733,-132665 -11657,-107303 z"
       id="path164145" />
    <path
       style="fill:#ffde00;fill-opacity:1;fill-rule:evenodd;stroke:#ffde00;stroke-width:1;stroke-linecap:round;stroke-linejoin:round;stroke-opacity:1"
       d="m 38409961,30778510 11657,-107303 49733,-132665 84969,-113373 113373,-84969 132665,-49733 107303,-11657 h 900600 l 107303,11657 132665,49733 113373,84969 84969,113373 49733,132665 11657,107303 v 900600 l -11657,107303 -49733,132665 -84969,113373 -113373,84969 -132665,49733 -107303,11657 h -900600 l -107303,-11657 -132665,-49733 -113373,-84969 -84969,-113373 -49733,-132665 -11657,-107303 z"
       id="path164147" />
    <path
       style="fill:#ffde00;fill-opacity:1;fill-rule:evenodd;stroke:#ffde00;stroke-width:1;stroke-linecap:round;stroke-linejoin:round;stroke-opacity:1"
       d="m 38409961,28238510 11657,-107303 49733,-132665 84969,-113373 113373,-84969 132665,-49733 107303,-11657 h 900600 l 107303,11657 132665,49733 113373,84969 84969,113373 49733,132665 11657,107303 v 900600 l -11657,107303 -49733,132665 -84969,113373 -113373,84969 -132665,49733 -107303,11657 h -900600 l -107303,-11657 -132665,-49733 -113373,-84969 -84969,-113373 -49733,-132665 -11657,-107303 z"
       id="path164149" />
    <path
       style="fill:#ffde00;fill-opacity:1;fill-rule:evenodd;stroke:#ffde00;stroke-width:1;stroke-linecap:round;stroke-linejoin:round;stroke-opacity:1"
       d="m 38409961,25698510 11657,-107303 49733,-132665 84969,-113373 113373,-84969 132665,-49733 107303,-11657 h 900600 l 107303,11657 132665,49733 113373,84969 84969,113373 49733,132665 11657,107303 v 900600 l -11657,107303 -49733,132665 -84969,113373 -113373,84969 -132665,49733 -107303,11657 h -900600 l -107303,-11657 -132665,-49733 -113373,-84969 -84969,-113373 -49733,-132665 -11657,-107303 z"
       id="path164151" />
    <path
       style="fill:#ffde00;fill-opacity:1;fill-rule:evenodd;stroke:#ffde00;stroke-width:1;stroke-linecap:round;stroke-linejoin:round;stroke-opacity:1"
       d="m 38409961,23158510 11657,-107303 49733,-132665 84969,-113373 113373,-84969 132665,-49733 107303,-11657 h 900600 l 107303,11657 132665,49733 113373,84969 84969,113373 49733,132665 11657,107303 v 900600 l -11657,107303 -49733,132665 -84969,113373 -113373,84969 -132665,49733 -107303,11657 h -900600 l -107303,-11657 -132665,-49733 -113373,-84969 -84969,-113373 -49733,-132665 -11657,-107303 z"
       id="path164153" />
    <path
       style="fill:#ffde00;fill-opacity:1;fill-rule:evenodd;stroke:#ffde00;stroke-width:1;stroke-linecap:round;stroke-linejoin:round;stroke-opacity:1"
       d="m 30789961,23158510 11657,-107303 49733,-132665 84969,-113373 113373,-84969 132665,-49733 107303,-11657 h 900600 l 107303,11657 132665,49733 113373,84969 84969,113373 49733,132665 11657,107303 v 900600 l -11657,107303 -49733,132665 -84969,113373 -113373,84969 -132665,49733 -107303,11657 h -900600 l -107303,-11657 -132665,-49733 -113373,-84969 -84969,-113373 -49733,-132665 -11657,-107303 z"
       id="path164155" />
    <path
       style="fill:#ffde00;fill-opacity:1;fill-rule:evenodd;stroke:#ffde00;stroke-width:1;stroke-linecap:round;stroke-linejoin:round;stroke-opacity:1"
       d="m 28249961,23158510 11657,-107303 49733,-132665 84969,-113373 113373,-84969 132665,-49733 107303,-11657 h 900600 l 107303,11657 132665,49733 113373,84969 84969,113373 49733,132665 11657,107303 v 900600 l -11657,107303 -49733,132665 -84969,113373 -113373,84969 -132665,49733 -107303,11657 h -900600 l -107303,-11657 -132665,-49733 -113373,-84969 -84969,-113373 -49733,-132665 -11657,-107303 z"
       id="path164157" />
    <path
       style="fill:#ffde00;fill-opacity:1;fill-rule:evenodd;stroke:#ffde00;stroke-width:1;stroke-linecap:round;stroke-linejoin:round;stroke-opacity:1"
       d="m 29519961,25291210 20458,-155395 59980,-144805 95415,-124347 124347,-95415 144805,-59980 155395,-20458 h 699200 l 155395,20458 144805,59980 124347,95415 95415,124347 59980,144805 20458,155395 v 699200 l -20458,155395 -59980,144805 -95415,124347 -124347,95415 -144805,59980 -155395,20458 h -699200 l -155395,-20458 -144805,-59980 -124347,-95415 -95415,-124347 -59980,-144805 -20458,-155395 z"
       id="path164159" />
    <circle
       cx="4109961"
       cy="7198810"
       r="650000"
       id="circle164167"
       style="fill:#ffde00;fill-opacity:1;stroke:#ffde00;stroke-width:1;stroke-linecap:round;stroke-linejoin:round;stroke-opacity:1" />
    <circle
       cx="4109961"
       cy="55198808"
       r="650000"
       id="circle164183"
       style="fill:#ffde00;fill-opacity:1;stroke:#ffde00;stroke-width:1;stroke-linecap:round;stroke-linejoin:round;stroke-opacity:1" />
    <path
       style="fill:#ffde00;fill-opacity:1;fill-rule:evenodd;stroke:#ffde00;stroke-width:1;stroke-linecap:round;stroke-linejoin:round;stroke-opacity:1"
       d="m 34330460,19784555 -68262,52380 -107565,39151 h -114470 l -107565,-39151 -68262,-52380 -665246,-665246 -52380,-68262 -39151,-107565 v -114470 l 39151,-107565 52380,-68262 665246,-665246 68262,-52380 107565,-39151 h 114470 l 107565,39151 68262,52380 665246,665246 52380,68262 39151,107565 v 114470 l -39151,107565 -52380,68262 z"
       id="path164197" />
    <circle
       cx="31622524"
       cy="16411373"
       r="800000"
       id="circle164199"
       style="fill:#ffde00;fill-opacity:1;stroke:#ffde00;stroke-width:1;stroke-linecap:round;stroke-linejoin:round;stroke-opacity:1" />
    <path
       style="fill:#ffde00;fill-opacity:1;fill-rule:evenodd;stroke:#ffde00;stroke-width:1;stroke-linecap:round;stroke-linejoin:round;stroke-opacity:1"
       d="m 45359961,33348810 95671,19030 81106,54193 54193,81106 19030,95671 v 1200000 l -19030,95671 -54193,81106 -81106,54193 -95671,19030 h -1450000 l -95671,-19030 -81106,-54193 -54193,-81106 -19030,-95671 v -1200000 l 19030,-95671 54193,-81106 81106,-54193 95671,-19030 z"
       id="path164213" />
    <path
       d="m 44759961,36698810 h -250000"
       id="path164219"
       style="fill:#ffde00;fill-opacity:1;stroke:#ffde00;stroke-width:1700000;stroke-linecap:round;stroke-linejoin:round;stroke-opacity:1" />
    <path
       d="m 44759961,39198810 h -250000"
       id="path164221"
       style="fill:#ffde00;fill-opacity:1;stroke:#ffde00;stroke-width:1700000;stroke-linecap:round;stroke-linejoin:round;stroke-opacity:1" />
    <path
       d="m 44759961,41698810 h -250000"
       id="path164223"
       style="fill:#ffde00;fill-opacity:1;stroke:#ffde00;stroke-width:1700000;stroke-linecap:round;stroke-linejoin:round;stroke-opacity:1" />
    <circle
       cx="6109961"
       cy="58198808"
       r="1800000"
       id="circle164231"
       style="fill:#ffde00;fill-opacity:1;stroke:#ffde00;stroke-width:1;stroke-linecap:round;stroke-linejoin:round;stroke-opacity:1" />
    <path
       style="fill:#ffde00;fill-opacity:1;fill-rule:evenodd;stroke:#ffde00;stroke-width:1;stroke-linecap:round;stroke-linejoin:round;stroke-opacity:1"
       d="m 42401226,27907444 1131369,-1131369 1131369,1131369 -1131369,1131369 z"
       id="path164241" />
    <circle
       cx="44946808"
       cy="29321658"
       r="800000"
       id="circle164243"
       style="fill:#ffde00;fill-opacity:1;stroke:#ffde00;stroke-width:1;stroke-linecap:round;stroke-linejoin:round;stroke-opacity:1" />
    <path
       style="fill:#ffde00;fill-opacity:1;fill-rule:evenodd;stroke:#ffde00;stroke-width:1;stroke-linecap:round;stroke-linejoin:round;stroke-opacity:1"
       d="m 45359961,14698810 95671,19030 81106,54193 54193,81106 19030,95671 v 1200000 l -19030,95671 -54193,81106 -81106,54193 -95671,19030 h -1450000 l -95671,-19030 -81106,-54193 -54193,-81106 -19030,-95671 v -1200000 l 19030,-95671 54193,-81106 81106,-54193 95671,-19030 z"
       id="path164257" />
    <path
       d="m 44759961,18048810 h -250000"
       id="path164263"
       style="fill:#ffde00;fill-opacity:1;stroke:#ffde00;stroke-width:1700000;stroke-linecap:round;stroke-linejoin:round;stroke-opacity:1" />
    <path
       d="m 44759961,20548810 h -250000"
       id="path164265"
       style="fill:#ffde00;fill-opacity:1;stroke:#ffde00;stroke-width:1700000;stroke-linecap:round;stroke-linejoin:round;stroke-opacity:1" />
    <path
       d="m 44759961,23048810 h -250000"
       id="path164267"
       style="fill:#ffde00;fill-opacity:1;stroke:#ffde00;stroke-width:1700000;stroke-linecap:round;stroke-linejoin:round;stroke-opacity:1" />
    <path
       style="fill:#ffde00;fill-opacity:1;fill-rule:evenodd;stroke:#ffde00;stroke-width:1;stroke-linecap:round;stroke-linejoin:round;stroke-opacity:1"
       d="m 12019961,60573809 h -1699998 v -1699998 h 1699998 z"
       id="path164283" />
    <circle
       cx="11169962"
       cy="57183808"
       r="850000"
       id="circle164285"
       style="fill:#ffde00;fill-opacity:1;stroke:#ffde00;stroke-width:1;stroke-linecap:round;stroke-linejoin:round;stroke-opacity:1" />
    <circle
       cx="13709962"
       cy="59723808"
       r="850000"
       id="circle164287"
       style="fill:#ffde00;fill-opacity:1;stroke:#ffde00;stroke-width:1;stroke-linecap:round;stroke-linejoin:round;stroke-opacity:1" />
    <circle
       cx="13709962"
       cy="57183808"
       r="850000"
       id="circle164289"
       style="fill:#ffde00;fill-opacity:1;stroke:#ffde00;stroke-width:1;stroke-linecap:round;stroke-linejoin:round;stroke-opacity:1" />
    <circle
       cx="16249962"
       cy="59723808"
       r="850000"
       id="circle164291"
       style="fill:#ffde00;fill-opacity:1;stroke:#ffde00;stroke-width:1;stroke-linecap:round;stroke-linejoin:round;stroke-opacity:1" />
    <circle
       cx="16249962"
       cy="57183808"
       r="850000"
       id="circle164293"
       style="fill:#ffde00;fill-opacity:1;stroke:#ffde00;stroke-width:1;stroke-linecap:round;stroke-linejoin:round;stroke-opacity:1" />
    <circle
       cx="18789962"
       cy="59723808"
       r="850000"
       id="circle164295"
       style="fill:#ffde00;fill-opacity:1;stroke:#ffde00;stroke-width:1;stroke-linecap:round;stroke-linejoin:round;stroke-opacity:1" />
    <circle
       cx="18789962"
       cy="57183808"
       r="850000"
       id="circle164297"
       style="fill:#ffde00;fill-opacity:1;stroke:#ffde00;stroke-width:1;stroke-linecap:round;stroke-linejoin:round;stroke-opacity:1" />
    <circle
       cx="21329962"
       cy="59723808"
       r="850000"
       id="circle164299"
       style="fill:#ffde00;fill-opacity:1;stroke:#ffde00;stroke-width:1;stroke-linecap:round;stroke-linejoin:round;stroke-opacity:1" />
    <circle
       cx="21329962"
       cy="57183808"
       r="850000"
       id="circle164301"
       style="fill:#ffde00;fill-opacity:1;stroke:#ffde00;stroke-width:1;stroke-linecap:round;stroke-linejoin:round;stroke-opacity:1" />
    <circle
       cx="23869962"
       cy="59723808"
       r="850000"
       id="circle164303"
       style="fill:#ffde00;fill-opacity:1;stroke:#ffde00;stroke-width:1;stroke-linecap:round;stroke-linejoin:round;stroke-opacity:1" />
    <circle
       cx="23869962"
       cy="57183808"
       r="850000"
       id="circle164305"
       style="fill:#ffde00;fill-opacity:1;stroke:#ffde00;stroke-width:1;stroke-linecap:round;stroke-linejoin:round;stroke-opacity:1" />
    <circle
       cx="26409962"
       cy="59723808"
       r="850000"
       id="circle164307"
       style="fill:#ffde00;fill-opacity:1;stroke:#ffde00;stroke-width:1;stroke-linecap:round;stroke-linejoin:round;stroke-opacity:1" />
    <circle
       cx="26409962"
       cy="57183808"
       r="850000"
       id="circle164309"
       style="fill:#ffde00;fill-opacity:1;stroke:#ffde00;stroke-width:1;stroke-linecap:round;stroke-linejoin:round;stroke-opacity:1" />
    <circle
       cx="28949962"
       cy="59723808"
       r="850000"
       id="circle164311"
       style="fill:#ffde00;fill-opacity:1;stroke:#ffde00;stroke-width:1;stroke-linecap:round;stroke-linejoin:round;stroke-opacity:1" />
    <circle
       cx="28949962"
       cy="57183808"
       r="850000"
       id="circle164313"
       style="fill:#ffde00;fill-opacity:1;stroke:#ffde00;stroke-width:1;stroke-linecap:round;stroke-linejoin:round;stroke-opacity:1" />
    <circle
       cx="31489962"
       cy="59723808"
       r="850000"
       id="circle164315"
       style="fill:#ffde00;fill-opacity:1;stroke:#ffde00;stroke-width:1;stroke-linecap:round;stroke-linejoin:round;stroke-opacity:1" />
    <circle
       cx="31489962"
       cy="57183808"
       r="850000"
       id="circle164317"
       style="fill:#ffde00;fill-opacity:1;stroke:#ffde00;stroke-width:1;stroke-linecap:round;stroke-linejoin:round;stroke-opacity:1" />
    <circle
       cx="34029960"
       cy="59723808"
       r="850000"
       id="circle164319"
       style="fill:#ffde00;fill-opacity:1;stroke:#ffde00;stroke-width:1;stroke-linecap:round;stroke-linejoin:round;stroke-opacity:1" />
    <circle
       cx="34029960"
       cy="57183808"
       r="850000"
       id="circle164321"
       style="fill:#ffde00;fill-opacity:1;stroke:#ffde00;stroke-width:1;stroke-linecap:round;stroke-linejoin:round;stroke-opacity:1" />
    <circle
       cx="36569960"
       cy="59723808"
       r="850000"
       id="circle164323"
       style="fill:#ffde00;fill-opacity:1;stroke:#ffde00;stroke-width:1;stroke-linecap:round;stroke-linejoin:round;stroke-opacity:1" />
    <circle
       cx="36569960"
       cy="57183808"
       r="850000"
       id="circle164325"
       style="fill:#ffde00;fill-opacity:1;stroke:#ffde00;stroke-width:1;stroke-linecap:round;stroke-linejoin:round;stroke-opacity:1" />
    <circle
       cx="39109960"
       cy="59723808"
       r="850000"
       id="circle164327"
       style="fill:#ffde00;fill-opacity:1;stroke:#ffde00;stroke-width:1;stroke-linecap:round;stroke-linejoin:round;stroke-opacity:1" />
    <circle
       cx="39109960"
       cy="57183808"
       r="850000"
       id="circle164329"
       style="fill:#ffde00;fill-opacity:1;stroke:#ffde00;stroke-width:1;stroke-linecap:round;stroke-linejoin:round;stroke-opacity:1" />
    <path
       style="fill:#ffde00;fill-opacity:1;fill-rule:evenodd;stroke:#ffde00;stroke-width:1;stroke-linecap:round;stroke-linejoin:round;stroke-opacity:1"
       d="m 15074216,7469309 -52380,-68262 -39151,-107565 v -114470 l 39151,-107565 52380,-68262 665246,-665246 68262,-52380 107565,-39151 h 114470 l 107565,39151 68262,52380 665246,665246 52380,68262 39151,107565 v 114470 l -39151,107565 -52380,68262 -665246,665246 -68262,52380 -107565,39151 h -114470 l -107565,-39151 -68262,-52380 z"
       id="path164335" />
    <circle
       cx="18447398"
       cy="4761373"
       r="800000"
       id="circle164337"
       style="fill:#ffde00;fill-opacity:1;stroke:#ffde00;stroke-width:1;stroke-linecap:round;stroke-linejoin:round;stroke-opacity:1" />
    <path
       style="fill:#ffde00;fill-opacity:1;fill-rule:evenodd;stroke:#ffde00;stroke-width:1;stroke-linecap:round;stroke-linejoin:round;stroke-opacity:1"
       d="m 19009961,16598810 h -550000 v -4967 l -79941,-1465 -135315,-42275 -118010,-78555 -91220,-108519 -57095,-129759 -17583,-134460 h -836 v -500000 h 836 l -799,-6109 21811,-140077 60248,-128325 93844,-106258 119895,-75648 136307,-38957 67858,415 v -5041 h 550000 z"
       id="path164347" />
    <path
       style="fill:#ffde00;fill-opacity:1;fill-rule:evenodd;stroke:#ffde00;stroke-width:1;stroke-linecap:round;stroke-linejoin:round;stroke-opacity:1"
       d="m 19259962,16598809 v -1499998 h 999998 v 1499998 z"
       id="path164349" />
    <path
       style="fill:#ffde00;fill-opacity:1;fill-rule:evenodd;stroke:#ffde00;stroke-width:1;stroke-linecap:round;stroke-linejoin:round;stroke-opacity:1"
       d="m 21059961,15103851 73905,451 135821,40619 118962,77107 92538,107397 58677,129052 20097,140333 v 500000 l -149,12216 -23520,139801 -61812,127579 -95135,105104 -120810,74177 -136773,37289 -61801,-1133 v 4967 h -550000 v -1500000 h 550000 z"
       id="path164351" />
    <path
       style="fill:#ffde00;fill-opacity:1;fill-rule:evenodd;stroke:#ffde00;stroke-width:1;stroke-linecap:round;stroke-linejoin:round;stroke-opacity:1"
       d="m 31259961,27548810 h 550000 v 4967 l 79941,1465 135315,42275 118010,78555 91220,108519 57095,129759 17583,134460 h 836 v 500000 h -836 l 799,6109 -21811,140077 -60248,128325 -93844,106258 -119895,75648 -136307,38957 -67858,-415 v 5041 h -550000 z"
       id="path164357" />
    <path
       style="fill:#ffde00;fill-opacity:1;fill-rule:evenodd;stroke:#ffde00;stroke-width:1;stroke-linecap:round;stroke-linejoin:round;stroke-opacity:1"
       d="m 31009960,27548811 v 1499998 h -999998 v -1499998 z"
       id="path164359" />
    <path
       style="fill:#ffde00;fill-opacity:1;fill-rule:evenodd;stroke:#ffde00;stroke-width:1;stroke-linecap:round;stroke-linejoin:round;stroke-opacity:1"
       d="m 29209961,29043769 -73905,-451 -135821,-40619 -118962,-77107 -92538,-107397 -58677,-129052 -20097,-140333 v -500000 l 149,-12216 23520,-139801 61812,-127579 95135,-105104 120810,-74177 136773,-37289 61801,1133 v -4967 h 550000 v 1500000 h -550000 z"
       id="path164361" />
    <path
       style="fill:#ffde00;fill-opacity:1;fill-rule:evenodd;stroke:#ffde00;stroke-width:1;stroke-linecap:round;stroke-linejoin:round;stroke-opacity:1"
       d="m 31259961,30048810 h 550000 v 4967 l 79941,1465 135315,42275 118010,78555 91220,108519 57095,129759 17583,134460 h 836 v 500000 h -836 l 799,6109 -21811,140077 -60248,128325 -93844,106258 -119895,75648 -136307,38957 -67858,-415 v 5041 h -550000 z"
       id="path164367" />
    <path
       style="fill:#ffde00;fill-opacity:1;fill-rule:evenodd;stroke:#ffde00;stroke-width:1;stroke-linecap:round;stroke-linejoin:round;stroke-opacity:1"
       d="m 31009960,30048811 v 1499998 h -999998 v -1499998 z"
       id="path164369" />
    <path
       style="fill:#ffde00;fill-opacity:1;fill-rule:evenodd;stroke:#ffde00;stroke-width:1;stroke-linecap:round;stroke-linejoin:round;stroke-opacity:1"
       d="m 29209961,31543769 -73905,-451 -135821,-40619 -118962,-77107 -92538,-107397 -58677,-129052 -20097,-140333 v -500000 l 149,-12216 23520,-139801 61812,-127579 95135,-105104 120810,-74177 136773,-37289 61801,1133 v -4967 h 550000 v 1500000 h -550000 z"
       id="path164371" />
    <path
       style="fill:#ffde00;fill-opacity:1;fill-rule:evenodd;stroke:#ffde00;stroke-width:1;stroke-linecap:round;stroke-linejoin:round;stroke-opacity:1"
       d="m 31109961,6948810 h 550000 v 4967 l 79941,1465 135315,42275 118010,78555 91220,108519 57095,129759 17583,134460 h 836 v 500000 h -836 l 799,6109 -21811,140077 -60248,128325 -93844,106258 -119895,75648 -136307,38957 -67858,-415 v 5041 h -550000 z"
       id="path164377" />
    <path
       style="fill:#ffde00;fill-opacity:1;fill-rule:evenodd;stroke:#ffde00;stroke-width:1;stroke-linecap:round;stroke-linejoin:round;stroke-opacity:1"
       d="m 30859960,6948811 v 1499998 h -999998 V 6948811 Z"
       id="path164379" />
    <path
       style="fill:#ffde00;fill-opacity:1;fill-rule:evenodd;stroke:#ffde00;stroke-width:1;stroke-linecap:round;stroke-linejoin:round;stroke-opacity:1"
       d="m 29059961,8443769 -73905,-451 -135821,-40619 -118962,-77107 -92538,-107397 -58677,-129052 -20097,-140333 v -500000 l 149,-12216 23520,-139801 61812,-127579 95135,-105104 120810,-74177 136773,-37289 61801,1133 v -4967 h 550000 v 1500000 h -550000 z"
       id="path164381" />
    <path
       style="fill:#ffde00;fill-opacity:1;fill-rule:evenodd;stroke:#ffde00;stroke-width:1;stroke-linecap:round;stroke-linejoin:round;stroke-opacity:1"
       d="m 19009961,14098810 h -550000 v -4967 l -79941,-1465 -135315,-42275 -118010,-78555 -91220,-108519 -57095,-129759 -17583,-134460 h -836 v -500000 h 836 l -799,-6109 21811,-140077 60248,-128325 93844,-106258 119895,-75648 136307,-38957 67858,415 v -5041 h 550000 z"
       id="path164387" />
    <path
       style="fill:#ffde00;fill-opacity:1;fill-rule:evenodd;stroke:#ffde00;stroke-width:1;stroke-linecap:round;stroke-linejoin:round;stroke-opacity:1"
       d="m 19259962,14098809 v -1499998 h 999998 v 1499998 z"
       id="path164389" />
    <path
       style="fill:#ffde00;fill-opacity:1;fill-rule:evenodd;stroke:#ffde00;stroke-width:1;stroke-linecap:round;stroke-linejoin:round;stroke-opacity:1"
       d="m 21059961,12603851 73905,451 135821,40619 118962,77107 92538,107397 58677,129052 20097,140333 v 500000 l -149,12216 -23520,139801 -61812,127579 -95135,105104 -120810,74177 -136773,37289 -61801,-1133 v 4967 h -550000 v -1500000 h 550000 z"
       id="path164391" />
    <path
       style="fill:#ffde00;fill-opacity:1;fill-rule:evenodd;stroke:#ffde00;stroke-width:1;stroke-linecap:round;stroke-linejoin:round;stroke-opacity:1"
       d="m 31109961,9448810 h 550000 v 4967 l 79941,1465 135315,42275 118010,78555 91220,108519 57095,129759 17583,134460 h 836 v 500000 h -836 l 799,6109 -21811,140077 -60248,128325 -93844,106258 -119895,75648 -136307,38957 -67858,-415 v 5041 h -550000 z"
       id="path164397" />
    <path
       style="fill:#ffde00;fill-opacity:1;fill-rule:evenodd;stroke:#ffde00;stroke-width:1;stroke-linecap:round;stroke-linejoin:round;stroke-opacity:1"
       d="m 30859960,9448811 v 1499998 h -999998 V 9448811 Z"
       id="path164399" />
    <path
       style="fill:#ffde00;fill-opacity:1;fill-rule:evenodd;stroke:#ffde00;stroke-width:1;stroke-linecap:round;stroke-linejoin:round;stroke-opacity:1"
       d="m 29059961,10943769 -73905,-451 -135821,-40619 -118962,-77107 -92538,-107397 -58677,-129052 -20097,-140333 v -500000 l 149,-12216 23520,-139801 61812,-127579 95135,-105104 120810,-74177 136773,-37289 61801,1133 v -4967 h 550000 v 1500000 h -550000 z"
       id="path164401" />
    <path
       style="fill:#ffde00;fill-opacity:1;fill-rule:evenodd;stroke:#ffde00;stroke-width:1;stroke-linecap:round;stroke-linejoin:round;stroke-opacity:1"
       d="m 18959961,37098810 h -550000 v -4967 l -79941,-1465 -135315,-42275 -118010,-78555 -91220,-108519 -57095,-129759 -17583,-134460 h -836 v -500000 h 836 l -799,-6109 21811,-140077 60248,-128325 93844,-106258 119895,-75648 136307,-38957 67858,415 v -5041 h 550000 z"
       id="path164407" />
    <path
       style="fill:#ffde00;fill-opacity:1;fill-rule:evenodd;stroke:#ffde00;stroke-width:1;stroke-linecap:round;stroke-linejoin:round;stroke-opacity:1"
       d="m 19209962,37098809 v -1499998 h 999998 v 1499998 z"
       id="path164409" />
    <path
       style="fill:#ffde00;fill-opacity:1;fill-rule:evenodd;stroke:#ffde00;stroke-width:1;stroke-linecap:round;stroke-linejoin:round;stroke-opacity:1"
       d="m 21009961,35603851 73905,451 135821,40619 118962,77107 92538,107397 58677,129052 20097,140333 v 500000 l -149,12216 -23520,139801 -61812,127579 -95135,105104 -120810,74177 -136773,37289 -61801,-1133 v 4967 h -550000 v -1500000 h 550000 z"
       id="path164411" />
    <path
       style="fill:#ffde00;fill-opacity:1;fill-rule:evenodd;stroke:#ffde00;stroke-width:1;stroke-linecap:round;stroke-linejoin:round;stroke-opacity:1"
       d="m 18959961,34598810 h -550000 v -4967 l -79941,-1465 -135315,-42275 -118010,-78555 -91220,-108519 -57095,-129759 -17583,-134460 h -836 v -500000 h 836 l -799,-6109 21811,-140077 60248,-128325 93844,-106258 119895,-75648 136307,-38957 67858,415 v -5041 h 550000 z"
       id="path164417" />
    <path
       style="fill:#ffde00;fill-opacity:1;fill-rule:evenodd;stroke:#ffde00;stroke-width:1;stroke-linecap:round;stroke-linejoin:round;stroke-opacity:1"
       d="m 19209962,34598809 v -1499998 h 999998 v 1499998 z"
       id="path164419" />
    <path
       style="fill:#ffde00;fill-opacity:1;fill-rule:evenodd;stroke:#ffde00;stroke-width:1;stroke-linecap:round;stroke-linejoin:round;stroke-opacity:1"
       d="m 21009961,33103851 73905,451 135821,40619 118962,77107 92538,107397 58677,129052 20097,140333 v 500000 l -149,12216 -23520,139801 -61812,127579 -95135,105104 -120810,74177 -136773,37289 -61801,-1133 v 4967 h -550000 v -1500000 h 550000 z"
       id="path164421" />
    <path
       style="fill:#ffde00;fill-opacity:1;fill-rule:evenodd;stroke:#ffde00;stroke-width:1;stroke-linecap:round;stroke-linejoin:round;stroke-opacity:1"
       d="m 30159961,37098810 v 550000 h -4967 l -1465,79941 -42275,135315 -78555,118010 -108519,91220 -129759,57095 -134460,17583 v 836 h -500000 v -836 l -6109,799 -140077,-21811 -128325,-60248 -106258,-93844 -75648,-119895 -38957,-136307 415,-67858 h -5041 v -550000 z"
       id="path164427" />
    <path
       style="fill:#ffde00;fill-opacity:1;fill-rule:evenodd;stroke:#ffde00;stroke-width:1;stroke-linecap:round;stroke-linejoin:round;stroke-opacity:1"
       d="m 30159960,36848809 h -1499998 v -999998 h 1499998 z"
       id="path164429" />
    <path
       style="fill:#ffde00;fill-opacity:1;fill-rule:evenodd;stroke:#ffde00;stroke-width:1;stroke-linecap:round;stroke-linejoin:round;stroke-opacity:1"
       d="m 28665002,35048810 451,-73905 40619,-135821 77107,-118962 107397,-92538 129052,-58677 140333,-20097 h 500000 l 12216,149 139801,23520 127579,61812 105104,95135 74177,120810 37289,136773 -1133,61801 h 4967 v 550000 h -1500000 v -550000 z"
       id="path164431" />
  </g>
  <g
     id="g164435"
     style="fill:#000000;fill-opacity:0;stroke:#000000;stroke-width:0;stroke-linecap:round;stroke-linejoin:round;stroke-opacity:1" />
  <g
     id="g164437"
     style="fill:#000000;fill-opacity:0;stroke:#000000;stroke-width:0;stroke-linecap:round;stroke-linejoin:round;stroke-opacity:1" />
  <g
     id="g164439"
     style="fill:#000000;fill-opacity:0;stroke:#000000;stroke-width:0;stroke-linecap:round;stroke-linejoin:round;stroke-opacity:1" />
</svg>
