M48
; DRILL file {KiCad (5.99.0-11678-ga208dac8d8)} date Thu Aug 12 16:35:15 2021
; FORMAT={-:-/ absolute / inch / decimal}
; #@! TF.CreationDate,2021-08-12T16:35:15+03:00
; #@! TF.GenerationSoftware,Kicad,Pcbnew,(5.99.0-11678-ga208dac8d8)
; #@! TF.FileFunction,Plated,1,2,PTH
FMAT,2
INCH
; #@! TA.AperFunction,Plated,PTH,ViaDrill
T1C0.0079
; #@! TA.AperFunction,Plated,PTH,ComponentDrill
T2C0.0315
; #@! TA.AperFunction,Plated,PTH,ComponentDrill
T3C0.0374
; #@! TA.AperFunction,Plated,PTH,ComponentDrill
T4C0.0394
; #@! TA.AperFunction,Plated,PTH,ComponentDrill
T5C0.0531
; #@! TA.AperFunction,Plated,PTH,ComponentDrill
T6C0.1260
%
G90
G05
T1
X3.9764Y-2.2441
X3.9764Y-2.3228
X3.9764Y-2.4016
X3.9764Y-2.4803
X3.9764Y-2.5591
X3.9764Y-2.6378
X3.9764Y-2.7165
X3.9764Y-2.7953
X3.9764Y-2.9528
X3.9764Y-3.0315
X3.9764Y-3.1102
X3.9764Y-3.189
X3.9764Y-3.2677
X3.9764Y-3.3465
X3.9764Y-3.4252
X3.9764Y-3.6614
X3.9764Y-3.7402
X3.9764Y-3.8189
X3.9764Y-3.8976
X3.9764Y-3.9764
X3.9764Y-4.0551
X4.0517Y-2.7343
X4.059Y-2.9907
X4.0595Y-3.4052
X4.061Y-3.75
X4.0614Y-3.6513
X4.065Y-4.0276
X4.0709Y-3.8878
X4.1236Y-2.6569
X4.1291Y-3.7158
X4.1352Y-2.461
X4.1356Y-2.5562
X4.1369Y-2.2596
X4.1398Y-2.3626
X4.1556Y-2.7812
X4.1574Y-3.4977
X4.1618Y-3.1993
X4.1631Y-3.1005
X4.1633Y-3.399
X4.1635Y-3.2961
X4.1639Y-3.0003
X4.1654Y-4.0118
X4.1693Y-3.8898
X4.1989Y-3.793
X4.265Y-3.6148
X4.2677Y-3.8898
X4.2804Y-3.7047
X4.2887Y-3.0999
X4.2904Y-3.3029
X4.2925Y-3.2022
X4.2926Y-2.2784
X4.2968Y-3.0259
X4.299Y-2.9546
X4.305Y-2.1561
X4.3425Y-2.9272
X4.3432Y-2.1063
X4.3525Y-3.8194
X4.3592Y-2.9528
X4.3643Y-3.4756
X4.3656Y-2.8683
X4.3701Y-2.0079
X4.374Y-3.9528
X4.3779Y-3.6132
X4.3779Y-4.0719
X4.3802Y-3.7585
X4.3809Y-2.7339
X4.3817Y-2.3502
X4.3817Y-2.4237
X4.3817Y-2.5032
X4.3817Y-2.576
X4.387Y-2.6453
X4.3978Y-2.9031
X4.4071Y-2.155
X4.4175Y-2.1019
X4.4199Y-3.7196
X4.4252Y-3.8228
X4.431Y-2.9873
X4.436Y-2.7914
X4.4409Y-3.9272
X4.4429Y-3.9902
X4.4488Y-2.0079
X4.4497Y-2.2782
X4.456Y-3.7578
X4.4613Y-3.2777
X4.4616Y-3.387
X4.4625Y-4.0696
X4.4626Y-3.1775
X4.464Y-3.4882
X4.4739Y-2.8343
X4.4861Y-3.7178
X4.4942Y-3.6183
X4.4977Y-3.8189
X4.4993Y-2.9792
X4.506Y-2.4824
X4.506Y-2.7817
X4.5079Y-3.9232
X4.5084Y-2.5782
X4.5143Y-2.2193
X4.5155Y-2.9152
X4.5217Y-3.9882
X4.5219Y-2.386
X4.5258Y-2.6608
X4.5276Y-2.0079
X4.5311Y-3.3016
X4.534Y-3.4926
X4.5394Y-3.3996
X4.5453Y-3.8878
X4.5476Y-2.832
X4.5543Y-3.1919
X4.5781Y-4.0703
X4.5885Y-4.0014
X4.5906Y-3.2539
X4.5906Y-3.3524
X4.5925Y-2.4469
X4.5925Y-2.5453
X4.5945Y-2.3524
X4.5965Y-2.183
X4.6051Y-3.7427
X4.6063Y-2.0079
X4.6106Y-3.8746
X4.6123Y-3.7709
X4.6151Y-2.8301
X4.6156Y-2.7838
X4.6163Y-2.8981
X4.6191Y-2.9644
X4.6339Y-2.2559
X4.6437Y-2.8051
X4.6472Y-2.3969
X4.6594Y-3.1142
X4.6701Y-2.6744
X4.675Y-2.8661
X4.6773Y-2.9726
X4.6791Y-2.9193
X4.6831Y-3.0256
X4.6837Y-3.9472
X4.6845Y-2.1619
X4.685Y-2.0079
X4.685Y-2.2146
X4.6859Y-2.4798
X4.6866Y-3.0764
X4.6878Y-3.2358
X4.6878Y-3.3189
X4.6878Y-3.4165
X4.6929Y-3.5925
X4.6949Y-2.5768
X4.7008Y-2.0807
X4.7028Y-4.0472
X4.7057Y-3.8326
X4.7067Y-3.9665
X4.7087Y-3.7421
X4.7126Y-2.7835
X4.7559Y-3.876
X4.7657Y-2.7933
X4.7677Y-3.8104
X4.7677Y-3.7323
X4.7783Y-3.3004
X4.7787Y-3.4008
X4.7795Y-2.4803
X4.7815Y-2.6804
X4.7815Y-2.5807
X4.7815Y-3.0
X4.7874Y-2.8976
X4.7953Y-4.0531
X4.8012Y-2.1575
X4.8012Y-3.8543
X4.803Y-3.5002
X4.8032Y-1.9943
X4.8091Y-2.5315
X4.8248Y-2.8996
X4.8263Y-2.0802
X4.828Y-2.6799
X4.836Y-3.6096
X4.8539Y-4.043
X4.864Y-2.7896
X4.8691Y-4.0222
X4.8922Y-3.8705
X4.9063Y-4.0526
X4.9075Y-2.5787
X4.9114Y-3.9161
X4.9137Y-3.7337
X4.9142Y-1.9922
X4.9149Y-3.5922
X4.9154Y-3.8563
X4.9193Y-2.6575
X4.9202Y-2.752
X4.9202Y-3.2787
X4.9213Y-3.0748
X4.9213Y-3.124
X4.9218Y-3.3844
X4.9224Y-3.3404
X4.9429Y-3.4646
X4.9429Y-3.7776
X4.9547Y-3.2534
X4.9575Y-3.8646
X4.9614Y-2.9051
X4.9685Y-2.7087
X4.9705Y-2.502
X4.9764Y-3.7776
X4.9813Y-4.0457
X4.9823Y-2.1713
X4.9848Y-2.5934
X4.9886Y-4.0992
X5.0Y-3.0827
X5.0047Y-4.0613
X5.0089Y-3.4769
X5.0096Y-3.5765
X5.0098Y-2.2244
X5.0098Y-2.3228
X5.0118Y-2.4055
X5.0118Y-3.2835
X5.0139Y-1.9924
X5.0157Y-3.0354
X5.0157Y-3.1339
X5.0218Y-3.6202
X5.0236Y-3.1811
X5.0242Y-4.0158
X5.0263Y-3.3906
X5.0321Y-2.4723
X5.0391Y-3.5637
X5.0413Y-2.437
X5.0423Y-2.1713
X5.0432Y-2.7939
X5.0437Y-2.6547
X5.0439Y-3.4975
X5.0453Y-3.2343
X5.0466Y-3.453
X5.0537Y-3.5346
X5.0591Y-3.5939
X5.061Y-2.2697
X5.0669Y-3.0827
X5.0671Y-3.7307
X5.0689Y-2.9606
X5.0728Y-3.1811
X5.0768Y-3.2657
X5.0768Y-3.3543
X5.0776Y-2.3622
X5.0788Y-3.5259
X5.0797Y-2.4373
X5.0922Y-2.0887
X5.0967Y-3.5441
X5.0973Y-3.9466
X5.0984Y-3.7539
X5.1015Y-3.7845
X5.1029Y-4.3005
X5.1046Y-3.9139
X5.1061Y-2.903
X5.1063Y-3.888
X5.1102Y-2.6904
X5.1157Y-3.8122
X5.1236Y-3.9546
X5.128Y-3.7795
X5.1389Y-2.1713
X5.1417Y-3.5965
X5.1437Y-4.0689
X5.1442Y-2.5861
X5.1444Y-3.9398
X5.1463Y-2.4087
X5.1478Y-2.5094
X5.1486Y-2.259
X5.1491Y-2.3327
X5.1516Y-3.7795
X5.1575Y-2.0079
X5.1752Y-3.7795
X5.1917Y-2.6282
X5.1949Y-4.063
X5.1988Y-4.0295
X5.2008Y-3.7795
X5.2023Y-3.0387
X5.2023Y-3.2883
X5.2026Y-3.3776
X5.2027Y-3.1146
X5.2028Y-3.1941
X5.2028Y-3.4804
X5.2045Y-4.3004
X5.2068Y-2.7108
X5.2079Y-2.5666
X5.2357Y-3.9537
X5.2362Y-2.0079
X5.2426Y-2.0799
X5.2429Y-4.1055
X5.2492Y-3.772
X5.2573Y-2.69
X5.2593Y-4.0255
X5.2635Y-2.772
X5.2638Y-2.6263
X5.2776Y-4.1102
X5.2794Y-4.0726
X5.2795Y-4.0433
X5.2831Y-3.8825
X5.295Y-3.812
X5.2992Y-3.7795
X5.2992Y-3.8386
X5.3015Y-3.2482
X5.3023Y-3.0246
X5.3035Y-3.1209
X5.3043Y-3.3542
X5.3043Y-3.4513
X5.3154Y-2.1835
X5.3168Y-2.4801
X5.3177Y-2.3812
X5.3187Y-2.2744
X5.3205Y-2.5795
X5.325Y-2.7956
X5.3327Y-3.7146
X5.3343Y-4.0303
X5.3683Y-3.9414
X5.3691Y-3.8337
X5.3717Y-3.998
X5.3884Y-4.1105
X5.3939Y-3.6243
X5.4114Y-3.4941
X5.43Y-2.8422
X5.439Y-3.8346
X5.4429Y-3.7185
X5.4479Y-3.0703
X5.4495Y-4.0707
X5.4498Y-3.9052
X5.4588Y-3.8813
X5.4602Y-3.8175
X5.4852Y-3.8608
X5.4949Y-4.0413
X5.5005Y-2.8344
X5.5139Y-3.7869
X5.5229Y-2.9354
X5.5305Y-3.9431
X5.5453Y-3.6181
X5.5458Y-3.164
X5.5512Y-3.7795
X5.5512Y-3.8976
X5.5689Y-3.9488
X5.5828Y-2.8808
X5.5844Y-4.0431
X5.5906Y-2.2441
X5.6299Y-2.2835
X5.6299Y-2.4016
X5.6299Y-2.9921
X5.6299Y-3.1496
X5.6299Y-3.2283
X5.6299Y-3.3071
X5.6299Y-3.3858
X5.6299Y-3.4646
X5.6299Y-3.5433
X5.6299Y-3.622
X5.6299Y-3.7795
X5.6299Y-3.8583
X5.6299Y-3.937
T2
X4.0157Y-3.565
X4.022Y-2.8557
X4.0777Y-2.8
X4.0945Y-3.565
X4.4434Y-2.2062
X4.4631Y-2.9395
X4.5408Y-2.1088
X4.5605Y-3.0369
X5.0595Y-2.5674
X5.157Y-2.6649
X5.5266Y-2.2864
X5.5285Y-3.02
X5.5822Y-2.3421
X5.5841Y-3.0757
T3
X4.0344Y-2.313
X4.0344Y-2.4114
X4.0344Y-2.5098
X4.0344Y-2.6083
X4.0344Y-3.0492
X4.0344Y-3.1476
X4.0344Y-3.2461
X4.0344Y-3.3445
X5.5719Y-2.5335
X5.5719Y-2.6319
X5.5719Y-2.7303
X5.5719Y-2.8287
X5.5719Y-3.2677
X5.5719Y-3.3661
X5.5719Y-3.4646
X5.5719Y-3.563
T4
X4.2421Y-2.0299
X4.2421Y-2.1299
X4.2421Y-2.2299
X4.2421Y-2.3299
X4.2421Y-2.4299
X4.2421Y-2.5299
X4.2421Y-2.6299
X4.2421Y-2.7299
X4.2421Y-2.8508
X4.2421Y-2.9508
X4.2421Y-3.0508
X4.2421Y-3.1508
X4.2421Y-3.2508
X4.2421Y-3.3508
X4.2421Y-3.4508
X4.2421Y-3.5508
X4.2543Y-4.1726
X4.2543Y-4.2726
X4.3543Y-4.1726
X4.3543Y-4.2726
X4.4543Y-4.1726
X4.4543Y-4.2726
X4.5421Y-2.7299
X4.5421Y-3.5508
X4.5543Y-4.1726
X4.5543Y-4.2726
X4.5921Y-2.6499
X4.5921Y-3.4708
X4.6421Y-2.7299
X4.6421Y-3.5508
X4.6543Y-4.1726
X4.6543Y-4.2726
X4.7421Y-2.0299
X4.7421Y-2.1299
X4.7421Y-2.2299
X4.7421Y-2.3299
X4.7421Y-2.4299
X4.7421Y-2.5299
X4.7421Y-2.6299
X4.7421Y-2.7299
X4.7421Y-2.8508
X4.7421Y-2.9508
X4.7421Y-3.0508
X4.7421Y-3.1508
X4.7421Y-3.2508
X4.7421Y-3.3508
X4.7421Y-3.4508
X4.7421Y-3.5508
X4.7543Y-4.1726
X4.7543Y-4.2726
X4.8543Y-4.1726
X4.8543Y-4.2726
X4.8642Y-2.0299
X4.8642Y-2.1299
X4.8642Y-2.2299
X4.8642Y-2.3299
X4.8642Y-2.4299
X4.8642Y-2.5299
X4.8642Y-2.6299
X4.8642Y-2.7299
X4.8642Y-2.8508
X4.8642Y-2.9508
X4.8642Y-3.0508
X4.8642Y-3.1508
X4.8642Y-3.2508
X4.8642Y-3.3508
X4.8642Y-3.4508
X4.8642Y-3.5508
X4.9543Y-4.1726
X4.9543Y-4.2726
X4.9642Y-2.0299
X4.9642Y-2.8508
X5.0142Y-2.1099
X5.0142Y-2.9308
X5.0543Y-4.1726
X5.0543Y-4.2726
X5.0642Y-2.0299
X5.0642Y-2.8508
X5.1543Y-4.1726
X5.1543Y-4.2726
X5.2543Y-4.1726
X5.2543Y-4.2726
X5.3543Y-4.1726
X5.3543Y-4.2726
X5.3642Y-2.0299
X5.3642Y-2.1299
X5.3642Y-2.2299
X5.3642Y-2.3299
X5.3642Y-2.4299
X5.3642Y-2.5299
X5.3642Y-2.6299
X5.3642Y-2.7299
X5.3642Y-2.8508
X5.3642Y-2.9508
X5.3642Y-3.0508
X5.3642Y-3.1508
X5.3642Y-3.2508
X5.3642Y-3.3508
X5.3642Y-3.4508
X5.3642Y-3.5508
T5
X4.2776Y-3.7933
X4.2776Y-3.9902
T6
X4.0551Y-2.0866
X4.0551Y-4.2126
X5.5512Y-2.0866
X5.5512Y-4.2126
T0
M30
