G04 #@! TF.GenerationSoftware,KiCad,Pcbnew,(5.99.0-11678-ga208dac8d8)*
G04 #@! TF.CreationDate,2021-08-12T16:35:19+03:00*
G04 #@! TF.ProjectId,StepperDriverModuleCarrier,53746570-7065-4724-9472-697665724d6f,rev?*
G04 #@! TF.SameCoordinates,Original*
G04 #@! TF.FileFunction,AssemblyDrawing,Top*
%FSLAX46Y46*%
G04 Gerber Fmt 4.6, Leading zero omitted, Abs format (unit mm)*
G04 Created by KiCad (PCBNEW (5.99.0-11678-ga208dac8d8)) date 2021-08-12 16:35:19*
%MOMM*%
%LPD*%
G01*
G04 APERTURE LIST*
%ADD10C,0.050000*%
%ADD11C,0.150000*%
%ADD12C,0.250000*%
%ADD13C,0.062500*%
%ADD14C,0.075000*%
%ADD15C,0.125000*%
%ADD16C,0.105000*%
%ADD17C,0.100000*%
%ADD18C,0.120000*%
G04 APERTURE END LIST*
D10*
G04 #@! TO.C,R23*
X113465476Y-100065119D02*
X113465476Y-100179404D01*
X113465476Y-100122261D02*
X113265476Y-100122261D01*
X113294047Y-100141309D01*
X113313095Y-100160357D01*
X113322619Y-100179404D01*
X113465476Y-99979404D02*
X113265476Y-99979404D01*
X113389285Y-99960357D02*
X113465476Y-99903214D01*
X113332142Y-99903214D02*
X113408333Y-99979404D01*
G04 #@! TO.C,R15*
X118265476Y-88465119D02*
X118265476Y-88579404D01*
X118265476Y-88522261D02*
X118065476Y-88522261D01*
X118094047Y-88541309D01*
X118113095Y-88560357D01*
X118122619Y-88579404D01*
X118065476Y-88341309D02*
X118065476Y-88322261D01*
X118075000Y-88303214D01*
X118084523Y-88293690D01*
X118103571Y-88284166D01*
X118141666Y-88274642D01*
X118189285Y-88274642D01*
X118227380Y-88284166D01*
X118246428Y-88293690D01*
X118255952Y-88303214D01*
X118265476Y-88322261D01*
X118265476Y-88341309D01*
X118255952Y-88360357D01*
X118246428Y-88369880D01*
X118227380Y-88379404D01*
X118189285Y-88388928D01*
X118141666Y-88388928D01*
X118103571Y-88379404D01*
X118084523Y-88369880D01*
X118075000Y-88360357D01*
X118065476Y-88341309D01*
X118265476Y-88188928D02*
X118065476Y-88188928D01*
X118189285Y-88169880D02*
X118265476Y-88112738D01*
X118132142Y-88112738D02*
X118208333Y-88188928D01*
D11*
G04 #@! TO.C,M3*
X107003571Y-93104761D02*
X107051190Y-92961904D01*
X107098809Y-92914285D01*
X107194047Y-92866666D01*
X107336904Y-92866666D01*
X107432142Y-92914285D01*
X107479761Y-92961904D01*
X107527380Y-93057142D01*
X107527380Y-93438095D01*
X106527380Y-93438095D01*
X106527380Y-93104761D01*
X106575000Y-93009523D01*
X106622619Y-92961904D01*
X106717857Y-92914285D01*
X106813095Y-92914285D01*
X106908333Y-92961904D01*
X106955952Y-93009523D01*
X107003571Y-93104761D01*
X107003571Y-93438095D01*
X107527380Y-92438095D02*
X106860714Y-92438095D01*
X106527380Y-92438095D02*
X106575000Y-92485714D01*
X106622619Y-92438095D01*
X106575000Y-92390476D01*
X106527380Y-92438095D01*
X106622619Y-92438095D01*
X106860714Y-91961904D02*
X107860714Y-91961904D01*
X106908333Y-91961904D02*
X106860714Y-91866666D01*
X106860714Y-91676190D01*
X106908333Y-91580952D01*
X106955952Y-91533333D01*
X107051190Y-91485714D01*
X107336904Y-91485714D01*
X107432142Y-91533333D01*
X107479761Y-91580952D01*
X107527380Y-91676190D01*
X107527380Y-91866666D01*
X107479761Y-91961904D01*
X107527380Y-90914285D02*
X107479761Y-91009523D01*
X107432142Y-91057142D01*
X107336904Y-91104761D01*
X107051190Y-91104761D01*
X106955952Y-91057142D01*
X106908333Y-91009523D01*
X106860714Y-90914285D01*
X106860714Y-90771428D01*
X106908333Y-90676190D01*
X106955952Y-90628571D01*
X107051190Y-90580952D01*
X107336904Y-90580952D01*
X107432142Y-90628571D01*
X107479761Y-90676190D01*
X107527380Y-90771428D01*
X107527380Y-90914285D01*
X107527380Y-90009523D02*
X107479761Y-90104761D01*
X107384523Y-90152380D01*
X106527380Y-90152380D01*
X107527380Y-89200000D02*
X107003571Y-89200000D01*
X106908333Y-89247619D01*
X106860714Y-89342857D01*
X106860714Y-89533333D01*
X106908333Y-89628571D01*
X107479761Y-89200000D02*
X107527380Y-89295238D01*
X107527380Y-89533333D01*
X107479761Y-89628571D01*
X107384523Y-89676190D01*
X107289285Y-89676190D01*
X107194047Y-89628571D01*
X107146428Y-89533333D01*
X107146428Y-89295238D01*
X107098809Y-89200000D01*
X107527380Y-88723809D02*
X106860714Y-88723809D01*
X107051190Y-88723809D02*
X106955952Y-88676190D01*
X106908333Y-88628571D01*
X106860714Y-88533333D01*
X106860714Y-88438095D01*
X107622619Y-88342857D02*
X107622619Y-87580952D01*
X107479761Y-87390476D02*
X107527380Y-87247619D01*
X107527380Y-87009523D01*
X107479761Y-86914285D01*
X107432142Y-86866666D01*
X107336904Y-86819047D01*
X107241666Y-86819047D01*
X107146428Y-86866666D01*
X107098809Y-86914285D01*
X107051190Y-87009523D01*
X107003571Y-87200000D01*
X106955952Y-87295238D01*
X106908333Y-87342857D01*
X106813095Y-87390476D01*
X106717857Y-87390476D01*
X106622619Y-87342857D01*
X106575000Y-87295238D01*
X106527380Y-87200000D01*
X106527380Y-86961904D01*
X106575000Y-86819047D01*
X106860714Y-86533333D02*
X106860714Y-86152380D01*
X106527380Y-86390476D02*
X107384523Y-86390476D01*
X107479761Y-86342857D01*
X107527380Y-86247619D01*
X107527380Y-86152380D01*
X107479761Y-85438095D02*
X107527380Y-85533333D01*
X107527380Y-85723809D01*
X107479761Y-85819047D01*
X107384523Y-85866666D01*
X107003571Y-85866666D01*
X106908333Y-85819047D01*
X106860714Y-85723809D01*
X106860714Y-85533333D01*
X106908333Y-85438095D01*
X107003571Y-85390476D01*
X107098809Y-85390476D01*
X107194047Y-85866666D01*
X106860714Y-84961904D02*
X107860714Y-84961904D01*
X106908333Y-84961904D02*
X106860714Y-84866666D01*
X106860714Y-84676190D01*
X106908333Y-84580952D01*
X106955952Y-84533333D01*
X107051190Y-84485714D01*
X107336904Y-84485714D01*
X107432142Y-84533333D01*
X107479761Y-84580952D01*
X107527380Y-84676190D01*
X107527380Y-84866666D01*
X107479761Y-84961904D01*
X106860714Y-84057142D02*
X107860714Y-84057142D01*
X106908333Y-84057142D02*
X106860714Y-83961904D01*
X106860714Y-83771428D01*
X106908333Y-83676190D01*
X106955952Y-83628571D01*
X107051190Y-83580952D01*
X107336904Y-83580952D01*
X107432142Y-83628571D01*
X107479761Y-83676190D01*
X107527380Y-83771428D01*
X107527380Y-83961904D01*
X107479761Y-84057142D01*
X107479761Y-82771428D02*
X107527380Y-82866666D01*
X107527380Y-83057142D01*
X107479761Y-83152380D01*
X107384523Y-83200000D01*
X107003571Y-83200000D01*
X106908333Y-83152380D01*
X106860714Y-83057142D01*
X106860714Y-82866666D01*
X106908333Y-82771428D01*
X107003571Y-82723809D01*
X107098809Y-82723809D01*
X107194047Y-83200000D01*
X107527380Y-82295238D02*
X106860714Y-82295238D01*
X107051190Y-82295238D02*
X106955952Y-82247619D01*
X106908333Y-82200000D01*
X106860714Y-82104761D01*
X106860714Y-82009523D01*
X107622619Y-81914285D02*
X107622619Y-81152380D01*
X107527380Y-80914285D02*
X106527380Y-80914285D01*
X107241666Y-80580952D01*
X106527380Y-80247619D01*
X107527380Y-80247619D01*
X107527380Y-79628571D02*
X107479761Y-79723809D01*
X107432142Y-79771428D01*
X107336904Y-79819047D01*
X107051190Y-79819047D01*
X106955952Y-79771428D01*
X106908333Y-79723809D01*
X106860714Y-79628571D01*
X106860714Y-79485714D01*
X106908333Y-79390476D01*
X106955952Y-79342857D01*
X107051190Y-79295238D01*
X107336904Y-79295238D01*
X107432142Y-79342857D01*
X107479761Y-79390476D01*
X107527380Y-79485714D01*
X107527380Y-79628571D01*
X106860714Y-79009523D02*
X106860714Y-78628571D01*
X106527380Y-78866666D02*
X107384523Y-78866666D01*
X107479761Y-78819047D01*
X107527380Y-78723809D01*
X107527380Y-78628571D01*
X107527380Y-78152380D02*
X107479761Y-78247619D01*
X107432142Y-78295238D01*
X107336904Y-78342857D01*
X107051190Y-78342857D01*
X106955952Y-78295238D01*
X106908333Y-78247619D01*
X106860714Y-78152380D01*
X106860714Y-78009523D01*
X106908333Y-77914285D01*
X106955952Y-77866666D01*
X107051190Y-77819047D01*
X107336904Y-77819047D01*
X107432142Y-77866666D01*
X107479761Y-77914285D01*
X107527380Y-78009523D01*
X107527380Y-78152380D01*
X107527380Y-77390476D02*
X106860714Y-77390476D01*
X107051190Y-77390476D02*
X106955952Y-77342857D01*
X106908333Y-77295238D01*
X106860714Y-77200000D01*
X106860714Y-77104761D01*
X107622619Y-77009523D02*
X107622619Y-76247619D01*
X107241666Y-76057142D02*
X107241666Y-75580952D01*
X107527380Y-76152380D02*
X106527380Y-75819047D01*
X107527380Y-75485714D01*
X107527380Y-74628571D02*
X107527380Y-75200000D01*
X107527380Y-74914285D02*
X106527380Y-74914285D01*
X106670238Y-75009523D01*
X106765476Y-75104761D01*
X106813095Y-75200000D01*
X107241666Y-74247619D02*
X107241666Y-73771428D01*
X107527380Y-74342857D02*
X106527380Y-74009523D01*
X107527380Y-73676190D01*
X106622619Y-73390476D02*
X106575000Y-73342857D01*
X106527380Y-73247619D01*
X106527380Y-73009523D01*
X106575000Y-72914285D01*
X106622619Y-72866666D01*
X106717857Y-72819047D01*
X106813095Y-72819047D01*
X106955952Y-72866666D01*
X107527380Y-73438095D01*
X107527380Y-72819047D01*
X107003571Y-72057142D02*
X107051190Y-71914285D01*
X107098809Y-71866666D01*
X107194047Y-71819047D01*
X107336904Y-71819047D01*
X107432142Y-71866666D01*
X107479761Y-71914285D01*
X107527380Y-72009523D01*
X107527380Y-72390476D01*
X106527380Y-72390476D01*
X106527380Y-72057142D01*
X106575000Y-71961904D01*
X106622619Y-71914285D01*
X106717857Y-71866666D01*
X106813095Y-71866666D01*
X106908333Y-71914285D01*
X106955952Y-71961904D01*
X107003571Y-72057142D01*
X107003571Y-72390476D01*
X106622619Y-71438095D02*
X106575000Y-71390476D01*
X106527380Y-71295238D01*
X106527380Y-71057142D01*
X106575000Y-70961904D01*
X106622619Y-70914285D01*
X106717857Y-70866666D01*
X106813095Y-70866666D01*
X106955952Y-70914285D01*
X107527380Y-71485714D01*
X107527380Y-70866666D01*
X107003571Y-70104761D02*
X107051190Y-69961904D01*
X107098809Y-69914285D01*
X107194047Y-69866666D01*
X107336904Y-69866666D01*
X107432142Y-69914285D01*
X107479761Y-69961904D01*
X107527380Y-70057142D01*
X107527380Y-70438095D01*
X106527380Y-70438095D01*
X106527380Y-70104761D01*
X106575000Y-70009523D01*
X106622619Y-69961904D01*
X106717857Y-69914285D01*
X106813095Y-69914285D01*
X106908333Y-69961904D01*
X106955952Y-70009523D01*
X107003571Y-70104761D01*
X107003571Y-70438095D01*
X107527380Y-68914285D02*
X107527380Y-69485714D01*
X107527380Y-69200000D02*
X106527380Y-69200000D01*
X106670238Y-69295238D01*
X106765476Y-69390476D01*
X106813095Y-69485714D01*
X105627380Y-82009523D02*
X104627380Y-82009523D01*
X105341666Y-81676190D01*
X104627380Y-81342857D01*
X105627380Y-81342857D01*
X104627380Y-80961904D02*
X104627380Y-80342857D01*
X105008333Y-80676190D01*
X105008333Y-80533333D01*
X105055952Y-80438095D01*
X105103571Y-80390476D01*
X105198809Y-80342857D01*
X105436904Y-80342857D01*
X105532142Y-80390476D01*
X105579761Y-80438095D01*
X105627380Y-80533333D01*
X105627380Y-80819047D01*
X105579761Y-80914285D01*
X105532142Y-80961904D01*
D10*
G04 #@! TO.C,C2*
X123770595Y-93484523D02*
X123780119Y-93475000D01*
X123799166Y-93465476D01*
X123846785Y-93465476D01*
X123865833Y-93475000D01*
X123875357Y-93484523D01*
X123884880Y-93503571D01*
X123884880Y-93522619D01*
X123875357Y-93551190D01*
X123761071Y-93665476D01*
X123884880Y-93665476D01*
X123951547Y-93465476D02*
X124084880Y-93465476D01*
X123999166Y-93665476D01*
X124161071Y-93532142D02*
X124161071Y-93732142D01*
X124161071Y-93541666D02*
X124180119Y-93532142D01*
X124218214Y-93532142D01*
X124237261Y-93541666D01*
X124246785Y-93551190D01*
X124256309Y-93570238D01*
X124256309Y-93627380D01*
X124246785Y-93646428D01*
X124237261Y-93655952D01*
X124218214Y-93665476D01*
X124180119Y-93665476D01*
X124161071Y-93655952D01*
X124408690Y-93560714D02*
X124342023Y-93560714D01*
X124342023Y-93665476D02*
X124342023Y-93465476D01*
X124437261Y-93465476D01*
X124780119Y-93646428D02*
X124770595Y-93655952D01*
X124742023Y-93665476D01*
X124722976Y-93665476D01*
X124694404Y-93655952D01*
X124675357Y-93636904D01*
X124665833Y-93617857D01*
X124656309Y-93579761D01*
X124656309Y-93551190D01*
X124665833Y-93513095D01*
X124675357Y-93494047D01*
X124694404Y-93475000D01*
X124722976Y-93465476D01*
X124742023Y-93465476D01*
X124770595Y-93475000D01*
X124780119Y-93484523D01*
X124903928Y-93465476D02*
X124922976Y-93465476D01*
X124942023Y-93475000D01*
X124951547Y-93484523D01*
X124961071Y-93503571D01*
X124970595Y-93541666D01*
X124970595Y-93589285D01*
X124961071Y-93627380D01*
X124951547Y-93646428D01*
X124942023Y-93655952D01*
X124922976Y-93665476D01*
X124903928Y-93665476D01*
X124884880Y-93655952D01*
X124875357Y-93646428D01*
X124865833Y-93627380D01*
X124856309Y-93589285D01*
X124856309Y-93541666D01*
X124865833Y-93503571D01*
X124875357Y-93484523D01*
X124884880Y-93475000D01*
X124903928Y-93465476D01*
X125161071Y-93475000D02*
X125142023Y-93465476D01*
X125113452Y-93465476D01*
X125084880Y-93475000D01*
X125065833Y-93494047D01*
X125056309Y-93513095D01*
X125046785Y-93551190D01*
X125046785Y-93579761D01*
X125056309Y-93617857D01*
X125065833Y-93636904D01*
X125084880Y-93655952D01*
X125113452Y-93665476D01*
X125132500Y-93665476D01*
X125161071Y-93655952D01*
X125170595Y-93646428D01*
X125170595Y-93579761D01*
X125132500Y-93579761D01*
X125503928Y-93465476D02*
X125408690Y-93465476D01*
X125399166Y-93560714D01*
X125408690Y-93551190D01*
X125427738Y-93541666D01*
X125475357Y-93541666D01*
X125494404Y-93551190D01*
X125503928Y-93560714D01*
X125513452Y-93579761D01*
X125513452Y-93627380D01*
X125503928Y-93646428D01*
X125494404Y-93655952D01*
X125475357Y-93665476D01*
X125427738Y-93665476D01*
X125408690Y-93655952D01*
X125399166Y-93646428D01*
X125637261Y-93465476D02*
X125656309Y-93465476D01*
X125675357Y-93475000D01*
X125684880Y-93484523D01*
X125694404Y-93503571D01*
X125703928Y-93541666D01*
X125703928Y-93589285D01*
X125694404Y-93627380D01*
X125684880Y-93646428D01*
X125675357Y-93655952D01*
X125656309Y-93665476D01*
X125637261Y-93665476D01*
X125618214Y-93655952D01*
X125608690Y-93646428D01*
X125599166Y-93627380D01*
X125589642Y-93589285D01*
X125589642Y-93541666D01*
X125599166Y-93503571D01*
X125608690Y-93484523D01*
X125618214Y-93475000D01*
X125637261Y-93465476D01*
X125761071Y-93465476D02*
X125827738Y-93665476D01*
X125894404Y-93465476D01*
G04 #@! TO.C,C34*
X126131785Y-97884523D02*
X126112738Y-97884523D01*
X126093690Y-97875000D01*
X126084166Y-97865476D01*
X126074642Y-97846428D01*
X126065119Y-97808333D01*
X126065119Y-97760714D01*
X126074642Y-97722619D01*
X126084166Y-97703571D01*
X126093690Y-97694047D01*
X126112738Y-97684523D01*
X126131785Y-97684523D01*
X126150833Y-97694047D01*
X126160357Y-97703571D01*
X126169880Y-97722619D01*
X126179404Y-97760714D01*
X126179404Y-97808333D01*
X126169880Y-97846428D01*
X126160357Y-97865476D01*
X126150833Y-97875000D01*
X126131785Y-97884523D01*
X125979404Y-97703571D02*
X125969880Y-97694047D01*
X125979404Y-97684523D01*
X125988928Y-97694047D01*
X125979404Y-97703571D01*
X125979404Y-97684523D01*
X125779404Y-97684523D02*
X125893690Y-97684523D01*
X125836547Y-97684523D02*
X125836547Y-97884523D01*
X125855595Y-97855952D01*
X125874642Y-97836904D01*
X125893690Y-97827380D01*
X125607976Y-97817857D02*
X125607976Y-97684523D01*
X125693690Y-97817857D02*
X125693690Y-97713095D01*
X125684166Y-97694047D01*
X125665119Y-97684523D01*
X125636547Y-97684523D01*
X125617500Y-97694047D01*
X125607976Y-97703571D01*
X125446071Y-97789285D02*
X125512738Y-97789285D01*
X125512738Y-97684523D02*
X125512738Y-97884523D01*
X125417500Y-97884523D01*
G04 #@! TO.C,R11*
X118265476Y-67215119D02*
X118265476Y-67329404D01*
X118265476Y-67272261D02*
X118065476Y-67272261D01*
X118094047Y-67291309D01*
X118113095Y-67310357D01*
X118122619Y-67329404D01*
X118065476Y-67091309D02*
X118065476Y-67072261D01*
X118075000Y-67053214D01*
X118084523Y-67043690D01*
X118103571Y-67034166D01*
X118141666Y-67024642D01*
X118189285Y-67024642D01*
X118227380Y-67034166D01*
X118246428Y-67043690D01*
X118255952Y-67053214D01*
X118265476Y-67072261D01*
X118265476Y-67091309D01*
X118255952Y-67110357D01*
X118246428Y-67119880D01*
X118227380Y-67129404D01*
X118189285Y-67138928D01*
X118141666Y-67138928D01*
X118103571Y-67129404D01*
X118084523Y-67119880D01*
X118075000Y-67110357D01*
X118065476Y-67091309D01*
X118265476Y-66938928D02*
X118065476Y-66938928D01*
X118189285Y-66919880D02*
X118265476Y-66862738D01*
X118132142Y-66862738D02*
X118208333Y-66938928D01*
G04 #@! TO.C,R21*
X118667500Y-80965476D02*
X118553214Y-80965476D01*
X118610357Y-80965476D02*
X118610357Y-80765476D01*
X118591309Y-80794047D01*
X118572261Y-80813095D01*
X118553214Y-80822619D01*
X118753214Y-80965476D02*
X118753214Y-80765476D01*
X118772261Y-80889285D02*
X118829404Y-80965476D01*
X118829404Y-80832142D02*
X118753214Y-80908333D01*
G04 #@! TO.C,C31*
X119131785Y-91834523D02*
X119112738Y-91834523D01*
X119093690Y-91825000D01*
X119084166Y-91815476D01*
X119074642Y-91796428D01*
X119065119Y-91758333D01*
X119065119Y-91710714D01*
X119074642Y-91672619D01*
X119084166Y-91653571D01*
X119093690Y-91644047D01*
X119112738Y-91634523D01*
X119131785Y-91634523D01*
X119150833Y-91644047D01*
X119160357Y-91653571D01*
X119169880Y-91672619D01*
X119179404Y-91710714D01*
X119179404Y-91758333D01*
X119169880Y-91796428D01*
X119160357Y-91815476D01*
X119150833Y-91825000D01*
X119131785Y-91834523D01*
X118979404Y-91653571D02*
X118969880Y-91644047D01*
X118979404Y-91634523D01*
X118988928Y-91644047D01*
X118979404Y-91653571D01*
X118979404Y-91634523D01*
X118779404Y-91634523D02*
X118893690Y-91634523D01*
X118836547Y-91634523D02*
X118836547Y-91834523D01*
X118855595Y-91805952D01*
X118874642Y-91786904D01*
X118893690Y-91777380D01*
X118607976Y-91767857D02*
X118607976Y-91634523D01*
X118693690Y-91767857D02*
X118693690Y-91663095D01*
X118684166Y-91644047D01*
X118665119Y-91634523D01*
X118636547Y-91634523D01*
X118617500Y-91644047D01*
X118607976Y-91653571D01*
X118446071Y-91739285D02*
X118512738Y-91739285D01*
X118512738Y-91634523D02*
X118512738Y-91834523D01*
X118417500Y-91834523D01*
D12*
G04 #@! TO.C,A2*
X134670380Y-71735714D02*
X133670380Y-71735714D01*
X134384666Y-71402380D01*
X133670380Y-71069047D01*
X134670380Y-71069047D01*
X134670380Y-70164285D02*
X134146571Y-70164285D01*
X134051333Y-70211904D01*
X134003714Y-70307142D01*
X134003714Y-70497619D01*
X134051333Y-70592857D01*
X134622761Y-70164285D02*
X134670380Y-70259523D01*
X134670380Y-70497619D01*
X134622761Y-70592857D01*
X134527523Y-70640476D01*
X134432285Y-70640476D01*
X134337047Y-70592857D01*
X134289428Y-70497619D01*
X134289428Y-70259523D01*
X134241809Y-70164285D01*
X134670380Y-69688095D02*
X133670380Y-69688095D01*
X134289428Y-69592857D02*
X134670380Y-69307142D01*
X134003714Y-69307142D02*
X134384666Y-69688095D01*
X134622761Y-68497619D02*
X134670380Y-68592857D01*
X134670380Y-68783333D01*
X134622761Y-68878571D01*
X134527523Y-68926190D01*
X134146571Y-68926190D01*
X134051333Y-68878571D01*
X134003714Y-68783333D01*
X134003714Y-68592857D01*
X134051333Y-68497619D01*
X134146571Y-68450000D01*
X134241809Y-68450000D01*
X134337047Y-68926190D01*
X134670380Y-68021428D02*
X134003714Y-68021428D01*
X134194190Y-68021428D02*
X134098952Y-67973809D01*
X134051333Y-67926190D01*
X134003714Y-67830952D01*
X134003714Y-67735714D01*
X134670380Y-67402380D02*
X133670380Y-67402380D01*
X134051333Y-67402380D02*
X134003714Y-67307142D01*
X134003714Y-67116666D01*
X134051333Y-67021428D01*
X134098952Y-66973809D01*
X134194190Y-66926190D01*
X134479904Y-66926190D01*
X134575142Y-66973809D01*
X134622761Y-67021428D01*
X134670380Y-67116666D01*
X134670380Y-67307142D01*
X134622761Y-67402380D01*
X134670380Y-66069047D02*
X134146571Y-66069047D01*
X134051333Y-66116666D01*
X134003714Y-66211904D01*
X134003714Y-66402380D01*
X134051333Y-66497619D01*
X134622761Y-66069047D02*
X134670380Y-66164285D01*
X134670380Y-66402380D01*
X134622761Y-66497619D01*
X134527523Y-66545238D01*
X134432285Y-66545238D01*
X134337047Y-66497619D01*
X134289428Y-66402380D01*
X134289428Y-66164285D01*
X134241809Y-66069047D01*
X134622761Y-65640476D02*
X134670380Y-65545238D01*
X134670380Y-65354761D01*
X134622761Y-65259523D01*
X134527523Y-65211904D01*
X134479904Y-65211904D01*
X134384666Y-65259523D01*
X134337047Y-65354761D01*
X134337047Y-65497619D01*
X134289428Y-65592857D01*
X134194190Y-65640476D01*
X134146571Y-65640476D01*
X134051333Y-65592857D01*
X134003714Y-65497619D01*
X134003714Y-65354761D01*
X134051333Y-65259523D01*
X134622761Y-64402380D02*
X134670380Y-64497619D01*
X134670380Y-64688095D01*
X134622761Y-64783333D01*
X134527523Y-64830952D01*
X134146571Y-64830952D01*
X134051333Y-64783333D01*
X134003714Y-64688095D01*
X134003714Y-64497619D01*
X134051333Y-64402380D01*
X134146571Y-64354761D01*
X134241809Y-64354761D01*
X134337047Y-64830952D01*
X134670380Y-63164285D02*
X133670380Y-63164285D01*
X134384666Y-62830952D01*
X133670380Y-62497619D01*
X134670380Y-62497619D01*
X134670380Y-62021428D02*
X133670380Y-62021428D01*
X134670380Y-61450000D02*
X134098952Y-61878571D01*
X133670380Y-61450000D02*
X134241809Y-62021428D01*
X134622761Y-61069047D02*
X134670380Y-60926190D01*
X134670380Y-60688095D01*
X134622761Y-60592857D01*
X134575142Y-60545238D01*
X134479904Y-60497619D01*
X134384666Y-60497619D01*
X134289428Y-60545238D01*
X134241809Y-60592857D01*
X134194190Y-60688095D01*
X134146571Y-60878571D01*
X134098952Y-60973809D01*
X134051333Y-61021428D01*
X133956095Y-61069047D01*
X133860857Y-61069047D01*
X133765619Y-61021428D01*
X133718000Y-60973809D01*
X133670380Y-60878571D01*
X133670380Y-60640476D01*
X133718000Y-60497619D01*
X133670380Y-59450000D02*
X133670380Y-58878571D01*
X134670380Y-59164285D02*
X133670380Y-59164285D01*
X134670380Y-58545238D02*
X133670380Y-58545238D01*
X134384666Y-58211904D01*
X133670380Y-57878571D01*
X134670380Y-57878571D01*
X134575142Y-56830952D02*
X134622761Y-56878571D01*
X134670380Y-57021428D01*
X134670380Y-57116666D01*
X134622761Y-57259523D01*
X134527523Y-57354761D01*
X134432285Y-57402380D01*
X134241809Y-57450000D01*
X134098952Y-57450000D01*
X133908476Y-57402380D01*
X133813238Y-57354761D01*
X133718000Y-57259523D01*
X133670380Y-57116666D01*
X133670380Y-57021428D01*
X133718000Y-56878571D01*
X133765619Y-56830952D01*
X133765619Y-56450000D02*
X133718000Y-56402380D01*
X133670380Y-56307142D01*
X133670380Y-56069047D01*
X133718000Y-55973809D01*
X133765619Y-55926190D01*
X133860857Y-55878571D01*
X133956095Y-55878571D01*
X134098952Y-55926190D01*
X134670380Y-56497619D01*
X134670380Y-55878571D01*
X133765619Y-55497619D02*
X133718000Y-55450000D01*
X133670380Y-55354761D01*
X133670380Y-55116666D01*
X133718000Y-55021428D01*
X133765619Y-54973809D01*
X133860857Y-54926190D01*
X133956095Y-54926190D01*
X134098952Y-54973809D01*
X134670380Y-55545238D01*
X134670380Y-54926190D01*
X133670380Y-54307142D02*
X133670380Y-54211904D01*
X133718000Y-54116666D01*
X133765619Y-54069047D01*
X133860857Y-54021428D01*
X134051333Y-53973809D01*
X134289428Y-53973809D01*
X134479904Y-54021428D01*
X134575142Y-54069047D01*
X134622761Y-54116666D01*
X134670380Y-54211904D01*
X134670380Y-54307142D01*
X134622761Y-54402380D01*
X134575142Y-54450000D01*
X134479904Y-54497619D01*
X134289428Y-54545238D01*
X134051333Y-54545238D01*
X133860857Y-54497619D01*
X133765619Y-54450000D01*
X133718000Y-54402380D01*
X133670380Y-54307142D01*
X134670380Y-53497619D02*
X134670380Y-53307142D01*
X134622761Y-53211904D01*
X134575142Y-53164285D01*
X134432285Y-53069047D01*
X134241809Y-53021428D01*
X133860857Y-53021428D01*
X133765619Y-53069047D01*
X133718000Y-53116666D01*
X133670380Y-53211904D01*
X133670380Y-53402380D01*
X133718000Y-53497619D01*
X133765619Y-53545238D01*
X133860857Y-53592857D01*
X134098952Y-53592857D01*
X134194190Y-53545238D01*
X134241809Y-53497619D01*
X134289428Y-53402380D01*
X134289428Y-53211904D01*
X134241809Y-53116666D01*
X134194190Y-53069047D01*
X134098952Y-53021428D01*
X134003714Y-51926190D02*
X134670380Y-51688095D01*
X134003714Y-51450000D01*
X133765619Y-51116666D02*
X133718000Y-51069047D01*
X133670380Y-50973809D01*
X133670380Y-50735714D01*
X133718000Y-50640476D01*
X133765619Y-50592857D01*
X133860857Y-50545238D01*
X133956095Y-50545238D01*
X134098952Y-50592857D01*
X134670380Y-51164285D01*
X134670380Y-50545238D01*
X134575142Y-50116666D02*
X134622761Y-50069047D01*
X134670380Y-50116666D01*
X134622761Y-50164285D01*
X134575142Y-50116666D01*
X134670380Y-50116666D01*
X133670380Y-49450000D02*
X133670380Y-49354761D01*
X133718000Y-49259523D01*
X133765619Y-49211904D01*
X133860857Y-49164285D01*
X134051333Y-49116666D01*
X134289428Y-49116666D01*
X134479904Y-49164285D01*
X134575142Y-49211904D01*
X134622761Y-49259523D01*
X134670380Y-49354761D01*
X134670380Y-49450000D01*
X134622761Y-49545238D01*
X134575142Y-49592857D01*
X134479904Y-49640476D01*
X134289428Y-49688095D01*
X134051333Y-49688095D01*
X133860857Y-49640476D01*
X133765619Y-49592857D01*
X133718000Y-49545238D01*
X133670380Y-49450000D01*
D13*
G04 #@! TO.C,C3*
X109931101Y-93213095D02*
X109788244Y-93213095D01*
X109859672Y-93213095D02*
X109859672Y-92963095D01*
X109835863Y-92998809D01*
X109812053Y-93022619D01*
X109788244Y-93034523D01*
X110145386Y-93046428D02*
X110145386Y-93213095D01*
X110038244Y-93046428D02*
X110038244Y-93177380D01*
X110050148Y-93201190D01*
X110073958Y-93213095D01*
X110109672Y-93213095D01*
X110133482Y-93201190D01*
X110145386Y-93189285D01*
X110347767Y-93082142D02*
X110264434Y-93082142D01*
X110264434Y-93213095D02*
X110264434Y-92963095D01*
X110383482Y-92963095D01*
D10*
G04 #@! TO.C,R6*
X116115476Y-94272976D02*
X116115476Y-94387261D01*
X116115476Y-94330119D02*
X115915476Y-94330119D01*
X115944047Y-94349166D01*
X115963095Y-94368214D01*
X115972619Y-94387261D01*
X115915476Y-94149166D02*
X115915476Y-94130119D01*
X115925000Y-94111071D01*
X115934523Y-94101547D01*
X115953571Y-94092023D01*
X115991666Y-94082500D01*
X116039285Y-94082500D01*
X116077380Y-94092023D01*
X116096428Y-94101547D01*
X116105952Y-94111071D01*
X116115476Y-94130119D01*
X116115476Y-94149166D01*
X116105952Y-94168214D01*
X116096428Y-94177738D01*
X116077380Y-94187261D01*
X116039285Y-94196785D01*
X115991666Y-94196785D01*
X115953571Y-94187261D01*
X115934523Y-94177738D01*
X115925000Y-94168214D01*
X115915476Y-94149166D01*
X116115476Y-93996785D02*
X115915476Y-93996785D01*
X116039285Y-93977738D02*
X116115476Y-93920595D01*
X115982142Y-93920595D02*
X116058333Y-93996785D01*
D13*
G04 #@! TO.C,C10*
X133486904Y-54331101D02*
X133486904Y-54188244D01*
X133486904Y-54259672D02*
X133736904Y-54259672D01*
X133701190Y-54235863D01*
X133677380Y-54212053D01*
X133665476Y-54188244D01*
X133653571Y-54545386D02*
X133486904Y-54545386D01*
X133653571Y-54438244D02*
X133522619Y-54438244D01*
X133498809Y-54450148D01*
X133486904Y-54473958D01*
X133486904Y-54509672D01*
X133498809Y-54533482D01*
X133510714Y-54545386D01*
X133617857Y-54747767D02*
X133617857Y-54664434D01*
X133486904Y-54664434D02*
X133736904Y-54664434D01*
X133736904Y-54783482D01*
D10*
G04 #@! TO.C,C40*
X138034880Y-101315476D02*
X137920595Y-101315476D01*
X137977738Y-101315476D02*
X137977738Y-101115476D01*
X137958690Y-101144047D01*
X137939642Y-101163095D01*
X137920595Y-101172619D01*
X138158690Y-101115476D02*
X138177738Y-101115476D01*
X138196785Y-101125000D01*
X138206309Y-101134523D01*
X138215833Y-101153571D01*
X138225357Y-101191666D01*
X138225357Y-101239285D01*
X138215833Y-101277380D01*
X138206309Y-101296428D01*
X138196785Y-101305952D01*
X138177738Y-101315476D01*
X138158690Y-101315476D01*
X138139642Y-101305952D01*
X138130119Y-101296428D01*
X138120595Y-101277380D01*
X138111071Y-101239285D01*
X138111071Y-101191666D01*
X138120595Y-101153571D01*
X138130119Y-101134523D01*
X138139642Y-101125000D01*
X138158690Y-101115476D01*
X138396785Y-101182142D02*
X138396785Y-101315476D01*
X138311071Y-101182142D02*
X138311071Y-101286904D01*
X138320595Y-101305952D01*
X138339642Y-101315476D01*
X138368214Y-101315476D01*
X138387261Y-101305952D01*
X138396785Y-101296428D01*
X138558690Y-101210714D02*
X138492023Y-101210714D01*
X138492023Y-101315476D02*
X138492023Y-101115476D01*
X138587261Y-101115476D01*
D11*
G04 #@! TO.C,H4*
X102538095Y-53452380D02*
X102538095Y-52452380D01*
X102538095Y-52928571D02*
X103109523Y-52928571D01*
X103109523Y-53452380D02*
X103109523Y-52452380D01*
X104014285Y-52785714D02*
X104014285Y-53452380D01*
X103776190Y-52404761D02*
X103538095Y-53119047D01*
X104157142Y-53119047D01*
D10*
G04 #@! TO.C,C18*
X134234523Y-89868214D02*
X134234523Y-89887261D01*
X134225000Y-89906309D01*
X134215476Y-89915833D01*
X134196428Y-89925357D01*
X134158333Y-89934880D01*
X134110714Y-89934880D01*
X134072619Y-89925357D01*
X134053571Y-89915833D01*
X134044047Y-89906309D01*
X134034523Y-89887261D01*
X134034523Y-89868214D01*
X134044047Y-89849166D01*
X134053571Y-89839642D01*
X134072619Y-89830119D01*
X134110714Y-89820595D01*
X134158333Y-89820595D01*
X134196428Y-89830119D01*
X134215476Y-89839642D01*
X134225000Y-89849166D01*
X134234523Y-89868214D01*
X134053571Y-90020595D02*
X134044047Y-90030119D01*
X134034523Y-90020595D01*
X134044047Y-90011071D01*
X134053571Y-90020595D01*
X134034523Y-90020595D01*
X134034523Y-90220595D02*
X134034523Y-90106309D01*
X134034523Y-90163452D02*
X134234523Y-90163452D01*
X134205952Y-90144404D01*
X134186904Y-90125357D01*
X134177380Y-90106309D01*
X134167857Y-90392023D02*
X134034523Y-90392023D01*
X134167857Y-90306309D02*
X134063095Y-90306309D01*
X134044047Y-90315833D01*
X134034523Y-90334880D01*
X134034523Y-90363452D01*
X134044047Y-90382500D01*
X134053571Y-90392023D01*
X134139285Y-90553928D02*
X134139285Y-90487261D01*
X134034523Y-90487261D02*
X134234523Y-90487261D01*
X134234523Y-90582500D01*
G04 #@! TO.C,R18*
X125915476Y-76522976D02*
X125915476Y-76637261D01*
X125915476Y-76580119D02*
X125715476Y-76580119D01*
X125744047Y-76599166D01*
X125763095Y-76618214D01*
X125772619Y-76637261D01*
X125715476Y-76399166D02*
X125715476Y-76380119D01*
X125725000Y-76361071D01*
X125734523Y-76351547D01*
X125753571Y-76342023D01*
X125791666Y-76332500D01*
X125839285Y-76332500D01*
X125877380Y-76342023D01*
X125896428Y-76351547D01*
X125905952Y-76361071D01*
X125915476Y-76380119D01*
X125915476Y-76399166D01*
X125905952Y-76418214D01*
X125896428Y-76427738D01*
X125877380Y-76437261D01*
X125839285Y-76446785D01*
X125791666Y-76446785D01*
X125753571Y-76437261D01*
X125734523Y-76427738D01*
X125725000Y-76418214D01*
X125715476Y-76399166D01*
X125915476Y-76246785D02*
X125715476Y-76246785D01*
X125839285Y-76227738D02*
X125915476Y-76170595D01*
X125782142Y-76170595D02*
X125858333Y-76246785D01*
D11*
G04 #@! TO.C,U3*
X112061904Y-99552380D02*
X112728571Y-100552380D01*
X112728571Y-99552380D02*
X112061904Y-100552380D01*
X113680952Y-100457142D02*
X113633333Y-100504761D01*
X113490476Y-100552380D01*
X113395238Y-100552380D01*
X113252380Y-100504761D01*
X113157142Y-100409523D01*
X113109523Y-100314285D01*
X113061904Y-100123809D01*
X113061904Y-99980952D01*
X113109523Y-99790476D01*
X113157142Y-99695238D01*
X113252380Y-99600000D01*
X113395238Y-99552380D01*
X113490476Y-99552380D01*
X113633333Y-99600000D01*
X113680952Y-99647619D01*
X114538095Y-99552380D02*
X114347619Y-99552380D01*
X114252380Y-99600000D01*
X114204761Y-99647619D01*
X114109523Y-99790476D01*
X114061904Y-99980952D01*
X114061904Y-100361904D01*
X114109523Y-100457142D01*
X114157142Y-100504761D01*
X114252380Y-100552380D01*
X114442857Y-100552380D01*
X114538095Y-100504761D01*
X114585714Y-100457142D01*
X114633333Y-100361904D01*
X114633333Y-100123809D01*
X114585714Y-100028571D01*
X114538095Y-99980952D01*
X114442857Y-99933333D01*
X114252380Y-99933333D01*
X114157142Y-99980952D01*
X114109523Y-100028571D01*
X114061904Y-100123809D01*
X115014285Y-99647619D02*
X115061904Y-99600000D01*
X115157142Y-99552380D01*
X115395238Y-99552380D01*
X115490476Y-99600000D01*
X115538095Y-99647619D01*
X115585714Y-99742857D01*
X115585714Y-99838095D01*
X115538095Y-99980952D01*
X114966666Y-100552380D01*
X115585714Y-100552380D01*
X116204761Y-99552380D02*
X116300000Y-99552380D01*
X116395238Y-99600000D01*
X116442857Y-99647619D01*
X116490476Y-99742857D01*
X116538095Y-99933333D01*
X116538095Y-100171428D01*
X116490476Y-100361904D01*
X116442857Y-100457142D01*
X116395238Y-100504761D01*
X116300000Y-100552380D01*
X116204761Y-100552380D01*
X116109523Y-100504761D01*
X116061904Y-100457142D01*
X116014285Y-100361904D01*
X115966666Y-100171428D01*
X115966666Y-99933333D01*
X116014285Y-99742857D01*
X116061904Y-99647619D01*
X116109523Y-99600000D01*
X116204761Y-99552380D01*
X117395238Y-99552380D02*
X117204761Y-99552380D01*
X117109523Y-99600000D01*
X117061904Y-99647619D01*
X116966666Y-99790476D01*
X116919047Y-99980952D01*
X116919047Y-100361904D01*
X116966666Y-100457142D01*
X117014285Y-100504761D01*
X117109523Y-100552380D01*
X117300000Y-100552380D01*
X117395238Y-100504761D01*
X117442857Y-100457142D01*
X117490476Y-100361904D01*
X117490476Y-100123809D01*
X117442857Y-100028571D01*
X117395238Y-99980952D01*
X117300000Y-99933333D01*
X117109523Y-99933333D01*
X117014285Y-99980952D01*
X116966666Y-100028571D01*
X116919047Y-100123809D01*
X117919047Y-100552380D02*
X117919047Y-99552380D01*
X118300000Y-99552380D01*
X118395238Y-99600000D01*
X118442857Y-99647619D01*
X118490476Y-99742857D01*
X118490476Y-99885714D01*
X118442857Y-99980952D01*
X118395238Y-100028571D01*
X118300000Y-100076190D01*
X117919047Y-100076190D01*
X118823809Y-99552380D02*
X119442857Y-99552380D01*
X119109523Y-99933333D01*
X119252380Y-99933333D01*
X119347619Y-99980952D01*
X119395238Y-100028571D01*
X119442857Y-100123809D01*
X119442857Y-100361904D01*
X119395238Y-100457142D01*
X119347619Y-100504761D01*
X119252380Y-100552380D01*
X118966666Y-100552380D01*
X118871428Y-100504761D01*
X118823809Y-100457142D01*
X119776190Y-99552380D02*
X120395238Y-99552380D01*
X120061904Y-99933333D01*
X120204761Y-99933333D01*
X120300000Y-99980952D01*
X120347619Y-100028571D01*
X120395238Y-100123809D01*
X120395238Y-100361904D01*
X120347619Y-100457142D01*
X120300000Y-100504761D01*
X120204761Y-100552380D01*
X119919047Y-100552380D01*
X119823809Y-100504761D01*
X119776190Y-100457142D01*
X120776190Y-99647619D02*
X120823809Y-99600000D01*
X120919047Y-99552380D01*
X121157142Y-99552380D01*
X121252380Y-99600000D01*
X121300000Y-99647619D01*
X121347619Y-99742857D01*
X121347619Y-99838095D01*
X121300000Y-99980952D01*
X120728571Y-100552380D01*
X121347619Y-100552380D01*
X121776190Y-100552380D02*
X121776190Y-99552380D01*
X122109523Y-100266666D01*
X122442857Y-99552380D01*
X122442857Y-100552380D01*
X123490476Y-100552380D02*
X123157142Y-100076190D01*
X122919047Y-100552380D02*
X122919047Y-99552380D01*
X123300000Y-99552380D01*
X123395238Y-99600000D01*
X123442857Y-99647619D01*
X123490476Y-99742857D01*
X123490476Y-99885714D01*
X123442857Y-99980952D01*
X123395238Y-100028571D01*
X123300000Y-100076190D01*
X122919047Y-100076190D01*
D10*
X117556190Y-102324761D02*
X117556190Y-102583809D01*
X117571428Y-102614285D01*
X117586666Y-102629523D01*
X117617142Y-102644761D01*
X117678095Y-102644761D01*
X117708571Y-102629523D01*
X117723809Y-102614285D01*
X117739047Y-102583809D01*
X117739047Y-102324761D01*
X117860952Y-102324761D02*
X118059047Y-102324761D01*
X117952380Y-102446666D01*
X117998095Y-102446666D01*
X118028571Y-102461904D01*
X118043809Y-102477142D01*
X118059047Y-102507619D01*
X118059047Y-102583809D01*
X118043809Y-102614285D01*
X118028571Y-102629523D01*
X117998095Y-102644761D01*
X117906666Y-102644761D01*
X117876190Y-102629523D01*
X117860952Y-102614285D01*
D11*
G04 #@! TO.C,M1*
X107003571Y-74404761D02*
X107051190Y-74261904D01*
X107098809Y-74214285D01*
X107194047Y-74166666D01*
X107336904Y-74166666D01*
X107432142Y-74214285D01*
X107479761Y-74261904D01*
X107527380Y-74357142D01*
X107527380Y-74738095D01*
X106527380Y-74738095D01*
X106527380Y-74404761D01*
X106575000Y-74309523D01*
X106622619Y-74261904D01*
X106717857Y-74214285D01*
X106813095Y-74214285D01*
X106908333Y-74261904D01*
X106955952Y-74309523D01*
X107003571Y-74404761D01*
X107003571Y-74738095D01*
X107527380Y-73738095D02*
X106860714Y-73738095D01*
X106527380Y-73738095D02*
X106575000Y-73785714D01*
X106622619Y-73738095D01*
X106575000Y-73690476D01*
X106527380Y-73738095D01*
X106622619Y-73738095D01*
X106860714Y-73261904D02*
X107860714Y-73261904D01*
X106908333Y-73261904D02*
X106860714Y-73166666D01*
X106860714Y-72976190D01*
X106908333Y-72880952D01*
X106955952Y-72833333D01*
X107051190Y-72785714D01*
X107336904Y-72785714D01*
X107432142Y-72833333D01*
X107479761Y-72880952D01*
X107527380Y-72976190D01*
X107527380Y-73166666D01*
X107479761Y-73261904D01*
X107527380Y-72214285D02*
X107479761Y-72309523D01*
X107432142Y-72357142D01*
X107336904Y-72404761D01*
X107051190Y-72404761D01*
X106955952Y-72357142D01*
X106908333Y-72309523D01*
X106860714Y-72214285D01*
X106860714Y-72071428D01*
X106908333Y-71976190D01*
X106955952Y-71928571D01*
X107051190Y-71880952D01*
X107336904Y-71880952D01*
X107432142Y-71928571D01*
X107479761Y-71976190D01*
X107527380Y-72071428D01*
X107527380Y-72214285D01*
X107527380Y-71309523D02*
X107479761Y-71404761D01*
X107384523Y-71452380D01*
X106527380Y-71452380D01*
X107527380Y-70500000D02*
X107003571Y-70500000D01*
X106908333Y-70547619D01*
X106860714Y-70642857D01*
X106860714Y-70833333D01*
X106908333Y-70928571D01*
X107479761Y-70500000D02*
X107527380Y-70595238D01*
X107527380Y-70833333D01*
X107479761Y-70928571D01*
X107384523Y-70976190D01*
X107289285Y-70976190D01*
X107194047Y-70928571D01*
X107146428Y-70833333D01*
X107146428Y-70595238D01*
X107098809Y-70500000D01*
X107527380Y-70023809D02*
X106860714Y-70023809D01*
X107051190Y-70023809D02*
X106955952Y-69976190D01*
X106908333Y-69928571D01*
X106860714Y-69833333D01*
X106860714Y-69738095D01*
X107622619Y-69642857D02*
X107622619Y-68880952D01*
X107479761Y-68690476D02*
X107527380Y-68547619D01*
X107527380Y-68309523D01*
X107479761Y-68214285D01*
X107432142Y-68166666D01*
X107336904Y-68119047D01*
X107241666Y-68119047D01*
X107146428Y-68166666D01*
X107098809Y-68214285D01*
X107051190Y-68309523D01*
X107003571Y-68500000D01*
X106955952Y-68595238D01*
X106908333Y-68642857D01*
X106813095Y-68690476D01*
X106717857Y-68690476D01*
X106622619Y-68642857D01*
X106575000Y-68595238D01*
X106527380Y-68500000D01*
X106527380Y-68261904D01*
X106575000Y-68119047D01*
X106860714Y-67833333D02*
X106860714Y-67452380D01*
X106527380Y-67690476D02*
X107384523Y-67690476D01*
X107479761Y-67642857D01*
X107527380Y-67547619D01*
X107527380Y-67452380D01*
X107479761Y-66738095D02*
X107527380Y-66833333D01*
X107527380Y-67023809D01*
X107479761Y-67119047D01*
X107384523Y-67166666D01*
X107003571Y-67166666D01*
X106908333Y-67119047D01*
X106860714Y-67023809D01*
X106860714Y-66833333D01*
X106908333Y-66738095D01*
X107003571Y-66690476D01*
X107098809Y-66690476D01*
X107194047Y-67166666D01*
X106860714Y-66261904D02*
X107860714Y-66261904D01*
X106908333Y-66261904D02*
X106860714Y-66166666D01*
X106860714Y-65976190D01*
X106908333Y-65880952D01*
X106955952Y-65833333D01*
X107051190Y-65785714D01*
X107336904Y-65785714D01*
X107432142Y-65833333D01*
X107479761Y-65880952D01*
X107527380Y-65976190D01*
X107527380Y-66166666D01*
X107479761Y-66261904D01*
X106860714Y-65357142D02*
X107860714Y-65357142D01*
X106908333Y-65357142D02*
X106860714Y-65261904D01*
X106860714Y-65071428D01*
X106908333Y-64976190D01*
X106955952Y-64928571D01*
X107051190Y-64880952D01*
X107336904Y-64880952D01*
X107432142Y-64928571D01*
X107479761Y-64976190D01*
X107527380Y-65071428D01*
X107527380Y-65261904D01*
X107479761Y-65357142D01*
X107479761Y-64071428D02*
X107527380Y-64166666D01*
X107527380Y-64357142D01*
X107479761Y-64452380D01*
X107384523Y-64500000D01*
X107003571Y-64500000D01*
X106908333Y-64452380D01*
X106860714Y-64357142D01*
X106860714Y-64166666D01*
X106908333Y-64071428D01*
X107003571Y-64023809D01*
X107098809Y-64023809D01*
X107194047Y-64500000D01*
X107527380Y-63595238D02*
X106860714Y-63595238D01*
X107051190Y-63595238D02*
X106955952Y-63547619D01*
X106908333Y-63500000D01*
X106860714Y-63404761D01*
X106860714Y-63309523D01*
X107622619Y-63214285D02*
X107622619Y-62452380D01*
X107527380Y-62214285D02*
X106527380Y-62214285D01*
X107241666Y-61880952D01*
X106527380Y-61547619D01*
X107527380Y-61547619D01*
X107527380Y-60928571D02*
X107479761Y-61023809D01*
X107432142Y-61071428D01*
X107336904Y-61119047D01*
X107051190Y-61119047D01*
X106955952Y-61071428D01*
X106908333Y-61023809D01*
X106860714Y-60928571D01*
X106860714Y-60785714D01*
X106908333Y-60690476D01*
X106955952Y-60642857D01*
X107051190Y-60595238D01*
X107336904Y-60595238D01*
X107432142Y-60642857D01*
X107479761Y-60690476D01*
X107527380Y-60785714D01*
X107527380Y-60928571D01*
X106860714Y-60309523D02*
X106860714Y-59928571D01*
X106527380Y-60166666D02*
X107384523Y-60166666D01*
X107479761Y-60119047D01*
X107527380Y-60023809D01*
X107527380Y-59928571D01*
X107527380Y-59452380D02*
X107479761Y-59547619D01*
X107432142Y-59595238D01*
X107336904Y-59642857D01*
X107051190Y-59642857D01*
X106955952Y-59595238D01*
X106908333Y-59547619D01*
X106860714Y-59452380D01*
X106860714Y-59309523D01*
X106908333Y-59214285D01*
X106955952Y-59166666D01*
X107051190Y-59119047D01*
X107336904Y-59119047D01*
X107432142Y-59166666D01*
X107479761Y-59214285D01*
X107527380Y-59309523D01*
X107527380Y-59452380D01*
X107527380Y-58690476D02*
X106860714Y-58690476D01*
X107051190Y-58690476D02*
X106955952Y-58642857D01*
X106908333Y-58595238D01*
X106860714Y-58500000D01*
X106860714Y-58404761D01*
X107622619Y-58309523D02*
X107622619Y-57547619D01*
X107241666Y-57357142D02*
X107241666Y-56880952D01*
X107527380Y-57452380D02*
X106527380Y-57119047D01*
X107527380Y-56785714D01*
X107527380Y-55928571D02*
X107527380Y-56500000D01*
X107527380Y-56214285D02*
X106527380Y-56214285D01*
X106670238Y-56309523D01*
X106765476Y-56404761D01*
X106813095Y-56500000D01*
X107241666Y-55547619D02*
X107241666Y-55071428D01*
X107527380Y-55642857D02*
X106527380Y-55309523D01*
X107527380Y-54976190D01*
X106622619Y-54690476D02*
X106575000Y-54642857D01*
X106527380Y-54547619D01*
X106527380Y-54309523D01*
X106575000Y-54214285D01*
X106622619Y-54166666D01*
X106717857Y-54119047D01*
X106813095Y-54119047D01*
X106955952Y-54166666D01*
X107527380Y-54738095D01*
X107527380Y-54119047D01*
X107003571Y-53357142D02*
X107051190Y-53214285D01*
X107098809Y-53166666D01*
X107194047Y-53119047D01*
X107336904Y-53119047D01*
X107432142Y-53166666D01*
X107479761Y-53214285D01*
X107527380Y-53309523D01*
X107527380Y-53690476D01*
X106527380Y-53690476D01*
X106527380Y-53357142D01*
X106575000Y-53261904D01*
X106622619Y-53214285D01*
X106717857Y-53166666D01*
X106813095Y-53166666D01*
X106908333Y-53214285D01*
X106955952Y-53261904D01*
X107003571Y-53357142D01*
X107003571Y-53690476D01*
X106622619Y-52738095D02*
X106575000Y-52690476D01*
X106527380Y-52595238D01*
X106527380Y-52357142D01*
X106575000Y-52261904D01*
X106622619Y-52214285D01*
X106717857Y-52166666D01*
X106813095Y-52166666D01*
X106955952Y-52214285D01*
X107527380Y-52785714D01*
X107527380Y-52166666D01*
X107003571Y-51404761D02*
X107051190Y-51261904D01*
X107098809Y-51214285D01*
X107194047Y-51166666D01*
X107336904Y-51166666D01*
X107432142Y-51214285D01*
X107479761Y-51261904D01*
X107527380Y-51357142D01*
X107527380Y-51738095D01*
X106527380Y-51738095D01*
X106527380Y-51404761D01*
X106575000Y-51309523D01*
X106622619Y-51261904D01*
X106717857Y-51214285D01*
X106813095Y-51214285D01*
X106908333Y-51261904D01*
X106955952Y-51309523D01*
X107003571Y-51404761D01*
X107003571Y-51738095D01*
X107527380Y-50214285D02*
X107527380Y-50785714D01*
X107527380Y-50500000D02*
X106527380Y-50500000D01*
X106670238Y-50595238D01*
X106765476Y-50690476D01*
X106813095Y-50785714D01*
X105627380Y-63309523D02*
X104627380Y-63309523D01*
X105341666Y-62976190D01*
X104627380Y-62642857D01*
X105627380Y-62642857D01*
X105627380Y-61642857D02*
X105627380Y-62214285D01*
X105627380Y-61928571D02*
X104627380Y-61928571D01*
X104770238Y-62023809D01*
X104865476Y-62119047D01*
X104913095Y-62214285D01*
D10*
G04 #@! TO.C,C33*
X130934523Y-103668214D02*
X130934523Y-103687261D01*
X130925000Y-103706309D01*
X130915476Y-103715833D01*
X130896428Y-103725357D01*
X130858333Y-103734880D01*
X130810714Y-103734880D01*
X130772619Y-103725357D01*
X130753571Y-103715833D01*
X130744047Y-103706309D01*
X130734523Y-103687261D01*
X130734523Y-103668214D01*
X130744047Y-103649166D01*
X130753571Y-103639642D01*
X130772619Y-103630119D01*
X130810714Y-103620595D01*
X130858333Y-103620595D01*
X130896428Y-103630119D01*
X130915476Y-103639642D01*
X130925000Y-103649166D01*
X130934523Y-103668214D01*
X130753571Y-103820595D02*
X130744047Y-103830119D01*
X130734523Y-103820595D01*
X130744047Y-103811071D01*
X130753571Y-103820595D01*
X130734523Y-103820595D01*
X130734523Y-104020595D02*
X130734523Y-103906309D01*
X130734523Y-103963452D02*
X130934523Y-103963452D01*
X130905952Y-103944404D01*
X130886904Y-103925357D01*
X130877380Y-103906309D01*
X130867857Y-104192023D02*
X130734523Y-104192023D01*
X130867857Y-104106309D02*
X130763095Y-104106309D01*
X130744047Y-104115833D01*
X130734523Y-104134880D01*
X130734523Y-104163452D01*
X130744047Y-104182500D01*
X130753571Y-104192023D01*
X130839285Y-104353928D02*
X130839285Y-104287261D01*
X130734523Y-104287261D02*
X130934523Y-104287261D01*
X130934523Y-104382500D01*
G04 #@! TO.C,R7*
X120615476Y-103865119D02*
X120615476Y-103979404D01*
X120615476Y-103922261D02*
X120415476Y-103922261D01*
X120444047Y-103941309D01*
X120463095Y-103960357D01*
X120472619Y-103979404D01*
X120415476Y-103741309D02*
X120415476Y-103722261D01*
X120425000Y-103703214D01*
X120434523Y-103693690D01*
X120453571Y-103684166D01*
X120491666Y-103674642D01*
X120539285Y-103674642D01*
X120577380Y-103684166D01*
X120596428Y-103693690D01*
X120605952Y-103703214D01*
X120615476Y-103722261D01*
X120615476Y-103741309D01*
X120605952Y-103760357D01*
X120596428Y-103769880D01*
X120577380Y-103779404D01*
X120539285Y-103788928D01*
X120491666Y-103788928D01*
X120453571Y-103779404D01*
X120434523Y-103769880D01*
X120425000Y-103760357D01*
X120415476Y-103741309D01*
X120615476Y-103588928D02*
X120415476Y-103588928D01*
X120539285Y-103569880D02*
X120615476Y-103512738D01*
X120482142Y-103512738D02*
X120558333Y-103588928D01*
G04 #@! TO.C,C9*
X138118214Y-97615476D02*
X138137261Y-97615476D01*
X138156309Y-97625000D01*
X138165833Y-97634523D01*
X138175357Y-97653571D01*
X138184880Y-97691666D01*
X138184880Y-97739285D01*
X138175357Y-97777380D01*
X138165833Y-97796428D01*
X138156309Y-97805952D01*
X138137261Y-97815476D01*
X138118214Y-97815476D01*
X138099166Y-97805952D01*
X138089642Y-97796428D01*
X138080119Y-97777380D01*
X138070595Y-97739285D01*
X138070595Y-97691666D01*
X138080119Y-97653571D01*
X138089642Y-97634523D01*
X138099166Y-97625000D01*
X138118214Y-97615476D01*
X138270595Y-97796428D02*
X138280119Y-97805952D01*
X138270595Y-97815476D01*
X138261071Y-97805952D01*
X138270595Y-97796428D01*
X138270595Y-97815476D01*
X138470595Y-97815476D02*
X138356309Y-97815476D01*
X138413452Y-97815476D02*
X138413452Y-97615476D01*
X138394404Y-97644047D01*
X138375357Y-97663095D01*
X138356309Y-97672619D01*
X138642023Y-97682142D02*
X138642023Y-97815476D01*
X138556309Y-97682142D02*
X138556309Y-97786904D01*
X138565833Y-97805952D01*
X138584880Y-97815476D01*
X138613452Y-97815476D01*
X138632500Y-97805952D01*
X138642023Y-97796428D01*
X138803928Y-97710714D02*
X138737261Y-97710714D01*
X138737261Y-97815476D02*
X138737261Y-97615476D01*
X138832500Y-97615476D01*
G04 #@! TO.C,R8*
X136534880Y-96365476D02*
X136420595Y-96365476D01*
X136477738Y-96365476D02*
X136477738Y-96165476D01*
X136458690Y-96194047D01*
X136439642Y-96213095D01*
X136420595Y-96222619D01*
X136620595Y-96365476D02*
X136620595Y-96165476D01*
X136639642Y-96289285D02*
X136696785Y-96365476D01*
X136696785Y-96232142D02*
X136620595Y-96308333D01*
D11*
G04 #@! TO.C,U1*
X127682380Y-99995238D02*
X127206190Y-100328571D01*
X127682380Y-100566666D02*
X126682380Y-100566666D01*
X126682380Y-100185714D01*
X126730000Y-100090476D01*
X126777619Y-100042857D01*
X126872857Y-99995238D01*
X127015714Y-99995238D01*
X127110952Y-100042857D01*
X127158571Y-100090476D01*
X127206190Y-100185714D01*
X127206190Y-100566666D01*
X127682380Y-99566666D02*
X126682380Y-99566666D01*
X126682380Y-99185714D01*
X126730000Y-99090476D01*
X126777619Y-99042857D01*
X126872857Y-98995238D01*
X127015714Y-98995238D01*
X127110952Y-99042857D01*
X127158571Y-99090476D01*
X127206190Y-99185714D01*
X127206190Y-99566666D01*
X126777619Y-98614285D02*
X126730000Y-98566666D01*
X126682380Y-98471428D01*
X126682380Y-98233333D01*
X126730000Y-98138095D01*
X126777619Y-98090476D01*
X126872857Y-98042857D01*
X126968095Y-98042857D01*
X127110952Y-98090476D01*
X127682380Y-98661904D01*
X127682380Y-98042857D01*
X126682380Y-97423809D02*
X126682380Y-97328571D01*
X126730000Y-97233333D01*
X126777619Y-97185714D01*
X126872857Y-97138095D01*
X127063333Y-97090476D01*
X127301428Y-97090476D01*
X127491904Y-97138095D01*
X127587142Y-97185714D01*
X127634761Y-97233333D01*
X127682380Y-97328571D01*
X127682380Y-97423809D01*
X127634761Y-97519047D01*
X127587142Y-97566666D01*
X127491904Y-97614285D01*
X127301428Y-97661904D01*
X127063333Y-97661904D01*
X126872857Y-97614285D01*
X126777619Y-97566666D01*
X126730000Y-97519047D01*
X126682380Y-97423809D01*
X127015714Y-96233333D02*
X127682380Y-96233333D01*
X126634761Y-96471428D02*
X127349047Y-96709523D01*
X127349047Y-96090476D01*
X126682380Y-95519047D02*
X126682380Y-95423809D01*
X126730000Y-95328571D01*
X126777619Y-95280952D01*
X126872857Y-95233333D01*
X127063333Y-95185714D01*
X127301428Y-95185714D01*
X127491904Y-95233333D01*
X127587142Y-95280952D01*
X127634761Y-95328571D01*
X127682380Y-95423809D01*
X127682380Y-95519047D01*
X127634761Y-95614285D01*
X127587142Y-95661904D01*
X127491904Y-95709523D01*
X127301428Y-95757142D01*
X127063333Y-95757142D01*
X126872857Y-95709523D01*
X126777619Y-95661904D01*
X126730000Y-95614285D01*
X126682380Y-95519047D01*
X131502380Y-98661904D02*
X132311904Y-98661904D01*
X132407142Y-98614285D01*
X132454761Y-98566666D01*
X132502380Y-98471428D01*
X132502380Y-98280952D01*
X132454761Y-98185714D01*
X132407142Y-98138095D01*
X132311904Y-98090476D01*
X131502380Y-98090476D01*
X132502380Y-97090476D02*
X132502380Y-97661904D01*
X132502380Y-97376190D02*
X131502380Y-97376190D01*
X131645238Y-97471428D01*
X131740476Y-97566666D01*
X131788095Y-97661904D01*
D10*
G04 #@! TO.C,C14*
X134284523Y-68968214D02*
X134284523Y-68987261D01*
X134275000Y-69006309D01*
X134265476Y-69015833D01*
X134246428Y-69025357D01*
X134208333Y-69034880D01*
X134160714Y-69034880D01*
X134122619Y-69025357D01*
X134103571Y-69015833D01*
X134094047Y-69006309D01*
X134084523Y-68987261D01*
X134084523Y-68968214D01*
X134094047Y-68949166D01*
X134103571Y-68939642D01*
X134122619Y-68930119D01*
X134160714Y-68920595D01*
X134208333Y-68920595D01*
X134246428Y-68930119D01*
X134265476Y-68939642D01*
X134275000Y-68949166D01*
X134284523Y-68968214D01*
X134103571Y-69120595D02*
X134094047Y-69130119D01*
X134084523Y-69120595D01*
X134094047Y-69111071D01*
X134103571Y-69120595D01*
X134084523Y-69120595D01*
X134084523Y-69320595D02*
X134084523Y-69206309D01*
X134084523Y-69263452D02*
X134284523Y-69263452D01*
X134255952Y-69244404D01*
X134236904Y-69225357D01*
X134227380Y-69206309D01*
X134217857Y-69492023D02*
X134084523Y-69492023D01*
X134217857Y-69406309D02*
X134113095Y-69406309D01*
X134094047Y-69415833D01*
X134084523Y-69434880D01*
X134084523Y-69463452D01*
X134094047Y-69482500D01*
X134103571Y-69492023D01*
X134189285Y-69653928D02*
X134189285Y-69587261D01*
X134084523Y-69587261D02*
X134284523Y-69587261D01*
X134284523Y-69682500D01*
G04 #@! TO.C,C22*
X140531785Y-103234523D02*
X140512738Y-103234523D01*
X140493690Y-103225000D01*
X140484166Y-103215476D01*
X140474642Y-103196428D01*
X140465119Y-103158333D01*
X140465119Y-103110714D01*
X140474642Y-103072619D01*
X140484166Y-103053571D01*
X140493690Y-103044047D01*
X140512738Y-103034523D01*
X140531785Y-103034523D01*
X140550833Y-103044047D01*
X140560357Y-103053571D01*
X140569880Y-103072619D01*
X140579404Y-103110714D01*
X140579404Y-103158333D01*
X140569880Y-103196428D01*
X140560357Y-103215476D01*
X140550833Y-103225000D01*
X140531785Y-103234523D01*
X140379404Y-103053571D02*
X140369880Y-103044047D01*
X140379404Y-103034523D01*
X140388928Y-103044047D01*
X140379404Y-103053571D01*
X140379404Y-103034523D01*
X140179404Y-103034523D02*
X140293690Y-103034523D01*
X140236547Y-103034523D02*
X140236547Y-103234523D01*
X140255595Y-103205952D01*
X140274642Y-103186904D01*
X140293690Y-103177380D01*
X140007976Y-103167857D02*
X140007976Y-103034523D01*
X140093690Y-103167857D02*
X140093690Y-103063095D01*
X140084166Y-103044047D01*
X140065119Y-103034523D01*
X140036547Y-103034523D01*
X140017500Y-103044047D01*
X140007976Y-103053571D01*
X139846071Y-103139285D02*
X139912738Y-103139285D01*
X139912738Y-103034523D02*
X139912738Y-103234523D01*
X139817500Y-103234523D01*
G04 #@! TO.C,R2*
X137920595Y-99734523D02*
X137930119Y-99725000D01*
X137949166Y-99715476D01*
X137996785Y-99715476D01*
X138015833Y-99725000D01*
X138025357Y-99734523D01*
X138034880Y-99753571D01*
X138034880Y-99772619D01*
X138025357Y-99801190D01*
X137911071Y-99915476D01*
X138034880Y-99915476D01*
X138111071Y-99734523D02*
X138120595Y-99725000D01*
X138139642Y-99715476D01*
X138187261Y-99715476D01*
X138206309Y-99725000D01*
X138215833Y-99734523D01*
X138225357Y-99753571D01*
X138225357Y-99772619D01*
X138215833Y-99801190D01*
X138101547Y-99915476D01*
X138225357Y-99915476D01*
G04 #@! TO.C,C23*
X142784523Y-104184880D02*
X142784523Y-104070595D01*
X142784523Y-104127738D02*
X142984523Y-104127738D01*
X142955952Y-104108690D01*
X142936904Y-104089642D01*
X142927380Y-104070595D01*
X142984523Y-104308690D02*
X142984523Y-104327738D01*
X142975000Y-104346785D01*
X142965476Y-104356309D01*
X142946428Y-104365833D01*
X142908333Y-104375357D01*
X142860714Y-104375357D01*
X142822619Y-104365833D01*
X142803571Y-104356309D01*
X142794047Y-104346785D01*
X142784523Y-104327738D01*
X142784523Y-104308690D01*
X142794047Y-104289642D01*
X142803571Y-104280119D01*
X142822619Y-104270595D01*
X142860714Y-104261071D01*
X142908333Y-104261071D01*
X142946428Y-104270595D01*
X142965476Y-104280119D01*
X142975000Y-104289642D01*
X142984523Y-104308690D01*
X142917857Y-104546785D02*
X142784523Y-104546785D01*
X142917857Y-104461071D02*
X142813095Y-104461071D01*
X142794047Y-104470595D01*
X142784523Y-104489642D01*
X142784523Y-104518214D01*
X142794047Y-104537261D01*
X142803571Y-104546785D01*
X142889285Y-104708690D02*
X142889285Y-104642023D01*
X142784523Y-104642023D02*
X142984523Y-104642023D01*
X142984523Y-104737261D01*
D13*
G04 #@! TO.C,C11*
X110513095Y-87518898D02*
X110513095Y-87661755D01*
X110513095Y-87590327D02*
X110263095Y-87590327D01*
X110298809Y-87614136D01*
X110322619Y-87637946D01*
X110334523Y-87661755D01*
X110346428Y-87304613D02*
X110513095Y-87304613D01*
X110346428Y-87411755D02*
X110477380Y-87411755D01*
X110501190Y-87399851D01*
X110513095Y-87376041D01*
X110513095Y-87340327D01*
X110501190Y-87316517D01*
X110489285Y-87304613D01*
X110382142Y-87102232D02*
X110382142Y-87185565D01*
X110513095Y-87185565D02*
X110263095Y-87185565D01*
X110263095Y-87066517D01*
G04 #@! TO.C,C12*
X133486904Y-75081101D02*
X133486904Y-74938244D01*
X133486904Y-75009672D02*
X133736904Y-75009672D01*
X133701190Y-74985863D01*
X133677380Y-74962053D01*
X133665476Y-74938244D01*
X133653571Y-75295386D02*
X133486904Y-75295386D01*
X133653571Y-75188244D02*
X133522619Y-75188244D01*
X133498809Y-75200148D01*
X133486904Y-75223958D01*
X133486904Y-75259672D01*
X133498809Y-75283482D01*
X133510714Y-75295386D01*
X133617857Y-75497767D02*
X133617857Y-75414434D01*
X133486904Y-75414434D02*
X133736904Y-75414434D01*
X133736904Y-75533482D01*
D11*
G04 #@! TO.C,C15*
X100071428Y-86585714D02*
X100071428Y-87252380D01*
X99833333Y-86204761D02*
X99595238Y-86919047D01*
X100214285Y-86919047D01*
X100500000Y-86252380D02*
X101166666Y-86252380D01*
X100738095Y-87252380D01*
X101976190Y-86585714D02*
X101976190Y-87252380D01*
X101547619Y-86585714D02*
X101547619Y-87109523D01*
X101595238Y-87204761D01*
X101690476Y-87252380D01*
X101833333Y-87252380D01*
X101928571Y-87204761D01*
X101976190Y-87157142D01*
X102785714Y-86728571D02*
X102452380Y-86728571D01*
X102452380Y-87252380D02*
X102452380Y-86252380D01*
X102928571Y-86252380D01*
X103976190Y-86252380D02*
X104595238Y-86252380D01*
X104261904Y-86633333D01*
X104404761Y-86633333D01*
X104500000Y-86680952D01*
X104547619Y-86728571D01*
X104595238Y-86823809D01*
X104595238Y-87061904D01*
X104547619Y-87157142D01*
X104500000Y-87204761D01*
X104404761Y-87252380D01*
X104119047Y-87252380D01*
X104023809Y-87204761D01*
X103976190Y-87157142D01*
X105500000Y-86252380D02*
X105023809Y-86252380D01*
X104976190Y-86728571D01*
X105023809Y-86680952D01*
X105119047Y-86633333D01*
X105357142Y-86633333D01*
X105452380Y-86680952D01*
X105500000Y-86728571D01*
X105547619Y-86823809D01*
X105547619Y-87061904D01*
X105500000Y-87157142D01*
X105452380Y-87204761D01*
X105357142Y-87252380D01*
X105119047Y-87252380D01*
X105023809Y-87204761D01*
X104976190Y-87157142D01*
X105833333Y-86252380D02*
X106166666Y-87252380D01*
X106500000Y-86252380D01*
X102357142Y-90907142D02*
X102309523Y-90954761D01*
X102166666Y-91002380D01*
X102071428Y-91002380D01*
X101928571Y-90954761D01*
X101833333Y-90859523D01*
X101785714Y-90764285D01*
X101738095Y-90573809D01*
X101738095Y-90430952D01*
X101785714Y-90240476D01*
X101833333Y-90145238D01*
X101928571Y-90050000D01*
X102071428Y-90002380D01*
X102166666Y-90002380D01*
X102309523Y-90050000D01*
X102357142Y-90097619D01*
X103309523Y-91002380D02*
X102738095Y-91002380D01*
X103023809Y-91002380D02*
X103023809Y-90002380D01*
X102928571Y-90145238D01*
X102833333Y-90240476D01*
X102738095Y-90288095D01*
X104214285Y-90002380D02*
X103738095Y-90002380D01*
X103690476Y-90478571D01*
X103738095Y-90430952D01*
X103833333Y-90383333D01*
X104071428Y-90383333D01*
X104166666Y-90430952D01*
X104214285Y-90478571D01*
X104261904Y-90573809D01*
X104261904Y-90811904D01*
X104214285Y-90907142D01*
X104166666Y-90954761D01*
X104071428Y-91002380D01*
X103833333Y-91002380D01*
X103738095Y-90954761D01*
X103690476Y-90907142D01*
D10*
G04 #@! TO.C,R19*
X118667500Y-59615476D02*
X118553214Y-59615476D01*
X118610357Y-59615476D02*
X118610357Y-59415476D01*
X118591309Y-59444047D01*
X118572261Y-59463095D01*
X118553214Y-59472619D01*
X118753214Y-59615476D02*
X118753214Y-59415476D01*
X118772261Y-59539285D02*
X118829404Y-59615476D01*
X118829404Y-59482142D02*
X118753214Y-59558333D01*
G04 #@! TO.C,R16*
X118265476Y-86315119D02*
X118265476Y-86429404D01*
X118265476Y-86372261D02*
X118065476Y-86372261D01*
X118094047Y-86391309D01*
X118113095Y-86410357D01*
X118122619Y-86429404D01*
X118065476Y-86191309D02*
X118065476Y-86172261D01*
X118075000Y-86153214D01*
X118084523Y-86143690D01*
X118103571Y-86134166D01*
X118141666Y-86124642D01*
X118189285Y-86124642D01*
X118227380Y-86134166D01*
X118246428Y-86143690D01*
X118255952Y-86153214D01*
X118265476Y-86172261D01*
X118265476Y-86191309D01*
X118255952Y-86210357D01*
X118246428Y-86219880D01*
X118227380Y-86229404D01*
X118189285Y-86238928D01*
X118141666Y-86238928D01*
X118103571Y-86229404D01*
X118084523Y-86219880D01*
X118075000Y-86210357D01*
X118065476Y-86191309D01*
X118265476Y-86038928D02*
X118065476Y-86038928D01*
X118189285Y-86019880D02*
X118265476Y-85962738D01*
X118132142Y-85962738D02*
X118208333Y-86038928D01*
G04 #@! TO.C,R17*
X125915476Y-74372976D02*
X125915476Y-74487261D01*
X125915476Y-74430119D02*
X125715476Y-74430119D01*
X125744047Y-74449166D01*
X125763095Y-74468214D01*
X125772619Y-74487261D01*
X125715476Y-74249166D02*
X125715476Y-74230119D01*
X125725000Y-74211071D01*
X125734523Y-74201547D01*
X125753571Y-74192023D01*
X125791666Y-74182500D01*
X125839285Y-74182500D01*
X125877380Y-74192023D01*
X125896428Y-74201547D01*
X125905952Y-74211071D01*
X125915476Y-74230119D01*
X125915476Y-74249166D01*
X125905952Y-74268214D01*
X125896428Y-74277738D01*
X125877380Y-74287261D01*
X125839285Y-74296785D01*
X125791666Y-74296785D01*
X125753571Y-74287261D01*
X125734523Y-74277738D01*
X125725000Y-74268214D01*
X125715476Y-74249166D01*
X125915476Y-74096785D02*
X125715476Y-74096785D01*
X125839285Y-74077738D02*
X125915476Y-74020595D01*
X125782142Y-74020595D02*
X125858333Y-74096785D01*
D14*
G04 #@! TO.C,J2*
X112014285Y-98542857D02*
X111714285Y-98642857D01*
X112014285Y-98742857D01*
X111714285Y-98842857D02*
X111914285Y-98842857D01*
X112014285Y-98842857D02*
X112000000Y-98828571D01*
X111985714Y-98842857D01*
X112000000Y-98857142D01*
X112014285Y-98842857D01*
X111985714Y-98842857D01*
X111914285Y-98985714D02*
X111714285Y-98985714D01*
X111885714Y-98985714D02*
X111900000Y-99000000D01*
X111914285Y-99028571D01*
X111914285Y-99071428D01*
X111900000Y-99100000D01*
X111871428Y-99114285D01*
X111714285Y-99114285D01*
D15*
X105523809Y-96283333D02*
X105166666Y-96283333D01*
X105095238Y-96259523D01*
X105047619Y-96211904D01*
X105023809Y-96140476D01*
X105023809Y-96092857D01*
X105476190Y-96497619D02*
X105500000Y-96521428D01*
X105523809Y-96569047D01*
X105523809Y-96688095D01*
X105500000Y-96735714D01*
X105476190Y-96759523D01*
X105428571Y-96783333D01*
X105380952Y-96783333D01*
X105309523Y-96759523D01*
X105023809Y-96473809D01*
X105023809Y-96783333D01*
D10*
G04 #@! TO.C,R20*
X125284880Y-61365476D02*
X125170595Y-61365476D01*
X125227738Y-61365476D02*
X125227738Y-61165476D01*
X125208690Y-61194047D01*
X125189642Y-61213095D01*
X125170595Y-61222619D01*
X125370595Y-61365476D02*
X125370595Y-61165476D01*
X125389642Y-61289285D02*
X125446785Y-61365476D01*
X125446785Y-61232142D02*
X125370595Y-61308333D01*
D11*
G04 #@! TO.C,C13*
X140349379Y-63655726D02*
X140820784Y-63184322D01*
X140248364Y-64093459D02*
X140921799Y-63756741D01*
X140484066Y-63319009D01*
X139810631Y-63588383D02*
X139339227Y-63116978D01*
X140349379Y-62712917D01*
X139002509Y-62308856D02*
X139473914Y-61837452D01*
X139305555Y-62611902D02*
X139675944Y-62241513D01*
X139709616Y-62140497D01*
X139675944Y-62039482D01*
X139574929Y-61938467D01*
X139473914Y-61904795D01*
X139406570Y-61904795D01*
X138531105Y-61635421D02*
X138766807Y-61871123D01*
X139137196Y-61500734D02*
X138430090Y-62207841D01*
X138093372Y-61871123D01*
X137352593Y-61130345D02*
X136914861Y-60692612D01*
X137419937Y-60658940D01*
X137318922Y-60557925D01*
X137285250Y-60456910D01*
X137285250Y-60389566D01*
X137318922Y-60288551D01*
X137487280Y-60120192D01*
X137588296Y-60086520D01*
X137655639Y-60086520D01*
X137756654Y-60120192D01*
X137958685Y-60322223D01*
X137992357Y-60423238D01*
X137992357Y-60490581D01*
X136275097Y-60052849D02*
X136611815Y-60389566D01*
X136982204Y-60086520D01*
X136914861Y-60086520D01*
X136813845Y-60052849D01*
X136645487Y-59884490D01*
X136611815Y-59783475D01*
X136611815Y-59716131D01*
X136645487Y-59615116D01*
X136813845Y-59446757D01*
X136914861Y-59413085D01*
X136982204Y-59413085D01*
X137083219Y-59446757D01*
X137251578Y-59615116D01*
X137285250Y-59716131D01*
X137285250Y-59783475D01*
X136039395Y-59817146D02*
X136510800Y-58874337D01*
X135567991Y-59345742D01*
X141788847Y-58983771D02*
X141856191Y-58983771D01*
X141990878Y-59051115D01*
X142058221Y-59118458D01*
X142125565Y-59253145D01*
X142125565Y-59387832D01*
X142091893Y-59488847D01*
X141990878Y-59657206D01*
X141889863Y-59758221D01*
X141721504Y-59859237D01*
X141620489Y-59892908D01*
X141485802Y-59892908D01*
X141351115Y-59825565D01*
X141283771Y-59758221D01*
X141216428Y-59623534D01*
X141216428Y-59556191D01*
X141182756Y-58242992D02*
X141586817Y-58647053D01*
X141384786Y-58445023D02*
X140677679Y-59152130D01*
X140846038Y-59118458D01*
X140980725Y-59118458D01*
X141081741Y-59152130D01*
X140239947Y-58714397D02*
X139802214Y-58276664D01*
X140307290Y-58242992D01*
X140206275Y-58141977D01*
X140172603Y-58040962D01*
X140172603Y-57973618D01*
X140206275Y-57872603D01*
X140374634Y-57704244D01*
X140475649Y-57670573D01*
X140542992Y-57670573D01*
X140644008Y-57704244D01*
X140846038Y-57906275D01*
X140879710Y-58007290D01*
X140879710Y-58074634D01*
D10*
G04 #@! TO.C,R5*
X115265476Y-94463452D02*
X115265476Y-94577738D01*
X115265476Y-94520595D02*
X115065476Y-94520595D01*
X115094047Y-94539642D01*
X115113095Y-94558690D01*
X115122619Y-94577738D01*
X115065476Y-94339642D02*
X115065476Y-94320595D01*
X115075000Y-94301547D01*
X115084523Y-94292023D01*
X115103571Y-94282500D01*
X115141666Y-94272976D01*
X115189285Y-94272976D01*
X115227380Y-94282500D01*
X115246428Y-94292023D01*
X115255952Y-94301547D01*
X115265476Y-94320595D01*
X115265476Y-94339642D01*
X115255952Y-94358690D01*
X115246428Y-94368214D01*
X115227380Y-94377738D01*
X115189285Y-94387261D01*
X115141666Y-94387261D01*
X115103571Y-94377738D01*
X115084523Y-94368214D01*
X115075000Y-94358690D01*
X115065476Y-94339642D01*
X115065476Y-94149166D02*
X115065476Y-94130119D01*
X115075000Y-94111071D01*
X115084523Y-94101547D01*
X115103571Y-94092023D01*
X115141666Y-94082500D01*
X115189285Y-94082500D01*
X115227380Y-94092023D01*
X115246428Y-94101547D01*
X115255952Y-94111071D01*
X115265476Y-94130119D01*
X115265476Y-94149166D01*
X115255952Y-94168214D01*
X115246428Y-94177738D01*
X115227380Y-94187261D01*
X115189285Y-94196785D01*
X115141666Y-94196785D01*
X115103571Y-94187261D01*
X115084523Y-94177738D01*
X115075000Y-94168214D01*
X115065476Y-94149166D01*
X115265476Y-93996785D02*
X115065476Y-93996785D01*
X115189285Y-93977738D02*
X115265476Y-93920595D01*
X115132142Y-93920595D02*
X115208333Y-93996785D01*
G04 #@! TO.C,R1*
X126434880Y-99265476D02*
X126320595Y-99265476D01*
X126377738Y-99265476D02*
X126377738Y-99065476D01*
X126358690Y-99094047D01*
X126339642Y-99113095D01*
X126320595Y-99122619D01*
X126520595Y-99265476D02*
X126520595Y-99065476D01*
X126539642Y-99189285D02*
X126596785Y-99265476D01*
X126596785Y-99132142D02*
X126520595Y-99208333D01*
D11*
G04 #@! TO.C,C41*
X113855518Y-81927580D02*
X114097954Y-82170016D01*
X113976736Y-82048798D02*
X113552472Y-82473062D01*
X113653487Y-82452859D01*
X113734299Y-82452859D01*
X113794908Y-82473062D01*
X113168614Y-82089204D02*
X113128208Y-82048798D01*
X113108005Y-81988189D01*
X113108005Y-81947783D01*
X113128208Y-81887173D01*
X113188817Y-81786158D01*
X113289832Y-81685143D01*
X113390847Y-81624534D01*
X113451457Y-81604331D01*
X113491863Y-81604331D01*
X113552472Y-81624534D01*
X113592878Y-81664940D01*
X113613081Y-81725549D01*
X113613081Y-81765955D01*
X113592878Y-81826564D01*
X113532269Y-81927580D01*
X113431253Y-82028595D01*
X113330238Y-82089204D01*
X113269629Y-82109407D01*
X113229223Y-82109407D01*
X113168614Y-82089204D01*
X112764553Y-81685143D02*
X112724147Y-81644737D01*
X112703944Y-81584128D01*
X112703944Y-81543722D01*
X112724147Y-81483112D01*
X112784756Y-81382097D01*
X112885771Y-81281082D01*
X112986786Y-81220473D01*
X113047395Y-81200270D01*
X113087802Y-81200270D01*
X113148411Y-81220473D01*
X113188817Y-81260879D01*
X113209020Y-81321488D01*
X113209020Y-81361894D01*
X113188817Y-81422503D01*
X113128208Y-81523519D01*
X113027192Y-81624534D01*
X112926177Y-81685143D01*
X112865568Y-81705346D01*
X112825162Y-81705346D01*
X112764553Y-81685143D01*
X112400898Y-81038645D02*
X112683741Y-80755803D01*
X112582725Y-81220473D02*
X112804959Y-80998239D01*
X112825162Y-80937630D01*
X112804959Y-80877021D01*
X112744350Y-80816412D01*
X112683741Y-80796209D01*
X112643334Y-80796209D01*
X112118055Y-80634584D02*
X112259477Y-80776006D01*
X112481710Y-80553772D02*
X112057446Y-80978036D01*
X111855415Y-80776006D01*
X111410948Y-80331539D02*
X111148309Y-80068899D01*
X111451354Y-80048696D01*
X111390745Y-79988087D01*
X111370542Y-79927478D01*
X111370542Y-79887071D01*
X111390745Y-79826462D01*
X111491761Y-79725447D01*
X111552370Y-79705244D01*
X111592776Y-79705244D01*
X111653385Y-79725447D01*
X111774603Y-79846665D01*
X111794806Y-79907274D01*
X111794806Y-79947681D01*
X110764451Y-79685041D02*
X110966481Y-79887071D01*
X111188715Y-79705244D01*
X111148309Y-79705244D01*
X111087700Y-79685041D01*
X110986684Y-79584026D01*
X110966481Y-79523416D01*
X110966481Y-79483010D01*
X110986684Y-79422401D01*
X111087700Y-79321386D01*
X111148309Y-79301183D01*
X111188715Y-79301183D01*
X111249324Y-79321386D01*
X111350339Y-79422401D01*
X111370542Y-79483010D01*
X111370542Y-79523416D01*
X110623029Y-79543620D02*
X110905872Y-78977934D01*
X110340187Y-79260777D01*
X116544543Y-77339467D02*
X116611887Y-77339467D01*
X116746574Y-77406811D01*
X116813917Y-77474154D01*
X116881261Y-77608841D01*
X116881261Y-77743528D01*
X116847589Y-77844543D01*
X116746574Y-78012902D01*
X116645559Y-78113917D01*
X116477200Y-78214933D01*
X116376185Y-78248604D01*
X116241498Y-78248604D01*
X116106811Y-78181261D01*
X116039467Y-78113917D01*
X115972124Y-77979230D01*
X115972124Y-77911887D01*
X115534391Y-77137437D02*
X116005795Y-76666032D01*
X115433375Y-77575169D02*
X116106811Y-77238452D01*
X115669078Y-76800719D01*
X115265017Y-75925253D02*
X115669078Y-76329314D01*
X115467047Y-76127284D02*
X114759940Y-76834391D01*
X114928299Y-76800719D01*
X115062986Y-76800719D01*
X115164001Y-76834391D01*
D13*
G04 #@! TO.C,C6*
X110613095Y-66518898D02*
X110613095Y-66661755D01*
X110613095Y-66590327D02*
X110363095Y-66590327D01*
X110398809Y-66614136D01*
X110422619Y-66637946D01*
X110434523Y-66661755D01*
X110446428Y-66304613D02*
X110613095Y-66304613D01*
X110446428Y-66411755D02*
X110577380Y-66411755D01*
X110601190Y-66399851D01*
X110613095Y-66376041D01*
X110613095Y-66340327D01*
X110601190Y-66316517D01*
X110589285Y-66304613D01*
X110482142Y-66102232D02*
X110482142Y-66185565D01*
X110613095Y-66185565D02*
X110363095Y-66185565D01*
X110363095Y-66066517D01*
D10*
G04 #@! TO.C,C8*
X109715476Y-52081785D02*
X109715476Y-52062738D01*
X109725000Y-52043690D01*
X109734523Y-52034166D01*
X109753571Y-52024642D01*
X109791666Y-52015119D01*
X109839285Y-52015119D01*
X109877380Y-52024642D01*
X109896428Y-52034166D01*
X109905952Y-52043690D01*
X109915476Y-52062738D01*
X109915476Y-52081785D01*
X109905952Y-52100833D01*
X109896428Y-52110357D01*
X109877380Y-52119880D01*
X109839285Y-52129404D01*
X109791666Y-52129404D01*
X109753571Y-52119880D01*
X109734523Y-52110357D01*
X109725000Y-52100833D01*
X109715476Y-52081785D01*
X109896428Y-51929404D02*
X109905952Y-51919880D01*
X109915476Y-51929404D01*
X109905952Y-51938928D01*
X109896428Y-51929404D01*
X109915476Y-51929404D01*
X109915476Y-51729404D02*
X109915476Y-51843690D01*
X109915476Y-51786547D02*
X109715476Y-51786547D01*
X109744047Y-51805595D01*
X109763095Y-51824642D01*
X109772619Y-51843690D01*
X109782142Y-51557976D02*
X109915476Y-51557976D01*
X109782142Y-51643690D02*
X109886904Y-51643690D01*
X109905952Y-51634166D01*
X109915476Y-51615119D01*
X109915476Y-51586547D01*
X109905952Y-51567500D01*
X109896428Y-51557976D01*
X109810714Y-51396071D02*
X109810714Y-51462738D01*
X109915476Y-51462738D02*
X109715476Y-51462738D01*
X109715476Y-51367500D01*
G04 #@! TO.C,R24*
X118762738Y-60465476D02*
X118781785Y-60465476D01*
X118800833Y-60475000D01*
X118810357Y-60484523D01*
X118819880Y-60503571D01*
X118829404Y-60541666D01*
X118829404Y-60589285D01*
X118819880Y-60627380D01*
X118810357Y-60646428D01*
X118800833Y-60655952D01*
X118781785Y-60665476D01*
X118762738Y-60665476D01*
X118743690Y-60655952D01*
X118734166Y-60646428D01*
X118724642Y-60627380D01*
X118715119Y-60589285D01*
X118715119Y-60541666D01*
X118724642Y-60503571D01*
X118734166Y-60484523D01*
X118743690Y-60475000D01*
X118762738Y-60465476D01*
G04 #@! TO.C,C29*
X119934523Y-102668214D02*
X119934523Y-102687261D01*
X119925000Y-102706309D01*
X119915476Y-102715833D01*
X119896428Y-102725357D01*
X119858333Y-102734880D01*
X119810714Y-102734880D01*
X119772619Y-102725357D01*
X119753571Y-102715833D01*
X119744047Y-102706309D01*
X119734523Y-102687261D01*
X119734523Y-102668214D01*
X119744047Y-102649166D01*
X119753571Y-102639642D01*
X119772619Y-102630119D01*
X119810714Y-102620595D01*
X119858333Y-102620595D01*
X119896428Y-102630119D01*
X119915476Y-102639642D01*
X119925000Y-102649166D01*
X119934523Y-102668214D01*
X119753571Y-102820595D02*
X119744047Y-102830119D01*
X119734523Y-102820595D01*
X119744047Y-102811071D01*
X119753571Y-102820595D01*
X119734523Y-102820595D01*
X119734523Y-103020595D02*
X119734523Y-102906309D01*
X119734523Y-102963452D02*
X119934523Y-102963452D01*
X119905952Y-102944404D01*
X119886904Y-102925357D01*
X119877380Y-102906309D01*
X119867857Y-103192023D02*
X119734523Y-103192023D01*
X119867857Y-103106309D02*
X119763095Y-103106309D01*
X119744047Y-103115833D01*
X119734523Y-103134880D01*
X119734523Y-103163452D01*
X119744047Y-103182500D01*
X119753571Y-103192023D01*
X119839285Y-103353928D02*
X119839285Y-103287261D01*
X119734523Y-103287261D02*
X119934523Y-103287261D01*
X119934523Y-103382500D01*
D12*
G04 #@! TO.C,A3*
X109329619Y-70014285D02*
X110329619Y-70014285D01*
X109615333Y-70347619D01*
X110329619Y-70680952D01*
X109329619Y-70680952D01*
X109329619Y-71585714D02*
X109853428Y-71585714D01*
X109948666Y-71538095D01*
X109996285Y-71442857D01*
X109996285Y-71252380D01*
X109948666Y-71157142D01*
X109377238Y-71585714D02*
X109329619Y-71490476D01*
X109329619Y-71252380D01*
X109377238Y-71157142D01*
X109472476Y-71109523D01*
X109567714Y-71109523D01*
X109662952Y-71157142D01*
X109710571Y-71252380D01*
X109710571Y-71490476D01*
X109758190Y-71585714D01*
X109329619Y-72061904D02*
X110329619Y-72061904D01*
X109710571Y-72157142D02*
X109329619Y-72442857D01*
X109996285Y-72442857D02*
X109615333Y-72061904D01*
X109377238Y-73252380D02*
X109329619Y-73157142D01*
X109329619Y-72966666D01*
X109377238Y-72871428D01*
X109472476Y-72823809D01*
X109853428Y-72823809D01*
X109948666Y-72871428D01*
X109996285Y-72966666D01*
X109996285Y-73157142D01*
X109948666Y-73252380D01*
X109853428Y-73300000D01*
X109758190Y-73300000D01*
X109662952Y-72823809D01*
X109329619Y-73728571D02*
X109996285Y-73728571D01*
X109805809Y-73728571D02*
X109901047Y-73776190D01*
X109948666Y-73823809D01*
X109996285Y-73919047D01*
X109996285Y-74014285D01*
X109329619Y-74347619D02*
X110329619Y-74347619D01*
X109948666Y-74347619D02*
X109996285Y-74442857D01*
X109996285Y-74633333D01*
X109948666Y-74728571D01*
X109901047Y-74776190D01*
X109805809Y-74823809D01*
X109520095Y-74823809D01*
X109424857Y-74776190D01*
X109377238Y-74728571D01*
X109329619Y-74633333D01*
X109329619Y-74442857D01*
X109377238Y-74347619D01*
X109329619Y-75680952D02*
X109853428Y-75680952D01*
X109948666Y-75633333D01*
X109996285Y-75538095D01*
X109996285Y-75347619D01*
X109948666Y-75252380D01*
X109377238Y-75680952D02*
X109329619Y-75585714D01*
X109329619Y-75347619D01*
X109377238Y-75252380D01*
X109472476Y-75204761D01*
X109567714Y-75204761D01*
X109662952Y-75252380D01*
X109710571Y-75347619D01*
X109710571Y-75585714D01*
X109758190Y-75680952D01*
X109377238Y-76109523D02*
X109329619Y-76204761D01*
X109329619Y-76395238D01*
X109377238Y-76490476D01*
X109472476Y-76538095D01*
X109520095Y-76538095D01*
X109615333Y-76490476D01*
X109662952Y-76395238D01*
X109662952Y-76252380D01*
X109710571Y-76157142D01*
X109805809Y-76109523D01*
X109853428Y-76109523D01*
X109948666Y-76157142D01*
X109996285Y-76252380D01*
X109996285Y-76395238D01*
X109948666Y-76490476D01*
X109377238Y-77347619D02*
X109329619Y-77252380D01*
X109329619Y-77061904D01*
X109377238Y-76966666D01*
X109472476Y-76919047D01*
X109853428Y-76919047D01*
X109948666Y-76966666D01*
X109996285Y-77061904D01*
X109996285Y-77252380D01*
X109948666Y-77347619D01*
X109853428Y-77395238D01*
X109758190Y-77395238D01*
X109662952Y-76919047D01*
X109329619Y-78585714D02*
X110329619Y-78585714D01*
X109615333Y-78919047D01*
X110329619Y-79252380D01*
X109329619Y-79252380D01*
X109329619Y-79728571D02*
X110329619Y-79728571D01*
X109329619Y-80300000D02*
X109901047Y-79871428D01*
X110329619Y-80300000D02*
X109758190Y-79728571D01*
X109377238Y-80680952D02*
X109329619Y-80823809D01*
X109329619Y-81061904D01*
X109377238Y-81157142D01*
X109424857Y-81204761D01*
X109520095Y-81252380D01*
X109615333Y-81252380D01*
X109710571Y-81204761D01*
X109758190Y-81157142D01*
X109805809Y-81061904D01*
X109853428Y-80871428D01*
X109901047Y-80776190D01*
X109948666Y-80728571D01*
X110043904Y-80680952D01*
X110139142Y-80680952D01*
X110234380Y-80728571D01*
X110282000Y-80776190D01*
X110329619Y-80871428D01*
X110329619Y-81109523D01*
X110282000Y-81252380D01*
X110329619Y-82300000D02*
X110329619Y-82871428D01*
X109329619Y-82585714D02*
X110329619Y-82585714D01*
X109329619Y-83204761D02*
X110329619Y-83204761D01*
X109615333Y-83538095D01*
X110329619Y-83871428D01*
X109329619Y-83871428D01*
X109424857Y-84919047D02*
X109377238Y-84871428D01*
X109329619Y-84728571D01*
X109329619Y-84633333D01*
X109377238Y-84490476D01*
X109472476Y-84395238D01*
X109567714Y-84347619D01*
X109758190Y-84300000D01*
X109901047Y-84300000D01*
X110091523Y-84347619D01*
X110186761Y-84395238D01*
X110282000Y-84490476D01*
X110329619Y-84633333D01*
X110329619Y-84728571D01*
X110282000Y-84871428D01*
X110234380Y-84919047D01*
X110234380Y-85300000D02*
X110282000Y-85347619D01*
X110329619Y-85442857D01*
X110329619Y-85680952D01*
X110282000Y-85776190D01*
X110234380Y-85823809D01*
X110139142Y-85871428D01*
X110043904Y-85871428D01*
X109901047Y-85823809D01*
X109329619Y-85252380D01*
X109329619Y-85871428D01*
X110234380Y-86252380D02*
X110282000Y-86300000D01*
X110329619Y-86395238D01*
X110329619Y-86633333D01*
X110282000Y-86728571D01*
X110234380Y-86776190D01*
X110139142Y-86823809D01*
X110043904Y-86823809D01*
X109901047Y-86776190D01*
X109329619Y-86204761D01*
X109329619Y-86823809D01*
X110329619Y-87442857D02*
X110329619Y-87538095D01*
X110282000Y-87633333D01*
X110234380Y-87680952D01*
X110139142Y-87728571D01*
X109948666Y-87776190D01*
X109710571Y-87776190D01*
X109520095Y-87728571D01*
X109424857Y-87680952D01*
X109377238Y-87633333D01*
X109329619Y-87538095D01*
X109329619Y-87442857D01*
X109377238Y-87347619D01*
X109424857Y-87300000D01*
X109520095Y-87252380D01*
X109710571Y-87204761D01*
X109948666Y-87204761D01*
X110139142Y-87252380D01*
X110234380Y-87300000D01*
X110282000Y-87347619D01*
X110329619Y-87442857D01*
X109329619Y-88252380D02*
X109329619Y-88442857D01*
X109377238Y-88538095D01*
X109424857Y-88585714D01*
X109567714Y-88680952D01*
X109758190Y-88728571D01*
X110139142Y-88728571D01*
X110234380Y-88680952D01*
X110282000Y-88633333D01*
X110329619Y-88538095D01*
X110329619Y-88347619D01*
X110282000Y-88252380D01*
X110234380Y-88204761D01*
X110139142Y-88157142D01*
X109901047Y-88157142D01*
X109805809Y-88204761D01*
X109758190Y-88252380D01*
X109710571Y-88347619D01*
X109710571Y-88538095D01*
X109758190Y-88633333D01*
X109805809Y-88680952D01*
X109901047Y-88728571D01*
X109996285Y-89823809D02*
X109329619Y-90061904D01*
X109996285Y-90300000D01*
X110234380Y-90633333D02*
X110282000Y-90680952D01*
X110329619Y-90776190D01*
X110329619Y-91014285D01*
X110282000Y-91109523D01*
X110234380Y-91157142D01*
X110139142Y-91204761D01*
X110043904Y-91204761D01*
X109901047Y-91157142D01*
X109329619Y-90585714D01*
X109329619Y-91204761D01*
X109424857Y-91633333D02*
X109377238Y-91680952D01*
X109329619Y-91633333D01*
X109377238Y-91585714D01*
X109424857Y-91633333D01*
X109329619Y-91633333D01*
X110329619Y-92300000D02*
X110329619Y-92395238D01*
X110282000Y-92490476D01*
X110234380Y-92538095D01*
X110139142Y-92585714D01*
X109948666Y-92633333D01*
X109710571Y-92633333D01*
X109520095Y-92585714D01*
X109424857Y-92538095D01*
X109377238Y-92490476D01*
X109329619Y-92395238D01*
X109329619Y-92300000D01*
X109377238Y-92204761D01*
X109424857Y-92157142D01*
X109520095Y-92109523D01*
X109710571Y-92061904D01*
X109948666Y-92061904D01*
X110139142Y-92109523D01*
X110234380Y-92157142D01*
X110282000Y-92204761D01*
X110329619Y-92300000D01*
D10*
G04 #@! TO.C,R4*
X125334880Y-96765476D02*
X125220595Y-96765476D01*
X125277738Y-96765476D02*
X125277738Y-96565476D01*
X125258690Y-96594047D01*
X125239642Y-96613095D01*
X125220595Y-96622619D01*
X125420595Y-96765476D02*
X125420595Y-96565476D01*
X125439642Y-96689285D02*
X125496785Y-96765476D01*
X125496785Y-96632142D02*
X125420595Y-96708333D01*
G04 #@! TO.C,C20*
X118334523Y-72568214D02*
X118334523Y-72587261D01*
X118325000Y-72606309D01*
X118315476Y-72615833D01*
X118296428Y-72625357D01*
X118258333Y-72634880D01*
X118210714Y-72634880D01*
X118172619Y-72625357D01*
X118153571Y-72615833D01*
X118144047Y-72606309D01*
X118134523Y-72587261D01*
X118134523Y-72568214D01*
X118144047Y-72549166D01*
X118153571Y-72539642D01*
X118172619Y-72530119D01*
X118210714Y-72520595D01*
X118258333Y-72520595D01*
X118296428Y-72530119D01*
X118315476Y-72539642D01*
X118325000Y-72549166D01*
X118334523Y-72568214D01*
X118153571Y-72720595D02*
X118144047Y-72730119D01*
X118134523Y-72720595D01*
X118144047Y-72711071D01*
X118153571Y-72720595D01*
X118134523Y-72720595D01*
X118134523Y-72920595D02*
X118134523Y-72806309D01*
X118134523Y-72863452D02*
X118334523Y-72863452D01*
X118305952Y-72844404D01*
X118286904Y-72825357D01*
X118277380Y-72806309D01*
X118267857Y-73092023D02*
X118134523Y-73092023D01*
X118267857Y-73006309D02*
X118163095Y-73006309D01*
X118144047Y-73015833D01*
X118134523Y-73034880D01*
X118134523Y-73063452D01*
X118144047Y-73082500D01*
X118153571Y-73092023D01*
X118239285Y-73253928D02*
X118239285Y-73187261D01*
X118134523Y-73187261D02*
X118334523Y-73187261D01*
X118334523Y-73282500D01*
G04 #@! TO.C,C27*
X122434523Y-102668214D02*
X122434523Y-102687261D01*
X122425000Y-102706309D01*
X122415476Y-102715833D01*
X122396428Y-102725357D01*
X122358333Y-102734880D01*
X122310714Y-102734880D01*
X122272619Y-102725357D01*
X122253571Y-102715833D01*
X122244047Y-102706309D01*
X122234523Y-102687261D01*
X122234523Y-102668214D01*
X122244047Y-102649166D01*
X122253571Y-102639642D01*
X122272619Y-102630119D01*
X122310714Y-102620595D01*
X122358333Y-102620595D01*
X122396428Y-102630119D01*
X122415476Y-102639642D01*
X122425000Y-102649166D01*
X122434523Y-102668214D01*
X122253571Y-102820595D02*
X122244047Y-102830119D01*
X122234523Y-102820595D01*
X122244047Y-102811071D01*
X122253571Y-102820595D01*
X122234523Y-102820595D01*
X122234523Y-103020595D02*
X122234523Y-102906309D01*
X122234523Y-102963452D02*
X122434523Y-102963452D01*
X122405952Y-102944404D01*
X122386904Y-102925357D01*
X122377380Y-102906309D01*
X122367857Y-103192023D02*
X122234523Y-103192023D01*
X122367857Y-103106309D02*
X122263095Y-103106309D01*
X122244047Y-103115833D01*
X122234523Y-103134880D01*
X122234523Y-103163452D01*
X122244047Y-103182500D01*
X122253571Y-103192023D01*
X122339285Y-103353928D02*
X122339285Y-103287261D01*
X122234523Y-103287261D02*
X122434523Y-103287261D01*
X122434523Y-103382500D01*
D13*
G04 #@! TO.C,C28*
X114386904Y-104431101D02*
X114386904Y-104288244D01*
X114386904Y-104359672D02*
X114636904Y-104359672D01*
X114601190Y-104335863D01*
X114577380Y-104312053D01*
X114565476Y-104288244D01*
X114553571Y-104645386D02*
X114386904Y-104645386D01*
X114553571Y-104538244D02*
X114422619Y-104538244D01*
X114398809Y-104550148D01*
X114386904Y-104573958D01*
X114386904Y-104609672D01*
X114398809Y-104633482D01*
X114410714Y-104645386D01*
X114517857Y-104847767D02*
X114517857Y-104764434D01*
X114386904Y-104764434D02*
X114636904Y-104764434D01*
X114636904Y-104883482D01*
D10*
G04 #@! TO.C,C21*
X125184523Y-54668214D02*
X125184523Y-54687261D01*
X125175000Y-54706309D01*
X125165476Y-54715833D01*
X125146428Y-54725357D01*
X125108333Y-54734880D01*
X125060714Y-54734880D01*
X125022619Y-54725357D01*
X125003571Y-54715833D01*
X124994047Y-54706309D01*
X124984523Y-54687261D01*
X124984523Y-54668214D01*
X124994047Y-54649166D01*
X125003571Y-54639642D01*
X125022619Y-54630119D01*
X125060714Y-54620595D01*
X125108333Y-54620595D01*
X125146428Y-54630119D01*
X125165476Y-54639642D01*
X125175000Y-54649166D01*
X125184523Y-54668214D01*
X125003571Y-54820595D02*
X124994047Y-54830119D01*
X124984523Y-54820595D01*
X124994047Y-54811071D01*
X125003571Y-54820595D01*
X124984523Y-54820595D01*
X124984523Y-55020595D02*
X124984523Y-54906309D01*
X124984523Y-54963452D02*
X125184523Y-54963452D01*
X125155952Y-54944404D01*
X125136904Y-54925357D01*
X125127380Y-54906309D01*
X125117857Y-55192023D02*
X124984523Y-55192023D01*
X125117857Y-55106309D02*
X125013095Y-55106309D01*
X124994047Y-55115833D01*
X124984523Y-55134880D01*
X124984523Y-55163452D01*
X124994047Y-55182500D01*
X125003571Y-55192023D01*
X125089285Y-55353928D02*
X125089285Y-55287261D01*
X124984523Y-55287261D02*
X125184523Y-55287261D01*
X125184523Y-55382500D01*
G04 #@! TO.C,R3*
X137920595Y-99034523D02*
X137930119Y-99025000D01*
X137949166Y-99015476D01*
X137996785Y-99015476D01*
X138015833Y-99025000D01*
X138025357Y-99034523D01*
X138034880Y-99053571D01*
X138034880Y-99072619D01*
X138025357Y-99101190D01*
X137911071Y-99215476D01*
X138034880Y-99215476D01*
X138111071Y-99034523D02*
X138120595Y-99025000D01*
X138139642Y-99015476D01*
X138187261Y-99015476D01*
X138206309Y-99025000D01*
X138215833Y-99034523D01*
X138225357Y-99053571D01*
X138225357Y-99072619D01*
X138215833Y-99101190D01*
X138101547Y-99215476D01*
X138225357Y-99215476D01*
G04 #@! TO.C,R9*
X137015476Y-94372976D02*
X137015476Y-94487261D01*
X137015476Y-94430119D02*
X136815476Y-94430119D01*
X136844047Y-94449166D01*
X136863095Y-94468214D01*
X136872619Y-94487261D01*
X136815476Y-94249166D02*
X136815476Y-94230119D01*
X136825000Y-94211071D01*
X136834523Y-94201547D01*
X136853571Y-94192023D01*
X136891666Y-94182499D01*
X136939285Y-94182499D01*
X136977380Y-94192023D01*
X136996428Y-94201547D01*
X137005952Y-94211071D01*
X137015476Y-94230119D01*
X137015476Y-94249166D01*
X137005952Y-94268214D01*
X136996428Y-94277738D01*
X136977380Y-94287261D01*
X136939285Y-94296785D01*
X136891666Y-94296785D01*
X136853571Y-94287261D01*
X136834523Y-94277738D01*
X136825000Y-94268214D01*
X136815476Y-94249166D01*
X137015476Y-94096785D02*
X136815476Y-94096785D01*
X136939285Y-94077738D02*
X137015476Y-94020595D01*
X136882142Y-94020595D02*
X136958333Y-94096785D01*
D11*
G04 #@! TO.C,C7*
X97991273Y-71095379D02*
X98462677Y-71566784D01*
X97553540Y-70994364D02*
X97890258Y-71667799D01*
X98327990Y-71230066D01*
X98058616Y-70556631D02*
X98530021Y-70085227D01*
X98934082Y-71095379D01*
X99338143Y-69748509D02*
X99809547Y-70219914D01*
X99035097Y-70051555D02*
X99405486Y-70421944D01*
X99506502Y-70455616D01*
X99607517Y-70421944D01*
X99708532Y-70320929D01*
X99742204Y-70219914D01*
X99742204Y-70152570D01*
X100011578Y-69277105D02*
X99775876Y-69512807D01*
X100146265Y-69883196D02*
X99439158Y-69176090D01*
X99775876Y-68839372D01*
X100516654Y-68098593D02*
X100954387Y-67660861D01*
X100988059Y-68165937D01*
X101089074Y-68064922D01*
X101190089Y-68031250D01*
X101257433Y-68031250D01*
X101358448Y-68064922D01*
X101526807Y-68233280D01*
X101560479Y-68334296D01*
X101560479Y-68401639D01*
X101526807Y-68502654D01*
X101324776Y-68704685D01*
X101223761Y-68738357D01*
X101156418Y-68738357D01*
X101594150Y-67021097D02*
X101257433Y-67357815D01*
X101560479Y-67728204D01*
X101560479Y-67660861D01*
X101594150Y-67559845D01*
X101762509Y-67391487D01*
X101863524Y-67357815D01*
X101930868Y-67357815D01*
X102031883Y-67391487D01*
X102200242Y-67559845D01*
X102233914Y-67660861D01*
X102233914Y-67728204D01*
X102200242Y-67829219D01*
X102031883Y-67997578D01*
X101930868Y-68031250D01*
X101863524Y-68031250D01*
X101829853Y-66785395D02*
X102772662Y-67256800D01*
X102301257Y-66313991D01*
X102999946Y-72198130D02*
X102999946Y-72265473D01*
X102932602Y-72400160D01*
X102865259Y-72467504D01*
X102730571Y-72534847D01*
X102595884Y-72534847D01*
X102494869Y-72501176D01*
X102326510Y-72400160D01*
X102225495Y-72299145D01*
X102124480Y-72130786D01*
X102090808Y-72029771D01*
X102090808Y-71895084D01*
X102158152Y-71760397D01*
X102225495Y-71693053D01*
X102360182Y-71625710D01*
X102427526Y-71625710D01*
X102595884Y-71322664D02*
X103067289Y-70851260D01*
X103471350Y-71861412D01*
D12*
G04 #@! TO.C,A1*
X109329619Y-49164285D02*
X110329619Y-49164285D01*
X109615333Y-49497619D01*
X110329619Y-49830952D01*
X109329619Y-49830952D01*
X109329619Y-50735714D02*
X109853428Y-50735714D01*
X109948666Y-50688095D01*
X109996285Y-50592857D01*
X109996285Y-50402380D01*
X109948666Y-50307142D01*
X109377238Y-50735714D02*
X109329619Y-50640476D01*
X109329619Y-50402380D01*
X109377238Y-50307142D01*
X109472476Y-50259523D01*
X109567714Y-50259523D01*
X109662952Y-50307142D01*
X109710571Y-50402380D01*
X109710571Y-50640476D01*
X109758190Y-50735714D01*
X109329619Y-51211904D02*
X110329619Y-51211904D01*
X109710571Y-51307142D02*
X109329619Y-51592857D01*
X109996285Y-51592857D02*
X109615333Y-51211904D01*
X109377238Y-52402380D02*
X109329619Y-52307142D01*
X109329619Y-52116666D01*
X109377238Y-52021428D01*
X109472476Y-51973809D01*
X109853428Y-51973809D01*
X109948666Y-52021428D01*
X109996285Y-52116666D01*
X109996285Y-52307142D01*
X109948666Y-52402380D01*
X109853428Y-52450000D01*
X109758190Y-52450000D01*
X109662952Y-51973809D01*
X109329619Y-52878571D02*
X109996285Y-52878571D01*
X109805809Y-52878571D02*
X109901047Y-52926190D01*
X109948666Y-52973809D01*
X109996285Y-53069047D01*
X109996285Y-53164285D01*
X109329619Y-53497619D02*
X110329619Y-53497619D01*
X109948666Y-53497619D02*
X109996285Y-53592857D01*
X109996285Y-53783333D01*
X109948666Y-53878571D01*
X109901047Y-53926190D01*
X109805809Y-53973809D01*
X109520095Y-53973809D01*
X109424857Y-53926190D01*
X109377238Y-53878571D01*
X109329619Y-53783333D01*
X109329619Y-53592857D01*
X109377238Y-53497619D01*
X109329619Y-54830952D02*
X109853428Y-54830952D01*
X109948666Y-54783333D01*
X109996285Y-54688095D01*
X109996285Y-54497619D01*
X109948666Y-54402380D01*
X109377238Y-54830952D02*
X109329619Y-54735714D01*
X109329619Y-54497619D01*
X109377238Y-54402380D01*
X109472476Y-54354761D01*
X109567714Y-54354761D01*
X109662952Y-54402380D01*
X109710571Y-54497619D01*
X109710571Y-54735714D01*
X109758190Y-54830952D01*
X109377238Y-55259523D02*
X109329619Y-55354761D01*
X109329619Y-55545238D01*
X109377238Y-55640476D01*
X109472476Y-55688095D01*
X109520095Y-55688095D01*
X109615333Y-55640476D01*
X109662952Y-55545238D01*
X109662952Y-55402380D01*
X109710571Y-55307142D01*
X109805809Y-55259523D01*
X109853428Y-55259523D01*
X109948666Y-55307142D01*
X109996285Y-55402380D01*
X109996285Y-55545238D01*
X109948666Y-55640476D01*
X109377238Y-56497619D02*
X109329619Y-56402380D01*
X109329619Y-56211904D01*
X109377238Y-56116666D01*
X109472476Y-56069047D01*
X109853428Y-56069047D01*
X109948666Y-56116666D01*
X109996285Y-56211904D01*
X109996285Y-56402380D01*
X109948666Y-56497619D01*
X109853428Y-56545238D01*
X109758190Y-56545238D01*
X109662952Y-56069047D01*
X109329619Y-57735714D02*
X110329619Y-57735714D01*
X109615333Y-58069047D01*
X110329619Y-58402380D01*
X109329619Y-58402380D01*
X109329619Y-58878571D02*
X110329619Y-58878571D01*
X109329619Y-59450000D02*
X109901047Y-59021428D01*
X110329619Y-59450000D02*
X109758190Y-58878571D01*
X109377238Y-59830952D02*
X109329619Y-59973809D01*
X109329619Y-60211904D01*
X109377238Y-60307142D01*
X109424857Y-60354761D01*
X109520095Y-60402380D01*
X109615333Y-60402380D01*
X109710571Y-60354761D01*
X109758190Y-60307142D01*
X109805809Y-60211904D01*
X109853428Y-60021428D01*
X109901047Y-59926190D01*
X109948666Y-59878571D01*
X110043904Y-59830952D01*
X110139142Y-59830952D01*
X110234380Y-59878571D01*
X110282000Y-59926190D01*
X110329619Y-60021428D01*
X110329619Y-60259523D01*
X110282000Y-60402380D01*
X110329619Y-61450000D02*
X110329619Y-62021428D01*
X109329619Y-61735714D02*
X110329619Y-61735714D01*
X109329619Y-62354761D02*
X110329619Y-62354761D01*
X109615333Y-62688095D01*
X110329619Y-63021428D01*
X109329619Y-63021428D01*
X109424857Y-64069047D02*
X109377238Y-64021428D01*
X109329619Y-63878571D01*
X109329619Y-63783333D01*
X109377238Y-63640476D01*
X109472476Y-63545238D01*
X109567714Y-63497619D01*
X109758190Y-63450000D01*
X109901047Y-63450000D01*
X110091523Y-63497619D01*
X110186761Y-63545238D01*
X110282000Y-63640476D01*
X110329619Y-63783333D01*
X110329619Y-63878571D01*
X110282000Y-64021428D01*
X110234380Y-64069047D01*
X110234380Y-64450000D02*
X110282000Y-64497619D01*
X110329619Y-64592857D01*
X110329619Y-64830952D01*
X110282000Y-64926190D01*
X110234380Y-64973809D01*
X110139142Y-65021428D01*
X110043904Y-65021428D01*
X109901047Y-64973809D01*
X109329619Y-64402380D01*
X109329619Y-65021428D01*
X110234380Y-65402380D02*
X110282000Y-65450000D01*
X110329619Y-65545238D01*
X110329619Y-65783333D01*
X110282000Y-65878571D01*
X110234380Y-65926190D01*
X110139142Y-65973809D01*
X110043904Y-65973809D01*
X109901047Y-65926190D01*
X109329619Y-65354761D01*
X109329619Y-65973809D01*
X110329619Y-66592857D02*
X110329619Y-66688095D01*
X110282000Y-66783333D01*
X110234380Y-66830952D01*
X110139142Y-66878571D01*
X109948666Y-66926190D01*
X109710571Y-66926190D01*
X109520095Y-66878571D01*
X109424857Y-66830952D01*
X109377238Y-66783333D01*
X109329619Y-66688095D01*
X109329619Y-66592857D01*
X109377238Y-66497619D01*
X109424857Y-66450000D01*
X109520095Y-66402380D01*
X109710571Y-66354761D01*
X109948666Y-66354761D01*
X110139142Y-66402380D01*
X110234380Y-66450000D01*
X110282000Y-66497619D01*
X110329619Y-66592857D01*
X109329619Y-67402380D02*
X109329619Y-67592857D01*
X109377238Y-67688095D01*
X109424857Y-67735714D01*
X109567714Y-67830952D01*
X109758190Y-67878571D01*
X110139142Y-67878571D01*
X110234380Y-67830952D01*
X110282000Y-67783333D01*
X110329619Y-67688095D01*
X110329619Y-67497619D01*
X110282000Y-67402380D01*
X110234380Y-67354761D01*
X110139142Y-67307142D01*
X109901047Y-67307142D01*
X109805809Y-67354761D01*
X109758190Y-67402380D01*
X109710571Y-67497619D01*
X109710571Y-67688095D01*
X109758190Y-67783333D01*
X109805809Y-67830952D01*
X109901047Y-67878571D01*
X109996285Y-68973809D02*
X109329619Y-69211904D01*
X109996285Y-69450000D01*
X110234380Y-69783333D02*
X110282000Y-69830952D01*
X110329619Y-69926190D01*
X110329619Y-70164285D01*
X110282000Y-70259523D01*
X110234380Y-70307142D01*
X110139142Y-70354761D01*
X110043904Y-70354761D01*
X109901047Y-70307142D01*
X109329619Y-69735714D01*
X109329619Y-70354761D01*
X109424857Y-70783333D02*
X109377238Y-70830952D01*
X109329619Y-70783333D01*
X109377238Y-70735714D01*
X109424857Y-70783333D01*
X109329619Y-70783333D01*
X110329619Y-71450000D02*
X110329619Y-71545238D01*
X110282000Y-71640476D01*
X110234380Y-71688095D01*
X110139142Y-71735714D01*
X109948666Y-71783333D01*
X109710571Y-71783333D01*
X109520095Y-71735714D01*
X109424857Y-71688095D01*
X109377238Y-71640476D01*
X109329619Y-71545238D01*
X109329619Y-71450000D01*
X109377238Y-71354761D01*
X109424857Y-71307142D01*
X109520095Y-71259523D01*
X109710571Y-71211904D01*
X109948666Y-71211904D01*
X110139142Y-71259523D01*
X110234380Y-71307142D01*
X110282000Y-71354761D01*
X110329619Y-71450000D01*
D10*
G04 #@! TO.C,C38*
X137968214Y-98315476D02*
X137987261Y-98315476D01*
X138006309Y-98325000D01*
X138015833Y-98334523D01*
X138025357Y-98353571D01*
X138034880Y-98391666D01*
X138034880Y-98439285D01*
X138025357Y-98477380D01*
X138015833Y-98496428D01*
X138006309Y-98505952D01*
X137987261Y-98515476D01*
X137968214Y-98515476D01*
X137949166Y-98505952D01*
X137939642Y-98496428D01*
X137930119Y-98477380D01*
X137920595Y-98439285D01*
X137920595Y-98391666D01*
X137930119Y-98353571D01*
X137939642Y-98334523D01*
X137949166Y-98325000D01*
X137968214Y-98315476D01*
X138120595Y-98496428D02*
X138130119Y-98505952D01*
X138120595Y-98515476D01*
X138111071Y-98505952D01*
X138120595Y-98496428D01*
X138120595Y-98515476D01*
X138320595Y-98515476D02*
X138206309Y-98515476D01*
X138263452Y-98515476D02*
X138263452Y-98315476D01*
X138244404Y-98344047D01*
X138225357Y-98363095D01*
X138206309Y-98372619D01*
X138492023Y-98382142D02*
X138492023Y-98515476D01*
X138406309Y-98382142D02*
X138406309Y-98486904D01*
X138415833Y-98505952D01*
X138434880Y-98515476D01*
X138463452Y-98515476D01*
X138482500Y-98505952D01*
X138492023Y-98496428D01*
X138653928Y-98410714D02*
X138587261Y-98410714D01*
X138587261Y-98515476D02*
X138587261Y-98315476D01*
X138682500Y-98315476D01*
D11*
G04 #@! TO.C,H2*
X140538095Y-107452380D02*
X140538095Y-106452380D01*
X140538095Y-106928571D02*
X141109523Y-106928571D01*
X141109523Y-107452380D02*
X141109523Y-106452380D01*
X141538095Y-106547619D02*
X141585714Y-106500000D01*
X141680952Y-106452380D01*
X141919047Y-106452380D01*
X142014285Y-106500000D01*
X142061904Y-106547619D01*
X142109523Y-106642857D01*
X142109523Y-106738095D01*
X142061904Y-106880952D01*
X141490476Y-107452380D01*
X142109523Y-107452380D01*
D10*
G04 #@! TO.C,R10*
X121715476Y-102365119D02*
X121715476Y-102479404D01*
X121715476Y-102422261D02*
X121515476Y-102422261D01*
X121544047Y-102441309D01*
X121563095Y-102460357D01*
X121572619Y-102479404D01*
X121515476Y-102241309D02*
X121515476Y-102222261D01*
X121525000Y-102203214D01*
X121534523Y-102193690D01*
X121553571Y-102184166D01*
X121591666Y-102174642D01*
X121639285Y-102174642D01*
X121677380Y-102184166D01*
X121696428Y-102193690D01*
X121705952Y-102203214D01*
X121715476Y-102222261D01*
X121715476Y-102241309D01*
X121705952Y-102260357D01*
X121696428Y-102269880D01*
X121677380Y-102279404D01*
X121639285Y-102288928D01*
X121591666Y-102288928D01*
X121553571Y-102279404D01*
X121534523Y-102269880D01*
X121525000Y-102260357D01*
X121515476Y-102241309D01*
X121715476Y-102088928D02*
X121515476Y-102088928D01*
X121639285Y-102069880D02*
X121715476Y-102012738D01*
X121582142Y-102012738D02*
X121658333Y-102088928D01*
D13*
G04 #@! TO.C,D1*
X115396428Y-99476190D02*
X115563095Y-99476190D01*
X115301190Y-99535714D02*
X115479761Y-99595238D01*
X115479761Y-99440476D01*
X115313095Y-99297619D02*
X115313095Y-99273809D01*
X115325000Y-99250000D01*
X115336904Y-99238095D01*
X115360714Y-99226190D01*
X115408333Y-99214285D01*
X115467857Y-99214285D01*
X115515476Y-99226190D01*
X115539285Y-99238095D01*
X115551190Y-99250000D01*
X115563095Y-99273809D01*
X115563095Y-99297619D01*
X115551190Y-99321428D01*
X115539285Y-99333333D01*
X115515476Y-99345238D01*
X115467857Y-99357142D01*
X115408333Y-99357142D01*
X115360714Y-99345238D01*
X115336904Y-99333333D01*
X115325000Y-99321428D01*
X115313095Y-99297619D01*
X115313095Y-99142857D02*
X115563095Y-99059523D01*
X115313095Y-98976190D01*
X115313095Y-98583333D02*
X115313095Y-98702380D01*
X115432142Y-98714285D01*
X115420238Y-98702380D01*
X115408333Y-98678571D01*
X115408333Y-98619047D01*
X115420238Y-98595238D01*
X115432142Y-98583333D01*
X115455952Y-98571428D01*
X115515476Y-98571428D01*
X115539285Y-98583333D01*
X115551190Y-98595238D01*
X115563095Y-98619047D01*
X115563095Y-98678571D01*
X115551190Y-98702380D01*
X115539285Y-98714285D01*
X115491666Y-98476190D02*
X115491666Y-98357142D01*
X115563095Y-98500000D02*
X115313095Y-98416666D01*
X115563095Y-98333333D01*
X115313095Y-97940476D02*
X115313095Y-98059523D01*
X115432142Y-98071428D01*
X115420238Y-98059523D01*
X115408333Y-98035714D01*
X115408333Y-97976190D01*
X115420238Y-97952380D01*
X115432142Y-97940476D01*
X115455952Y-97928571D01*
X115515476Y-97928571D01*
X115539285Y-97940476D01*
X115551190Y-97952380D01*
X115563095Y-97976190D01*
X115563095Y-98035714D01*
X115551190Y-98059523D01*
X115539285Y-98071428D01*
X115313095Y-97702380D02*
X115313095Y-97821428D01*
X115432142Y-97833333D01*
X115420238Y-97821428D01*
X115408333Y-97797619D01*
X115408333Y-97738095D01*
X115420238Y-97714285D01*
X115432142Y-97702380D01*
X115455952Y-97690476D01*
X115515476Y-97690476D01*
X115539285Y-97702380D01*
X115551190Y-97714285D01*
X115563095Y-97738095D01*
X115563095Y-97797619D01*
X115551190Y-97821428D01*
X115539285Y-97833333D01*
X115313095Y-97535714D02*
X115313095Y-97511904D01*
X115325000Y-97488095D01*
X115336904Y-97476190D01*
X115360714Y-97464285D01*
X115408333Y-97452380D01*
X115467857Y-97452380D01*
X115515476Y-97464285D01*
X115539285Y-97476190D01*
X115551190Y-97488095D01*
X115563095Y-97511904D01*
X115563095Y-97535714D01*
X115551190Y-97559523D01*
X115539285Y-97571428D01*
X115515476Y-97583333D01*
X115467857Y-97595238D01*
X115408333Y-97595238D01*
X115360714Y-97583333D01*
X115336904Y-97571428D01*
X115325000Y-97559523D01*
X115313095Y-97535714D01*
X115563095Y-97345238D02*
X115396428Y-97345238D01*
X115420238Y-97345238D02*
X115408333Y-97333333D01*
X115396428Y-97309523D01*
X115396428Y-97273809D01*
X115408333Y-97250000D01*
X115432142Y-97238095D01*
X115563095Y-97238095D01*
X115432142Y-97238095D02*
X115408333Y-97226190D01*
X115396428Y-97202380D01*
X115396428Y-97166666D01*
X115408333Y-97142857D01*
X115432142Y-97130952D01*
X115563095Y-97130952D01*
X115313095Y-97047619D02*
X115563095Y-96964285D01*
X115313095Y-96880952D01*
D10*
G04 #@! TO.C,C35*
X131165476Y-91631785D02*
X131165476Y-91612738D01*
X131175000Y-91593690D01*
X131184523Y-91584166D01*
X131203571Y-91574642D01*
X131241666Y-91565119D01*
X131289285Y-91565119D01*
X131327380Y-91574642D01*
X131346428Y-91584166D01*
X131355952Y-91593690D01*
X131365476Y-91612738D01*
X131365476Y-91631785D01*
X131355952Y-91650833D01*
X131346428Y-91660357D01*
X131327380Y-91669880D01*
X131289285Y-91679404D01*
X131241666Y-91679404D01*
X131203571Y-91669880D01*
X131184523Y-91660357D01*
X131175000Y-91650833D01*
X131165476Y-91631785D01*
X131346428Y-91479404D02*
X131355952Y-91469880D01*
X131365476Y-91479404D01*
X131355952Y-91488928D01*
X131346428Y-91479404D01*
X131365476Y-91479404D01*
X131365476Y-91279404D02*
X131365476Y-91393690D01*
X131365476Y-91336547D02*
X131165476Y-91336547D01*
X131194047Y-91355595D01*
X131213095Y-91374642D01*
X131222619Y-91393690D01*
X131232142Y-91107976D02*
X131365476Y-91107976D01*
X131232142Y-91193690D02*
X131336904Y-91193690D01*
X131355952Y-91184166D01*
X131365476Y-91165119D01*
X131365476Y-91136547D01*
X131355952Y-91117500D01*
X131346428Y-91107976D01*
X131260714Y-90946071D02*
X131260714Y-91012738D01*
X131365476Y-91012738D02*
X131165476Y-91012738D01*
X131165476Y-90917500D01*
D11*
G04 #@! TO.C,H3*
X140538095Y-53452380D02*
X140538095Y-52452380D01*
X140538095Y-52928571D02*
X141109523Y-52928571D01*
X141109523Y-53452380D02*
X141109523Y-52452380D01*
X141490476Y-52452380D02*
X142109523Y-52452380D01*
X141776190Y-52833333D01*
X141919047Y-52833333D01*
X142014285Y-52880952D01*
X142061904Y-52928571D01*
X142109523Y-53023809D01*
X142109523Y-53261904D01*
X142061904Y-53357142D01*
X142014285Y-53404761D01*
X141919047Y-53452380D01*
X141633333Y-53452380D01*
X141538095Y-53404761D01*
X141490476Y-53357142D01*
D10*
G04 #@! TO.C,C25*
X116615476Y-93731785D02*
X116615476Y-93712738D01*
X116625000Y-93693690D01*
X116634523Y-93684166D01*
X116653571Y-93674642D01*
X116691666Y-93665119D01*
X116739285Y-93665119D01*
X116777380Y-93674642D01*
X116796428Y-93684166D01*
X116805952Y-93693690D01*
X116815476Y-93712738D01*
X116815476Y-93731785D01*
X116805952Y-93750833D01*
X116796428Y-93760357D01*
X116777380Y-93769880D01*
X116739285Y-93779404D01*
X116691666Y-93779404D01*
X116653571Y-93769880D01*
X116634523Y-93760357D01*
X116625000Y-93750833D01*
X116615476Y-93731785D01*
X116796428Y-93579404D02*
X116805952Y-93569880D01*
X116815476Y-93579404D01*
X116805952Y-93588928D01*
X116796428Y-93579404D01*
X116815476Y-93579404D01*
X116815476Y-93379404D02*
X116815476Y-93493690D01*
X116815476Y-93436547D02*
X116615476Y-93436547D01*
X116644047Y-93455595D01*
X116663095Y-93474642D01*
X116672619Y-93493690D01*
X116682142Y-93207976D02*
X116815476Y-93207976D01*
X116682142Y-93293690D02*
X116786904Y-93293690D01*
X116805952Y-93284166D01*
X116815476Y-93265119D01*
X116815476Y-93236547D01*
X116805952Y-93217500D01*
X116796428Y-93207976D01*
X116710714Y-93046071D02*
X116710714Y-93112738D01*
X116815476Y-93112738D02*
X116615476Y-93112738D01*
X116615476Y-93017500D01*
G04 #@! TO.C,C5*
X124029404Y-97965476D02*
X124019880Y-97975000D01*
X124000833Y-97984523D01*
X123953214Y-97984523D01*
X123934166Y-97975000D01*
X123924642Y-97965476D01*
X123915119Y-97946428D01*
X123915119Y-97927380D01*
X123924642Y-97898809D01*
X124038928Y-97784523D01*
X123915119Y-97784523D01*
X123848452Y-97984523D02*
X123715119Y-97984523D01*
X123800833Y-97784523D01*
X123638928Y-97917857D02*
X123638928Y-97717857D01*
X123638928Y-97908333D02*
X123619880Y-97917857D01*
X123581785Y-97917857D01*
X123562738Y-97908333D01*
X123553214Y-97898809D01*
X123543690Y-97879761D01*
X123543690Y-97822619D01*
X123553214Y-97803571D01*
X123562738Y-97794047D01*
X123581785Y-97784523D01*
X123619880Y-97784523D01*
X123638928Y-97794047D01*
X123391309Y-97889285D02*
X123457976Y-97889285D01*
X123457976Y-97784523D02*
X123457976Y-97984523D01*
X123362738Y-97984523D01*
X123019880Y-97803571D02*
X123029404Y-97794047D01*
X123057976Y-97784523D01*
X123077023Y-97784523D01*
X123105595Y-97794047D01*
X123124642Y-97813095D01*
X123134166Y-97832142D01*
X123143690Y-97870238D01*
X123143690Y-97898809D01*
X123134166Y-97936904D01*
X123124642Y-97955952D01*
X123105595Y-97975000D01*
X123077023Y-97984523D01*
X123057976Y-97984523D01*
X123029404Y-97975000D01*
X123019880Y-97965476D01*
X122896071Y-97984523D02*
X122877023Y-97984523D01*
X122857976Y-97975000D01*
X122848452Y-97965476D01*
X122838928Y-97946428D01*
X122829404Y-97908333D01*
X122829404Y-97860714D01*
X122838928Y-97822619D01*
X122848452Y-97803571D01*
X122857976Y-97794047D01*
X122877023Y-97784523D01*
X122896071Y-97784523D01*
X122915119Y-97794047D01*
X122924642Y-97803571D01*
X122934166Y-97822619D01*
X122943690Y-97860714D01*
X122943690Y-97908333D01*
X122934166Y-97946428D01*
X122924642Y-97965476D01*
X122915119Y-97975000D01*
X122896071Y-97984523D01*
X122638928Y-97975000D02*
X122657976Y-97984523D01*
X122686547Y-97984523D01*
X122715119Y-97975000D01*
X122734166Y-97955952D01*
X122743690Y-97936904D01*
X122753214Y-97898809D01*
X122753214Y-97870238D01*
X122743690Y-97832142D01*
X122734166Y-97813095D01*
X122715119Y-97794047D01*
X122686547Y-97784523D01*
X122667500Y-97784523D01*
X122638928Y-97794047D01*
X122629404Y-97803571D01*
X122629404Y-97870238D01*
X122667500Y-97870238D01*
X122296071Y-97984523D02*
X122391309Y-97984523D01*
X122400833Y-97889285D01*
X122391309Y-97898809D01*
X122372261Y-97908333D01*
X122324642Y-97908333D01*
X122305595Y-97898809D01*
X122296071Y-97889285D01*
X122286547Y-97870238D01*
X122286547Y-97822619D01*
X122296071Y-97803571D01*
X122305595Y-97794047D01*
X122324642Y-97784523D01*
X122372261Y-97784523D01*
X122391309Y-97794047D01*
X122400833Y-97803571D01*
X122162738Y-97984523D02*
X122143690Y-97984523D01*
X122124642Y-97975000D01*
X122115119Y-97965476D01*
X122105595Y-97946428D01*
X122096071Y-97908333D01*
X122096071Y-97860714D01*
X122105595Y-97822619D01*
X122115119Y-97803571D01*
X122124642Y-97794047D01*
X122143690Y-97784523D01*
X122162738Y-97784523D01*
X122181785Y-97794047D01*
X122191309Y-97803571D01*
X122200833Y-97822619D01*
X122210357Y-97860714D01*
X122210357Y-97908333D01*
X122200833Y-97946428D01*
X122191309Y-97965476D01*
X122181785Y-97975000D01*
X122162738Y-97984523D01*
X122038928Y-97984523D02*
X121972261Y-97784523D01*
X121905595Y-97984523D01*
G04 #@! TO.C,C37*
X126818214Y-70765476D02*
X126837261Y-70765476D01*
X126856309Y-70775000D01*
X126865833Y-70784523D01*
X126875357Y-70803571D01*
X126884880Y-70841666D01*
X126884880Y-70889285D01*
X126875357Y-70927380D01*
X126865833Y-70946428D01*
X126856309Y-70955952D01*
X126837261Y-70965476D01*
X126818214Y-70965476D01*
X126799166Y-70955952D01*
X126789642Y-70946428D01*
X126780119Y-70927380D01*
X126770595Y-70889285D01*
X126770595Y-70841666D01*
X126780119Y-70803571D01*
X126789642Y-70784523D01*
X126799166Y-70775000D01*
X126818214Y-70765476D01*
X126970595Y-70946428D02*
X126980119Y-70955952D01*
X126970595Y-70965476D01*
X126961071Y-70955952D01*
X126970595Y-70946428D01*
X126970595Y-70965476D01*
X127170595Y-70965476D02*
X127056309Y-70965476D01*
X127113452Y-70965476D02*
X127113452Y-70765476D01*
X127094404Y-70794047D01*
X127075357Y-70813095D01*
X127056309Y-70822619D01*
X127342023Y-70832142D02*
X127342023Y-70965476D01*
X127256309Y-70832142D02*
X127256309Y-70936904D01*
X127265833Y-70955952D01*
X127284880Y-70965476D01*
X127313452Y-70965476D01*
X127332500Y-70955952D01*
X127342023Y-70946428D01*
X127503928Y-70860714D02*
X127437261Y-70860714D01*
X127437261Y-70965476D02*
X127437261Y-70765476D01*
X127532500Y-70765476D01*
G04 #@! TO.C,C26*
X119934523Y-104168214D02*
X119934523Y-104187261D01*
X119925000Y-104206309D01*
X119915476Y-104215833D01*
X119896428Y-104225357D01*
X119858333Y-104234880D01*
X119810714Y-104234880D01*
X119772619Y-104225357D01*
X119753571Y-104215833D01*
X119744047Y-104206309D01*
X119734523Y-104187261D01*
X119734523Y-104168214D01*
X119744047Y-104149166D01*
X119753571Y-104139642D01*
X119772619Y-104130119D01*
X119810714Y-104120595D01*
X119858333Y-104120595D01*
X119896428Y-104130119D01*
X119915476Y-104139642D01*
X119925000Y-104149166D01*
X119934523Y-104168214D01*
X119753571Y-104320595D02*
X119744047Y-104330119D01*
X119734523Y-104320595D01*
X119744047Y-104311071D01*
X119753571Y-104320595D01*
X119734523Y-104320595D01*
X119734523Y-104520595D02*
X119734523Y-104406309D01*
X119734523Y-104463452D02*
X119934523Y-104463452D01*
X119905952Y-104444404D01*
X119886904Y-104425357D01*
X119877380Y-104406309D01*
X119867857Y-104692023D02*
X119734523Y-104692023D01*
X119867857Y-104606309D02*
X119763095Y-104606309D01*
X119744047Y-104615833D01*
X119734523Y-104634880D01*
X119734523Y-104663452D01*
X119744047Y-104682500D01*
X119753571Y-104692023D01*
X119839285Y-104853928D02*
X119839285Y-104787261D01*
X119734523Y-104787261D02*
X119934523Y-104787261D01*
X119934523Y-104882500D01*
G04 #@! TO.C,R27*
X125218214Y-80415476D02*
X125237261Y-80415476D01*
X125256309Y-80425000D01*
X125265833Y-80434523D01*
X125275357Y-80453571D01*
X125284880Y-80491666D01*
X125284880Y-80539285D01*
X125275357Y-80577380D01*
X125265833Y-80596428D01*
X125256309Y-80605952D01*
X125237261Y-80615476D01*
X125218214Y-80615476D01*
X125199166Y-80605952D01*
X125189642Y-80596428D01*
X125180119Y-80577380D01*
X125170595Y-80539285D01*
X125170595Y-80491666D01*
X125180119Y-80453571D01*
X125189642Y-80434523D01*
X125199166Y-80425000D01*
X125218214Y-80415476D01*
G04 #@! TO.C,R26*
X118762738Y-81865476D02*
X118781785Y-81865476D01*
X118800833Y-81875000D01*
X118810357Y-81884523D01*
X118819880Y-81903571D01*
X118829404Y-81941666D01*
X118829404Y-81989285D01*
X118819880Y-82027380D01*
X118810357Y-82046428D01*
X118800833Y-82055952D01*
X118781785Y-82065476D01*
X118762738Y-82065476D01*
X118743690Y-82055952D01*
X118734166Y-82046428D01*
X118724642Y-82027380D01*
X118715119Y-81989285D01*
X118715119Y-81941666D01*
X118724642Y-81903571D01*
X118734166Y-81884523D01*
X118743690Y-81875000D01*
X118762738Y-81865476D01*
G04 #@! TO.C,R14*
X125915476Y-56672976D02*
X125915476Y-56787261D01*
X125915476Y-56730119D02*
X125715476Y-56730119D01*
X125744047Y-56749166D01*
X125763095Y-56768214D01*
X125772619Y-56787261D01*
X125715476Y-56549166D02*
X125715476Y-56530119D01*
X125725000Y-56511071D01*
X125734523Y-56501547D01*
X125753571Y-56492023D01*
X125791666Y-56482500D01*
X125839285Y-56482500D01*
X125877380Y-56492023D01*
X125896428Y-56501547D01*
X125905952Y-56511071D01*
X125915476Y-56530119D01*
X125915476Y-56549166D01*
X125905952Y-56568214D01*
X125896428Y-56577738D01*
X125877380Y-56587261D01*
X125839285Y-56596785D01*
X125791666Y-56596785D01*
X125753571Y-56587261D01*
X125734523Y-56577738D01*
X125725000Y-56568214D01*
X125715476Y-56549166D01*
X125915476Y-56396785D02*
X125715476Y-56396785D01*
X125839285Y-56377738D02*
X125915476Y-56320595D01*
X125782142Y-56320595D02*
X125858333Y-56396785D01*
D12*
G04 #@! TO.C,A4*
X134670380Y-92585714D02*
X133670380Y-92585714D01*
X134384666Y-92252380D01*
X133670380Y-91919047D01*
X134670380Y-91919047D01*
X134670380Y-91014285D02*
X134146571Y-91014285D01*
X134051333Y-91061904D01*
X134003714Y-91157142D01*
X134003714Y-91347619D01*
X134051333Y-91442857D01*
X134622761Y-91014285D02*
X134670380Y-91109523D01*
X134670380Y-91347619D01*
X134622761Y-91442857D01*
X134527523Y-91490476D01*
X134432285Y-91490476D01*
X134337047Y-91442857D01*
X134289428Y-91347619D01*
X134289428Y-91109523D01*
X134241809Y-91014285D01*
X134670380Y-90538095D02*
X133670380Y-90538095D01*
X134289428Y-90442857D02*
X134670380Y-90157142D01*
X134003714Y-90157142D02*
X134384666Y-90538095D01*
X134622761Y-89347619D02*
X134670380Y-89442857D01*
X134670380Y-89633333D01*
X134622761Y-89728571D01*
X134527523Y-89776190D01*
X134146571Y-89776190D01*
X134051333Y-89728571D01*
X134003714Y-89633333D01*
X134003714Y-89442857D01*
X134051333Y-89347619D01*
X134146571Y-89300000D01*
X134241809Y-89300000D01*
X134337047Y-89776190D01*
X134670380Y-88871428D02*
X134003714Y-88871428D01*
X134194190Y-88871428D02*
X134098952Y-88823809D01*
X134051333Y-88776190D01*
X134003714Y-88680952D01*
X134003714Y-88585714D01*
X134670380Y-88252380D02*
X133670380Y-88252380D01*
X134051333Y-88252380D02*
X134003714Y-88157142D01*
X134003714Y-87966666D01*
X134051333Y-87871428D01*
X134098952Y-87823809D01*
X134194190Y-87776190D01*
X134479904Y-87776190D01*
X134575142Y-87823809D01*
X134622761Y-87871428D01*
X134670380Y-87966666D01*
X134670380Y-88157142D01*
X134622761Y-88252380D01*
X134670380Y-86919047D02*
X134146571Y-86919047D01*
X134051333Y-86966666D01*
X134003714Y-87061904D01*
X134003714Y-87252380D01*
X134051333Y-87347619D01*
X134622761Y-86919047D02*
X134670380Y-87014285D01*
X134670380Y-87252380D01*
X134622761Y-87347619D01*
X134527523Y-87395238D01*
X134432285Y-87395238D01*
X134337047Y-87347619D01*
X134289428Y-87252380D01*
X134289428Y-87014285D01*
X134241809Y-86919047D01*
X134622761Y-86490476D02*
X134670380Y-86395238D01*
X134670380Y-86204761D01*
X134622761Y-86109523D01*
X134527523Y-86061904D01*
X134479904Y-86061904D01*
X134384666Y-86109523D01*
X134337047Y-86204761D01*
X134337047Y-86347619D01*
X134289428Y-86442857D01*
X134194190Y-86490476D01*
X134146571Y-86490476D01*
X134051333Y-86442857D01*
X134003714Y-86347619D01*
X134003714Y-86204761D01*
X134051333Y-86109523D01*
X134622761Y-85252380D02*
X134670380Y-85347619D01*
X134670380Y-85538095D01*
X134622761Y-85633333D01*
X134527523Y-85680952D01*
X134146571Y-85680952D01*
X134051333Y-85633333D01*
X134003714Y-85538095D01*
X134003714Y-85347619D01*
X134051333Y-85252380D01*
X134146571Y-85204761D01*
X134241809Y-85204761D01*
X134337047Y-85680952D01*
X134670380Y-84014285D02*
X133670380Y-84014285D01*
X134384666Y-83680952D01*
X133670380Y-83347619D01*
X134670380Y-83347619D01*
X134670380Y-82871428D02*
X133670380Y-82871428D01*
X134670380Y-82300000D02*
X134098952Y-82728571D01*
X133670380Y-82300000D02*
X134241809Y-82871428D01*
X134622761Y-81919047D02*
X134670380Y-81776190D01*
X134670380Y-81538095D01*
X134622761Y-81442857D01*
X134575142Y-81395238D01*
X134479904Y-81347619D01*
X134384666Y-81347619D01*
X134289428Y-81395238D01*
X134241809Y-81442857D01*
X134194190Y-81538095D01*
X134146571Y-81728571D01*
X134098952Y-81823809D01*
X134051333Y-81871428D01*
X133956095Y-81919047D01*
X133860857Y-81919047D01*
X133765619Y-81871428D01*
X133718000Y-81823809D01*
X133670380Y-81728571D01*
X133670380Y-81490476D01*
X133718000Y-81347619D01*
X133670380Y-80300000D02*
X133670380Y-79728571D01*
X134670380Y-80014285D02*
X133670380Y-80014285D01*
X134670380Y-79395238D02*
X133670380Y-79395238D01*
X134384666Y-79061904D01*
X133670380Y-78728571D01*
X134670380Y-78728571D01*
X134575142Y-77680952D02*
X134622761Y-77728571D01*
X134670380Y-77871428D01*
X134670380Y-77966666D01*
X134622761Y-78109523D01*
X134527523Y-78204761D01*
X134432285Y-78252380D01*
X134241809Y-78300000D01*
X134098952Y-78300000D01*
X133908476Y-78252380D01*
X133813238Y-78204761D01*
X133718000Y-78109523D01*
X133670380Y-77966666D01*
X133670380Y-77871428D01*
X133718000Y-77728571D01*
X133765619Y-77680952D01*
X133765619Y-77300000D02*
X133718000Y-77252380D01*
X133670380Y-77157142D01*
X133670380Y-76919047D01*
X133718000Y-76823809D01*
X133765619Y-76776190D01*
X133860857Y-76728571D01*
X133956095Y-76728571D01*
X134098952Y-76776190D01*
X134670380Y-77347619D01*
X134670380Y-76728571D01*
X133765619Y-76347619D02*
X133718000Y-76300000D01*
X133670380Y-76204761D01*
X133670380Y-75966666D01*
X133718000Y-75871428D01*
X133765619Y-75823809D01*
X133860857Y-75776190D01*
X133956095Y-75776190D01*
X134098952Y-75823809D01*
X134670380Y-76395238D01*
X134670380Y-75776190D01*
X133670380Y-75157142D02*
X133670380Y-75061904D01*
X133718000Y-74966666D01*
X133765619Y-74919047D01*
X133860857Y-74871428D01*
X134051333Y-74823809D01*
X134289428Y-74823809D01*
X134479904Y-74871428D01*
X134575142Y-74919047D01*
X134622761Y-74966666D01*
X134670380Y-75061904D01*
X134670380Y-75157142D01*
X134622761Y-75252380D01*
X134575142Y-75300000D01*
X134479904Y-75347619D01*
X134289428Y-75395238D01*
X134051333Y-75395238D01*
X133860857Y-75347619D01*
X133765619Y-75300000D01*
X133718000Y-75252380D01*
X133670380Y-75157142D01*
X134670380Y-74347619D02*
X134670380Y-74157142D01*
X134622761Y-74061904D01*
X134575142Y-74014285D01*
X134432285Y-73919047D01*
X134241809Y-73871428D01*
X133860857Y-73871428D01*
X133765619Y-73919047D01*
X133718000Y-73966666D01*
X133670380Y-74061904D01*
X133670380Y-74252380D01*
X133718000Y-74347619D01*
X133765619Y-74395238D01*
X133860857Y-74442857D01*
X134098952Y-74442857D01*
X134194190Y-74395238D01*
X134241809Y-74347619D01*
X134289428Y-74252380D01*
X134289428Y-74061904D01*
X134241809Y-73966666D01*
X134194190Y-73919047D01*
X134098952Y-73871428D01*
X134003714Y-72776190D02*
X134670380Y-72538095D01*
X134003714Y-72300000D01*
X133765619Y-71966666D02*
X133718000Y-71919047D01*
X133670380Y-71823809D01*
X133670380Y-71585714D01*
X133718000Y-71490476D01*
X133765619Y-71442857D01*
X133860857Y-71395238D01*
X133956095Y-71395238D01*
X134098952Y-71442857D01*
X134670380Y-72014285D01*
X134670380Y-71395238D01*
X134575142Y-70966666D02*
X134622761Y-70919047D01*
X134670380Y-70966666D01*
X134622761Y-71014285D01*
X134575142Y-70966666D01*
X134670380Y-70966666D01*
X133670380Y-70300000D02*
X133670380Y-70204761D01*
X133718000Y-70109523D01*
X133765619Y-70061904D01*
X133860857Y-70014285D01*
X134051333Y-69966666D01*
X134289428Y-69966666D01*
X134479904Y-70014285D01*
X134575142Y-70061904D01*
X134622761Y-70109523D01*
X134670380Y-70204761D01*
X134670380Y-70300000D01*
X134622761Y-70395238D01*
X134575142Y-70442857D01*
X134479904Y-70490476D01*
X134289428Y-70538095D01*
X134051333Y-70538095D01*
X133860857Y-70490476D01*
X133765619Y-70442857D01*
X133718000Y-70395238D01*
X133670380Y-70300000D01*
D10*
G04 #@! TO.C,R22*
X125284880Y-81665476D02*
X125170595Y-81665476D01*
X125227738Y-81665476D02*
X125227738Y-81465476D01*
X125208690Y-81494047D01*
X125189642Y-81513095D01*
X125170595Y-81522619D01*
X125370595Y-81665476D02*
X125370595Y-81465476D01*
X125389642Y-81589285D02*
X125446785Y-81665476D01*
X125446785Y-81532142D02*
X125370595Y-81608333D01*
G04 #@! TO.C,R13*
X125915476Y-55072976D02*
X125915476Y-55187261D01*
X125915476Y-55130119D02*
X125715476Y-55130119D01*
X125744047Y-55149166D01*
X125763095Y-55168214D01*
X125772619Y-55187261D01*
X125715476Y-54949166D02*
X125715476Y-54930119D01*
X125725000Y-54911071D01*
X125734523Y-54901547D01*
X125753571Y-54892023D01*
X125791666Y-54882500D01*
X125839285Y-54882500D01*
X125877380Y-54892023D01*
X125896428Y-54901547D01*
X125905952Y-54911071D01*
X125915476Y-54930119D01*
X125915476Y-54949166D01*
X125905952Y-54968214D01*
X125896428Y-54977738D01*
X125877380Y-54987261D01*
X125839285Y-54996785D01*
X125791666Y-54996785D01*
X125753571Y-54987261D01*
X125734523Y-54977738D01*
X125725000Y-54968214D01*
X125715476Y-54949166D01*
X125915476Y-54796785D02*
X125715476Y-54796785D01*
X125839285Y-54777738D02*
X125915476Y-54720595D01*
X125782142Y-54720595D02*
X125858333Y-54796785D01*
G04 #@! TO.C,R25*
X125218214Y-60065476D02*
X125237261Y-60065476D01*
X125256309Y-60075000D01*
X125265833Y-60084523D01*
X125275357Y-60103571D01*
X125284880Y-60141666D01*
X125284880Y-60189285D01*
X125275357Y-60227380D01*
X125265833Y-60246428D01*
X125256309Y-60255952D01*
X125237261Y-60265476D01*
X125218214Y-60265476D01*
X125199166Y-60255952D01*
X125189642Y-60246428D01*
X125180119Y-60227380D01*
X125170595Y-60189285D01*
X125170595Y-60141666D01*
X125180119Y-60103571D01*
X125189642Y-60084523D01*
X125199166Y-60075000D01*
X125218214Y-60065476D01*
D11*
G04 #@! TO.C,Y1*
X122852380Y-97390476D02*
X122852380Y-97961904D01*
X122852380Y-97676190D02*
X121852380Y-97676190D01*
X121995238Y-97771428D01*
X122090476Y-97866666D01*
X122138095Y-97961904D01*
X121947619Y-97009523D02*
X121900000Y-96961904D01*
X121852380Y-96866666D01*
X121852380Y-96628571D01*
X121900000Y-96533333D01*
X121947619Y-96485714D01*
X122042857Y-96438095D01*
X122138095Y-96438095D01*
X122280952Y-96485714D01*
X122852380Y-97057142D01*
X122852380Y-96438095D01*
X122852380Y-96009523D02*
X121852380Y-96009523D01*
X122566666Y-95676190D01*
X121852380Y-95342857D01*
X122852380Y-95342857D01*
X122852380Y-94866666D02*
X121852380Y-94866666D01*
X122328571Y-94866666D02*
X122328571Y-94295238D01*
X122852380Y-94295238D02*
X121852380Y-94295238D01*
X122185714Y-93914285D02*
X122185714Y-93390476D01*
X122852380Y-93914285D01*
X122852380Y-93390476D01*
D16*
X122983333Y-96033333D02*
X123316666Y-96033333D01*
X122616666Y-96266666D02*
X122983333Y-96033333D01*
X122616666Y-95800000D01*
X123316666Y-95200000D02*
X123316666Y-95600000D01*
X123316666Y-95400000D02*
X122616666Y-95400000D01*
X122716666Y-95466666D01*
X122783333Y-95533333D01*
X122816666Y-95600000D01*
D10*
G04 #@! TO.C,C16*
X109715476Y-72981785D02*
X109715476Y-72962738D01*
X109725000Y-72943690D01*
X109734523Y-72934166D01*
X109753571Y-72924642D01*
X109791666Y-72915119D01*
X109839285Y-72915119D01*
X109877380Y-72924642D01*
X109896428Y-72934166D01*
X109905952Y-72943690D01*
X109915476Y-72962738D01*
X109915476Y-72981785D01*
X109905952Y-73000833D01*
X109896428Y-73010357D01*
X109877380Y-73019880D01*
X109839285Y-73029404D01*
X109791666Y-73029404D01*
X109753571Y-73019880D01*
X109734523Y-73010357D01*
X109725000Y-73000833D01*
X109715476Y-72981785D01*
X109896428Y-72829404D02*
X109905952Y-72819880D01*
X109915476Y-72829404D01*
X109905952Y-72838928D01*
X109896428Y-72829404D01*
X109915476Y-72829404D01*
X109915476Y-72629404D02*
X109915476Y-72743690D01*
X109915476Y-72686547D02*
X109715476Y-72686547D01*
X109744047Y-72705595D01*
X109763095Y-72724642D01*
X109772619Y-72743690D01*
X109782142Y-72457976D02*
X109915476Y-72457976D01*
X109782142Y-72543690D02*
X109886904Y-72543690D01*
X109905952Y-72534166D01*
X109915476Y-72515119D01*
X109915476Y-72486547D01*
X109905952Y-72467500D01*
X109896428Y-72457976D01*
X109810714Y-72296071D02*
X109810714Y-72362738D01*
X109915476Y-72362738D02*
X109715476Y-72362738D01*
X109715476Y-72267500D01*
G04 #@! TO.C,R12*
X118265476Y-64865119D02*
X118265476Y-64979404D01*
X118265476Y-64922261D02*
X118065476Y-64922261D01*
X118094047Y-64941309D01*
X118113095Y-64960357D01*
X118122619Y-64979404D01*
X118065476Y-64741309D02*
X118065476Y-64722261D01*
X118075000Y-64703214D01*
X118084523Y-64693690D01*
X118103571Y-64684166D01*
X118141666Y-64674642D01*
X118189285Y-64674642D01*
X118227380Y-64684166D01*
X118246428Y-64693690D01*
X118255952Y-64703214D01*
X118265476Y-64722261D01*
X118265476Y-64741309D01*
X118255952Y-64760357D01*
X118246428Y-64769880D01*
X118227380Y-64779404D01*
X118189285Y-64788928D01*
X118141666Y-64788928D01*
X118103571Y-64779404D01*
X118084523Y-64769880D01*
X118075000Y-64760357D01*
X118065476Y-64741309D01*
X118265476Y-64588928D02*
X118065476Y-64588928D01*
X118189285Y-64569880D02*
X118265476Y-64512738D01*
X118132142Y-64512738D02*
X118208333Y-64588928D01*
G04 #@! TO.C,C32*
X134484523Y-103668214D02*
X134484523Y-103687261D01*
X134475000Y-103706309D01*
X134465476Y-103715833D01*
X134446428Y-103725357D01*
X134408333Y-103734880D01*
X134360714Y-103734880D01*
X134322619Y-103725357D01*
X134303571Y-103715833D01*
X134294047Y-103706309D01*
X134284523Y-103687261D01*
X134284523Y-103668214D01*
X134294047Y-103649166D01*
X134303571Y-103639642D01*
X134322619Y-103630119D01*
X134360714Y-103620595D01*
X134408333Y-103620595D01*
X134446428Y-103630119D01*
X134465476Y-103639642D01*
X134475000Y-103649166D01*
X134484523Y-103668214D01*
X134303571Y-103820595D02*
X134294047Y-103830119D01*
X134284523Y-103820595D01*
X134294047Y-103811071D01*
X134303571Y-103820595D01*
X134284523Y-103820595D01*
X134284523Y-104020595D02*
X134284523Y-103906309D01*
X134284523Y-103963452D02*
X134484523Y-103963452D01*
X134455952Y-103944404D01*
X134436904Y-103925357D01*
X134427380Y-103906309D01*
X134417857Y-104192023D02*
X134284523Y-104192023D01*
X134417857Y-104106309D02*
X134313095Y-104106309D01*
X134294047Y-104115833D01*
X134284523Y-104134880D01*
X134284523Y-104163452D01*
X134294047Y-104182500D01*
X134303571Y-104192023D01*
X134389285Y-104353928D02*
X134389285Y-104287261D01*
X134284523Y-104287261D02*
X134484523Y-104287261D01*
X134484523Y-104382500D01*
D11*
G04 #@! TO.C,C39*
X133686564Y-62846786D02*
X133929000Y-63089222D01*
X133807782Y-62968004D02*
X133383518Y-63392268D01*
X133484533Y-63372065D01*
X133565345Y-63372065D01*
X133625954Y-63392268D01*
X132999660Y-63008410D02*
X132959254Y-62968004D01*
X132939051Y-62907395D01*
X132939051Y-62866989D01*
X132959254Y-62806379D01*
X133019863Y-62705364D01*
X133120878Y-62604349D01*
X133221893Y-62543740D01*
X133282503Y-62523537D01*
X133322909Y-62523537D01*
X133383518Y-62543740D01*
X133423924Y-62584146D01*
X133444127Y-62644755D01*
X133444127Y-62685161D01*
X133423924Y-62745770D01*
X133363315Y-62846786D01*
X133262299Y-62947801D01*
X133161284Y-63008410D01*
X133100675Y-63028613D01*
X133060269Y-63028613D01*
X132999660Y-63008410D01*
X132595599Y-62604349D02*
X132555193Y-62563943D01*
X132534990Y-62503334D01*
X132534990Y-62462928D01*
X132555193Y-62402318D01*
X132615802Y-62301303D01*
X132716817Y-62200288D01*
X132817832Y-62139679D01*
X132878441Y-62119476D01*
X132918848Y-62119476D01*
X132979457Y-62139679D01*
X133019863Y-62180085D01*
X133040066Y-62240694D01*
X133040066Y-62281100D01*
X133019863Y-62341709D01*
X132959254Y-62442725D01*
X132858238Y-62543740D01*
X132757223Y-62604349D01*
X132696614Y-62624552D01*
X132656208Y-62624552D01*
X132595599Y-62604349D01*
X132231944Y-61957851D02*
X132514787Y-61675009D01*
X132413771Y-62139679D02*
X132636005Y-61917445D01*
X132656208Y-61856836D01*
X132636005Y-61796227D01*
X132575396Y-61735618D01*
X132514787Y-61715415D01*
X132474380Y-61715415D01*
X131949101Y-61553790D02*
X132090523Y-61695212D01*
X132312756Y-61472978D02*
X131888492Y-61897242D01*
X131686461Y-61695212D01*
X131241994Y-61250745D02*
X130979355Y-60988105D01*
X131282400Y-60967902D01*
X131221791Y-60907293D01*
X131201588Y-60846684D01*
X131201588Y-60806277D01*
X131221791Y-60745668D01*
X131322807Y-60644653D01*
X131383416Y-60624450D01*
X131423822Y-60624450D01*
X131484431Y-60644653D01*
X131605649Y-60765871D01*
X131625852Y-60826480D01*
X131625852Y-60866887D01*
X130595497Y-60604247D02*
X130797527Y-60806277D01*
X131019761Y-60624450D01*
X130979355Y-60624450D01*
X130918746Y-60604247D01*
X130817730Y-60503232D01*
X130797527Y-60442622D01*
X130797527Y-60402216D01*
X130817730Y-60341607D01*
X130918746Y-60240592D01*
X130979355Y-60220389D01*
X131019761Y-60220389D01*
X131080370Y-60240592D01*
X131181385Y-60341607D01*
X131201588Y-60402216D01*
X131201588Y-60442622D01*
X130454075Y-60462826D02*
X130736918Y-59897140D01*
X130171233Y-60179983D01*
X129219669Y-65414593D02*
X129287013Y-65414593D01*
X129421700Y-65481937D01*
X129489043Y-65549280D01*
X129556387Y-65683967D01*
X129556387Y-65818654D01*
X129522715Y-65919669D01*
X129421700Y-66088028D01*
X129320685Y-66189043D01*
X129152326Y-66290059D01*
X129051311Y-66323730D01*
X128916624Y-66323730D01*
X128781937Y-66256387D01*
X128714593Y-66189043D01*
X128647250Y-66054356D01*
X128647250Y-65987013D01*
X128344204Y-65818654D02*
X127906471Y-65380921D01*
X128411547Y-65347250D01*
X128310532Y-65246234D01*
X128276860Y-65145219D01*
X128276860Y-65077875D01*
X128310532Y-64976860D01*
X128478891Y-64808501D01*
X128579906Y-64774830D01*
X128647250Y-64774830D01*
X128748265Y-64808501D01*
X128950295Y-65010532D01*
X128983967Y-65111547D01*
X128983967Y-65178891D01*
X128276860Y-64337097D02*
X128142173Y-64202410D01*
X128041158Y-64168738D01*
X127973814Y-64168738D01*
X127805456Y-64202410D01*
X127637097Y-64303425D01*
X127367723Y-64572799D01*
X127334051Y-64673814D01*
X127334051Y-64741158D01*
X127367723Y-64842173D01*
X127502410Y-64976860D01*
X127603425Y-65010532D01*
X127670769Y-65010532D01*
X127771784Y-64976860D01*
X127940143Y-64808501D01*
X127973814Y-64707486D01*
X127973814Y-64640143D01*
X127940143Y-64539127D01*
X127805456Y-64404440D01*
X127704440Y-64370769D01*
X127637097Y-64370769D01*
X127536082Y-64404440D01*
D10*
G04 #@! TO.C,C30*
X120434523Y-102734880D02*
X120434523Y-102620595D01*
X120434523Y-102677738D02*
X120634523Y-102677738D01*
X120605952Y-102658690D01*
X120586904Y-102639642D01*
X120577380Y-102620595D01*
X120634523Y-102858690D02*
X120634523Y-102877738D01*
X120625000Y-102896785D01*
X120615476Y-102906309D01*
X120596428Y-102915833D01*
X120558333Y-102925357D01*
X120510714Y-102925357D01*
X120472619Y-102915833D01*
X120453571Y-102906309D01*
X120444047Y-102896785D01*
X120434523Y-102877738D01*
X120434523Y-102858690D01*
X120444047Y-102839642D01*
X120453571Y-102830119D01*
X120472619Y-102820595D01*
X120510714Y-102811071D01*
X120558333Y-102811071D01*
X120596428Y-102820595D01*
X120615476Y-102830119D01*
X120625000Y-102839642D01*
X120634523Y-102858690D01*
X120567857Y-103096785D02*
X120434523Y-103096785D01*
X120567857Y-103011071D02*
X120463095Y-103011071D01*
X120444047Y-103020595D01*
X120434523Y-103039642D01*
X120434523Y-103068214D01*
X120444047Y-103087261D01*
X120453571Y-103096785D01*
X120539285Y-103258690D02*
X120539285Y-103192023D01*
X120434523Y-103192023D02*
X120634523Y-103192023D01*
X120634523Y-103287261D01*
G04 #@! TO.C,C4*
X138184880Y-100615476D02*
X138070595Y-100615476D01*
X138127738Y-100615476D02*
X138127738Y-100415476D01*
X138108690Y-100444047D01*
X138089642Y-100463095D01*
X138070595Y-100472619D01*
X138308690Y-100415476D02*
X138327738Y-100415476D01*
X138346785Y-100425000D01*
X138356309Y-100434523D01*
X138365833Y-100453571D01*
X138375357Y-100491666D01*
X138375357Y-100539285D01*
X138365833Y-100577380D01*
X138356309Y-100596428D01*
X138346785Y-100605952D01*
X138327738Y-100615476D01*
X138308690Y-100615476D01*
X138289642Y-100605952D01*
X138280119Y-100596428D01*
X138270595Y-100577380D01*
X138261071Y-100539285D01*
X138261071Y-100491666D01*
X138270595Y-100453571D01*
X138280119Y-100434523D01*
X138289642Y-100425000D01*
X138308690Y-100415476D01*
X138546785Y-100482142D02*
X138546785Y-100615476D01*
X138461071Y-100482142D02*
X138461071Y-100586904D01*
X138470595Y-100605952D01*
X138489642Y-100615476D01*
X138518214Y-100615476D01*
X138537261Y-100605952D01*
X138546785Y-100596428D01*
X138708690Y-100510714D02*
X138642023Y-100510714D01*
X138642023Y-100615476D02*
X138642023Y-100415476D01*
X138737261Y-100415476D01*
D11*
G04 #@! TO.C,M4*
X136853571Y-98654761D02*
X136901190Y-98511904D01*
X136948809Y-98464285D01*
X137044047Y-98416666D01*
X137186904Y-98416666D01*
X137282142Y-98464285D01*
X137329761Y-98511904D01*
X137377380Y-98607142D01*
X137377380Y-98988095D01*
X136377380Y-98988095D01*
X136377380Y-98654761D01*
X136425000Y-98559523D01*
X136472619Y-98511904D01*
X136567857Y-98464285D01*
X136663095Y-98464285D01*
X136758333Y-98511904D01*
X136805952Y-98559523D01*
X136853571Y-98654761D01*
X136853571Y-98988095D01*
X137377380Y-97988095D02*
X136710714Y-97988095D01*
X136377380Y-97988095D02*
X136425000Y-98035714D01*
X136472619Y-97988095D01*
X136425000Y-97940476D01*
X136377380Y-97988095D01*
X136472619Y-97988095D01*
X136710714Y-97511904D02*
X137710714Y-97511904D01*
X136758333Y-97511904D02*
X136710714Y-97416666D01*
X136710714Y-97226190D01*
X136758333Y-97130952D01*
X136805952Y-97083333D01*
X136901190Y-97035714D01*
X137186904Y-97035714D01*
X137282142Y-97083333D01*
X137329761Y-97130952D01*
X137377380Y-97226190D01*
X137377380Y-97416666D01*
X137329761Y-97511904D01*
X137377380Y-96464285D02*
X137329761Y-96559523D01*
X137282142Y-96607142D01*
X137186904Y-96654761D01*
X136901190Y-96654761D01*
X136805952Y-96607142D01*
X136758333Y-96559523D01*
X136710714Y-96464285D01*
X136710714Y-96321428D01*
X136758333Y-96226190D01*
X136805952Y-96178571D01*
X136901190Y-96130952D01*
X137186904Y-96130952D01*
X137282142Y-96178571D01*
X137329761Y-96226190D01*
X137377380Y-96321428D01*
X137377380Y-96464285D01*
X137377380Y-95559523D02*
X137329761Y-95654761D01*
X137234523Y-95702380D01*
X136377380Y-95702380D01*
X137377380Y-94750000D02*
X136853571Y-94750000D01*
X136758333Y-94797619D01*
X136710714Y-94892857D01*
X136710714Y-95083333D01*
X136758333Y-95178571D01*
X137329761Y-94750000D02*
X137377380Y-94845238D01*
X137377380Y-95083333D01*
X137329761Y-95178571D01*
X137234523Y-95226190D01*
X137139285Y-95226190D01*
X137044047Y-95178571D01*
X136996428Y-95083333D01*
X136996428Y-94845238D01*
X136948809Y-94750000D01*
X137377380Y-94273809D02*
X136710714Y-94273809D01*
X136901190Y-94273809D02*
X136805952Y-94226190D01*
X136758333Y-94178571D01*
X136710714Y-94083333D01*
X136710714Y-93988095D01*
X137472619Y-93892857D02*
X137472619Y-93130952D01*
X137329761Y-92940476D02*
X137377380Y-92797619D01*
X137377380Y-92559523D01*
X137329761Y-92464285D01*
X137282142Y-92416666D01*
X137186904Y-92369047D01*
X137091666Y-92369047D01*
X136996428Y-92416666D01*
X136948809Y-92464285D01*
X136901190Y-92559523D01*
X136853571Y-92750000D01*
X136805952Y-92845238D01*
X136758333Y-92892857D01*
X136663095Y-92940476D01*
X136567857Y-92940476D01*
X136472619Y-92892857D01*
X136425000Y-92845238D01*
X136377380Y-92750000D01*
X136377380Y-92511904D01*
X136425000Y-92369047D01*
X136710714Y-92083333D02*
X136710714Y-91702380D01*
X136377380Y-91940476D02*
X137234523Y-91940476D01*
X137329761Y-91892857D01*
X137377380Y-91797619D01*
X137377380Y-91702380D01*
X137329761Y-90988095D02*
X137377380Y-91083333D01*
X137377380Y-91273809D01*
X137329761Y-91369047D01*
X137234523Y-91416666D01*
X136853571Y-91416666D01*
X136758333Y-91369047D01*
X136710714Y-91273809D01*
X136710714Y-91083333D01*
X136758333Y-90988095D01*
X136853571Y-90940476D01*
X136948809Y-90940476D01*
X137044047Y-91416666D01*
X136710714Y-90511904D02*
X137710714Y-90511904D01*
X136758333Y-90511904D02*
X136710714Y-90416666D01*
X136710714Y-90226190D01*
X136758333Y-90130952D01*
X136805952Y-90083333D01*
X136901190Y-90035714D01*
X137186904Y-90035714D01*
X137282142Y-90083333D01*
X137329761Y-90130952D01*
X137377380Y-90226190D01*
X137377380Y-90416666D01*
X137329761Y-90511904D01*
X136710714Y-89607142D02*
X137710714Y-89607142D01*
X136758333Y-89607142D02*
X136710714Y-89511904D01*
X136710714Y-89321428D01*
X136758333Y-89226190D01*
X136805952Y-89178571D01*
X136901190Y-89130952D01*
X137186904Y-89130952D01*
X137282142Y-89178571D01*
X137329761Y-89226190D01*
X137377380Y-89321428D01*
X137377380Y-89511904D01*
X137329761Y-89607142D01*
X137329761Y-88321428D02*
X137377380Y-88416666D01*
X137377380Y-88607142D01*
X137329761Y-88702380D01*
X137234523Y-88750000D01*
X136853571Y-88750000D01*
X136758333Y-88702380D01*
X136710714Y-88607142D01*
X136710714Y-88416666D01*
X136758333Y-88321428D01*
X136853571Y-88273809D01*
X136948809Y-88273809D01*
X137044047Y-88750000D01*
X137377380Y-87845238D02*
X136710714Y-87845238D01*
X136901190Y-87845238D02*
X136805952Y-87797619D01*
X136758333Y-87750000D01*
X136710714Y-87654761D01*
X136710714Y-87559523D01*
X137472619Y-87464285D02*
X137472619Y-86702380D01*
X137377380Y-86464285D02*
X136377380Y-86464285D01*
X137091666Y-86130952D01*
X136377380Y-85797619D01*
X137377380Y-85797619D01*
X137377380Y-85178571D02*
X137329761Y-85273809D01*
X137282142Y-85321428D01*
X137186904Y-85369047D01*
X136901190Y-85369047D01*
X136805952Y-85321428D01*
X136758333Y-85273809D01*
X136710714Y-85178571D01*
X136710714Y-85035714D01*
X136758333Y-84940476D01*
X136805952Y-84892857D01*
X136901190Y-84845238D01*
X137186904Y-84845238D01*
X137282142Y-84892857D01*
X137329761Y-84940476D01*
X137377380Y-85035714D01*
X137377380Y-85178571D01*
X136710714Y-84559523D02*
X136710714Y-84178571D01*
X136377380Y-84416666D02*
X137234523Y-84416666D01*
X137329761Y-84369047D01*
X137377380Y-84273809D01*
X137377380Y-84178571D01*
X137377380Y-83702380D02*
X137329761Y-83797619D01*
X137282142Y-83845238D01*
X137186904Y-83892857D01*
X136901190Y-83892857D01*
X136805952Y-83845238D01*
X136758333Y-83797619D01*
X136710714Y-83702380D01*
X136710714Y-83559523D01*
X136758333Y-83464285D01*
X136805952Y-83416666D01*
X136901190Y-83369047D01*
X137186904Y-83369047D01*
X137282142Y-83416666D01*
X137329761Y-83464285D01*
X137377380Y-83559523D01*
X137377380Y-83702380D01*
X137377380Y-82940476D02*
X136710714Y-82940476D01*
X136901190Y-82940476D02*
X136805952Y-82892857D01*
X136758333Y-82845238D01*
X136710714Y-82750000D01*
X136710714Y-82654761D01*
X137472619Y-82559523D02*
X137472619Y-81797619D01*
X137091666Y-81607142D02*
X137091666Y-81130952D01*
X137377380Y-81702380D02*
X136377380Y-81369047D01*
X137377380Y-81035714D01*
X137377380Y-80178571D02*
X137377380Y-80750000D01*
X137377380Y-80464285D02*
X136377380Y-80464285D01*
X136520238Y-80559523D01*
X136615476Y-80654761D01*
X136663095Y-80750000D01*
X137091666Y-79797619D02*
X137091666Y-79321428D01*
X137377380Y-79892857D02*
X136377380Y-79559523D01*
X137377380Y-79226190D01*
X136472619Y-78940476D02*
X136425000Y-78892857D01*
X136377380Y-78797619D01*
X136377380Y-78559523D01*
X136425000Y-78464285D01*
X136472619Y-78416666D01*
X136567857Y-78369047D01*
X136663095Y-78369047D01*
X136805952Y-78416666D01*
X137377380Y-78988095D01*
X137377380Y-78369047D01*
X136853571Y-77607142D02*
X136901190Y-77464285D01*
X136948809Y-77416666D01*
X137044047Y-77369047D01*
X137186904Y-77369047D01*
X137282142Y-77416666D01*
X137329761Y-77464285D01*
X137377380Y-77559523D01*
X137377380Y-77940476D01*
X136377380Y-77940476D01*
X136377380Y-77607142D01*
X136425000Y-77511904D01*
X136472619Y-77464285D01*
X136567857Y-77416666D01*
X136663095Y-77416666D01*
X136758333Y-77464285D01*
X136805952Y-77511904D01*
X136853571Y-77607142D01*
X136853571Y-77940476D01*
X136472619Y-76988095D02*
X136425000Y-76940476D01*
X136377380Y-76845238D01*
X136377380Y-76607142D01*
X136425000Y-76511904D01*
X136472619Y-76464285D01*
X136567857Y-76416666D01*
X136663095Y-76416666D01*
X136805952Y-76464285D01*
X137377380Y-77035714D01*
X137377380Y-76416666D01*
X136853571Y-75654761D02*
X136901190Y-75511904D01*
X136948809Y-75464285D01*
X137044047Y-75416666D01*
X137186904Y-75416666D01*
X137282142Y-75464285D01*
X137329761Y-75511904D01*
X137377380Y-75607142D01*
X137377380Y-75988095D01*
X136377380Y-75988095D01*
X136377380Y-75654761D01*
X136425000Y-75559523D01*
X136472619Y-75511904D01*
X136567857Y-75464285D01*
X136663095Y-75464285D01*
X136758333Y-75511904D01*
X136805952Y-75559523D01*
X136853571Y-75654761D01*
X136853571Y-75988095D01*
X137377380Y-74464285D02*
X137377380Y-75035714D01*
X137377380Y-74750000D02*
X136377380Y-74750000D01*
X136520238Y-74845238D01*
X136615476Y-74940476D01*
X136663095Y-75035714D01*
X139277380Y-87559523D02*
X138277380Y-87559523D01*
X138991666Y-87226190D01*
X138277380Y-86892857D01*
X139277380Y-86892857D01*
X138610714Y-85988095D02*
X139277380Y-85988095D01*
X138229761Y-86226190D02*
X138944047Y-86464285D01*
X138944047Y-85845238D01*
G04 #@! TO.C,H1*
X102538095Y-107452380D02*
X102538095Y-106452380D01*
X102538095Y-106928571D02*
X103109523Y-106928571D01*
X103109523Y-107452380D02*
X103109523Y-106452380D01*
X104109523Y-107452380D02*
X103538095Y-107452380D01*
X103823809Y-107452380D02*
X103823809Y-106452380D01*
X103728571Y-106595238D01*
X103633333Y-106690476D01*
X103538095Y-106738095D01*
G04 #@! TO.C,C17*
X140397379Y-82289726D02*
X140868784Y-81818322D01*
X140296364Y-82727459D02*
X140969799Y-82390741D01*
X140532066Y-81953009D01*
X139858631Y-82222383D02*
X139387227Y-81750978D01*
X140397379Y-81346917D01*
X139050509Y-80942856D02*
X139521914Y-80471452D01*
X139353555Y-81245902D02*
X139723944Y-80875513D01*
X139757616Y-80774497D01*
X139723944Y-80673482D01*
X139622929Y-80572467D01*
X139521914Y-80538795D01*
X139454570Y-80538795D01*
X138579105Y-80269421D02*
X138814807Y-80505123D01*
X139185196Y-80134734D02*
X138478090Y-80841841D01*
X138141372Y-80505123D01*
X137400593Y-79764345D02*
X136962861Y-79326612D01*
X137467937Y-79292940D01*
X137366922Y-79191925D01*
X137333250Y-79090910D01*
X137333250Y-79023566D01*
X137366922Y-78922551D01*
X137535280Y-78754192D01*
X137636296Y-78720520D01*
X137703639Y-78720520D01*
X137804654Y-78754192D01*
X138006685Y-78956223D01*
X138040357Y-79057238D01*
X138040357Y-79124581D01*
X136323097Y-78686849D02*
X136659815Y-79023566D01*
X137030204Y-78720520D01*
X136962861Y-78720520D01*
X136861845Y-78686849D01*
X136693487Y-78518490D01*
X136659815Y-78417475D01*
X136659815Y-78350131D01*
X136693487Y-78249116D01*
X136861845Y-78080757D01*
X136962861Y-78047085D01*
X137030204Y-78047085D01*
X137131219Y-78080757D01*
X137299578Y-78249116D01*
X137333250Y-78350131D01*
X137333250Y-78417475D01*
X136087395Y-78451146D02*
X136558800Y-77508337D01*
X135615991Y-77979742D01*
X141836847Y-77617771D02*
X141904191Y-77617771D01*
X142038878Y-77685115D01*
X142106221Y-77752458D01*
X142173565Y-77887145D01*
X142173565Y-78021832D01*
X142139893Y-78122847D01*
X142038878Y-78291206D01*
X141937863Y-78392221D01*
X141769504Y-78493237D01*
X141668489Y-78526908D01*
X141533802Y-78526908D01*
X141399115Y-78459565D01*
X141331771Y-78392221D01*
X141264428Y-78257534D01*
X141264428Y-78190191D01*
X141230756Y-76876992D02*
X141634817Y-77281053D01*
X141432786Y-77079023D02*
X140725679Y-77786130D01*
X140894038Y-77752458D01*
X141028725Y-77752458D01*
X141129741Y-77786130D01*
X140287947Y-77348397D02*
X139816542Y-76876992D01*
X140826695Y-76472931D01*
G04 #@! TO.C,U2*
X136742380Y-102469047D02*
X137742380Y-102230952D01*
X137028095Y-102040476D01*
X137742380Y-101850000D01*
X136742380Y-101611904D01*
X136837619Y-101278571D02*
X136790000Y-101230952D01*
X136742380Y-101135714D01*
X136742380Y-100897619D01*
X136790000Y-100802380D01*
X136837619Y-100754761D01*
X136932857Y-100707142D01*
X137028095Y-100707142D01*
X137170952Y-100754761D01*
X137742380Y-101326190D01*
X137742380Y-100707142D01*
X136742380Y-99802380D02*
X136742380Y-100278571D01*
X137218571Y-100326190D01*
X137170952Y-100278571D01*
X137123333Y-100183333D01*
X137123333Y-99945238D01*
X137170952Y-99850000D01*
X137218571Y-99802380D01*
X137313809Y-99754761D01*
X137551904Y-99754761D01*
X137647142Y-99802380D01*
X137694761Y-99850000D01*
X137742380Y-99945238D01*
X137742380Y-100183333D01*
X137694761Y-100278571D01*
X137647142Y-100326190D01*
X137837619Y-98659523D02*
X137790000Y-98754761D01*
X137694761Y-98850000D01*
X137551904Y-98992857D01*
X137504285Y-99088095D01*
X137504285Y-99183333D01*
X137742380Y-99135714D02*
X137694761Y-99230952D01*
X137599523Y-99326190D01*
X137409047Y-99373809D01*
X137075714Y-99373809D01*
X136885238Y-99326190D01*
X136790000Y-99230952D01*
X136742380Y-99135714D01*
X136742380Y-98945238D01*
X136790000Y-98850000D01*
X136885238Y-98754761D01*
X137075714Y-98707142D01*
X137409047Y-98707142D01*
X137599523Y-98754761D01*
X137694761Y-98850000D01*
X137742380Y-98945238D01*
X137742380Y-99135714D01*
X137742380Y-97754761D02*
X137742380Y-98326190D01*
X137742380Y-98040476D02*
X136742380Y-98040476D01*
X136885238Y-98135714D01*
X136980476Y-98230952D01*
X137028095Y-98326190D01*
X136837619Y-97373809D02*
X136790000Y-97326190D01*
X136742380Y-97230952D01*
X136742380Y-96992857D01*
X136790000Y-96897619D01*
X136837619Y-96850000D01*
X136932857Y-96802380D01*
X137028095Y-96802380D01*
X137170952Y-96850000D01*
X137742380Y-97421428D01*
X137742380Y-96802380D01*
X137170952Y-96230952D02*
X137123333Y-96326190D01*
X137075714Y-96373809D01*
X136980476Y-96421428D01*
X136932857Y-96421428D01*
X136837619Y-96373809D01*
X136790000Y-96326190D01*
X136742380Y-96230952D01*
X136742380Y-96040476D01*
X136790000Y-95945238D01*
X136837619Y-95897619D01*
X136932857Y-95850000D01*
X136980476Y-95850000D01*
X137075714Y-95897619D01*
X137123333Y-95945238D01*
X137170952Y-96040476D01*
X137170952Y-96230952D01*
X137218571Y-96326190D01*
X137266190Y-96373809D01*
X137361428Y-96421428D01*
X137551904Y-96421428D01*
X137647142Y-96373809D01*
X137694761Y-96326190D01*
X137742380Y-96230952D01*
X137742380Y-96040476D01*
X137694761Y-95945238D01*
X137647142Y-95897619D01*
X137551904Y-95850000D01*
X137361428Y-95850000D01*
X137266190Y-95897619D01*
X137218571Y-95945238D01*
X137170952Y-96040476D01*
X136742380Y-95135714D02*
X137456666Y-95135714D01*
X137599523Y-95183333D01*
X137694761Y-95278571D01*
X137742380Y-95421428D01*
X137742380Y-95516666D01*
X136742380Y-94802380D02*
X137742380Y-94469047D01*
X136742380Y-94135714D01*
X137694761Y-93850000D02*
X137742380Y-93707142D01*
X137742380Y-93469047D01*
X137694761Y-93373809D01*
X137647142Y-93326190D01*
X137551904Y-93278571D01*
X137456666Y-93278571D01*
X137361428Y-93326190D01*
X137313809Y-93373809D01*
X137266190Y-93469047D01*
X137218571Y-93659523D01*
X137170952Y-93754761D01*
X137123333Y-93802380D01*
X137028095Y-93850000D01*
X136932857Y-93850000D01*
X136837619Y-93802380D01*
X136790000Y-93754761D01*
X136742380Y-93659523D01*
X136742380Y-93421428D01*
X136790000Y-93278571D01*
X140302380Y-98611904D02*
X141111904Y-98611904D01*
X141207142Y-98564285D01*
X141254761Y-98516666D01*
X141302380Y-98421428D01*
X141302380Y-98230952D01*
X141254761Y-98135714D01*
X141207142Y-98088095D01*
X141111904Y-98040476D01*
X140302380Y-98040476D01*
X140397619Y-97611904D02*
X140350000Y-97564285D01*
X140302380Y-97469047D01*
X140302380Y-97230952D01*
X140350000Y-97135714D01*
X140397619Y-97088095D01*
X140492857Y-97040476D01*
X140588095Y-97040476D01*
X140730952Y-97088095D01*
X141302380Y-97659523D01*
X141302380Y-97040476D01*
D13*
G04 #@! TO.C,C19*
X138281101Y-104213095D02*
X138138244Y-104213095D01*
X138209672Y-104213095D02*
X138209672Y-103963095D01*
X138185863Y-103998809D01*
X138162053Y-104022619D01*
X138138244Y-104034523D01*
X138495386Y-104046428D02*
X138495386Y-104213095D01*
X138388244Y-104046428D02*
X138388244Y-104177380D01*
X138400148Y-104201190D01*
X138423958Y-104213095D01*
X138459672Y-104213095D01*
X138483482Y-104201190D01*
X138495386Y-104189285D01*
X138697767Y-104082142D02*
X138614434Y-104082142D01*
X138614434Y-104213095D02*
X138614434Y-103963095D01*
X138733482Y-103963095D01*
D11*
G04 #@! TO.C,M2*
X136853571Y-80004761D02*
X136901190Y-79861904D01*
X136948809Y-79814285D01*
X137044047Y-79766666D01*
X137186904Y-79766666D01*
X137282142Y-79814285D01*
X137329761Y-79861904D01*
X137377380Y-79957142D01*
X137377380Y-80338095D01*
X136377380Y-80338095D01*
X136377380Y-80004761D01*
X136425000Y-79909523D01*
X136472619Y-79861904D01*
X136567857Y-79814285D01*
X136663095Y-79814285D01*
X136758333Y-79861904D01*
X136805952Y-79909523D01*
X136853571Y-80004761D01*
X136853571Y-80338095D01*
X137377380Y-79338095D02*
X136710714Y-79338095D01*
X136377380Y-79338095D02*
X136425000Y-79385714D01*
X136472619Y-79338095D01*
X136425000Y-79290476D01*
X136377380Y-79338095D01*
X136472619Y-79338095D01*
X136710714Y-78861904D02*
X137710714Y-78861904D01*
X136758333Y-78861904D02*
X136710714Y-78766666D01*
X136710714Y-78576190D01*
X136758333Y-78480952D01*
X136805952Y-78433333D01*
X136901190Y-78385714D01*
X137186904Y-78385714D01*
X137282142Y-78433333D01*
X137329761Y-78480952D01*
X137377380Y-78576190D01*
X137377380Y-78766666D01*
X137329761Y-78861904D01*
X137377380Y-77814285D02*
X137329761Y-77909523D01*
X137282142Y-77957142D01*
X137186904Y-78004761D01*
X136901190Y-78004761D01*
X136805952Y-77957142D01*
X136758333Y-77909523D01*
X136710714Y-77814285D01*
X136710714Y-77671428D01*
X136758333Y-77576190D01*
X136805952Y-77528571D01*
X136901190Y-77480952D01*
X137186904Y-77480952D01*
X137282142Y-77528571D01*
X137329761Y-77576190D01*
X137377380Y-77671428D01*
X137377380Y-77814285D01*
X137377380Y-76909523D02*
X137329761Y-77004761D01*
X137234523Y-77052380D01*
X136377380Y-77052380D01*
X137377380Y-76100000D02*
X136853571Y-76100000D01*
X136758333Y-76147619D01*
X136710714Y-76242857D01*
X136710714Y-76433333D01*
X136758333Y-76528571D01*
X137329761Y-76100000D02*
X137377380Y-76195238D01*
X137377380Y-76433333D01*
X137329761Y-76528571D01*
X137234523Y-76576190D01*
X137139285Y-76576190D01*
X137044047Y-76528571D01*
X136996428Y-76433333D01*
X136996428Y-76195238D01*
X136948809Y-76100000D01*
X137377380Y-75623809D02*
X136710714Y-75623809D01*
X136901190Y-75623809D02*
X136805952Y-75576190D01*
X136758333Y-75528571D01*
X136710714Y-75433333D01*
X136710714Y-75338095D01*
X137472619Y-75242857D02*
X137472619Y-74480952D01*
X137329761Y-74290476D02*
X137377380Y-74147619D01*
X137377380Y-73909523D01*
X137329761Y-73814285D01*
X137282142Y-73766666D01*
X137186904Y-73719047D01*
X137091666Y-73719047D01*
X136996428Y-73766666D01*
X136948809Y-73814285D01*
X136901190Y-73909523D01*
X136853571Y-74100000D01*
X136805952Y-74195238D01*
X136758333Y-74242857D01*
X136663095Y-74290476D01*
X136567857Y-74290476D01*
X136472619Y-74242857D01*
X136425000Y-74195238D01*
X136377380Y-74100000D01*
X136377380Y-73861904D01*
X136425000Y-73719047D01*
X136710714Y-73433333D02*
X136710714Y-73052380D01*
X136377380Y-73290476D02*
X137234523Y-73290476D01*
X137329761Y-73242857D01*
X137377380Y-73147619D01*
X137377380Y-73052380D01*
X137329761Y-72338095D02*
X137377380Y-72433333D01*
X137377380Y-72623809D01*
X137329761Y-72719047D01*
X137234523Y-72766666D01*
X136853571Y-72766666D01*
X136758333Y-72719047D01*
X136710714Y-72623809D01*
X136710714Y-72433333D01*
X136758333Y-72338095D01*
X136853571Y-72290476D01*
X136948809Y-72290476D01*
X137044047Y-72766666D01*
X136710714Y-71861904D02*
X137710714Y-71861904D01*
X136758333Y-71861904D02*
X136710714Y-71766666D01*
X136710714Y-71576190D01*
X136758333Y-71480952D01*
X136805952Y-71433333D01*
X136901190Y-71385714D01*
X137186904Y-71385714D01*
X137282142Y-71433333D01*
X137329761Y-71480952D01*
X137377380Y-71576190D01*
X137377380Y-71766666D01*
X137329761Y-71861904D01*
X136710714Y-70957142D02*
X137710714Y-70957142D01*
X136758333Y-70957142D02*
X136710714Y-70861904D01*
X136710714Y-70671428D01*
X136758333Y-70576190D01*
X136805952Y-70528571D01*
X136901190Y-70480952D01*
X137186904Y-70480952D01*
X137282142Y-70528571D01*
X137329761Y-70576190D01*
X137377380Y-70671428D01*
X137377380Y-70861904D01*
X137329761Y-70957142D01*
X137329761Y-69671428D02*
X137377380Y-69766666D01*
X137377380Y-69957142D01*
X137329761Y-70052380D01*
X137234523Y-70100000D01*
X136853571Y-70100000D01*
X136758333Y-70052380D01*
X136710714Y-69957142D01*
X136710714Y-69766666D01*
X136758333Y-69671428D01*
X136853571Y-69623809D01*
X136948809Y-69623809D01*
X137044047Y-70100000D01*
X137377380Y-69195238D02*
X136710714Y-69195238D01*
X136901190Y-69195238D02*
X136805952Y-69147619D01*
X136758333Y-69100000D01*
X136710714Y-69004761D01*
X136710714Y-68909523D01*
X137472619Y-68814285D02*
X137472619Y-68052380D01*
X137377380Y-67814285D02*
X136377380Y-67814285D01*
X137091666Y-67480952D01*
X136377380Y-67147619D01*
X137377380Y-67147619D01*
X137377380Y-66528571D02*
X137329761Y-66623809D01*
X137282142Y-66671428D01*
X137186904Y-66719047D01*
X136901190Y-66719047D01*
X136805952Y-66671428D01*
X136758333Y-66623809D01*
X136710714Y-66528571D01*
X136710714Y-66385714D01*
X136758333Y-66290476D01*
X136805952Y-66242857D01*
X136901190Y-66195238D01*
X137186904Y-66195238D01*
X137282142Y-66242857D01*
X137329761Y-66290476D01*
X137377380Y-66385714D01*
X137377380Y-66528571D01*
X136710714Y-65909523D02*
X136710714Y-65528571D01*
X136377380Y-65766666D02*
X137234523Y-65766666D01*
X137329761Y-65719047D01*
X137377380Y-65623809D01*
X137377380Y-65528571D01*
X137377380Y-65052380D02*
X137329761Y-65147619D01*
X137282142Y-65195238D01*
X137186904Y-65242857D01*
X136901190Y-65242857D01*
X136805952Y-65195238D01*
X136758333Y-65147619D01*
X136710714Y-65052380D01*
X136710714Y-64909523D01*
X136758333Y-64814285D01*
X136805952Y-64766666D01*
X136901190Y-64719047D01*
X137186904Y-64719047D01*
X137282142Y-64766666D01*
X137329761Y-64814285D01*
X137377380Y-64909523D01*
X137377380Y-65052380D01*
X137377380Y-64290476D02*
X136710714Y-64290476D01*
X136901190Y-64290476D02*
X136805952Y-64242857D01*
X136758333Y-64195238D01*
X136710714Y-64100000D01*
X136710714Y-64004761D01*
X137472619Y-63909523D02*
X137472619Y-63147619D01*
X137091666Y-62957142D02*
X137091666Y-62480952D01*
X137377380Y-63052380D02*
X136377380Y-62719047D01*
X137377380Y-62385714D01*
X137377380Y-61528571D02*
X137377380Y-62100000D01*
X137377380Y-61814285D02*
X136377380Y-61814285D01*
X136520238Y-61909523D01*
X136615476Y-62004761D01*
X136663095Y-62100000D01*
X137091666Y-61147619D02*
X137091666Y-60671428D01*
X137377380Y-61242857D02*
X136377380Y-60909523D01*
X137377380Y-60576190D01*
X136472619Y-60290476D02*
X136425000Y-60242857D01*
X136377380Y-60147619D01*
X136377380Y-59909523D01*
X136425000Y-59814285D01*
X136472619Y-59766666D01*
X136567857Y-59719047D01*
X136663095Y-59719047D01*
X136805952Y-59766666D01*
X137377380Y-60338095D01*
X137377380Y-59719047D01*
X136853571Y-58957142D02*
X136901190Y-58814285D01*
X136948809Y-58766666D01*
X137044047Y-58719047D01*
X137186904Y-58719047D01*
X137282142Y-58766666D01*
X137329761Y-58814285D01*
X137377380Y-58909523D01*
X137377380Y-59290476D01*
X136377380Y-59290476D01*
X136377380Y-58957142D01*
X136425000Y-58861904D01*
X136472619Y-58814285D01*
X136567857Y-58766666D01*
X136663095Y-58766666D01*
X136758333Y-58814285D01*
X136805952Y-58861904D01*
X136853571Y-58957142D01*
X136853571Y-59290476D01*
X136472619Y-58338095D02*
X136425000Y-58290476D01*
X136377380Y-58195238D01*
X136377380Y-57957142D01*
X136425000Y-57861904D01*
X136472619Y-57814285D01*
X136567857Y-57766666D01*
X136663095Y-57766666D01*
X136805952Y-57814285D01*
X137377380Y-58385714D01*
X137377380Y-57766666D01*
X136853571Y-57004761D02*
X136901190Y-56861904D01*
X136948809Y-56814285D01*
X137044047Y-56766666D01*
X137186904Y-56766666D01*
X137282142Y-56814285D01*
X137329761Y-56861904D01*
X137377380Y-56957142D01*
X137377380Y-57338095D01*
X136377380Y-57338095D01*
X136377380Y-57004761D01*
X136425000Y-56909523D01*
X136472619Y-56861904D01*
X136567857Y-56814285D01*
X136663095Y-56814285D01*
X136758333Y-56861904D01*
X136805952Y-56909523D01*
X136853571Y-57004761D01*
X136853571Y-57338095D01*
X137377380Y-55814285D02*
X137377380Y-56385714D01*
X137377380Y-56100000D02*
X136377380Y-56100000D01*
X136520238Y-56195238D01*
X136615476Y-56290476D01*
X136663095Y-56385714D01*
X139277380Y-68909523D02*
X138277380Y-68909523D01*
X138991666Y-68576190D01*
X138277380Y-68242857D01*
X139277380Y-68242857D01*
X138372619Y-67814285D02*
X138325000Y-67766666D01*
X138277380Y-67671428D01*
X138277380Y-67433333D01*
X138325000Y-67338095D01*
X138372619Y-67290476D01*
X138467857Y-67242857D01*
X138563095Y-67242857D01*
X138705952Y-67290476D01*
X139277380Y-67861904D01*
X139277380Y-67242857D01*
D10*
G04 #@! TO.C,C36*
X135065476Y-92131785D02*
X135065476Y-92112738D01*
X135075000Y-92093690D01*
X135084523Y-92084166D01*
X135103571Y-92074642D01*
X135141666Y-92065119D01*
X135189285Y-92065119D01*
X135227380Y-92074642D01*
X135246428Y-92084166D01*
X135255952Y-92093690D01*
X135265476Y-92112738D01*
X135265476Y-92131785D01*
X135255952Y-92150833D01*
X135246428Y-92160357D01*
X135227380Y-92169880D01*
X135189285Y-92179404D01*
X135141666Y-92179404D01*
X135103571Y-92169880D01*
X135084523Y-92160357D01*
X135075000Y-92150833D01*
X135065476Y-92131785D01*
X135246428Y-91979404D02*
X135255952Y-91969880D01*
X135265476Y-91979404D01*
X135255952Y-91988928D01*
X135246428Y-91979404D01*
X135265476Y-91979404D01*
X135265476Y-91779404D02*
X135265476Y-91893690D01*
X135265476Y-91836547D02*
X135065476Y-91836547D01*
X135094047Y-91855595D01*
X135113095Y-91874642D01*
X135122619Y-91893690D01*
X135132142Y-91607976D02*
X135265476Y-91607976D01*
X135132142Y-91693690D02*
X135236904Y-91693690D01*
X135255952Y-91684166D01*
X135265476Y-91665119D01*
X135265476Y-91636547D01*
X135255952Y-91617500D01*
X135246428Y-91607976D01*
X135160714Y-91446071D02*
X135160714Y-91512738D01*
X135265476Y-91512738D02*
X135065476Y-91512738D01*
X135065476Y-91417500D01*
G04 #@! TO.C,C1*
X126131785Y-98584523D02*
X126112738Y-98584523D01*
X126093690Y-98575000D01*
X126084166Y-98565476D01*
X126074642Y-98546428D01*
X126065119Y-98508333D01*
X126065119Y-98460714D01*
X126074642Y-98422619D01*
X126084166Y-98403571D01*
X126093690Y-98394047D01*
X126112738Y-98384523D01*
X126131785Y-98384523D01*
X126150833Y-98394047D01*
X126160357Y-98403571D01*
X126169880Y-98422619D01*
X126179404Y-98460714D01*
X126179404Y-98508333D01*
X126169880Y-98546428D01*
X126160357Y-98565476D01*
X126150833Y-98575000D01*
X126131785Y-98584523D01*
X125979404Y-98403571D02*
X125969880Y-98394047D01*
X125979404Y-98384523D01*
X125988928Y-98394047D01*
X125979404Y-98403571D01*
X125979404Y-98384523D01*
X125779404Y-98384523D02*
X125893690Y-98384523D01*
X125836547Y-98384523D02*
X125836547Y-98584523D01*
X125855595Y-98555952D01*
X125874642Y-98536904D01*
X125893690Y-98527380D01*
X125607976Y-98517857D02*
X125607976Y-98384523D01*
X125693690Y-98517857D02*
X125693690Y-98413095D01*
X125684166Y-98394047D01*
X125665119Y-98384523D01*
X125636547Y-98384523D01*
X125617500Y-98394047D01*
X125607976Y-98403571D01*
X125446071Y-98489285D02*
X125512738Y-98489285D01*
X125512738Y-98384523D02*
X125512738Y-98584523D01*
X125417500Y-98584523D01*
G04 #@! TO.C,C24*
X142084523Y-104184880D02*
X142084523Y-104070595D01*
X142084523Y-104127738D02*
X142284523Y-104127738D01*
X142255952Y-104108690D01*
X142236904Y-104089642D01*
X142227380Y-104070595D01*
X142284523Y-104308690D02*
X142284523Y-104327738D01*
X142275000Y-104346785D01*
X142265476Y-104356309D01*
X142246428Y-104365833D01*
X142208333Y-104375357D01*
X142160714Y-104375357D01*
X142122619Y-104365833D01*
X142103571Y-104356309D01*
X142094047Y-104346785D01*
X142084523Y-104327738D01*
X142084523Y-104308690D01*
X142094047Y-104289642D01*
X142103571Y-104280119D01*
X142122619Y-104270595D01*
X142160714Y-104261071D01*
X142208333Y-104261071D01*
X142246428Y-104270595D01*
X142265476Y-104280119D01*
X142275000Y-104289642D01*
X142284523Y-104308690D01*
X142217857Y-104546785D02*
X142084523Y-104546785D01*
X142217857Y-104461071D02*
X142113095Y-104461071D01*
X142094047Y-104470595D01*
X142084523Y-104489642D01*
X142084523Y-104518214D01*
X142094047Y-104537261D01*
X142103571Y-104546785D01*
X142189285Y-104708690D02*
X142189285Y-104642023D01*
X142084523Y-104642023D02*
X142284523Y-104642023D01*
X142284523Y-104737261D01*
D11*
G04 #@! TO.C,J1*
X137830001Y-108255000D02*
X137782381Y-108350238D01*
X137782381Y-108493095D01*
X137830001Y-108635952D01*
X137925239Y-108731190D01*
X138020477Y-108778809D01*
X138210953Y-108826428D01*
X138353810Y-108826428D01*
X138544286Y-108778809D01*
X138639524Y-108731190D01*
X138734762Y-108635952D01*
X138782381Y-108493095D01*
X138782381Y-108397857D01*
X138734762Y-108255000D01*
X138687143Y-108207380D01*
X138353810Y-108207380D01*
X138353810Y-108397857D01*
X138782381Y-107778809D02*
X137782381Y-107778809D01*
X137782381Y-107397857D01*
X137830001Y-107302619D01*
X137877620Y-107255000D01*
X137972858Y-107207380D01*
X138115715Y-107207380D01*
X138210953Y-107255000D01*
X138258572Y-107302619D01*
X138306191Y-107397857D01*
X138306191Y-107778809D01*
X138782381Y-106778809D02*
X137782381Y-106778809D01*
X137782381Y-106112142D02*
X137782381Y-105921666D01*
X137830001Y-105826428D01*
X137925239Y-105731190D01*
X138115715Y-105683571D01*
X138449048Y-105683571D01*
X138639524Y-105731190D01*
X138734762Y-105826428D01*
X138782381Y-105921666D01*
X138782381Y-106112142D01*
X138734762Y-106207380D01*
X138639524Y-106302619D01*
X138449048Y-106350238D01*
X138115715Y-106350238D01*
X137925239Y-106302619D01*
X137830001Y-106207380D01*
X137782381Y-106112142D01*
X121696667Y-106707380D02*
X121696667Y-107421666D01*
X121649048Y-107564523D01*
X121553810Y-107659761D01*
X121410953Y-107707380D01*
X121315715Y-107707380D01*
X122696667Y-107707380D02*
X122125239Y-107707380D01*
X122410953Y-107707380D02*
X122410953Y-106707380D01*
X122315715Y-106850238D01*
X122220477Y-106945476D01*
X122125239Y-106993095D01*
G04 #@! TO.C,C42*
X117703213Y-58736564D02*
X117460777Y-58979000D01*
X117581995Y-58857782D02*
X117157731Y-58433518D01*
X117177934Y-58534533D01*
X117177934Y-58615345D01*
X117157731Y-58675954D01*
X117541589Y-58049660D02*
X117581995Y-58009254D01*
X117642604Y-57989051D01*
X117683010Y-57989051D01*
X117743620Y-58009254D01*
X117844635Y-58069863D01*
X117945650Y-58170878D01*
X118006259Y-58271893D01*
X118026462Y-58332503D01*
X118026462Y-58372909D01*
X118006259Y-58433518D01*
X117965853Y-58473924D01*
X117905244Y-58494127D01*
X117864838Y-58494127D01*
X117804229Y-58473924D01*
X117703213Y-58413315D01*
X117602198Y-58312299D01*
X117541589Y-58211284D01*
X117521386Y-58150675D01*
X117521386Y-58110269D01*
X117541589Y-58049660D01*
X117945650Y-57645599D02*
X117986056Y-57605193D01*
X118046665Y-57584990D01*
X118087071Y-57584990D01*
X118147681Y-57605193D01*
X118248696Y-57665802D01*
X118349711Y-57766817D01*
X118410320Y-57867832D01*
X118430523Y-57928441D01*
X118430523Y-57968848D01*
X118410320Y-58029457D01*
X118369914Y-58069863D01*
X118309305Y-58090066D01*
X118268899Y-58090066D01*
X118208290Y-58069863D01*
X118107274Y-58009254D01*
X118006259Y-57908238D01*
X117945650Y-57807223D01*
X117925447Y-57746614D01*
X117925447Y-57706208D01*
X117945650Y-57645599D01*
X118592148Y-57281944D02*
X118874990Y-57564787D01*
X118410320Y-57463771D02*
X118632554Y-57686005D01*
X118693163Y-57706208D01*
X118753772Y-57686005D01*
X118814381Y-57625396D01*
X118834584Y-57564787D01*
X118834584Y-57524380D01*
X118996209Y-56999101D02*
X118854787Y-57140523D01*
X119077021Y-57362756D02*
X118652757Y-56938492D01*
X118854787Y-56736461D01*
X119299254Y-56291994D02*
X119561894Y-56029355D01*
X119582097Y-56332400D01*
X119642706Y-56271791D01*
X119703315Y-56251588D01*
X119743722Y-56251588D01*
X119804331Y-56271791D01*
X119905346Y-56372807D01*
X119925549Y-56433416D01*
X119925549Y-56473822D01*
X119905346Y-56534431D01*
X119784128Y-56655649D01*
X119723519Y-56675852D01*
X119683112Y-56675852D01*
X119945752Y-55645497D02*
X119743722Y-55847527D01*
X119925549Y-56069761D01*
X119925549Y-56029355D01*
X119945752Y-55968746D01*
X120046767Y-55867730D01*
X120107377Y-55847527D01*
X120147783Y-55847527D01*
X120208392Y-55867730D01*
X120309407Y-55968746D01*
X120329610Y-56029355D01*
X120329610Y-56069761D01*
X120309407Y-56130370D01*
X120208392Y-56231385D01*
X120147783Y-56251588D01*
X120107377Y-56251588D01*
X120087173Y-55504075D02*
X120652859Y-55786918D01*
X120370016Y-55221233D01*
X115135406Y-54269669D02*
X115135406Y-54337013D01*
X115068062Y-54471700D01*
X115000719Y-54539043D01*
X114866032Y-54606387D01*
X114731345Y-54606387D01*
X114630330Y-54572715D01*
X114461971Y-54471700D01*
X114360956Y-54370685D01*
X114259940Y-54202326D01*
X114226269Y-54101311D01*
X114226269Y-53966624D01*
X114293612Y-53831937D01*
X114360956Y-53764593D01*
X114495643Y-53697250D01*
X114562986Y-53697250D01*
X115337437Y-53259517D02*
X115808841Y-53730921D01*
X114899704Y-53158501D02*
X115236421Y-53831937D01*
X115674154Y-53394204D01*
X115505795Y-52754440D02*
X115505795Y-52687097D01*
X115539467Y-52586082D01*
X115707826Y-52417723D01*
X115808841Y-52384051D01*
X115876185Y-52384051D01*
X115977200Y-52417723D01*
X116044543Y-52485066D01*
X116111887Y-52619753D01*
X116111887Y-53427875D01*
X116549620Y-52990143D01*
D10*
G04 #@! TO.C,R23*
X114000000Y-100000000D02*
X113500000Y-100000000D01*
X113500000Y-99000000D02*
X114000000Y-99000000D01*
X113500000Y-100000000D02*
X113500000Y-99000000D01*
X114000000Y-99000000D02*
X114000000Y-100000000D01*
G04 #@! TO.C,R15*
X118800000Y-88400000D02*
X118300000Y-88400000D01*
X118300000Y-88400000D02*
X118300000Y-87400000D01*
X118300000Y-87400000D02*
X118800000Y-87400000D01*
X118800000Y-87400000D02*
X118800000Y-88400000D01*
D17*
G04 #@! TO.C,M3*
X105875000Y-75000000D02*
X100125000Y-75000000D01*
X100125000Y-85575000D02*
X101125000Y-84950000D01*
X101125000Y-84950000D02*
X100125000Y-84325000D01*
X100125000Y-75000000D02*
X100125000Y-87400000D01*
X100125000Y-87400000D02*
X105875000Y-87400000D01*
X105875000Y-87400000D02*
X105875000Y-75000000D01*
D10*
G04 #@! TO.C,C2*
X123450000Y-92950000D02*
X123450000Y-93450000D01*
X123450000Y-93450000D02*
X122450000Y-93450000D01*
X122450000Y-93450000D02*
X122450000Y-92950000D01*
X122450000Y-92950000D02*
X123450000Y-92950000D01*
G04 #@! TO.C,C34*
X126500000Y-98400000D02*
X126500000Y-97900000D01*
X126500000Y-97900000D02*
X127500000Y-97900000D01*
X127500000Y-98400000D02*
X126500000Y-98400000D01*
X127500000Y-97900000D02*
X127500000Y-98400000D01*
G04 #@! TO.C,R11*
X118800000Y-66150000D02*
X118800000Y-67150000D01*
X118800000Y-67150000D02*
X118300000Y-67150000D01*
X118300000Y-67150000D02*
X118300000Y-66150000D01*
X118300000Y-66150000D02*
X118800000Y-66150000D01*
G04 #@! TO.C,R21*
X117650000Y-80250000D02*
X118650000Y-80250000D01*
X118650000Y-80750000D02*
X117650000Y-80750000D01*
X118650000Y-80250000D02*
X118650000Y-80750000D01*
X117650000Y-80750000D02*
X117650000Y-80250000D01*
G04 #@! TO.C,C31*
X119500000Y-91850000D02*
X120500000Y-91850000D01*
X120500000Y-91850000D02*
X120500000Y-92350000D01*
X119500000Y-92350000D02*
X119500000Y-91850000D01*
X120500000Y-92350000D02*
X119500000Y-92350000D01*
D18*
G04 #@! TO.C,A2*
X137520000Y-50290000D02*
X137520000Y-70610000D01*
D17*
X127360000Y-50290000D02*
X127360000Y-52195000D01*
X129900000Y-52830000D02*
X128630000Y-52830000D01*
X129900000Y-50290000D02*
X129900000Y-52830000D01*
X124820000Y-50290000D02*
X124820000Y-70610000D01*
X126090000Y-54735000D02*
X126090000Y-52830000D01*
D18*
X122280000Y-50290000D02*
X137520000Y-50290000D01*
X122280000Y-70610000D02*
X122280000Y-50290000D01*
D17*
X128630000Y-52830000D02*
X128630000Y-54735000D01*
X134980000Y-50290000D02*
X134980000Y-70610000D01*
X128630000Y-54735000D02*
X126090000Y-54735000D01*
X126090000Y-52830000D02*
X124820000Y-52830000D01*
D18*
X137520000Y-70610000D02*
X122280000Y-70610000D01*
D10*
G04 #@! TO.C,D2*
X114150000Y-100500000D02*
X113350000Y-100500000D01*
X113350000Y-100500000D02*
X113350000Y-102100000D01*
X113350000Y-102100000D02*
X114150000Y-102100000D01*
X114150000Y-102100000D02*
X114150000Y-100500000D01*
G04 #@! TO.C,C3*
X105600000Y-91850000D02*
X107600000Y-91850000D01*
X107600000Y-91850000D02*
X107600000Y-93050000D01*
X107600000Y-93050000D02*
X105600000Y-93050000D01*
X105600000Y-93050000D02*
X105600000Y-91850000D01*
G04 #@! TO.C,R6*
X115900000Y-95100000D02*
X115400000Y-95100000D01*
X115900000Y-94100000D02*
X115900000Y-95100000D01*
X115400000Y-95100000D02*
X115400000Y-94100000D01*
X115400000Y-94100000D02*
X115900000Y-94100000D01*
G04 #@! TO.C,C10*
X133650000Y-51850000D02*
X134850000Y-51850000D01*
X134850000Y-51850000D02*
X134850000Y-53850000D01*
X134850000Y-53850000D02*
X133650000Y-53850000D01*
X133650000Y-53850000D02*
X133650000Y-51850000D01*
G04 #@! TO.C,C40*
X137600000Y-101100000D02*
X136600000Y-101100000D01*
X136600000Y-101100000D02*
X136600000Y-100600000D01*
X136600000Y-100600000D02*
X137600000Y-100600000D01*
X137600000Y-100600000D02*
X137600000Y-101100000D01*
G04 #@! TO.C,C18*
X134750000Y-89500000D02*
X134250000Y-89500000D01*
X134250000Y-89500000D02*
X134250000Y-88500000D01*
X134250000Y-88500000D02*
X134750000Y-88500000D01*
X134750000Y-88500000D02*
X134750000Y-89500000D01*
G04 #@! TO.C,R18*
X125700000Y-77350000D02*
X125200000Y-77350000D01*
X125200000Y-77350000D02*
X125200000Y-76350000D01*
X125200000Y-76350000D02*
X125700000Y-76350000D01*
X125700000Y-76350000D02*
X125700000Y-77350000D01*
D17*
G04 #@! TO.C,U3*
X118450000Y-103625000D02*
X118125000Y-103950000D01*
X117150000Y-103950000D02*
X117150000Y-101050000D01*
X118450000Y-101050000D02*
X118450000Y-103625000D01*
X118125000Y-103950000D02*
X117150000Y-103950000D01*
X117150000Y-101050000D02*
X118450000Y-101050000D01*
G04 #@! TO.C,M1*
X105875000Y-68700000D02*
X105875000Y-56300000D01*
X100125000Y-68700000D02*
X105875000Y-68700000D01*
X105875000Y-56300000D02*
X100125000Y-56300000D01*
X101125000Y-66250000D02*
X100125000Y-65625000D01*
X100125000Y-66875000D02*
X101125000Y-66250000D01*
X100125000Y-56300000D02*
X100125000Y-68700000D01*
D10*
G04 #@! TO.C,C33*
X131450000Y-103300000D02*
X130950000Y-103300000D01*
X131450000Y-102300000D02*
X131450000Y-103300000D01*
X130950000Y-103300000D02*
X130950000Y-102300000D01*
X130950000Y-102300000D02*
X131450000Y-102300000D01*
G04 #@! TO.C,R7*
X121150000Y-103800000D02*
X120650000Y-103800000D01*
X120650000Y-102800000D02*
X121150000Y-102800000D01*
X121150000Y-102800000D02*
X121150000Y-103800000D01*
X120650000Y-103800000D02*
X120650000Y-102800000D01*
G04 #@! TO.C,C9*
X137750000Y-97600000D02*
X136750000Y-97600000D01*
X136750000Y-97600000D02*
X136750000Y-97100000D01*
X136750000Y-97100000D02*
X137750000Y-97100000D01*
X137750000Y-97100000D02*
X137750000Y-97600000D01*
G04 #@! TO.C,R8*
X137600000Y-96900000D02*
X136600000Y-96900000D01*
X136600000Y-96900000D02*
X136600000Y-96400000D01*
X137600000Y-96400000D02*
X137600000Y-96900000D01*
X136600000Y-96400000D02*
X137600000Y-96400000D01*
D17*
G04 #@! TO.C,U1*
X128550000Y-101400000D02*
X128550000Y-94400000D01*
X135550000Y-95400000D02*
X135550000Y-101400000D01*
X135550000Y-101400000D02*
X128550000Y-101400000D01*
X128550000Y-94400000D02*
X134550000Y-94400000D01*
X134550000Y-94400000D02*
X135550000Y-95400000D01*
D10*
G04 #@! TO.C,C14*
X134800000Y-67600000D02*
X134800000Y-68600000D01*
X134300000Y-67600000D02*
X134800000Y-67600000D01*
X134800000Y-68600000D02*
X134300000Y-68600000D01*
X134300000Y-68600000D02*
X134300000Y-67600000D01*
G04 #@! TO.C,C22*
X140900000Y-103250000D02*
X141900000Y-103250000D01*
X140900000Y-103750000D02*
X140900000Y-103250000D01*
X141900000Y-103250000D02*
X141900000Y-103750000D01*
X141900000Y-103750000D02*
X140900000Y-103750000D01*
G04 #@! TO.C,R2*
X137600000Y-99700000D02*
X136600000Y-99700000D01*
X136600000Y-99700000D02*
X136600000Y-99200000D01*
X137600000Y-99200000D02*
X137600000Y-99700000D01*
X136600000Y-99200000D02*
X137600000Y-99200000D01*
G04 #@! TO.C,C23*
X143000000Y-103750000D02*
X143000000Y-102750000D01*
X143500000Y-103750000D02*
X143000000Y-103750000D01*
X143500000Y-102750000D02*
X143500000Y-103750000D01*
X143000000Y-102750000D02*
X143500000Y-102750000D01*
G04 #@! TO.C,C11*
X109150000Y-90000000D02*
X109150000Y-88000000D01*
X110350000Y-90000000D02*
X109150000Y-90000000D01*
X110350000Y-88000000D02*
X110350000Y-90000000D01*
X109150000Y-88000000D02*
X110350000Y-88000000D01*
G04 #@! TO.C,C12*
X134850000Y-74600000D02*
X133650000Y-74600000D01*
X133650000Y-74600000D02*
X133650000Y-72600000D01*
X134850000Y-72600000D02*
X134850000Y-74600000D01*
X133650000Y-72600000D02*
X134850000Y-72600000D01*
D17*
G04 #@! TO.C,C15*
X104883605Y-91887500D02*
X104883605Y-91387500D01*
X105133605Y-91637500D02*
X104633605Y-91637500D01*
X105500000Y-90550000D02*
G75*
G03*
X105500000Y-90550000I-2500000J0D01*
G01*
D10*
G04 #@! TO.C,R19*
X117650000Y-59400000D02*
X117650000Y-58900000D01*
X117650000Y-58900000D02*
X118650000Y-58900000D01*
X118650000Y-58900000D02*
X118650000Y-59400000D01*
X118650000Y-59400000D02*
X117650000Y-59400000D01*
G04 #@! TO.C,R16*
X118800000Y-86250000D02*
X118300000Y-86250000D01*
X118300000Y-85250000D02*
X118800000Y-85250000D01*
X118300000Y-86250000D02*
X118300000Y-85250000D01*
X118800000Y-85250000D02*
X118800000Y-86250000D01*
G04 #@! TO.C,R17*
X125200000Y-75200000D02*
X125200000Y-74200000D01*
X125200000Y-74200000D02*
X125700000Y-74200000D01*
X125700000Y-75200000D02*
X125200000Y-75200000D01*
X125700000Y-74200000D02*
X125700000Y-75200000D01*
D17*
G04 #@! TO.C,J2*
X111150000Y-93850000D02*
X111150000Y-103850000D01*
X111150000Y-94950000D02*
X105750000Y-94950000D01*
X111250000Y-93350000D02*
X111350000Y-93850000D01*
X112050000Y-93350000D02*
X111250000Y-93350000D01*
X111150000Y-99950000D02*
X105750000Y-99950000D01*
X105750000Y-94950000D02*
X104750000Y-94350000D01*
X105750000Y-97750000D02*
X104750000Y-98350000D01*
X111150000Y-99950000D02*
X111150000Y-102750000D01*
X111150000Y-94950000D02*
X111150000Y-97750000D01*
X111150000Y-97750000D02*
X105750000Y-97750000D01*
X105750000Y-99950000D02*
X104750000Y-99350000D01*
X105750000Y-102750000D02*
X104750000Y-103350000D01*
X111150000Y-102750000D02*
X105750000Y-102750000D01*
X112050000Y-93350000D02*
X111950000Y-93850000D01*
X112550000Y-93850000D02*
X104750000Y-93850000D01*
X104750000Y-93850000D02*
X104750000Y-103850000D01*
X104750000Y-103850000D02*
X112550000Y-103850000D01*
X112550000Y-103850000D02*
X112550000Y-93850000D01*
D10*
G04 #@! TO.C,R20*
X125350000Y-61400000D02*
X126350000Y-61400000D01*
X126350000Y-61400000D02*
X126350000Y-61900000D01*
X125350000Y-61900000D02*
X125350000Y-61400000D01*
X126350000Y-61900000D02*
X125350000Y-61900000D01*
D17*
G04 #@! TO.C,C13*
X140695586Y-56504076D02*
X140342033Y-56857629D01*
X140342033Y-56504076D02*
X140695586Y-56857629D01*
X143581741Y-58781741D02*
G75*
G03*
X143581741Y-58781741I-2500000J0D01*
G01*
D10*
G04 #@! TO.C,R5*
X115050000Y-94100000D02*
X115050000Y-95100000D01*
X114550000Y-95100000D02*
X114550000Y-94100000D01*
X115050000Y-95100000D02*
X114550000Y-95100000D01*
X114550000Y-94100000D02*
X115050000Y-94100000D01*
G04 #@! TO.C,R1*
X127500000Y-99300000D02*
X127500000Y-99800000D01*
X127500000Y-99800000D02*
X126500000Y-99800000D01*
X126500000Y-99300000D02*
X127500000Y-99300000D01*
X126500000Y-99800000D02*
X126500000Y-99300000D01*
D17*
G04 #@! TO.C,C41*
X113412585Y-72241246D02*
X113978270Y-72806932D01*
X113978270Y-72241246D02*
X113412585Y-72806932D01*
X118600000Y-75900000D02*
G75*
G03*
X118600000Y-75900000I-4000000J0D01*
G01*
D10*
G04 #@! TO.C,C6*
X110450000Y-67000000D02*
X110450000Y-69000000D01*
X109250000Y-67000000D02*
X110450000Y-67000000D01*
X110450000Y-69000000D02*
X109250000Y-69000000D01*
X109250000Y-69000000D02*
X109250000Y-67000000D01*
G04 #@! TO.C,C8*
X109200000Y-52450000D02*
X109700000Y-52450000D01*
X109700000Y-53450000D02*
X109200000Y-53450000D01*
X109700000Y-52450000D02*
X109700000Y-53450000D01*
X109200000Y-53450000D02*
X109200000Y-52450000D01*
G04 #@! TO.C,R24*
X118650000Y-59950000D02*
X118650000Y-60450000D01*
X117650000Y-60450000D02*
X117650000Y-59950000D01*
X118650000Y-60450000D02*
X117650000Y-60450000D01*
X117650000Y-59950000D02*
X118650000Y-59950000D01*
G04 #@! TO.C,C29*
X119950000Y-101300000D02*
X120450000Y-101300000D01*
X119950000Y-102300000D02*
X119950000Y-101300000D01*
X120450000Y-102300000D02*
X119950000Y-102300000D01*
X120450000Y-101300000D02*
X120450000Y-102300000D01*
D17*
G04 #@! TO.C,A3*
X117910000Y-87015000D02*
X117910000Y-88920000D01*
D18*
X106480000Y-91460000D02*
X106480000Y-71140000D01*
X121720000Y-71140000D02*
X121720000Y-91460000D01*
D17*
X115370000Y-88920000D02*
X115370000Y-87015000D01*
X109020000Y-91460000D02*
X109020000Y-71140000D01*
D18*
X121720000Y-91460000D02*
X106480000Y-91460000D01*
D17*
X119180000Y-91460000D02*
X119180000Y-71140000D01*
X116640000Y-91460000D02*
X116640000Y-89555000D01*
X114100000Y-88920000D02*
X115370000Y-88920000D01*
X117910000Y-88920000D02*
X119180000Y-88920000D01*
X115370000Y-87015000D02*
X117910000Y-87015000D01*
X114100000Y-91460000D02*
X114100000Y-88920000D01*
D18*
X106480000Y-71140000D02*
X121720000Y-71140000D01*
D10*
G04 #@! TO.C,R4*
X125400000Y-97300000D02*
X125400000Y-96800000D01*
X125400000Y-96800000D02*
X126400000Y-96800000D01*
X126400000Y-96800000D02*
X126400000Y-97300000D01*
X126400000Y-97300000D02*
X125400000Y-97300000D01*
G04 #@! TO.C,C20*
X118350000Y-71200000D02*
X118850000Y-71200000D01*
X118850000Y-71200000D02*
X118850000Y-72200000D01*
X118850000Y-72200000D02*
X118350000Y-72200000D01*
X118350000Y-72200000D02*
X118350000Y-71200000D01*
G04 #@! TO.C,C27*
X122950000Y-101300000D02*
X122950000Y-102300000D01*
X122950000Y-102300000D02*
X122450000Y-102300000D01*
X122450000Y-102300000D02*
X122450000Y-101300000D01*
X122450000Y-101300000D02*
X122950000Y-101300000D01*
G04 #@! TO.C,C28*
X114550000Y-101950000D02*
X115750000Y-101950000D01*
X114550000Y-103950000D02*
X114550000Y-101950000D01*
X115750000Y-103950000D02*
X114550000Y-103950000D01*
X115750000Y-101950000D02*
X115750000Y-103950000D01*
G04 #@! TO.C,C21*
X125200000Y-54300000D02*
X125200000Y-53300000D01*
X125200000Y-53300000D02*
X125700000Y-53300000D01*
X125700000Y-54300000D02*
X125200000Y-54300000D01*
X125700000Y-53300000D02*
X125700000Y-54300000D01*
G04 #@! TO.C,R3*
X136600000Y-99000000D02*
X136600000Y-98500000D01*
X137600000Y-99000000D02*
X136600000Y-99000000D01*
X137600000Y-98500000D02*
X137600000Y-99000000D01*
X136600000Y-98500000D02*
X137600000Y-98500000D01*
G04 #@! TO.C,R9*
X136300000Y-94200000D02*
X136800000Y-94200000D01*
X136300000Y-95200000D02*
X136300000Y-94200000D01*
X136800000Y-95200000D02*
X136300000Y-95200000D01*
X136800000Y-94200000D02*
X136800000Y-95200000D01*
D17*
G04 #@! TO.C,C7*
X105142924Y-71088033D02*
X104789371Y-71441586D01*
X105142924Y-71441586D02*
X104789371Y-71088033D01*
X105365259Y-71827741D02*
G75*
G03*
X105365259Y-71827741I-2500000J0D01*
G01*
D18*
G04 #@! TO.C,A1*
X121720000Y-50290000D02*
X121720000Y-70610000D01*
D17*
X117910000Y-68070000D02*
X119180000Y-68070000D01*
D18*
X106480000Y-50290000D02*
X121720000Y-50290000D01*
D17*
X115370000Y-66165000D02*
X117910000Y-66165000D01*
X119180000Y-70610000D02*
X119180000Y-50290000D01*
X116640000Y-70610000D02*
X116640000Y-68705000D01*
X114100000Y-70610000D02*
X114100000Y-68070000D01*
X115370000Y-68070000D02*
X115370000Y-66165000D01*
D18*
X121720000Y-70610000D02*
X106480000Y-70610000D01*
X106480000Y-70610000D02*
X106480000Y-50290000D01*
D17*
X117910000Y-66165000D02*
X117910000Y-68070000D01*
X109020000Y-70610000D02*
X109020000Y-50290000D01*
X114100000Y-68070000D02*
X115370000Y-68070000D01*
D10*
G04 #@! TO.C,C38*
X137600000Y-98300000D02*
X136600000Y-98300000D01*
X136600000Y-97800000D02*
X137600000Y-97800000D01*
X136600000Y-98300000D02*
X136600000Y-97800000D01*
X137600000Y-97800000D02*
X137600000Y-98300000D01*
G04 #@! TO.C,R10*
X121750000Y-101300000D02*
X122250000Y-101300000D01*
X122250000Y-101300000D02*
X122250000Y-102300000D01*
X121750000Y-102300000D02*
X121750000Y-101300000D01*
X122250000Y-102300000D02*
X121750000Y-102300000D01*
G04 #@! TO.C,D1*
X116600000Y-95950000D02*
X116600000Y-95750000D01*
X116600000Y-95750000D02*
X115100000Y-95750000D01*
X114500000Y-100550000D02*
X117200000Y-100550000D01*
X115100000Y-100750000D02*
X115100000Y-100550000D01*
X114500000Y-95950000D02*
X114500000Y-100550000D01*
X117200000Y-95950000D02*
X114500000Y-95950000D01*
X117200000Y-100550000D02*
X117200000Y-95950000D01*
X115100000Y-95750000D02*
X115100000Y-95950000D01*
X116600000Y-100550000D02*
X116600000Y-100750000D01*
X116600000Y-100750000D02*
X115100000Y-100750000D01*
G04 #@! TO.C,C35*
X131150000Y-92000000D02*
X131150000Y-93000000D01*
X130650000Y-92000000D02*
X131150000Y-92000000D01*
X130650000Y-93000000D02*
X130650000Y-92000000D01*
X131150000Y-93000000D02*
X130650000Y-93000000D01*
G04 #@! TO.C,C25*
X116600000Y-94100000D02*
X116600000Y-95100000D01*
X116600000Y-95100000D02*
X116100000Y-95100000D01*
X116100000Y-94100000D02*
X116600000Y-94100000D01*
X116100000Y-95100000D02*
X116100000Y-94100000D01*
G04 #@! TO.C,C5*
X122500000Y-98000000D02*
X123500000Y-98000000D01*
X122500000Y-98500000D02*
X122500000Y-98000000D01*
X123500000Y-98000000D02*
X123500000Y-98500000D01*
X123500000Y-98500000D02*
X122500000Y-98500000D01*
G04 #@! TO.C,C37*
X126450000Y-70750000D02*
X125450000Y-70750000D01*
X126450000Y-70250000D02*
X126450000Y-70750000D01*
X125450000Y-70750000D02*
X125450000Y-70250000D01*
X125450000Y-70250000D02*
X126450000Y-70250000D01*
G04 #@! TO.C,C26*
X119950000Y-102800000D02*
X120450000Y-102800000D01*
X120450000Y-102800000D02*
X120450000Y-103800000D01*
X119950000Y-103800000D02*
X119950000Y-102800000D01*
X120450000Y-103800000D02*
X119950000Y-103800000D01*
G04 #@! TO.C,R27*
X126350000Y-80650000D02*
X126350000Y-81150000D01*
X126350000Y-81150000D02*
X125350000Y-81150000D01*
X125350000Y-81150000D02*
X125350000Y-80650000D01*
X125350000Y-80650000D02*
X126350000Y-80650000D01*
G04 #@! TO.C,R26*
X117650000Y-81350000D02*
X118650000Y-81350000D01*
X118650000Y-81350000D02*
X118650000Y-81850000D01*
X118650000Y-81850000D02*
X117650000Y-81850000D01*
X117650000Y-81850000D02*
X117650000Y-81350000D01*
G04 #@! TO.C,R14*
X125200000Y-57500000D02*
X125200000Y-56500000D01*
X125700000Y-56500000D02*
X125700000Y-57500000D01*
X125200000Y-56500000D02*
X125700000Y-56500000D01*
X125700000Y-57500000D02*
X125200000Y-57500000D01*
D17*
G04 #@! TO.C,A4*
X127360000Y-71140000D02*
X127360000Y-73045000D01*
D18*
X137520000Y-91460000D02*
X122280000Y-91460000D01*
D17*
X126090000Y-75585000D02*
X126090000Y-73680000D01*
X128630000Y-75585000D02*
X126090000Y-75585000D01*
X126090000Y-73680000D02*
X124820000Y-73680000D01*
X124820000Y-71140000D02*
X124820000Y-91460000D01*
X128630000Y-73680000D02*
X128630000Y-75585000D01*
D18*
X122280000Y-91460000D02*
X122280000Y-71140000D01*
X137520000Y-71140000D02*
X137520000Y-91460000D01*
D17*
X129900000Y-71140000D02*
X129900000Y-73680000D01*
X134980000Y-71140000D02*
X134980000Y-91460000D01*
D18*
X122280000Y-71140000D02*
X137520000Y-71140000D01*
D17*
X129900000Y-73680000D02*
X128630000Y-73680000D01*
D10*
G04 #@! TO.C,R22*
X126350000Y-82200000D02*
X125350000Y-82200000D01*
X126350000Y-81700000D02*
X126350000Y-82200000D01*
X125350000Y-81700000D02*
X126350000Y-81700000D01*
X125350000Y-82200000D02*
X125350000Y-81700000D01*
G04 #@! TO.C,R13*
X125700000Y-55900000D02*
X125200000Y-55900000D01*
X125200000Y-54900000D02*
X125700000Y-54900000D01*
X125700000Y-54900000D02*
X125700000Y-55900000D01*
X125200000Y-55900000D02*
X125200000Y-54900000D01*
G04 #@! TO.C,R25*
X126350000Y-60300000D02*
X126350000Y-60800000D01*
X125350000Y-60800000D02*
X125350000Y-60300000D01*
X126350000Y-60800000D02*
X125350000Y-60800000D01*
X125350000Y-60300000D02*
X126350000Y-60300000D01*
D17*
G04 #@! TO.C,Y1*
X122750000Y-94100000D02*
X121750000Y-95100000D01*
X121750000Y-97300000D02*
X124250000Y-97300000D01*
X124250000Y-94100000D02*
X121750000Y-94100000D01*
X124250000Y-97300000D02*
X124250000Y-94100000D01*
X121750000Y-94100000D02*
X121750000Y-97300000D01*
D10*
G04 #@! TO.C,C16*
X109700000Y-73350000D02*
X109700000Y-74350000D01*
X109200000Y-73350000D02*
X109700000Y-73350000D01*
X109200000Y-74350000D02*
X109200000Y-73350000D01*
X109700000Y-74350000D02*
X109200000Y-74350000D01*
G04 #@! TO.C,R12*
X118300000Y-63800000D02*
X118800000Y-63800000D01*
X118300000Y-64800000D02*
X118300000Y-63800000D01*
X118800000Y-64800000D02*
X118300000Y-64800000D01*
X118800000Y-63800000D02*
X118800000Y-64800000D01*
G04 #@! TO.C,C32*
X135000000Y-102300000D02*
X135000000Y-103300000D01*
X134500000Y-102300000D02*
X135000000Y-102300000D01*
X135000000Y-103300000D02*
X134500000Y-103300000D01*
X134500000Y-103300000D02*
X134500000Y-102300000D01*
D17*
G04 #@! TO.C,C39*
X130371730Y-70108754D02*
X130937415Y-69543068D01*
X130937415Y-70108754D02*
X130371730Y-69543068D01*
X133750000Y-66450000D02*
G75*
G03*
X133750000Y-66450000I-4000000J0D01*
G01*
D10*
G04 #@! TO.C,C30*
X120650000Y-102300000D02*
X120650000Y-101300000D01*
X121150000Y-101300000D02*
X121150000Y-102300000D01*
X120650000Y-101300000D02*
X121150000Y-101300000D01*
X121150000Y-102300000D02*
X120650000Y-102300000D01*
G04 #@! TO.C,C4*
X136750000Y-99900000D02*
X137750000Y-99900000D01*
X136750000Y-100400000D02*
X136750000Y-99900000D01*
X137750000Y-99900000D02*
X137750000Y-100400000D01*
X137750000Y-100400000D02*
X136750000Y-100400000D01*
D17*
G04 #@! TO.C,M4*
X138125000Y-92950000D02*
X143875000Y-92950000D01*
X143875000Y-92950000D02*
X143875000Y-80550000D01*
X143875000Y-82375000D02*
X142875000Y-83000000D01*
X138125000Y-80550000D02*
X138125000Y-92950000D01*
X143875000Y-80550000D02*
X138125000Y-80550000D01*
X142875000Y-83000000D02*
X143875000Y-83625000D01*
G04 #@! TO.C,C17*
X140743586Y-75138076D02*
X140390033Y-75491629D01*
X140390033Y-75138076D02*
X140743586Y-75491629D01*
X143629741Y-77415741D02*
G75*
G03*
X143629741Y-77415741I-2500000J0D01*
G01*
G04 #@! TO.C,U2*
X142465000Y-95235000D02*
X143465000Y-96235000D01*
X143465000Y-96235000D02*
X143465000Y-100465000D01*
X143465000Y-100465000D02*
X138235000Y-100465000D01*
X138235000Y-95235000D02*
X142465000Y-95235000D01*
X138235000Y-100465000D02*
X138235000Y-95235000D01*
D10*
G04 #@! TO.C,C19*
X137800000Y-104050000D02*
X135800000Y-104050000D01*
X137800000Y-102850000D02*
X137800000Y-104050000D01*
X135800000Y-102850000D02*
X137800000Y-102850000D01*
X135800000Y-104050000D02*
X135800000Y-102850000D01*
D17*
G04 #@! TO.C,M2*
X138125000Y-61900000D02*
X138125000Y-74300000D01*
X143875000Y-61900000D02*
X138125000Y-61900000D01*
X138125000Y-74300000D02*
X143875000Y-74300000D01*
X142875000Y-64350000D02*
X143875000Y-64975000D01*
X143875000Y-74300000D02*
X143875000Y-61900000D01*
X143875000Y-63725000D02*
X142875000Y-64350000D01*
D10*
G04 #@! TO.C,C36*
X134550000Y-93500000D02*
X134550000Y-92500000D01*
X135050000Y-92500000D02*
X135050000Y-93500000D01*
X134550000Y-92500000D02*
X135050000Y-92500000D01*
X135050000Y-93500000D02*
X134550000Y-93500000D01*
G04 #@! TO.C,C1*
X126500000Y-98600000D02*
X127500000Y-98600000D01*
X126500000Y-99100000D02*
X126500000Y-98600000D01*
X127500000Y-98600000D02*
X127500000Y-99100000D01*
X127500000Y-99100000D02*
X126500000Y-99100000D01*
G04 #@! TO.C,C24*
X142300000Y-103750000D02*
X142300000Y-102750000D01*
X142800000Y-102750000D02*
X142800000Y-103750000D01*
X142300000Y-102750000D02*
X142800000Y-102750000D01*
X142800000Y-103750000D02*
X142300000Y-103750000D01*
D17*
G04 #@! TO.C,J1*
X137270001Y-104715000D02*
X137270001Y-109795000D01*
X137270001Y-109795000D02*
X108060001Y-109795000D01*
X108060001Y-109795000D02*
X106790001Y-108525000D01*
X106790001Y-108525000D02*
X106790001Y-104715000D01*
X106790001Y-104715000D02*
X137270001Y-104715000D01*
G04 #@! TO.C,C42*
X110441246Y-55987415D02*
X111006932Y-55421730D01*
X110441246Y-55421730D02*
X111006932Y-55987415D01*
X118100000Y-54800000D02*
G75*
G03*
X118100000Y-54800000I-4000000J0D01*
G01*
G04 #@! TD*
M02*
