G04 #@! TF.GenerationSoftware,KiCad,Pcbnew,(5.99.0-11678-ga208dac8d8)*
G04 #@! TF.CreationDate,2021-08-12T16:35:18+03:00*
G04 #@! TF.ProjectId,StepperDriverModuleCarrier,53746570-7065-4724-9472-697665724d6f,rev?*
G04 #@! TF.SameCoordinates,Original*
G04 #@! TF.FileFunction,Legend,Bot*
G04 #@! TF.FilePolarity,Positive*
%FSLAX46Y46*%
G04 Gerber Fmt 4.6, Leading zero omitted, Abs format (unit mm)*
G04 Created by KiCad (PCBNEW (5.99.0-11678-ga208dac8d8)) date 2021-08-12 16:35:18*
%MOMM*%
%LPD*%
G01*
G04 APERTURE LIST*
%ADD10C,0.000000*%
%ADD11C,0.150000*%
%ADD12C,0.600000*%
%ADD13C,0.120000*%
G04 APERTURE END LIST*
D10*
G36*
X129150000Y-60750000D02*
G01*
X128150000Y-60750000D01*
X128650000Y-60000000D01*
X129150000Y-60750000D01*
G37*
G36*
X116700000Y-59950000D02*
G01*
X115950000Y-60449999D01*
X115950000Y-59450001D01*
X116700000Y-59950000D01*
G37*
G36*
X115750001Y-86900000D02*
G01*
X114750001Y-86900000D01*
X115250000Y-86150000D01*
X115750001Y-86900000D01*
G37*
G36*
X115250000Y-79100000D02*
G01*
X114749999Y-78350000D01*
X115749999Y-78350000D01*
X115250000Y-79100000D01*
G37*
G36*
X128800000Y-76100000D02*
G01*
X128300001Y-75350000D01*
X129299999Y-75350000D01*
X128800000Y-76100000D01*
G37*
G36*
X128050000Y-87049999D02*
G01*
X127300000Y-86550000D01*
X128050000Y-86049999D01*
X128050000Y-87049999D01*
G37*
G36*
X115300000Y-61150000D02*
G01*
X114799999Y-60400000D01*
X115799999Y-60400000D01*
X115300000Y-61150000D01*
G37*
G36*
X128750001Y-83900000D02*
G01*
X127750001Y-83900000D01*
X128250000Y-83150000D01*
X128750001Y-83900000D01*
G37*
G36*
X128000000Y-61399999D02*
G01*
X127250000Y-60900000D01*
X128000000Y-60400001D01*
X128000000Y-61399999D01*
G37*
D11*
X121386523Y-103955904D02*
X120929380Y-103955904D01*
X121157952Y-104755904D02*
X121157952Y-103955904D01*
X120700809Y-104032095D02*
X120662714Y-103994000D01*
X120586523Y-103955904D01*
X120396047Y-103955904D01*
X120319857Y-103994000D01*
X120281761Y-104032095D01*
X120243666Y-104108285D01*
X120243666Y-104184476D01*
X120281761Y-104298761D01*
X120738904Y-104755904D01*
X120243666Y-104755904D01*
X111169380Y-104336857D02*
X110902714Y-104336857D01*
X110788428Y-104755904D02*
X111169380Y-104755904D01*
X111169380Y-103955904D01*
X110788428Y-103955904D01*
X110483666Y-104032095D02*
X110445571Y-103994000D01*
X110369380Y-103955904D01*
X110178904Y-103955904D01*
X110102714Y-103994000D01*
X110064619Y-104032095D01*
X110026523Y-104108285D01*
X110026523Y-104184476D01*
X110064619Y-104298761D01*
X110521761Y-104755904D01*
X110026523Y-104755904D01*
X131298904Y-104679714D02*
X131337000Y-104717809D01*
X131451285Y-104755904D01*
X131527476Y-104755904D01*
X131641761Y-104717809D01*
X131717952Y-104641619D01*
X131756047Y-104565428D01*
X131794142Y-104413047D01*
X131794142Y-104298761D01*
X131756047Y-104146380D01*
X131717952Y-104070190D01*
X131641761Y-103994000D01*
X131527476Y-103955904D01*
X131451285Y-103955904D01*
X131337000Y-103994000D01*
X131298904Y-104032095D01*
X130384619Y-103917809D02*
X131070333Y-104946380D01*
X130117952Y-104755904D02*
X130117952Y-103955904D01*
X116249380Y-104336857D02*
X115982714Y-104336857D01*
X115868428Y-104755904D02*
X116249380Y-104755904D01*
X116249380Y-103955904D01*
X115868428Y-103955904D01*
X115182714Y-104222571D02*
X115182714Y-104755904D01*
X115373190Y-103917809D02*
X115563666Y-104489238D01*
X115068428Y-104489238D01*
X123926523Y-104755904D02*
X123926523Y-103955904D01*
X123926523Y-104336857D02*
X123469380Y-104336857D01*
X123469380Y-104755904D02*
X123469380Y-103955904D01*
X122669380Y-104755904D02*
X123126523Y-104755904D01*
X122897952Y-104755904D02*
X122897952Y-103955904D01*
X122974142Y-104070190D01*
X123050333Y-104146380D01*
X123126523Y-104184476D01*
X126466523Y-104755904D02*
X126466523Y-103955904D01*
X126466523Y-104336857D02*
X126009380Y-104336857D01*
X126009380Y-104755904D02*
X126009380Y-103955904D01*
X125666523Y-104032095D02*
X125628428Y-103994000D01*
X125552238Y-103955904D01*
X125361761Y-103955904D01*
X125285571Y-103994000D01*
X125247476Y-104032095D01*
X125209380Y-104108285D01*
X125209380Y-104184476D01*
X125247476Y-104298761D01*
X125704619Y-104755904D01*
X125209380Y-104755904D01*
X136169380Y-103955904D02*
X136550333Y-103955904D01*
X136588428Y-104336857D01*
X136550333Y-104298761D01*
X136474142Y-104260666D01*
X136283666Y-104260666D01*
X136207476Y-104298761D01*
X136169380Y-104336857D01*
X136131285Y-104413047D01*
X136131285Y-104603523D01*
X136169380Y-104679714D01*
X136207476Y-104717809D01*
X136283666Y-104755904D01*
X136474142Y-104755904D01*
X136550333Y-104717809D01*
X136588428Y-104679714D01*
X135902714Y-103955904D02*
X135636047Y-104755904D01*
X135369380Y-103955904D01*
X113709380Y-104336857D02*
X113442714Y-104336857D01*
X113328428Y-104755904D02*
X113709380Y-104755904D01*
X113709380Y-103955904D01*
X113328428Y-103955904D01*
X113061761Y-103955904D02*
X112566523Y-103955904D01*
X112833190Y-104260666D01*
X112718904Y-104260666D01*
X112642714Y-104298761D01*
X112604619Y-104336857D01*
X112566523Y-104413047D01*
X112566523Y-104603523D01*
X112604619Y-104679714D01*
X112642714Y-104717809D01*
X112718904Y-104755904D01*
X112947476Y-104755904D01*
X113023666Y-104717809D01*
X113061761Y-104679714D01*
D12*
X142542857Y-92321714D02*
X142542857Y-94264571D01*
X142385714Y-94493142D01*
X142228571Y-94607428D01*
X141914285Y-94721714D01*
X141285714Y-94721714D01*
X140971428Y-94607428D01*
X140814285Y-94493142D01*
X140657142Y-94264571D01*
X140657142Y-92321714D01*
X139242857Y-94607428D02*
X138771428Y-94721714D01*
X137985714Y-94721714D01*
X137671428Y-94607428D01*
X137514285Y-94493142D01*
X137357142Y-94264571D01*
X137357142Y-94036000D01*
X137514285Y-93807428D01*
X137671428Y-93693142D01*
X137985714Y-93578857D01*
X138614285Y-93464571D01*
X138928571Y-93350285D01*
X139085714Y-93236000D01*
X139242857Y-93007428D01*
X139242857Y-92778857D01*
X139085714Y-92550285D01*
X138928571Y-92436000D01*
X138614285Y-92321714D01*
X137828571Y-92321714D01*
X137357142Y-92436000D01*
X134842857Y-93464571D02*
X134371428Y-93578857D01*
X134214285Y-93693142D01*
X134057142Y-93921714D01*
X134057142Y-94264571D01*
X134214285Y-94493142D01*
X134371428Y-94607428D01*
X134685714Y-94721714D01*
X135942857Y-94721714D01*
X135942857Y-92321714D01*
X134842857Y-92321714D01*
X134528571Y-92436000D01*
X134371428Y-92550285D01*
X134214285Y-92778857D01*
X134214285Y-93007428D01*
X134371428Y-93236000D01*
X134528571Y-93350285D01*
X134842857Y-93464571D01*
X135942857Y-93464571D01*
X130442857Y-94950285D02*
X130757142Y-94836000D01*
X131071428Y-94607428D01*
X131542857Y-94264571D01*
X131857142Y-94150285D01*
X132171428Y-94150285D01*
X132014285Y-94721714D02*
X132328571Y-94607428D01*
X132642857Y-94378857D01*
X132800000Y-93921714D01*
X132800000Y-93121714D01*
X132642857Y-92664571D01*
X132328571Y-92436000D01*
X132014285Y-92321714D01*
X131385714Y-92321714D01*
X131071428Y-92436000D01*
X130757142Y-92664571D01*
X130600000Y-93121714D01*
X130600000Y-93921714D01*
X130757142Y-94378857D01*
X131071428Y-94607428D01*
X131385714Y-94721714D01*
X132014285Y-94721714D01*
X127771428Y-93121714D02*
X127771428Y-94721714D01*
X129185714Y-93121714D02*
X129185714Y-94378857D01*
X129028571Y-94607428D01*
X128714285Y-94721714D01*
X128242857Y-94721714D01*
X127928571Y-94607428D01*
X127771428Y-94493142D01*
X124785714Y-94721714D02*
X124785714Y-93464571D01*
X124942857Y-93236000D01*
X125257142Y-93121714D01*
X125885714Y-93121714D01*
X126200000Y-93236000D01*
X124785714Y-94607428D02*
X125100000Y-94721714D01*
X125885714Y-94721714D01*
X126200000Y-94607428D01*
X126357142Y-94378857D01*
X126357142Y-94150285D01*
X126200000Y-93921714D01*
X125885714Y-93807428D01*
X125100000Y-93807428D01*
X124785714Y-93693142D01*
X121800000Y-94721714D02*
X121800000Y-92321714D01*
X121800000Y-94607428D02*
X122114285Y-94721714D01*
X122742857Y-94721714D01*
X123057142Y-94607428D01*
X123214285Y-94493142D01*
X123371428Y-94264571D01*
X123371428Y-93578857D01*
X123214285Y-93350285D01*
X123057142Y-93236000D01*
X122742857Y-93121714D01*
X122114285Y-93121714D01*
X121800000Y-93236000D01*
X120385714Y-94607428D02*
X119914285Y-94721714D01*
X119128571Y-94721714D01*
X118814285Y-94607428D01*
X118657142Y-94493142D01*
X118500000Y-94264571D01*
X118500000Y-94036000D01*
X118657142Y-93807428D01*
X118814285Y-93693142D01*
X119128571Y-93578857D01*
X119757142Y-93464571D01*
X120071428Y-93350285D01*
X120228571Y-93236000D01*
X120385714Y-93007428D01*
X120385714Y-92778857D01*
X120228571Y-92550285D01*
X120071428Y-92436000D01*
X119757142Y-92321714D01*
X118971428Y-92321714D01*
X118500000Y-92436000D01*
X117557142Y-93121714D02*
X116300000Y-93121714D01*
X117085714Y-92321714D02*
X117085714Y-94378857D01*
X116928571Y-94607428D01*
X116614285Y-94721714D01*
X116300000Y-94721714D01*
X113942857Y-94607428D02*
X114257142Y-94721714D01*
X114885714Y-94721714D01*
X115200000Y-94607428D01*
X115357142Y-94378857D01*
X115357142Y-93464571D01*
X115200000Y-93236000D01*
X114885714Y-93121714D01*
X114257142Y-93121714D01*
X113942857Y-93236000D01*
X113785714Y-93464571D01*
X113785714Y-93693142D01*
X115357142Y-93921714D01*
X112371428Y-93121714D02*
X112371428Y-95521714D01*
X112371428Y-93236000D02*
X112057142Y-93121714D01*
X111428571Y-93121714D01*
X111114285Y-93236000D01*
X110957142Y-93350285D01*
X110800000Y-93578857D01*
X110800000Y-94264571D01*
X110957142Y-94493142D01*
X111114285Y-94607428D01*
X111428571Y-94721714D01*
X112057142Y-94721714D01*
X112371428Y-94607428D01*
X133821428Y-96985714D02*
X133035714Y-98585714D01*
X132250000Y-96985714D01*
X129264285Y-98585714D02*
X131150000Y-98585714D01*
X130207142Y-98585714D02*
X130207142Y-96185714D01*
X130521428Y-96528571D01*
X130835714Y-96757142D01*
X131150000Y-96871428D01*
X127850000Y-98357142D02*
X127692857Y-98471428D01*
X127850000Y-98585714D01*
X128007142Y-98471428D01*
X127850000Y-98357142D01*
X127850000Y-98585714D01*
X125650000Y-96185714D02*
X125335714Y-96185714D01*
X125021428Y-96300000D01*
X124864285Y-96414285D01*
X124707142Y-96642857D01*
X124550000Y-97100000D01*
X124550000Y-97671428D01*
X124707142Y-98128571D01*
X124864285Y-98357142D01*
X125021428Y-98471428D01*
X125335714Y-98585714D01*
X125650000Y-98585714D01*
X125964285Y-98471428D01*
X126121428Y-98357142D01*
X126278571Y-98128571D01*
X126435714Y-97671428D01*
X126435714Y-97100000D01*
X126278571Y-96642857D01*
X126121428Y-96414285D01*
X125964285Y-96300000D01*
X125650000Y-96185714D01*
X123135714Y-98357142D02*
X122978571Y-98471428D01*
X123135714Y-98585714D01*
X123292857Y-98471428D01*
X123135714Y-98357142D01*
X123135714Y-98585714D01*
X121878571Y-96185714D02*
X119835714Y-96185714D01*
X120935714Y-97100000D01*
X120464285Y-97100000D01*
X120150000Y-97214285D01*
X119992857Y-97328571D01*
X119835714Y-97557142D01*
X119835714Y-98128571D01*
X119992857Y-98357142D01*
X120150000Y-98471428D01*
X120464285Y-98585714D01*
X121407142Y-98585714D01*
X121721428Y-98471428D01*
X121878571Y-98357142D01*
X140500000Y-102449714D02*
X140500000Y-100849714D01*
X140500000Y-101306857D02*
X140342857Y-101078285D01*
X140185714Y-100964000D01*
X139871428Y-100849714D01*
X139557142Y-100849714D01*
X138457142Y-102449714D02*
X138457142Y-100049714D01*
X138457142Y-100964000D02*
X138142857Y-100849714D01*
X137514285Y-100849714D01*
X137200000Y-100964000D01*
X137042857Y-101078285D01*
X136885714Y-101306857D01*
X136885714Y-101992571D01*
X137042857Y-102221142D01*
X137200000Y-102335428D01*
X137514285Y-102449714D01*
X138142857Y-102449714D01*
X138457142Y-102335428D01*
X135942857Y-100849714D02*
X134685714Y-100849714D01*
X135471428Y-100049714D02*
X135471428Y-102106857D01*
X135314285Y-102335428D01*
X135000000Y-102449714D01*
X134685714Y-102449714D01*
X133742857Y-102335428D02*
X133428571Y-102449714D01*
X132800000Y-102449714D01*
X132485714Y-102335428D01*
X132328571Y-102106857D01*
X132328571Y-101992571D01*
X132485714Y-101764000D01*
X132800000Y-101649714D01*
X133271428Y-101649714D01*
X133585714Y-101535428D01*
X133742857Y-101306857D01*
X133742857Y-101192571D01*
X133585714Y-100964000D01*
X133271428Y-100849714D01*
X132800000Y-100849714D01*
X132485714Y-100964000D01*
X130914285Y-102221142D02*
X130757142Y-102335428D01*
X130914285Y-102449714D01*
X131071428Y-102335428D01*
X130914285Y-102221142D01*
X130914285Y-102449714D01*
X127928571Y-102335428D02*
X128242857Y-102449714D01*
X128871428Y-102449714D01*
X129185714Y-102335428D01*
X129342857Y-102221142D01*
X129500000Y-101992571D01*
X129500000Y-101306857D01*
X129342857Y-101078285D01*
X129185714Y-100964000D01*
X128871428Y-100849714D01*
X128242857Y-100849714D01*
X127928571Y-100964000D01*
X126042857Y-102449714D02*
X126357142Y-102335428D01*
X126514285Y-102221142D01*
X126671428Y-101992571D01*
X126671428Y-101306857D01*
X126514285Y-101078285D01*
X126357142Y-100964000D01*
X126042857Y-100849714D01*
X125571428Y-100849714D01*
X125257142Y-100964000D01*
X125100000Y-101078285D01*
X124942857Y-101306857D01*
X124942857Y-101992571D01*
X125100000Y-102221142D01*
X125257142Y-102335428D01*
X125571428Y-102449714D01*
X126042857Y-102449714D01*
X121171428Y-99935428D02*
X124000000Y-103021142D01*
X118657142Y-100849714D02*
X118657142Y-102449714D01*
X120071428Y-100849714D02*
X120071428Y-102106857D01*
X119914285Y-102335428D01*
X119600000Y-102449714D01*
X119128571Y-102449714D01*
X118814285Y-102335428D01*
X118657142Y-102221142D01*
X115671428Y-100849714D02*
X115671428Y-103249714D01*
X115671428Y-102335428D02*
X115985714Y-102449714D01*
X116614285Y-102449714D01*
X116928571Y-102335428D01*
X117085714Y-102221142D01*
X117242857Y-101992571D01*
X117242857Y-101306857D01*
X117085714Y-101078285D01*
X116928571Y-100964000D01*
X116614285Y-100849714D01*
X115985714Y-100849714D01*
X115671428Y-100964000D01*
X114257142Y-102335428D02*
X113942857Y-102449714D01*
X113314285Y-102449714D01*
X113000000Y-102335428D01*
X112842857Y-102106857D01*
X112842857Y-101992571D01*
X113000000Y-101764000D01*
X113314285Y-101649714D01*
X113785714Y-101649714D01*
X114100000Y-101535428D01*
X114257142Y-101306857D01*
X114257142Y-101192571D01*
X114100000Y-100964000D01*
X113785714Y-100849714D01*
X113314285Y-100849714D01*
X113000000Y-100964000D01*
D11*
X118846523Y-103955904D02*
X118389380Y-103955904D01*
X118617952Y-104755904D02*
X118617952Y-103955904D01*
X117703666Y-104755904D02*
X118160809Y-104755904D01*
X117932238Y-104755904D02*
X117932238Y-103955904D01*
X118008428Y-104070190D01*
X118084619Y-104146380D01*
X118160809Y-104184476D01*
X134486523Y-103955904D02*
X134486523Y-104603523D01*
X134448428Y-104679714D01*
X134410333Y-104717809D01*
X134334142Y-104755904D01*
X134181761Y-104755904D01*
X134105571Y-104717809D01*
X134067476Y-104679714D01*
X134029380Y-104603523D01*
X134029380Y-103955904D01*
X133686523Y-104717809D02*
X133572238Y-104755904D01*
X133381761Y-104755904D01*
X133305571Y-104717809D01*
X133267476Y-104679714D01*
X133229380Y-104603523D01*
X133229380Y-104527333D01*
X133267476Y-104451142D01*
X133305571Y-104413047D01*
X133381761Y-104374952D01*
X133534142Y-104336857D01*
X133610333Y-104298761D01*
X133648428Y-104260666D01*
X133686523Y-104184476D01*
X133686523Y-104108285D01*
X133648428Y-104032095D01*
X133610333Y-103994000D01*
X133534142Y-103955904D01*
X133343666Y-103955904D01*
X133229380Y-103994000D01*
X132619857Y-104336857D02*
X132505571Y-104374952D01*
X132467476Y-104413047D01*
X132429380Y-104489238D01*
X132429380Y-104603523D01*
X132467476Y-104679714D01*
X132505571Y-104717809D01*
X132581761Y-104755904D01*
X132886523Y-104755904D01*
X132886523Y-103955904D01*
X132619857Y-103955904D01*
X132543666Y-103994000D01*
X132505571Y-104032095D01*
X132467476Y-104108285D01*
X132467476Y-104184476D01*
X132505571Y-104260666D01*
X132543666Y-104298761D01*
X132619857Y-104336857D01*
X132886523Y-104336857D01*
X129158904Y-104336857D02*
X129044619Y-104374952D01*
X129006523Y-104413047D01*
X128968428Y-104489238D01*
X128968428Y-104603523D01*
X129006523Y-104679714D01*
X129044619Y-104717809D01*
X129120809Y-104755904D01*
X129425571Y-104755904D01*
X129425571Y-103955904D01*
X129158904Y-103955904D01*
X129082714Y-103994000D01*
X129044619Y-104032095D01*
X129006523Y-104108285D01*
X129006523Y-104184476D01*
X129044619Y-104260666D01*
X129082714Y-104298761D01*
X129158904Y-104336857D01*
X129425571Y-104336857D01*
X128054142Y-103917809D02*
X128739857Y-104946380D01*
X127330333Y-104755904D02*
X127597000Y-104374952D01*
X127787476Y-104755904D02*
X127787476Y-103955904D01*
X127482714Y-103955904D01*
X127406523Y-103994000D01*
X127368428Y-104032095D01*
X127330333Y-104108285D01*
X127330333Y-104222571D01*
X127368428Y-104298761D01*
X127406523Y-104336857D01*
X127482714Y-104374952D01*
X127787476Y-104374952D01*
X108629380Y-104336857D02*
X108362714Y-104336857D01*
X108248428Y-104755904D02*
X108629380Y-104755904D01*
X108629380Y-103955904D01*
X108248428Y-103955904D01*
X107486523Y-104755904D02*
X107943666Y-104755904D01*
X107715095Y-104755904D02*
X107715095Y-103955904D01*
X107791285Y-104070190D01*
X107867476Y-104146380D01*
X107943666Y-104184476D01*
G04 #@! TO.C,M3*
X100297619Y-82009523D02*
X101297619Y-82009523D01*
X100583333Y-81676190D01*
X101297619Y-81342857D01*
X100297619Y-81342857D01*
X101297619Y-80961904D02*
X101297619Y-80342857D01*
X100916666Y-80676190D01*
X100916666Y-80533333D01*
X100869047Y-80438095D01*
X100821428Y-80390476D01*
X100726190Y-80342857D01*
X100488095Y-80342857D01*
X100392857Y-80390476D01*
X100345238Y-80438095D01*
X100297619Y-80533333D01*
X100297619Y-80819047D01*
X100345238Y-80914285D01*
X100392857Y-80961904D01*
G04 #@! TO.C,M1*
X100297619Y-63309523D02*
X101297619Y-63309523D01*
X100583333Y-62976190D01*
X101297619Y-62642857D01*
X100297619Y-62642857D01*
X100297619Y-61642857D02*
X100297619Y-62214285D01*
X100297619Y-61928571D02*
X101297619Y-61928571D01*
X101154761Y-62023809D01*
X101059523Y-62119047D01*
X101011904Y-62214285D01*
G04 #@! TO.C,M4*
X143677380Y-85940476D02*
X142677380Y-85940476D01*
X143391666Y-86273809D01*
X142677380Y-86607142D01*
X143677380Y-86607142D01*
X143010714Y-87511904D02*
X143677380Y-87511904D01*
X142629761Y-87273809D02*
X143344047Y-87035714D01*
X143344047Y-87654761D01*
G04 #@! TO.C,M2*
X143702380Y-67440476D02*
X142702380Y-67440476D01*
X143416666Y-67773809D01*
X142702380Y-68107142D01*
X143702380Y-68107142D01*
X142797619Y-68535714D02*
X142750000Y-68583333D01*
X142702380Y-68678571D01*
X142702380Y-68916666D01*
X142750000Y-69011904D01*
X142797619Y-69059523D01*
X142892857Y-69107142D01*
X142988095Y-69107142D01*
X143130952Y-69059523D01*
X143702380Y-68488095D01*
X143702380Y-69107142D01*
G04 #@! TO.C,JP10*
X118154761Y-53761904D02*
X118202380Y-53904761D01*
X118202380Y-54142857D01*
X118154761Y-54238095D01*
X118107142Y-54285714D01*
X118011904Y-54333333D01*
X117916666Y-54333333D01*
X117821428Y-54285714D01*
X117773809Y-54238095D01*
X117726190Y-54142857D01*
X117678571Y-53952380D01*
X117630952Y-53857142D01*
X117583333Y-53809523D01*
X117488095Y-53761904D01*
X117392857Y-53761904D01*
X117297619Y-53809523D01*
X117250000Y-53857142D01*
X117202380Y-53952380D01*
X117202380Y-54190476D01*
X117250000Y-54333333D01*
X117678571Y-54761904D02*
X117678571Y-55095238D01*
X118202380Y-55238095D02*
X118202380Y-54761904D01*
X117202380Y-54761904D01*
X117202380Y-55238095D01*
X118202380Y-56238095D02*
X117726190Y-55904761D01*
X118202380Y-55666666D02*
X117202380Y-55666666D01*
X117202380Y-56047619D01*
X117250000Y-56142857D01*
X117297619Y-56190476D01*
X117392857Y-56238095D01*
X117535714Y-56238095D01*
X117630952Y-56190476D01*
X117678571Y-56142857D01*
X117726190Y-56047619D01*
X117726190Y-55666666D01*
G04 #@! TO.C,JP2*
X114285714Y-65202380D02*
X114285714Y-64202380D01*
X113952380Y-64916666D01*
X113619047Y-64202380D01*
X113619047Y-65202380D01*
X113190476Y-65154761D02*
X113047619Y-65202380D01*
X112809523Y-65202380D01*
X112714285Y-65154761D01*
X112666666Y-65107142D01*
X112619047Y-65011904D01*
X112619047Y-64916666D01*
X112666666Y-64821428D01*
X112714285Y-64773809D01*
X112809523Y-64726190D01*
X113000000Y-64678571D01*
X113095238Y-64630952D01*
X113142857Y-64583333D01*
X113190476Y-64488095D01*
X113190476Y-64392857D01*
X113142857Y-64297619D01*
X113095238Y-64250000D01*
X113000000Y-64202380D01*
X112761904Y-64202380D01*
X112619047Y-64250000D01*
X111666666Y-65202380D02*
X112238095Y-65202380D01*
X111952380Y-65202380D02*
X111952380Y-64202380D01*
X112047619Y-64345238D01*
X112142857Y-64440476D01*
X112238095Y-64488095D01*
G04 #@! TO.C,JP13*
X131738095Y-82654761D02*
X131595238Y-82702380D01*
X131357142Y-82702380D01*
X131261904Y-82654761D01*
X131214285Y-82607142D01*
X131166666Y-82511904D01*
X131166666Y-82416666D01*
X131214285Y-82321428D01*
X131261904Y-82273809D01*
X131357142Y-82226190D01*
X131547619Y-82178571D01*
X131642857Y-82130952D01*
X131690476Y-82083333D01*
X131738095Y-81988095D01*
X131738095Y-81892857D01*
X131690476Y-81797619D01*
X131642857Y-81750000D01*
X131547619Y-81702380D01*
X131309523Y-81702380D01*
X131166666Y-81750000D01*
X130738095Y-82178571D02*
X130404761Y-82178571D01*
X130261904Y-82702380D02*
X130738095Y-82702380D01*
X130738095Y-81702380D01*
X130261904Y-81702380D01*
X129261904Y-82702380D02*
X129595238Y-82226190D01*
X129833333Y-82702380D02*
X129833333Y-81702380D01*
X129452380Y-81702380D01*
X129357142Y-81750000D01*
X129309523Y-81797619D01*
X129261904Y-81892857D01*
X129261904Y-82035714D01*
X129309523Y-82130952D01*
X129357142Y-82178571D01*
X129452380Y-82226190D01*
X129833333Y-82226190D01*
G04 #@! TO.C,JP8*
X132285714Y-77702380D02*
X132285714Y-76702380D01*
X131952380Y-77416666D01*
X131619047Y-76702380D01*
X131619047Y-77702380D01*
X131190476Y-77654761D02*
X131047619Y-77702380D01*
X130809523Y-77702380D01*
X130714285Y-77654761D01*
X130666666Y-77607142D01*
X130619047Y-77511904D01*
X130619047Y-77416666D01*
X130666666Y-77321428D01*
X130714285Y-77273809D01*
X130809523Y-77226190D01*
X131000000Y-77178571D01*
X131095238Y-77130952D01*
X131142857Y-77083333D01*
X131190476Y-76988095D01*
X131190476Y-76892857D01*
X131142857Y-76797619D01*
X131095238Y-76750000D01*
X131000000Y-76702380D01*
X130761904Y-76702380D01*
X130619047Y-76750000D01*
X129666666Y-77702380D02*
X130238095Y-77702380D01*
X129952380Y-77702380D02*
X129952380Y-76702380D01*
X130047619Y-76845238D01*
X130142857Y-76940476D01*
X130238095Y-76988095D01*
G04 #@! TO.C,JP11*
X126654761Y-64511904D02*
X126702380Y-64654761D01*
X126702380Y-64892857D01*
X126654761Y-64988095D01*
X126607142Y-65035714D01*
X126511904Y-65083333D01*
X126416666Y-65083333D01*
X126321428Y-65035714D01*
X126273809Y-64988095D01*
X126226190Y-64892857D01*
X126178571Y-64702380D01*
X126130952Y-64607142D01*
X126083333Y-64559523D01*
X125988095Y-64511904D01*
X125892857Y-64511904D01*
X125797619Y-64559523D01*
X125750000Y-64607142D01*
X125702380Y-64702380D01*
X125702380Y-64940476D01*
X125750000Y-65083333D01*
X126178571Y-65511904D02*
X126178571Y-65845238D01*
X126702380Y-65988095D02*
X126702380Y-65511904D01*
X125702380Y-65511904D01*
X125702380Y-65988095D01*
X126702380Y-66988095D02*
X126226190Y-66654761D01*
X126702380Y-66416666D02*
X125702380Y-66416666D01*
X125702380Y-66797619D01*
X125750000Y-66892857D01*
X125797619Y-66940476D01*
X125892857Y-66988095D01*
X126035714Y-66988095D01*
X126130952Y-66940476D01*
X126178571Y-66892857D01*
X126226190Y-66797619D01*
X126226190Y-66416666D01*
G04 #@! TO.C,JP9*
X132285714Y-79952380D02*
X132285714Y-78952380D01*
X131952380Y-79666666D01*
X131619047Y-78952380D01*
X131619047Y-79952380D01*
X131190476Y-79904761D02*
X131047619Y-79952380D01*
X130809523Y-79952380D01*
X130714285Y-79904761D01*
X130666666Y-79857142D01*
X130619047Y-79761904D01*
X130619047Y-79666666D01*
X130666666Y-79571428D01*
X130714285Y-79523809D01*
X130809523Y-79476190D01*
X131000000Y-79428571D01*
X131095238Y-79380952D01*
X131142857Y-79333333D01*
X131190476Y-79238095D01*
X131190476Y-79142857D01*
X131142857Y-79047619D01*
X131095238Y-79000000D01*
X131000000Y-78952380D01*
X130761904Y-78952380D01*
X130619047Y-79000000D01*
X130238095Y-79047619D02*
X130190476Y-79000000D01*
X130095238Y-78952380D01*
X129857142Y-78952380D01*
X129761904Y-79000000D01*
X129714285Y-79047619D01*
X129666666Y-79142857D01*
X129666666Y-79238095D01*
X129714285Y-79380952D01*
X130285714Y-79952380D01*
X129666666Y-79952380D01*
G04 #@! TO.C,JP4*
X132285714Y-56952380D02*
X132285714Y-55952380D01*
X131952380Y-56666666D01*
X131619047Y-55952380D01*
X131619047Y-56952380D01*
X131190476Y-56904761D02*
X131047619Y-56952380D01*
X130809523Y-56952380D01*
X130714285Y-56904761D01*
X130666666Y-56857142D01*
X130619047Y-56761904D01*
X130619047Y-56666666D01*
X130666666Y-56571428D01*
X130714285Y-56523809D01*
X130809523Y-56476190D01*
X131000000Y-56428571D01*
X131095238Y-56380952D01*
X131142857Y-56333333D01*
X131190476Y-56238095D01*
X131190476Y-56142857D01*
X131142857Y-56047619D01*
X131095238Y-56000000D01*
X131000000Y-55952380D01*
X130761904Y-55952380D01*
X130619047Y-56000000D01*
X129666666Y-56952380D02*
X130238095Y-56952380D01*
X129952380Y-56952380D02*
X129952380Y-55952380D01*
X130047619Y-56095238D01*
X130142857Y-56190476D01*
X130238095Y-56238095D01*
G04 #@! TO.C,JP12*
X114238095Y-80404761D02*
X114095238Y-80452380D01*
X113857142Y-80452380D01*
X113761904Y-80404761D01*
X113714285Y-80357142D01*
X113666666Y-80261904D01*
X113666666Y-80166666D01*
X113714285Y-80071428D01*
X113761904Y-80023809D01*
X113857142Y-79976190D01*
X114047619Y-79928571D01*
X114142857Y-79880952D01*
X114190476Y-79833333D01*
X114238095Y-79738095D01*
X114238095Y-79642857D01*
X114190476Y-79547619D01*
X114142857Y-79500000D01*
X114047619Y-79452380D01*
X113809523Y-79452380D01*
X113666666Y-79500000D01*
X113238095Y-79928571D02*
X112904761Y-79928571D01*
X112761904Y-80452380D02*
X113238095Y-80452380D01*
X113238095Y-79452380D01*
X112761904Y-79452380D01*
X111761904Y-80452380D02*
X112095238Y-79976190D01*
X112333333Y-80452380D02*
X112333333Y-79452380D01*
X111952380Y-79452380D01*
X111857142Y-79500000D01*
X111809523Y-79547619D01*
X111761904Y-79642857D01*
X111761904Y-79785714D01*
X111809523Y-79880952D01*
X111857142Y-79928571D01*
X111952380Y-79976190D01*
X112333333Y-79976190D01*
G04 #@! TO.C,JP3*
X114285714Y-62702380D02*
X114285714Y-61702380D01*
X113952380Y-62416666D01*
X113619047Y-61702380D01*
X113619047Y-62702380D01*
X113190476Y-62654761D02*
X113047619Y-62702380D01*
X112809523Y-62702380D01*
X112714285Y-62654761D01*
X112666666Y-62607142D01*
X112619047Y-62511904D01*
X112619047Y-62416666D01*
X112666666Y-62321428D01*
X112714285Y-62273809D01*
X112809523Y-62226190D01*
X113000000Y-62178571D01*
X113095238Y-62130952D01*
X113142857Y-62083333D01*
X113190476Y-61988095D01*
X113190476Y-61892857D01*
X113142857Y-61797619D01*
X113095238Y-61750000D01*
X113000000Y-61702380D01*
X112761904Y-61702380D01*
X112619047Y-61750000D01*
X112238095Y-61797619D02*
X112190476Y-61750000D01*
X112095238Y-61702380D01*
X111857142Y-61702380D01*
X111761904Y-61750000D01*
X111714285Y-61797619D01*
X111666666Y-61892857D01*
X111666666Y-61988095D01*
X111714285Y-62130952D01*
X112285714Y-62702380D01*
X111666666Y-62702380D01*
G04 #@! TO.C,JP5*
X132285714Y-59452380D02*
X132285714Y-58452380D01*
X131952380Y-59166666D01*
X131619047Y-58452380D01*
X131619047Y-59452380D01*
X131190476Y-59404761D02*
X131047619Y-59452380D01*
X130809523Y-59452380D01*
X130714285Y-59404761D01*
X130666666Y-59357142D01*
X130619047Y-59261904D01*
X130619047Y-59166666D01*
X130666666Y-59071428D01*
X130714285Y-59023809D01*
X130809523Y-58976190D01*
X131000000Y-58928571D01*
X131095238Y-58880952D01*
X131142857Y-58833333D01*
X131190476Y-58738095D01*
X131190476Y-58642857D01*
X131142857Y-58547619D01*
X131095238Y-58500000D01*
X131000000Y-58452380D01*
X130761904Y-58452380D01*
X130619047Y-58500000D01*
X130238095Y-58547619D02*
X130190476Y-58500000D01*
X130095238Y-58452380D01*
X129857142Y-58452380D01*
X129761904Y-58500000D01*
X129714285Y-58547619D01*
X129666666Y-58642857D01*
X129666666Y-58738095D01*
X129714285Y-58880952D01*
X130285714Y-59452380D01*
X129666666Y-59452380D01*
G04 #@! TO.C,JP6*
X114285714Y-85702380D02*
X114285714Y-84702380D01*
X113952380Y-85416666D01*
X113619047Y-84702380D01*
X113619047Y-85702380D01*
X113190476Y-85654761D02*
X113047619Y-85702380D01*
X112809523Y-85702380D01*
X112714285Y-85654761D01*
X112666666Y-85607142D01*
X112619047Y-85511904D01*
X112619047Y-85416666D01*
X112666666Y-85321428D01*
X112714285Y-85273809D01*
X112809523Y-85226190D01*
X113000000Y-85178571D01*
X113095238Y-85130952D01*
X113142857Y-85083333D01*
X113190476Y-84988095D01*
X113190476Y-84892857D01*
X113142857Y-84797619D01*
X113095238Y-84750000D01*
X113000000Y-84702380D01*
X112761904Y-84702380D01*
X112619047Y-84750000D01*
X111666666Y-85702380D02*
X112238095Y-85702380D01*
X111952380Y-85702380D02*
X111952380Y-84702380D01*
X112047619Y-84845238D01*
X112142857Y-84940476D01*
X112238095Y-84988095D01*
G04 #@! TO.C,JP7*
X114285714Y-83202380D02*
X114285714Y-82202380D01*
X113952380Y-82916666D01*
X113619047Y-82202380D01*
X113619047Y-83202380D01*
X113190476Y-83154761D02*
X113047619Y-83202380D01*
X112809523Y-83202380D01*
X112714285Y-83154761D01*
X112666666Y-83107142D01*
X112619047Y-83011904D01*
X112619047Y-82916666D01*
X112666666Y-82821428D01*
X112714285Y-82773809D01*
X112809523Y-82726190D01*
X113000000Y-82678571D01*
X113095238Y-82630952D01*
X113142857Y-82583333D01*
X113190476Y-82488095D01*
X113190476Y-82392857D01*
X113142857Y-82297619D01*
X113095238Y-82250000D01*
X113000000Y-82202380D01*
X112761904Y-82202380D01*
X112619047Y-82250000D01*
X112238095Y-82297619D02*
X112190476Y-82250000D01*
X112095238Y-82202380D01*
X111857142Y-82202380D01*
X111761904Y-82250000D01*
X111714285Y-82297619D01*
X111666666Y-82392857D01*
X111666666Y-82488095D01*
X111714285Y-82630952D01*
X112285714Y-83202380D01*
X111666666Y-83202380D01*
G04 #@! TO.C,JP1*
X133273809Y-85507142D02*
X133321428Y-85554761D01*
X133464285Y-85602380D01*
X133559523Y-85602380D01*
X133702380Y-85554761D01*
X133797619Y-85459523D01*
X133845238Y-85364285D01*
X133892857Y-85173809D01*
X133892857Y-85030952D01*
X133845238Y-84840476D01*
X133797619Y-84745238D01*
X133702380Y-84650000D01*
X133559523Y-84602380D01*
X133464285Y-84602380D01*
X133321428Y-84650000D01*
X133273809Y-84697619D01*
X132369047Y-85602380D02*
X132845238Y-85602380D01*
X132845238Y-84602380D01*
X132035714Y-85602380D02*
X132035714Y-84602380D01*
X131464285Y-85602380D02*
X131892857Y-85030952D01*
X131464285Y-84602380D02*
X132035714Y-85173809D01*
X131083333Y-85554761D02*
X130940476Y-85602380D01*
X130702380Y-85602380D01*
X130607142Y-85554761D01*
X130559523Y-85507142D01*
X130511904Y-85411904D01*
X130511904Y-85316666D01*
X130559523Y-85221428D01*
X130607142Y-85173809D01*
X130702380Y-85126190D01*
X130892857Y-85078571D01*
X130988095Y-85030952D01*
X131035714Y-84983333D01*
X131083333Y-84888095D01*
X131083333Y-84792857D01*
X131035714Y-84697619D01*
X130988095Y-84650000D01*
X130892857Y-84602380D01*
X130654761Y-84602380D01*
X130511904Y-84650000D01*
X129892857Y-85126190D02*
X129892857Y-85602380D01*
X130226190Y-84602380D02*
X129892857Y-85126190D01*
X129559523Y-84602380D01*
X129226190Y-85602380D02*
X129226190Y-84602380D01*
X128654761Y-85602380D01*
X128654761Y-84602380D01*
X127607142Y-85507142D02*
X127654761Y-85554761D01*
X127797619Y-85602380D01*
X127892857Y-85602380D01*
X128035714Y-85554761D01*
X128130952Y-85459523D01*
X128178571Y-85364285D01*
X128226190Y-85173809D01*
X128226190Y-85030952D01*
X128178571Y-84840476D01*
X128130952Y-84745238D01*
X128035714Y-84650000D01*
X127892857Y-84602380D01*
X127797619Y-84602380D01*
X127654761Y-84650000D01*
X127607142Y-84697619D01*
D13*
G04 #@! TO.C,C41*
X114653246Y-74984510D02*
X115218932Y-74418825D01*
X114653247Y-74418825D02*
X115218932Y-74984510D01*
G04 #@! TO.C,C39*
X129696753Y-67931175D02*
X129131068Y-67365490D01*
X129696754Y-67365490D02*
X129131068Y-67931175D01*
G04 #@! TO.C,C42*
X112618825Y-54746753D02*
X113184510Y-54181068D01*
X113184510Y-54746754D02*
X112618825Y-54181068D01*
G04 #@! TO.C,JP10*
X118000000Y-56550000D02*
X117400000Y-56550000D01*
X116700000Y-57200000D02*
X116700000Y-60000000D01*
X117400000Y-60650000D02*
X118000000Y-60650000D01*
X118700000Y-60000000D02*
X118700000Y-57200000D01*
X117400000Y-56550000D02*
G75*
G03*
X116700000Y-57250000I0J-700000D01*
G01*
X116700000Y-59950000D02*
G75*
G03*
X117400000Y-60650000I700000J0D01*
G01*
X118700000Y-57250000D02*
G75*
G03*
X118000000Y-56550000I-700000J0D01*
G01*
X118000000Y-60650000D02*
G75*
G03*
X118700000Y-59950000I0J700000D01*
G01*
G04 #@! TO.C,JP2*
X114600000Y-64350000D02*
X114600000Y-64950000D01*
X115250000Y-65650000D02*
X118050000Y-65650000D01*
X118700000Y-64950000D02*
X118700000Y-64350000D01*
X118050000Y-63650000D02*
X115250000Y-63650000D01*
X118000000Y-65650000D02*
G75*
G03*
X118700000Y-64950000I0J700000D01*
G01*
X115300000Y-63650000D02*
G75*
G03*
X114600000Y-64350000I0J-700000D01*
G01*
X118700000Y-64350000D02*
G75*
G03*
X118000000Y-63650000I-700000J0D01*
G01*
X114600000Y-64950000D02*
G75*
G03*
X115300000Y-65650000I700000J0D01*
G01*
G04 #@! TO.C,JP13*
X125450000Y-83150000D02*
X128250000Y-83150000D01*
X128900000Y-82450000D02*
X128900000Y-81850000D01*
X128250000Y-81150000D02*
X125450000Y-81150000D01*
X124800000Y-81850000D02*
X124800000Y-82450000D01*
X124800000Y-82450000D02*
G75*
G03*
X125500000Y-83150000I700000J0D01*
G01*
X125500000Y-81150000D02*
G75*
G03*
X124800000Y-81850000I0J-700000D01*
G01*
X128200000Y-83150000D02*
G75*
G03*
X128900000Y-82450000I0J700000D01*
G01*
X128900000Y-81850000D02*
G75*
G03*
X128200000Y-81150000I-700000J0D01*
G01*
G04 #@! TO.C,JP8*
X126000000Y-78100000D02*
X128800000Y-78100000D01*
X129450000Y-77400000D02*
X129450000Y-76800000D01*
X128800000Y-76100000D02*
X126000000Y-76100000D01*
X125350000Y-76800000D02*
X125350000Y-77400000D01*
X129450000Y-76800000D02*
G75*
G03*
X128750000Y-76100000I-700000J0D01*
G01*
X128750000Y-78100000D02*
G75*
G03*
X129450000Y-77400000I0J700000D01*
G01*
X125350000Y-77400000D02*
G75*
G03*
X126050000Y-78100000I700000J0D01*
G01*
X126050000Y-76100000D02*
G75*
G03*
X125350000Y-76800000I0J-700000D01*
G01*
G04 #@! TO.C,JP11*
X126550000Y-60200000D02*
X125950000Y-60200000D01*
X125950000Y-64300000D02*
X126550000Y-64300000D01*
X125250000Y-60850000D02*
X125250000Y-63650000D01*
X127250000Y-63650000D02*
X127250000Y-60850000D01*
X125950000Y-60200000D02*
G75*
G03*
X125250000Y-60900000I0J-700000D01*
G01*
X125250000Y-63600000D02*
G75*
G03*
X125950000Y-64300000I700000J0D01*
G01*
X127250000Y-60900000D02*
G75*
G03*
X126550000Y-60200000I-700000J0D01*
G01*
X126550000Y-64300000D02*
G75*
G03*
X127250000Y-63600000I0J700000D01*
G01*
G04 #@! TO.C,JP9*
X126000000Y-80600000D02*
X128800000Y-80600000D01*
X129450000Y-79900000D02*
X129450000Y-79300000D01*
X128800000Y-78600000D02*
X126000000Y-78600000D01*
X125350000Y-79300000D02*
X125350000Y-79900000D01*
X126050000Y-78600000D02*
G75*
G03*
X125350000Y-79300000I0J-700000D01*
G01*
X128750000Y-80600000D02*
G75*
G03*
X129450000Y-79900000I0J700000D01*
G01*
X125350000Y-79900000D02*
G75*
G03*
X126050000Y-80600000I700000J0D01*
G01*
X129450000Y-79300000D02*
G75*
G03*
X128750000Y-78600000I-700000J0D01*
G01*
G04 #@! TO.C,JP4*
X129300000Y-56800000D02*
X129300000Y-56200000D01*
X125850000Y-57500000D02*
X128650000Y-57500000D01*
X128650000Y-55500000D02*
X125850000Y-55500000D01*
X125200000Y-56200000D02*
X125200000Y-56800000D01*
X128600000Y-57500000D02*
G75*
G03*
X129300000Y-56800000I0J700000D01*
G01*
X125900000Y-55500000D02*
G75*
G03*
X125200000Y-56200000I0J-700000D01*
G01*
X125200000Y-56800000D02*
G75*
G03*
X125900000Y-57500000I700000J0D01*
G01*
X129300000Y-56200000D02*
G75*
G03*
X128600000Y-55500000I-700000J0D01*
G01*
G04 #@! TO.C,JP12*
X118650000Y-80400000D02*
X118650000Y-79800000D01*
X115200000Y-81100000D02*
X118000000Y-81100000D01*
X118000000Y-79100000D02*
X115200000Y-79100000D01*
X114550000Y-79800000D02*
X114550000Y-80400000D01*
X115250000Y-79100000D02*
G75*
G03*
X114550000Y-79800000I0J-700000D01*
G01*
X118650000Y-79800000D02*
G75*
G03*
X117950000Y-79100000I-700000J0D01*
G01*
X114550000Y-80400000D02*
G75*
G03*
X115250000Y-81100000I700000J0D01*
G01*
X117950000Y-81100000D02*
G75*
G03*
X118650000Y-80400000I0J700000D01*
G01*
G04 #@! TO.C,JP3*
X118050000Y-61150000D02*
X115250000Y-61150000D01*
X114600000Y-61850000D02*
X114600000Y-62450000D01*
X115250000Y-63150000D02*
X118050000Y-63150000D01*
X118700000Y-62450000D02*
X118700000Y-61850000D01*
X118700000Y-61850000D02*
G75*
G03*
X118000000Y-61150000I-700000J0D01*
G01*
X118000000Y-63150000D02*
G75*
G03*
X118700000Y-62450000I0J700000D01*
G01*
X114600000Y-62450000D02*
G75*
G03*
X115300000Y-63150000I700000J0D01*
G01*
X115300000Y-61150000D02*
G75*
G03*
X114600000Y-61850000I0J-700000D01*
G01*
G04 #@! TO.C,JP5*
X129300000Y-59300000D02*
X129300000Y-58700000D01*
X125850000Y-60000000D02*
X128650000Y-60000000D01*
X128650000Y-58000000D02*
X125850000Y-58000000D01*
X125200000Y-58700000D02*
X125200000Y-59300000D01*
X129300000Y-58700000D02*
G75*
G03*
X128600000Y-58000000I-700000J0D01*
G01*
X125200000Y-59300000D02*
G75*
G03*
X125900000Y-60000000I700000J0D01*
G01*
X125900000Y-58000000D02*
G75*
G03*
X125200000Y-58700000I0J-700000D01*
G01*
X128600000Y-60000000D02*
G75*
G03*
X129300000Y-59300000I0J700000D01*
G01*
G04 #@! TO.C,JP6*
X114550000Y-84850000D02*
X114550000Y-85450000D01*
X118650000Y-85450000D02*
X118650000Y-84850000D01*
X115200000Y-86150000D02*
X118000000Y-86150000D01*
X118000000Y-84150000D02*
X115200000Y-84150000D01*
X114550000Y-85450000D02*
G75*
G03*
X115250000Y-86150000I700000J0D01*
G01*
X118650000Y-84850000D02*
G75*
G03*
X117950000Y-84150000I-700000J0D01*
G01*
X117950000Y-86150000D02*
G75*
G03*
X118650000Y-85450000I0J700000D01*
G01*
X115250000Y-84150000D02*
G75*
G03*
X114550000Y-84850000I0J-700000D01*
G01*
G04 #@! TO.C,JP7*
X118650000Y-82950000D02*
X118650000Y-82350000D01*
X118000000Y-81650000D02*
X115200000Y-81650000D01*
X114550000Y-82350000D02*
X114550000Y-82950000D01*
X115200000Y-83650000D02*
X118000000Y-83650000D01*
X118650000Y-82350000D02*
G75*
G03*
X117950000Y-81650000I-700000J0D01*
G01*
X115250000Y-81650000D02*
G75*
G03*
X114550000Y-82350000I0J-700000D01*
G01*
X114550000Y-82950000D02*
G75*
G03*
X115250000Y-83650000I700000J0D01*
G01*
X117950000Y-83650000D02*
G75*
G03*
X118650000Y-82950000I0J700000D01*
G01*
G04 #@! TO.C,JP1*
X126600000Y-83100000D02*
X126000000Y-83100000D01*
X125300000Y-83750000D02*
X125300000Y-86550000D01*
X126000000Y-87200000D02*
X126600000Y-87200000D01*
X127300000Y-86550000D02*
X127300000Y-83750000D01*
X127300000Y-83800000D02*
G75*
G03*
X126600000Y-83100000I-700000J0D01*
G01*
X126600000Y-87200000D02*
G75*
G03*
X127300000Y-86500000I0J700000D01*
G01*
X125300000Y-86500000D02*
G75*
G03*
X126000000Y-87200000I700000J0D01*
G01*
X126000000Y-83100000D02*
G75*
G03*
X125300000Y-83800000I0J-700000D01*
G01*
G04 #@! TD*
M02*
